<?xml version="1.0" standalone="no"?>
<!DOCTYPE svg PUBLIC "-//W3C//DTD SVG 20010904//EN"
 "http://www.w3.org/TR/2001/REC-SVG-20010904/DTD/svg10.dtd">
<svg version="1.0" xmlns="http://www.w3.org/2000/svg"
 width="840.000000pt" height="859.000000pt" viewBox="0 0 840.000000 859.000000"
 preserveAspectRatio="xMidYMid meet">

<g transform="translate(0.000000,859.000000) scale(0.100000,-0.100000)"
fill="#000000" stroke="none">
<path d="M3910 7271 c0 -5 -41 -9 -90 -10 -206 -3 -656 -70 -920 -136 -36 -9
-78 -19 -95 -22 -16 -3 -34 -9 -40 -13 -5 -5 -31 -11 -58 -15 -26 -4 -50 -11
-53 -16 -3 -5 -18 -9 -34 -9 -16 0 -31 -4 -35 -9 -3 -6 -26 -13 -50 -17 -25
-3 -45 -10 -45 -15 0 -5 -8 -9 -17 -9 -10 0 -38 -7 -63 -16 -25 -9 -76 -28
-115 -41 -78 -28 -131 -49 -157 -63 -10 -6 -22 -10 -28 -10 -6 0 -32 -11 -59
-24 -27 -13 -60 -26 -73 -29 -37 -10 -68 -45 -68 -77 0 -16 -4 -31 -9 -34 -5
-3 -11 -23 -14 -43 -3 -21 -13 -69 -22 -108 -9 -38 -23 -104 -31 -145 -8 -41
-19 -97 -25 -125 -39 -197 -79 -450 -99 -625 -5 -47 -14 -125 -19 -175 -14
-117 -13 -698 0 -795 6 -41 14 -109 19 -150 15 -127 30 -224 37 -240 3 -8 9
-35 14 -60 9 -52 30 -141 53 -220 8 -30 18 -66 22 -80 3 -14 9 -34 14 -45 5
-11 16 -47 26 -80 9 -33 21 -64 25 -70 4 -5 10 -27 14 -47 4 -21 11 -38 16
-38 5 0 9 -7 9 -15 0 -8 6 -29 14 -47 8 -18 21 -49 29 -68 68 -157 148 -317
216 -430 11 -19 24 -42 28 -50 14 -30 114 -185 133 -207 11 -13 20 -26 20 -29
0 -5 109 -155 119 -164 3 -3 18 -21 32 -40 27 -36 36 -46 117 -139 134 -154
214 -236 343 -351 46 -41 91 -82 99 -90 8 -9 35 -31 60 -50 43 -34 80 -64 104
-85 6 -5 36 -28 66 -51 140 -104 211 -154 219 -154 5 0 11 -4 13 -8 1 -4 35
-27 73 -51 39 -24 72 -48 73 -53 2 -4 10 -8 17 -8 8 0 20 -6 27 -13 8 -6 23
-17 33 -23 84 -47 140 -77 177 -97 24 -13 52 -28 63 -35 45 -26 148 -72 160
-72 7 0 15 -6 17 -12 5 -15 36 -1 308 139 41 21 77 41 80 44 3 3 21 14 40 25
19 10 37 21 40 24 3 3 48 32 100 65 52 33 97 62 100 65 3 3 28 21 55 40 28 19
52 38 53 42 2 4 8 8 14 8 11 0 72 44 107 77 13 13 27 23 31 23 4 0 18 9 31 21
13 11 37 30 52 42 16 12 44 36 63 52 18 17 59 53 91 80 151 132 249 228 338
331 33 38 71 81 85 95 28 30 40 44 90 109 19 24 45 56 58 70 12 13 22 28 22
32 0 3 6 13 13 20 25 27 67 87 67 96 0 6 4 12 8 14 4 2 30 37 57 78 28 41 52
77 55 80 3 3 10 14 16 25 14 27 71 129 102 185 44 78 109 214 159 330 8 19 21
50 29 68 8 18 14 39 14 47 0 8 5 15 10 15 6 0 10 10 10 23 0 12 6 33 13 47 7
14 21 52 31 85 10 33 22 69 26 80 16 43 40 133 40 149 0 9 4 24 10 34 18 34
75 320 90 457 5 44 13 114 19 155 14 99 14 682 0 790 -6 47 -15 126 -20 175
-13 132 -42 327 -74 500 -9 50 -20 116 -25 148 -6 33 -13 63 -16 69 -3 5 -10
33 -14 61 -5 29 -16 84 -25 122 -9 39 -20 88 -25 110 -27 126 -31 131 -110
161 -25 9 -67 28 -94 40 -28 13 -54 24 -59 24 -5 0 -23 6 -40 14 -39 17 -153
58 -227 81 -30 10 -62 21 -70 25 -9 4 -31 11 -50 15 -19 4 -39 11 -45 15 -5 4
-21 10 -35 13 -14 3 -52 13 -85 22 -63 17 -85 22 -200 50 -114 27 -197 45
-255 55 -30 5 -95 16 -145 25 -49 8 -128 20 -175 25 -47 5 -116 14 -155 19
-38 6 -116 10 -172 11 -57 0 -105 4 -108 10 -8 13 -585 14 -585 1z m710 -169
c74 -5 171 -14 215 -20 44 -6 98 -14 120 -16 56 -7 221 -34 275 -45 25 -6 79
-17 120 -26 41 -8 93 -20 115 -25 22 -5 66 -15 98 -22 31 -7 57 -16 57 -20 0
-4 10 -8 22 -8 21 0 114 -25 153 -41 11 -4 34 -11 52 -14 32 -6 53 -41 53 -87
0 -10 4 -26 9 -36 5 -9 14 -46 21 -82 7 -36 17 -83 21 -105 10 -48 36 -182 48
-245 9 -42 33 -179 50 -280 5 -25 14 -85 20 -135 7 -49 16 -106 21 -125 27
-111 49 -394 56 -708 l6 -263 51 3 52 3 -1 235 c-2 220 -16 493 -29 550 -3 14
-10 57 -15 95 -20 164 -92 585 -131 765 -6 25 -15 75 -22 112 -7 36 -15 70
-19 74 -5 4 -8 19 -8 33 -1 14 -7 49 -14 76 -9 34 -11 53 -4 60 7 7 12 6 15
-2 3 -7 12 -13 21 -13 19 0 107 -32 118 -43 4 -4 14 -7 22 -7 13 0 25 -4 121
-47 42 -19 45 -23 62 -89 10 -38 19 -81 19 -95 0 -14 3 -29 7 -33 5 -4 14 -38
20 -74 7 -37 17 -92 23 -122 28 -142 46 -254 70 -420 6 -47 15 -107 20 -135
27 -156 40 -377 40 -667 l0 -308 -897 -2 -898 -3 40 -35 c51 -45 136 -129 155
-155 8 -11 27 -37 42 -57 41 -53 101 -175 122 -243 10 -33 22 -68 27 -77 5
-10 9 -29 9 -44 0 -14 4 -34 10 -44 9 -17 13 -18 67 -4 32 8 72 19 88 24 17 6
52 13 78 16 26 4 50 11 53 15 3 5 17 9 32 9 42 0 105 41 127 82 24 44 34 48
150 48 50 0 126 5 170 10 44 6 159 15 255 21 96 5 199 13 228 16 30 3 58 1 62
-3 4 -5 4 -29 -1 -54 -4 -25 -13 -72 -20 -105 -6 -33 -15 -64 -20 -69 -5 -6
-9 -18 -9 -29 0 -17 -22 -97 -39 -142 -5 -11 -16 -47 -26 -80 -10 -33 -22 -64
-27 -70 -4 -5 -8 -15 -8 -23 0 -8 -7 -30 -16 -50 -9 -21 -20 -46 -24 -57 -5
-11 -16 -38 -25 -60 -9 -22 -23 -52 -31 -67 -8 -14 -14 -33 -14 -41 0 -9 -3
-17 -8 -19 -8 -4 -72 -133 -72 -147 0 -5 -3 -11 -7 -13 -8 -3 -22 -27 -72
-123 -14 -27 -28 -52 -31 -55 -3 -3 -28 -41 -56 -85 -41 -65 -104 -156 -151
-220 -5 -6 -28 -37 -53 -70 -24 -33 -54 -69 -65 -80 -11 -11 -27 -30 -36 -42
-33 -48 -302 -333 -314 -333 -3 0 -27 -21 -53 -48 -26 -26 -72 -67 -102 -92
-30 -25 -60 -49 -66 -55 -6 -5 -25 -21 -43 -35 -18 -14 -39 -31 -46 -38 -8 -6
-16 -12 -20 -12 -3 0 -16 -10 -28 -23 -12 -13 -37 -32 -54 -42 -18 -11 -33
-23 -33 -27 0 -4 -4 -8 -10 -8 -8 0 -109 -68 -147 -100 -7 -5 -17 -10 -23 -10
-5 0 -10 -4 -10 -8 0 -5 -19 -18 -42 -31 -51 -26 -81 -44 -88 -52 -3 -3 -12
-9 -20 -12 -8 -4 -37 -21 -65 -37 -27 -16 -70 -40 -95 -52 -25 -13 -47 -26
-50 -29 -3 -4 -16 -10 -30 -14 l-25 -7 25 18 c14 10 30 22 35 27 38 30 136 97
145 97 5 0 10 3 10 8 0 4 23 23 50 42 27 19 50 38 50 43 0 4 5 7 11 7 6 0 27
16 47 35 20 19 40 35 44 35 4 0 22 15 42 33 45 41 151 137 194 173 52 45 179
173 262 264 41 46 81 89 88 96 6 7 12 15 12 19 0 3 10 16 23 28 12 12 38 42
57 67 19 25 38 47 42 48 5 2 8 8 8 13 0 6 5 15 10 22 6 7 24 28 40 47 16 19
37 50 47 68 10 17 21 32 25 32 5 0 8 7 8 15 0 8 4 15 9 15 5 0 13 10 17 23 4
12 10 24 14 27 4 3 37 55 74 115 37 61 71 117 76 125 33 54 150 303 150 319 0
6 5 11 10 11 6 0 10 7 10 15 0 13 18 61 40 105 4 9 11 30 14 48 4 17 12 34 17
37 5 4 9 17 9 31 0 13 3 24 8 24 4 0 13 21 20 48 7 26 17 61 22 77 5 17 14 50
20 75 7 25 15 54 20 65 4 11 15 56 25 100 9 44 21 93 26 109 5 16 9 44 9 63 0
30 -2 33 -25 28 -14 -3 -36 -7 -50 -10 -21 -4 -25 -11 -25 -39 0 -18 -7 -55
-15 -82 -8 -27 -15 -61 -15 -76 0 -15 -4 -30 -10 -33 -5 -3 -10 -17 -10 -30 0
-13 -6 -44 -14 -67 -7 -24 -21 -70 -30 -103 -10 -33 -21 -69 -26 -80 -4 -11
-16 -48 -27 -82 -10 -35 -21 -63 -25 -63 -5 0 -8 -7 -8 -16 0 -9 -7 -32 -16
-52 -9 -21 -20 -46 -24 -57 -32 -77 -50 -115 -108 -235 -36 -74 -72 -141 -79
-148 -7 -7 -13 -20 -13 -28 0 -8 -4 -14 -10 -14 -5 0 -10 -5 -10 -10 0 -9 -25
-56 -73 -135 -7 -11 -29 -43 -49 -72 -21 -29 -38 -57 -38 -63 0 -5 -4 -10 -9
-10 -5 0 -12 -8 -15 -18 -4 -10 -14 -27 -24 -38 -9 -10 -26 -32 -36 -49 -27
-42 -121 -158 -226 -279 -72 -83 -382 -386 -394 -386 -3 0 -20 -15 -38 -33
-18 -18 -60 -53 -93 -77 -33 -25 -71 -55 -85 -68 -14 -12 -28 -22 -32 -22 -3
0 -13 -6 -20 -13 -7 -7 -49 -38 -93 -70 -44 -31 -85 -61 -92 -67 -7 -5 -17
-10 -23 -10 -5 0 -10 -3 -10 -8 0 -4 -20 -18 -44 -31 l-43 -24 -39 23 c-22 13
-40 28 -42 32 -2 4 -8 8 -13 8 -6 0 -15 5 -22 10 -7 6 -66 49 -132 96 -66 48
-122 90 -125 93 -3 3 -32 26 -65 51 -33 24 -75 59 -93 77 -18 18 -35 33 -38
33 -7 0 -58 47 -146 133 -44 42 -84 77 -89 77 -5 0 -9 5 -9 10 0 6 -26 36 -58
68 -31 31 -84 89 -117 127 -33 39 -62 72 -65 75 -3 3 -21 25 -40 50 -19 25
-43 54 -53 65 -10 11 -28 36 -40 55 -12 19 -29 44 -39 54 -10 11 -20 28 -24
38 -3 10 -10 18 -15 18 -5 0 -9 5 -9 10 0 6 -17 34 -38 63 -20 29 -42 61 -49
72 -48 79 -73 126 -73 135 0 14 -33 12 -63 -3 l-25 -13 61 -100 c33 -54 64
-100 69 -102 4 -2 8 -8 8 -13 0 -6 5 -15 10 -22 6 -7 36 -48 67 -92 31 -44 60
-82 63 -85 3 -3 21 -25 40 -50 19 -25 45 -55 57 -67 13 -12 23 -25 23 -28 0
-6 44 -56 103 -117 15 -16 27 -30 27 -32 0 -5 192 -196 232 -230 43 -37 150
-132 194 -173 20 -18 38 -33 42 -33 4 0 24 -16 44 -35 20 -19 41 -35 47 -35 6
0 11 -3 11 -7 0 -5 23 -24 50 -43 27 -19 50 -38 50 -42 0 -5 5 -8 10 -8 6 0
54 -32 108 -71 53 -39 86 -68 72 -64 -14 4 -27 10 -30 14 -3 3 -27 18 -55 32
-97 50 -170 92 -173 100 -2 5 -10 9 -17 9 -8 0 -20 6 -27 13 -7 6 -30 21 -50
32 -21 11 -38 23 -38 27 0 5 -5 8 -10 8 -6 0 -16 5 -23 10 -38 32 -139 100
-147 100 -6 0 -10 4 -10 8 0 4 -15 16 -32 27 -18 10 -43 29 -55 42 -12 13 -25
23 -28 23 -4 0 -12 6 -20 13 -7 6 -28 23 -46 37 -18 14 -37 30 -43 35 -6 6
-36 30 -66 55 -30 25 -76 66 -102 92 -26 27 -50 48 -53 48 -12 0 -281 285
-314 333 -9 12 -25 31 -36 42 -11 11 -41 47 -65 80 -25 33 -48 64 -53 70 -35
47 -116 164 -125 181 -12 24 -4 27 93 41 22 3 45 9 50 13 6 4 30 11 55 15 24
4 51 11 60 15 8 4 40 15 70 25 94 29 275 99 278 107 2 4 9 8 16 8 14 0 184 78
196 90 3 3 31 18 63 34 31 16 57 33 57 38 0 5 -9 19 -20 31 -12 12 -23 32 -26
44 -4 13 -10 23 -15 23 -5 0 -9 5 -9 11 0 5 -11 35 -25 64 -13 30 -27 67 -31
82 -3 16 -10 37 -14 48 -5 11 -10 31 -12 45 l-3 25 -20 -25 c-27 -34 -192
-198 -235 -234 -19 -16 -45 -33 -57 -39 -13 -6 -23 -14 -23 -19 0 -4 -6 -8
-14 -8 -8 0 -16 -4 -18 -8 -4 -11 -183 -122 -196 -122 -6 0 -12 -4 -14 -8 -3
-8 -82 -48 -180 -91 -67 -30 -126 -42 -135 -27 -24 37 -45 74 -56 99 -6 15
-15 27 -19 27 -4 0 -8 5 -8 10 0 15 -63 144 -72 148 -5 2 -8 10 -8 19 0 8 -6
27 -14 41 -13 26 -18 36 -50 115 -9 20 -23 52 -31 71 -8 19 -15 40 -15 48 0 8
-4 18 -8 23 -5 6 -17 37 -27 70 -10 33 -21 69 -26 80 -17 45 -39 125 -39 142
0 11 -4 23 -9 29 -5 5 -14 36 -20 69 -7 33 -16 78 -20 100 -10 43 -27 131 -41
210 -55 297 -55 935 0 1250 5 28 14 88 20 135 24 166 42 278 70 420 6 30 16
85 23 122 6 36 15 70 20 74 4 4 7 19 7 33 0 14 9 57 19 95 17 66 20 70 62 89
96 43 108 47 121 47 8 0 18 3 22 7 11 11 99 43 118 43 9 0 18 6 21 13 3 8 8 9
15 2 7 -7 5 -26 -4 -60 -7 -27 -13 -62 -14 -76 0 -14 -3 -29 -7 -33 -4 -4 -14
-40 -21 -79 -7 -40 -17 -90 -22 -112 -15 -69 -51 -266 -80 -430 -45 -252 -78
-526 -79 -642 -1 -50 -5 -83 -11 -83 -20 0 2 -695 25 -805 4 -16 11 -59 16
-95 14 -100 36 -218 54 -295 10 -38 19 -83 22 -100 2 -16 8 -39 13 -50 5 -11
16 -47 25 -80 10 -33 23 -77 31 -98 8 -20 14 -46 14 -57 0 -11 5 -20 10 -20 6
0 10 -11 10 -24 0 -14 5 -28 10 -31 6 -3 10 -13 10 -22 0 -8 7 -31 16 -51 9
-21 22 -52 30 -70 8 -18 14 -39 14 -47 0 -8 4 -15 9 -15 5 0 12 -12 15 -26 4
-14 16 -46 28 -71 18 -39 24 -44 46 -38 34 8 56 32 45 48 -5 7 -16 28 -23 47
-7 19 -24 59 -36 87 -13 29 -27 65 -30 80 -4 16 -10 30 -13 33 -3 3 -14 32
-25 65 -10 33 -22 69 -26 80 -5 11 -16 47 -25 80 -9 33 -20 67 -25 75 -4 9
-11 36 -14 60 -4 25 -11 54 -15 65 -14 33 -41 168 -41 201 0 17 -3 34 -7 38
-9 9 -27 134 -45 311 -15 154 -15 691 0 860 7 72 19 180 27 240 9 61 20 143
25 184 5 41 12 86 15 100 4 14 11 51 16 81 7 51 29 173 49 280 5 25 14 77 20
115 7 39 16 79 21 90 4 11 10 36 12 55 8 58 29 154 38 172 5 10 9 29 9 42 0
44 21 75 54 81 17 3 40 10 51 14 39 16 132 41 153 41 12 0 22 4 22 8 0 4 26
13 58 20 31 7 75 17 97 22 22 5 74 17 115 25 41 9 95 20 120 26 60 13 224 39
280 45 25 3 94 12 153 20 59 8 149 14 200 14 51 0 99 5 107 10 18 12 498 6
700 -8z"/>
<path d="M2899 6236 c-3 -3 -47 -10 -99 -16 -52 -7 -114 -14 -136 -17 l-41 -5
-5 -82 c-3 -45 -10 -91 -16 -102 -5 -10 -18 -46 -28 -79 -10 -33 -21 -64 -25
-70 -4 -5 -10 -26 -14 -45 -4 -19 -11 -41 -16 -50 -4 -8 -24 -60 -44 -115 -20
-55 -43 -116 -52 -135 -26 -62 -45 -105 -54 -122 -18 -36 -11 -38 121 -38
l130 0 0 29 c0 17 5 33 10 36 6 3 10 21 10 38 0 55 10 60 109 65 101 5 91 12
105 -75 4 -18 9 -46 12 -63 l6 -30 262 0 261 0 1 153 c1 169 12 226 52 267 40
41 64 45 80 13 6 -15 12 -34 12 -43 0 -14 38 -60 72 -85 7 -6 48 -28 92 -50
43 -21 81 -45 84 -53 7 -19 -25 -42 -58 -42 -33 0 -132 51 -173 90 l-32 30 -7
-53 c-17 -141 -6 -197 41 -197 9 0 22 -5 29 -12 8 -8 53 -12 130 -12 114 -1
139 4 192 35 8 5 22 12 30 16 21 10 70 65 70 79 0 7 7 14 15 18 8 3 15 0 15
-6 0 -20 90 -99 138 -121 38 -17 67 -21 152 -21 96 1 109 3 155 29 28 15 57
34 66 41 25 22 29 17 29 -31 l0 -45 135 0 135 0 -5 53 c-2 28 -10 127 -16 220
l-11 167 22 20 c13 11 29 20 35 20 31 0 36 -29 38 -254 l2 -226 134 0 133 0
-7 36 c-7 39 -5 39 50 -2 61 -45 190 -54 260 -18 26 14 31 14 41 0 10 -14 46
-16 259 -16 l247 0 -5 33 c-3 17 -11 70 -17 117 -6 47 -15 108 -20 135 -13 72
-33 248 -37 330 -3 39 -9 74 -14 80 -5 5 -9 32 -9 61 0 74 -6 84 -49 84 -20 0
-41 4 -47 9 -5 5 -44 12 -88 16 l-79 7 7 -34 c22 -107 30 -167 67 -503 17
-155 22 -265 12 -265 -12 0 -31 72 -37 145 -14 163 -27 244 -45 280 -40 83
-119 128 -241 139 -75 7 -227 -7 -242 -22 -6 -6 -7 -44 -3 -101 8 -102 12
-105 73 -68 57 36 113 49 151 36 45 -16 38 -35 -16 -49 -92 -23 -163 -67 -218
-131 l-20 -24 -5 115 c-4 63 -12 131 -20 150 -16 40 -52 78 -94 100 -39 20
-140 19 -194 -3 -51 -21 -52 -21 -52 -3 0 21 -23 26 -135 26 l-103 0 8 -37 c4
-21 11 -53 14 -72 l6 -34 -19 22 c-10 12 -29 37 -42 56 -13 18 -30 36 -39 39
-8 3 -22 9 -30 14 -47 27 -67 32 -136 32 -73 0 -174 -25 -174 -42 0 -5 -5 -8
-12 -8 -16 0 -80 -72 -99 -112 -22 -46 -39 -100 -39 -126 0 -21 -25 -31 -32
-13 -4 11 -117 71 -134 71 -8 0 -14 5 -14 10 0 6 -6 10 -13 10 -7 0 -18 5 -25
12 -9 9 -7 14 6 24 30 23 72 16 185 -31 15 -6 17 1 17 83 l0 90 -49 16 c-86
28 -176 19 -283 -27 -16 -7 -28 -16 -28 -20 0 -5 -6 -7 -12 -5 -7 3 -13 13
-13 24 0 17 -7 19 -56 18 -43 -1 -65 -7 -95 -28 -44 -30 -54 -32 -54 -11 0 12
-20 15 -117 15 l-118 0 -1 -229 c-2 -240 -10 -296 -33 -219 -8 24 -20 63 -27
87 -8 25 -14 55 -14 68 0 13 -4 31 -10 41 -5 9 -14 44 -20 77 -6 33 -15 78
-20 100 -5 22 -15 70 -22 107 -7 36 -16 70 -21 74 -4 4 -7 18 -7 31 0 12 -5
43 -12 68 -11 39 -16 45 -38 45 -15 0 -29 -2 -31 -4z m34 -72 c10 -32 19 -74
40 -174 7 -36 16 -72 19 -80 4 -8 9 -31 12 -50 6 -33 28 -135 45 -210 22 -94
34 -136 42 -152 5 -9 12 -35 15 -58 l7 -40 -107 0 -106 0 0 29 c0 15 -4 41 -9
57 -5 16 -12 42 -15 57 l-7 28 -121 -3 -122 -3 -8 -35 c-5 -19 -13 -44 -18
-55 -5 -11 -10 -31 -12 -45 -3 -24 -6 -25 -80 -28 -76 -3 -78 -2 -78 20 0 13
6 32 14 43 7 11 16 33 20 49 4 15 15 47 25 70 11 22 27 66 37 96 10 30 21 60
25 65 4 6 10 27 14 48 4 20 11 37 16 37 5 0 9 8 9 17 0 16 18 74 40 128 12 30
40 151 40 174 0 16 9 20 58 25 31 3 84 9 117 14 77 11 77 11 88 -24z m2842 16
c3 -5 26 -10 49 -10 26 0 48 -6 56 -15 6 -8 16 -49 21 -92 5 -43 13 -116 18
-163 5 -47 14 -114 20 -150 6 -36 11 -90 11 -121 0 -30 4 -59 9 -65 5 -5 12
-44 15 -86 l7 -78 -91 0 -90 0 0 58 c0 31 -5 95 -11 142 -6 47 -14 128 -20
180 -13 133 -37 339 -45 378 -6 29 -4 32 19 32 14 0 29 -4 32 -10z m-1408
-181 c106 -42 137 -72 167 -160 23 -66 21 -88 -11 -100 -16 -6 -36 -15 -45
-20 -10 -5 -23 -9 -29 -9 -6 0 -25 -6 -42 -14 -18 -8 -54 -22 -82 -32 -27 -9
-54 -21 -59 -26 -6 -4 -18 -8 -28 -8 -22 0 -22 -8 -3 -47 23 -47 64 -82 102
-89 47 -9 110 3 144 27 l28 19 21 -22 21 -23 -38 -33 c-21 -19 -50 -36 -66
-39 -15 -3 -30 -10 -33 -14 -7 -12 -150 -11 -172 0 -9 6 -29 12 -44 16 -32 6
-138 106 -138 129 0 9 -3 16 -8 16 -4 0 -13 29 -20 65 -10 52 -10 78 0 130 7
36 16 65 19 65 4 0 9 10 13 23 12 49 118 137 164 137 12 0 24 5 27 10 8 13 77
13 112 -1z m-429 -22 c14 -11 16 -56 2 -77 -7 -12 -12 -12 -22 -2 -19 19 -155
16 -175 -4 -29 -28 -13 -94 23 -94 8 0 14 -4 14 -10 0 -5 6 -10 14 -10 12 0
75 -31 138 -68 35 -20 58 -68 58 -120 0 -90 -49 -146 -161 -181 -66 -21 -219
-8 -266 22 -13 8 -19 117 -7 117 10 0 68 -34 75 -44 4 -5 40 -11 80 -13 63 -4
77 -2 97 15 13 12 22 31 22 49 0 34 -22 52 -115 98 -33 16 -61 33 -63 37 -2 4
-10 8 -17 8 -8 0 -26 16 -41 35 -23 31 -26 42 -22 90 4 47 10 59 44 92 52 51
78 64 139 73 60 8 165 1 183 -13z m-388 -57 l0 -60 -40 0 c-22 0 -40 -4 -40
-10 0 -5 -6 -10 -13 -10 -19 0 -61 -50 -77 -91 -8 -20 -16 -98 -19 -189 l-6
-155 -89 -3 -89 -3 6 107 c4 59 7 180 7 270 l0 163 48 7 c26 4 63 8 82 8 35 1
35 1 38 -46 l3 -46 45 44 c51 49 88 71 122 73 20 1 22 -3 22 -59z m1208 23 c3
-25 8 -33 23 -33 11 0 22 7 25 15 4 8 12 15 20 15 8 0 14 5 14 10 0 6 9 10 19
10 11 0 23 5 26 10 9 15 87 12 126 -4 75 -31 95 -85 104 -276 3 -58 7 -147 10
-198 l5 -93 -88 3 -87 3 -5 222 c-3 122 -7 223 -10 226 -38 34 -90 34 -124 0
l-28 -27 6 -181 c2 -99 6 -193 8 -210 l3 -30 -89 0 -89 0 -4 175 c-2 96 -7
224 -11 283 -4 60 -5 111 -3 113 3 3 37 3 76 2 l70 -3 3 -32z m742 0 c33 -9
60 -20 60 -25 0 -4 5 -8 11 -8 18 0 56 -49 73 -94 8 -23 20 -95 25 -161 6 -66
15 -140 20 -165 20 -92 25 -85 -58 -85 -63 0 -75 3 -85 20 -6 11 -12 22 -13
24 -2 2 -11 -3 -20 -11 -43 -36 -95 -51 -162 -45 -36 3 -67 10 -69 16 -2 6 -9
11 -15 11 -22 0 -67 54 -67 80 0 14 -5 31 -11 37 -8 8 -8 17 0 31 6 11 11 29
11 39 0 37 101 123 145 123 8 0 15 4 15 9 0 5 21 12 48 15 76 11 82 15 82 47
0 48 -41 79 -104 79 -48 0 -104 -14 -134 -34 -17 -11 -18 -9 -26 44 -6 43 -5
47 21 57 44 17 186 15 253 -4z m-920 -325 l-1 -93 -24 30 c-14 17 -25 33 -25
38 0 13 -15 7 -42 -18 -15 -14 -34 -25 -43 -25 -8 0 -15 -4 -15 -10 0 -5 -21
-10 -48 -10 -39 0 -53 5 -81 31 -32 29 -33 31 -15 44 11 8 25 15 32 15 13 0
68 22 104 41 10 5 23 9 29 9 6 0 25 6 42 14 88 39 87 40 87 -66z"/>
<path d="M2767 5963 c-6 -33 -82 -252 -91 -260 -3 -4 -6 -12 -6 -20 0 -10 22
-13 91 -13 l92 0 -7 33 c-3 17 -13 64 -22 102 -8 39 -19 91 -23 118 -9 59 -26
80 -34 40z m28 -195 l6 -58 -36 0 c-30 0 -35 3 -31 18 3 9 8 31 12 47 10 43
25 69 34 59 4 -5 11 -35 15 -66z"/>
<path d="M4243 5902 c-29 -25 -57 -121 -49 -166 7 -39 18 -43 56 -21 14 8 35
14 48 15 12 0 22 4 22 9 0 5 11 12 25 15 15 4 27 16 31 32 8 33 -1 101 -16
119 -18 21 -92 19 -117 -3z m95 -45 c19 -39 7 -62 -41 -81 -24 -9 -46 -16 -50
-16 -4 0 -7 18 -7 40 0 29 7 46 26 65 31 32 54 29 72 -8z"/>
<path d="M5422 5685 c-58 -32 -72 -52 -72 -108 0 -75 22 -92 112 -88 46 2 53
18 50 119 l-3 92 -32 -1 c-18 -1 -42 -7 -55 -14z m48 -61 c15 -40 12 -91 -6
-98 -42 -16 -84 10 -84 51 0 27 41 73 65 73 8 0 20 -12 25 -26z"/>
<path d="M4065 4859 c-44 -5 -89 -13 -100 -18 -11 -5 -33 -12 -50 -16 -39 -8
-235 -105 -235 -116 0 -5 -7 -9 -15 -9 -8 0 -15 -3 -15 -7 0 -5 -29 -30 -64
-58 -36 -27 -71 -61 -80 -75 -8 -14 -26 -37 -40 -52 -14 -15 -26 -32 -26 -38
0 -5 -4 -10 -8 -10 -11 0 -96 -171 -112 -225 -7 -22 -16 -47 -20 -56 -4 -8
-13 -65 -20 -127 -13 -111 -2 -298 19 -355 5 -12 14 -40 21 -62 17 -55 89
-202 106 -216 8 -6 14 -15 14 -19 0 -32 207 -229 270 -257 8 -4 17 -9 20 -12
10 -12 72 -41 86 -41 8 0 14 -4 14 -9 0 -5 14 -13 32 -16 18 -4 39 -11 48 -16
97 -52 493 -52 590 0 9 5 30 12 48 16 18 3 32 11 32 16 0 5 6 9 14 9 13 0 75
29 86 40 7 7 42 28 58 36 25 12 150 128 182 170 8 10 30 38 48 60 17 23 32 47
32 53 0 6 5 11 10 11 6 0 10 6 10 14 0 17 32 80 43 84 4 2 7 11 7 20 0 10 7
30 15 46 8 15 15 38 15 50 0 12 4 26 9 31 5 6 14 60 20 120 11 111 2 290 -18
345 -5 14 -17 51 -27 83 -10 31 -21 57 -24 57 -3 0 -14 23 -25 50 -11 28 -22
50 -26 50 -4 0 -10 11 -13 25 -4 14 -11 25 -16 25 -6 0 -10 6 -10 13 -1 6 -19
30 -40 52 -22 22 -40 45 -40 50 0 6 -30 33 -65 60 -36 28 -65 53 -65 58 0 4
-7 7 -15 7 -8 0 -15 4 -15 8 0 15 -225 122 -257 122 -10 0 -23 4 -28 9 -11 10
-195 32 -258 30 -23 -1 -78 -6 -122 -10z m75 -419 l0 -260 -25 0 c-14 0 -25
-4 -25 -10 0 -5 -7 -10 -15 -10 -8 0 -23 -9 -34 -21 -15 -16 -26 -19 -50 -14
-17 4 -31 11 -31 16 0 5 -6 9 -14 9 -8 0 -21 6 -28 13 -7 6 -29 21 -48 31 -19
11 -37 22 -40 25 -3 3 -29 18 -58 33 -76 39 -116 62 -122 69 -3 4 -15 9 -27
13 -13 4 -23 12 -23 17 0 5 -7 9 -15 9 -8 0 -15 6 -15 14 0 18 162 182 189
191 11 3 21 11 21 16 0 5 6 9 14 9 8 0 16 4 18 9 4 11 112 61 158 73 19 5 49
13 65 18 17 4 47 8 68 9 l37 1 0 -260z m225 250 c79 -17 111 -28 165 -54 61
-29 88 -45 108 -63 7 -7 17 -13 22 -13 11 0 139 -125 163 -160 21 -30 21 -40
2 -40 -8 0 -15 -4 -15 -9 0 -5 -10 -13 -22 -17 -13 -4 -25 -9 -28 -13 -6 -7
-45 -29 -122 -69 -29 -15 -58 -32 -65 -39 -7 -6 -26 -17 -43 -25 -16 -7 -30
-16 -30 -20 0 -5 -6 -8 -14 -8 -8 0 -21 -7 -30 -15 -26 -26 -69 -29 -90 -6
-11 12 -25 21 -33 21 -7 0 -13 5 -13 10 0 6 -11 10 -25 10 l-25 0 0 260 0 260
28 0 c15 -1 45 -5 67 -10z m-740 -483 c11 -7 22 -14 25 -17 3 -3 34 -20 70
-39 36 -19 81 -45 100 -58 19 -13 40 -23 47 -23 7 0 13 -4 13 -10 0 -5 6 -10
13 -10 6 -1 22 -9 34 -19 18 -15 22 -30 24 -97 2 -73 1 -80 -19 -89 -12 -5
-22 -13 -22 -17 0 -5 -5 -8 -10 -8 -6 0 -27 -11 -48 -23 -20 -13 -64 -39 -97
-57 -33 -18 -69 -38 -80 -44 -10 -6 -25 -17 -33 -23 -7 -7 -19 -13 -27 -13 -7
0 -15 -3 -17 -7 -5 -12 -64 -43 -81 -43 -8 0 -20 15 -27 33 -6 17 -19 52 -28
77 -13 36 -17 80 -17 210 0 168 6 206 46 298 l19 42 48 -25 c26 -15 56 -31 67
-38z m1297 16 c38 -93 43 -128 43 -294 0 -103 -4 -175 -11 -190 -7 -13 -17
-43 -24 -65 -18 -62 -26 -71 -47 -58 -10 6 -45 26 -78 44 -33 18 -88 51 -123
72 -34 21 -66 38 -71 38 -5 0 -11 3 -13 8 -1 4 -21 16 -43 27 -22 11 -42 22
-45 25 -3 3 -14 10 -25 16 -17 9 -21 24 -25 89 -5 73 -4 79 19 96 13 11 30 19
37 19 8 0 14 5 14 10 0 6 6 10 14 10 8 0 21 6 28 13 12 11 62 39 153 86 16 9
32 18 35 21 10 10 45 31 63 36 9 4 17 10 17 14 0 9 22 17 51 19 9 1 22 -14 31
-36z m-654 -163 c2 -6 8 -10 14 -10 12 0 38 -26 38 -38 0 -6 5 -12 12 -14 16
-6 15 -121 -1 -126 -6 -2 -11 -10 -11 -18 0 -8 -4 -14 -8 -14 -5 0 -19 -10
-32 -22 -18 -17 -36 -22 -78 -23 -36 0 -57 4 -59 13 -3 6 -9 12 -15 12 -12 0
-38 26 -38 38 0 6 -5 12 -11 14 -6 2 -13 24 -16 48 -5 50 19 106 53 124 10 6
21 14 24 17 17 20 121 20 128 -1z m-208 -339 c10 -12 50 -31 65 -31 13 0 15
-35 15 -260 l0 -260 -33 0 c-32 0 -118 21 -162 39 -11 5 -40 17 -65 27 -25 10
-51 24 -58 31 -7 7 -20 13 -28 13 -8 0 -14 5 -14 10 0 6 -5 10 -10 10 -16 0
-109 85 -172 158 l-28 31 22 21 c12 11 26 20 30 20 5 0 37 18 72 40 35 22 68
40 75 40 6 0 11 5 11 10 0 6 6 10 14 10 8 0 21 6 28 13 15 13 48 32 137 78 44
23 57 26 75 17 11 -6 23 -14 26 -17z m432 -23 c36 -21 71 -38 77 -38 6 0 11
-4 11 -10 0 -5 11 -12 25 -16 14 -3 25 -10 25 -14 0 -4 8 -10 18 -14 17 -5 52
-26 62 -36 3 -3 31 -18 63 -34 31 -16 57 -35 57 -42 0 -25 -116 -148 -172
-182 -16 -9 -28 -19 -28 -23 0 -4 -11 -10 -25 -13 -14 -4 -25 -11 -25 -16 0
-6 -6 -10 -14 -10 -8 0 -27 -6 -43 -14 -75 -37 -170 -66 -220 -66 l-33 0 0
260 c0 225 2 260 15 260 15 0 55 19 65 31 13 15 45 26 59 21 9 -3 46 -22 83
-44z"/>
<path d="M4015 4628 c-142 -49 -263 -123 -335 -204 -38 -43 -50 -32 145 -138
11 -6 22 -14 25 -17 3 -4 15 -9 28 -13 12 -4 22 -12 22 -17 0 -5 5 -9 10 -9 6
0 29 -12 52 -26 22 -14 43 -22 47 -17 3 4 23 17 44 28 l37 20 0 202 0 203 -22
-1 c-13 -1 -36 -6 -53 -11z"/>
<path d="M4320 4437 l0 -202 47 -29 c29 -17 49 -24 51 -17 2 6 8 11 13 11 5 0
26 11 47 23 36 23 57 35 187 107 109 60 106 51 39 116 -62 60 -132 109 -199
138 -22 9 -48 21 -57 26 -10 6 -29 10 -42 10 -14 0 -28 5 -31 10 -3 6 -17 10
-31 10 l-24 0 0 -203z"/>
<path d="M3525 4168 c-38 -118 -44 -275 -16 -390 25 -101 26 -103 64 -79 35
21 82 48 137 77 19 11 40 25 48 32 7 6 20 12 28 12 8 0 14 3 14 8 0 4 14 13
30 20 48 21 60 40 60 87 0 48 -24 81 -67 91 -13 4 -23 10 -23 14 0 4 -8 10
-17 13 -19 6 -95 48 -176 98 -51 31 -75 36 -82 17z"/>
<path d="M4825 4164 c-22 -14 -49 -29 -60 -35 -11 -5 -33 -17 -50 -27 -16 -11
-57 -34 -90 -52 -102 -57 -105 -59 -105 -97 0 -32 2 -35 23 -30 12 3 45 11 72
17 28 6 59 15 70 20 11 5 34 11 50 14 125 22 161 30 171 38 13 10 -13 149 -31
167 -7 6 -24 1 -50 -15z"/>
<path d="M4143 3992 c-58 -70 6 -161 92 -132 57 19 72 90 29 134 -37 36 -91
36 -121 -2z"/>
<path d="M2742 4724 c-55 -27 -100 -78 -127 -141 -13 -30 -18 -33 -59 -33 -60
0 -76 -8 -76 -35 0 -13 -4 -27 -10 -30 -5 -3 -10 -21 -10 -40 0 -19 5 -37 10
-40 6 -3 10 -15 10 -25 0 -26 29 -40 82 -40 41 -1 44 -3 62 -43 24 -51 78
-106 129 -130 31 -14 67 -17 201 -17 90 0 190 3 224 6 67 7 67 7 98 112 11 34
22 62 25 62 4 0 10 12 14 27 3 15 10 30 13 33 4 3 15 21 24 40 25 49 39 70 66
96 12 11 22 26 22 31 0 13 156 163 169 163 5 0 11 7 15 15 5 13 -45 15 -412
15 l-417 -1 -53 -25z"/>
</g>
</svg>
