<?xml version="1.0" standalone="no"?>
<!DOCTYPE svg PUBLIC "-//W3C//DTD SVG 20010904//EN"
 "http://www.w3.org/TR/2001/REC-SVG-20010904/DTD/svg10.dtd">
<svg version="1.0" xmlns="http://www.w3.org/2000/svg"
 width="840.000000pt" height="880.000000pt" viewBox="0 0 840.000000 880.000000"
 preserveAspectRatio="xMidYMid meet">

<g transform="translate(0.000000,880.000000) scale(0.100000,-0.100000)"
fill="#000000" stroke="none">
<path d="M3865 8380 c-315 -28 -654 -99 -945 -197 -901 -304 -1681 -935 -2163
-1751 -484 -817 -659 -1770 -498 -2712 138 -807 527 -1558 1110 -2141 571
-571 1313 -961 2100 -1104 283 -51 374 -59 731 -59 292 0 356 2 499 22 476 65
880 187 1286 390 688 343 1271 884 1658 1540 484 817 659 1770 498 2712 -138
807 -527 1558 -1110 2141 -636 635 -1454 1032 -2361 1144 -148 19 -657 28
-805 15z m764 -165 c849 -98 1622 -460 2234 -1045 655 -627 1059 -1448 1163
-2365 20 -182 23 -585 5 -760 -94 -917 -471 -1716 -1111 -2355 -378 -378 -810
-663 -1300 -858 -324 -129 -674 -214 -1040 -254 -148 -16 -612 -16 -760 0
-771 85 -1445 362 -2035 835 -587 471 -1031 1120 -1253 1832 -79 250 -127 483
-158 750 -20 182 -23 585 -5 760 94 917 471 1716 1111 2355 378 378 810 663
1300 858 331 132 709 223 1041 252 68 5 140 12 159 14 76 9 523 -4 649 -19z"/>
<path d="M4170 7953 c0 -26 -5 -135 -10 -242 -12 -215 -13 -211 51 -211 l37 0
7 146 c5 91 11 142 17 136 5 -5 46 -72 91 -148 l82 -139 41 -3 c40 -3 42 -2
47 30 3 18 9 131 13 251 l7 217 -45 0 -45 0 -7 -46 c-3 -26 -6 -86 -6 -133 0
-47 -4 -91 -8 -97 -4 -7 -42 48 -93 135 l-85 146 -47 3 -47 3 0 -48z"/>
<path d="M3724 7967 c-82 -32 -114 -83 -114 -182 0 -217 59 -310 195 -310 81
0 137 35 168 103 19 44 20 53 8 156 -13 122 -26 159 -67 198 -51 47 -122 61
-190 35z m113 -92 c25 -17 42 -80 49 -183 6 -69 4 -79 -15 -99 -29 -31 -69
-39 -100 -22 -36 20 -48 50 -60 152 -11 93 -5 129 27 153 23 18 73 17 99 -1z"/>
<path d="M3245 7873 c-88 -25 -162 -47 -164 -49 -2 -2 1 -21 7 -43 l12 -39 60
15 c34 9 62 14 64 12 2 -2 27 -89 55 -194 29 -104 53 -191 55 -193 2 -2 22 2
45 8 28 7 41 16 41 28 0 9 -22 98 -49 197 -27 99 -48 182 -46 186 2 3 29 11
60 18 l57 13 -7 36 c-8 41 -13 53 -23 51 -4 -1 -79 -21 -167 -46z"/>
<path d="M5064 7836 c-36 -36 -44 -78 -24 -130 8 -23 5 -27 -33 -48 -64 -35
-90 -81 -84 -147 3 -49 8 -59 42 -88 46 -39 124 -60 176 -45 32 9 36 7 51 -18
11 -19 29 -30 63 -39 26 -7 49 -10 51 -9 1 2 -9 30 -23 62 l-27 58 20 17 c25
20 59 69 68 97 5 17 0 22 -31 32 -33 10 -39 10 -48 -4 -5 -9 -17 -26 -26 -37
-16 -21 -17 -21 -33 11 -40 78 -40 81 9 102 131 56 78 220 -71 220 -39 0 -51
-5 -80 -34z m124 -58 c26 -26 9 -62 -33 -70 -26 -4 -44 44 -25 66 15 19 41 21
58 4z m-76 -239 c15 -34 25 -66 22 -70 -11 -19 -75 -9 -99 16 -31 30 -32 62
-3 92 34 37 51 29 80 -38z"/>
<path d="M2843 7739 c-24 -10 -43 -20 -43 -23 0 -2 18 -43 40 -92 22 -48 37
-90 33 -94 -13 -11 -143 -63 -146 -59 -2 2 -21 43 -43 91 l-39 86 -35 -14
c-19 -8 -39 -19 -43 -23 -8 -8 173 -425 193 -445 8 -8 90 20 90 30 0 2 -18 43
-40 90 -22 48 -40 90 -40 94 0 12 142 72 150 63 4 -4 22 -42 40 -83 18 -41 36
-79 41 -84 7 -8 89 20 89 31 0 6 -193 438 -199 444 -3 4 -25 -2 -48 -12z"/>
<path d="M5741 7385 c-66 -113 -121 -209 -121 -214 0 -4 18 -17 39 -29 l39
-22 52 85 c28 47 55 85 60 85 15 0 130 -72 130 -82 0 -5 -21 -45 -46 -88 -25
-44 -43 -84 -39 -90 3 -6 20 -17 37 -26 25 -13 33 -14 43 -2 8 7 66 103 130
212 89 152 113 201 103 208 -26 18 -70 39 -73 36 -2 -2 -24 -39 -50 -83 -26
-44 -49 -82 -50 -83 -2 -2 -35 15 -74 38 l-71 43 21 36 c12 20 35 59 51 87
l29 52 -34 21 c-19 12 -39 21 -45 21 -5 0 -64 -92 -131 -205z"/>
<path d="M2233 7419 c-67 -33 -113 -103 -113 -169 0 -48 115 -231 170 -270 16
-11 52 -23 79 -27 96 -11 192 65 207 163 5 38 2 54 -25 107 -55 110 -49 107
-136 51 -41 -27 -75 -54 -75 -60 0 -6 9 -23 21 -38 l20 -26 37 25 c34 23 38
24 50 8 6 -9 12 -34 12 -54 0 -29 -7 -43 -31 -63 -43 -37 -75 -34 -118 12 -49
52 -111 160 -111 193 0 18 10 36 31 53 33 28 64 32 103 15 20 -10 31 -8 61 11
20 12 34 27 32 33 -7 21 -90 57 -131 57 -23 0 -60 -9 -83 -21z"/>
<path d="M3875 7246 c-474 -58 -912 -221 -1295 -484 -667 -456 -1117 -1182
-1221 -1969 l-12 -92 -61 -10 c-98 -16 -315 -40 -544 -60 -118 -10 -218 -23
-223 -28 -27 -27 39 -100 127 -139 101 -45 327 -74 569 -74 l113 0 6 -127 c23
-420 121 -786 313 -1165 217 -430 564 -819 968 -1084 366 -240 732 -379 1185
-451 178 -28 633 -25 825 5 624 98 1164 371 1605 812 442 441 713 983 811
1620 31 199 32 599 2 790 -11 69 -19 127 -17 129 1 1 74 -13 161 -33 367 -83
598 -123 648 -110 79 20 -35 94 -306 200 -122 47 -394 135 -513 165 l-45 11
-31 102 c-100 321 -290 675 -508 946 -102 127 -303 326 -432 430 -394 315
-854 517 -1366 601 -165 27 -589 35 -759 15z m2604 -2012 c191 -28 514 -111
841 -216 208 -67 526 -207 489 -215 -30 -7 -259 36 -659 123 -435 95 -517 106
-620 79 -136 -35 -414 -168 -642 -307 -73 -44 -166 -100 -206 -123 -81 -48
-83 -43 23 -60 106 -17 228 -83 412 -221 69 -52 139 -102 155 -110 16 -8 74
-24 128 -34 198 -38 331 -118 360 -218 7 -23 11 -44 9 -46 -2 -2 -38 3 -79 11
-105 21 -340 20 -460 -1 -136 -24 -303 -68 -508 -132 -234 -74 -513 -156 -637
-188 -215 -54 -269 -60 -485 -61 -239 0 -276 5 -785 105 -540 106 -585 113
-730 114 -159 1 -236 -15 -464 -92 -166 -57 -166 -57 -286 -57 -137 1 -228 22
-349 80 -154 76 -295 213 -361 350 -57 121 -53 200 14 239 47 27 141 25 411
-10 190 -25 248 -28 495 -29 335 0 373 5 755 105 l265 68 44 -29 c42 -27 99
-40 86 -19 -12 19 -173 120 -255 159 -202 96 -446 96 -1295 1 -568 -63 -708
-73 -985 -67 -278 6 -402 22 -495 66 -62 29 -114 66 -105 74 3 3 70 11 150 17
469 37 918 108 1270 201 124 32 488 140 745 220 88 28 252 77 365 109 357 101
483 124 651 118 100 -4 124 -8 194 -37 44 -18 145 -71 225 -118 151 -90 216
-132 620 -404 269 -181 380 -243 426 -237 26 3 20 8 -61 52 -109 59 -325 195
-325 204 0 10 40 32 300 162 270 136 468 222 651 285 113 39 300 86 384 98 72
10 226 6 324 -9z"/>
<path d="M5825 4230 c-12 -4 -27 -16 -35 -25 -13 -15 -11 -20 13 -41 32 -27
45 -29 81 -13 33 16 41 39 19 60 -23 22 -53 30 -78 19z"/>
<path d="M6370 4097 c0 -28 -48 -60 -134 -91 -18 -6 -15 -10 20 -31 37 -23 45
-24 145 -18 63 3 145 1 203 -6 54 -7 100 -10 104 -7 12 12 -65 78 -123 106
-58 27 -166 60 -199 60 -9 0 -16 -6 -16 -13z"/>
<path d="M6334 7209 c-55 -16 -193 -175 -215 -248 -22 -73 32 -176 108 -207
47 -20 122 -17 159 5 44 27 153 156 177 210 17 39 18 51 8 96 -14 60 -55 108
-116 136 -43 20 -73 22 -121 8z m123 -111 c37 -34 31 -76 -22 -146 -91 -121
-149 -149 -200 -97 -47 46 -31 95 70 203 50 54 62 62 93 62 23 0 44 -8 59 -22z"/>
<path d="M1862 7142 c-18 -15 -32 -31 -32 -36 0 -6 246 -301 307 -366 11 -13
18 -10 48 20 l35 35 -141 165 c-77 91 -150 175 -162 187 l-22 22 -33 -27z"/>
<path d="M6739 6912 c-164 -283 -239 -415 -239 -420 1 -11 37 -52 47 -52 17 0
467 198 470 207 2 5 -11 23 -29 40 l-33 31 -143 -65 c-79 -36 -145 -63 -147
-61 -2 2 32 62 75 133 44 72 80 134 80 138 0 11 -50 77 -59 77 -3 0 -13 -12
-22 -28z"/>
<path d="M1615 6891 c-33 -16 -185 -167 -185 -185 0 -2 82 -80 182 -171 l183
-167 33 37 33 36 -73 68 c-73 69 -73 69 -54 90 24 27 27 26 141 -6 l95 -27 40
39 c22 21 38 40 36 42 -3 3 -77 24 -182 52 l-40 11 0 49 c2 109 -110 180 -209
132z m104 -107 c12 -15 21 -32 21 -39 0 -16 -72 -105 -85 -105 -5 1 -30 19
-55 40 l-45 40 45 45 c53 54 87 59 119 19z"/>
<path d="M6923 6367 c-111 -73 -203 -135 -203 -139 0 -11 169 -268 176 -268 4
0 22 9 40 21 l34 20 -60 89 c-33 49 -60 94 -60 99 0 6 20 24 44 40 50 35 47
37 107 -58 19 -30 37 -58 40 -64 7 -9 63 15 74 33 3 5 -17 43 -45 84 -27 41
-50 77 -50 80 0 7 91 69 94 64 2 -1 31 -45 65 -96 65 -98 64 -97 114 -58 18
14 14 22 -70 150 -48 75 -90 136 -93 135 -3 0 -96 -60 -207 -132z"/>
<path d="M1286 6470 c-15 -5 -37 -17 -48 -27 -17 -14 -111 -149 -141 -200 -5
-7 68 -61 198 -147 113 -75 208 -136 210 -136 3 0 35 45 71 100 76 114 90 169
60 224 -27 50 -64 71 -122 71 -50 0 -52 1 -70 40 -31 64 -94 94 -158 75z m68
-111 c14 -11 26 -28 26 -36 0 -20 -59 -113 -71 -113 -11 0 -89 50 -89 57 0 11
62 93 78 102 24 14 26 14 56 -10z m185 -116 c25 -31 21 -49 -21 -111 l-29 -43
-37 22 c-65 39 -68 43 -42 81 59 85 92 98 129 51z"/>
<path d="M5386 1514 c-22 -8 -41 -16 -43 -18 -2 -2 17 -61 42 -131 25 -70 45
-131 45 -136 0 -5 -62 38 -138 96 l-138 105 -40 -14 c-23 -8 -38 -19 -36 -27
2 -12 129 -372 153 -436 8 -22 9 -22 54 -7 25 9 45 18 45 20 0 2 -21 60 -46
129 -25 69 -44 130 -42 135 2 5 64 -37 138 -95 139 -108 137 -107 197 -84 l23
8 -41 113 c-22 62 -59 165 -81 228 -22 63 -43 118 -47 121 -3 4 -24 0 -45 -7z"/>
<path d="M2813 1334 c-92 -102 -168 -190 -168 -196 0 -6 17 -17 38 -25 38 -16
38 -16 72 17 l34 33 78 -30 78 -30 3 -51 c3 -44 6 -52 30 -60 15 -6 34 -13 43
-17 18 -7 18 -7 35 381 l6 140 -27 12 c-14 7 -32 12 -40 12 -8 0 -90 -84 -182
-186z m151 -58 c-8 -96 -3 -92 -81 -60 -30 13 -32 17 -21 32 24 34 102 121
105 118 2 -2 0 -42 -3 -90z"/>
<path d="M3331 1363 c-21 -78 -101 -426 -101 -437 0 -8 56 -25 143 -45 78 -19
147 -36 154 -38 9 -4 33 51 33 78 0 3 -45 16 -100 29 -55 13 -104 26 -109 29
-5 4 10 85 35 191 24 102 44 190 44 197 0 10 -57 33 -82 33 -4 0 -12 -17 -17
-37z"/>
<path d="M4705 1325 c-50 -17 -102 -76 -112 -124 -9 -47 21 -223 48 -278 29
-59 107 -99 176 -88 63 9 96 27 129 71 38 49 42 120 15 242 -24 108 -45 142
-104 171 -50 24 -95 26 -152 6z m105 -85 c27 -14 41 -44 56 -115 29 -133 13
-190 -58 -201 -68 -11 -99 47 -115 213 -5 56 -4 63 20 87 27 27 65 33 97 16z"/>
<path d="M3786 1288 c-7 -36 -38 -469 -34 -474 12 -11 233 -23 267 -14 58 15
93 59 99 123 4 46 1 57 -23 85 l-27 32 31 35 c55 63 35 162 -41 198 -19 9 -74
19 -128 22 -52 3 -105 8 -117 11 -17 3 -24 -1 -27 -18z m229 -98 c24 -20 19
-67 -9 -86 -19 -12 -38 -14 -80 -9 -61 8 -64 13 -49 85 l6 33 59 -6 c32 -3 65
-11 73 -17z m-56 -189 c48 -10 61 -23 61 -63 0 -44 -37 -62 -110 -53 -48 6
-60 10 -56 22 3 8 6 35 6 59 0 41 2 44 28 44 15 -1 47 -5 71 -9z"/>
<path d="M4314 1103 c4 -104 9 -216 13 -250 l6 -63 43 0 c23 0 45 3 47 8 3 5
-18 478 -22 490 -1 1 -22 2 -47 2 l-47 0 7 -187z"/>
</g>
</svg>
