<?xml version="1.0" standalone="no"?>
<!DOCTYPE svg PUBLIC "-//W3C//DTD SVG 20010904//EN"
 "http://www.w3.org/TR/2001/REC-SVG-20010904/DTD/svg10.dtd">
<svg version="1.0" xmlns="http://www.w3.org/2000/svg"
 width="840.000000pt" height="859.000000pt" viewBox="0 0 840.000000 859.000000"
 preserveAspectRatio="xMidYMid meet">

<g transform="translate(0.000000,859.000000) scale(0.100000,-0.100000)"
fill="#000000" stroke="none">
<path d="M3770 7671 c0 -5 -30 -12 -67 -15 -109 -8 -167 -17 -178 -27 -5 -5
-24 -9 -42 -9 -18 0 -41 -4 -51 -9 -9 -5 -42 -14 -72 -21 -71 -15 -214 -63
-218 -72 -2 -5 -19 -8 -38 -8 -19 0 -34 -4 -34 -10 0 -5 -13 -10 -30 -10 -16
0 -30 -4 -30 -10 0 -5 -13 -10 -30 -10 -16 0 -30 -4 -30 -10 0 -5 -9 -10 -20
-10 -11 0 -20 -4 -20 -10 0 -5 -9 -10 -19 -10 -11 0 -23 -4 -26 -10 -3 -5 -17
-10 -31 -10 -13 0 -24 -4 -24 -10 0 -5 -6 -10 -14 -10 -17 0 -150 -70 -154
-82 -2 -4 -12 -8 -23 -8 -10 0 -19 -4 -19 -10 0 -5 -9 -10 -20 -10 -11 0 -20
-4 -20 -10 0 -5 -9 -10 -20 -10 -11 0 -20 -4 -20 -10 0 -5 -7 -10 -15 -10 -8
0 -15 -4 -15 -10 0 -5 -9 -10 -20 -10 -11 0 -20 -4 -20 -9 0 -5 -13 -14 -30
-21 -16 -7 -30 -16 -30 -21 0 -5 -9 -9 -19 -9 -11 0 -21 -4 -23 -8 -1 -5 -30
-26 -63 -47 -33 -22 -72 -52 -87 -67 -14 -16 -32 -28 -40 -28 -7 0 -20 -9 -28
-20 -8 -11 -20 -20 -27 -20 -7 0 -13 -4 -13 -8 0 -4 -13 -16 -30 -25 -16 -10
-52 -39 -79 -65 -28 -26 -71 -65 -96 -87 -59 -51 -119 -111 -170 -170 -22 -25
-61 -68 -87 -96 -26 -27 -55 -63 -65 -79 -9 -17 -21 -30 -25 -30 -4 0 -8 -6
-8 -13 0 -7 -9 -19 -20 -27 -11 -8 -20 -20 -20 -28 0 -7 -16 -28 -35 -48 -19
-19 -35 -39 -35 -44 0 -5 -6 -15 -13 -22 -20 -21 -67 -97 -67 -108 0 -5 -4
-10 -9 -10 -5 0 -14 -13 -21 -30 -7 -16 -16 -30 -21 -30 -5 0 -9 -9 -9 -20 0
-11 -4 -20 -10 -20 -5 0 -10 -9 -10 -20 0 -11 -4 -20 -10 -20 -5 0 -10 -7 -10
-15 0 -8 -4 -15 -10 -15 -5 0 -10 -9 -10 -20 0 -11 -4 -20 -10 -20 -5 0 -10
-9 -10 -19 0 -11 -4 -21 -8 -23 -12 -4 -82 -137 -82 -154 0 -8 -4 -14 -10 -14
-5 0 -10 -11 -10 -24 0 -14 -4 -28 -10 -31 -5 -3 -10 -15 -10 -26 0 -10 -4
-19 -10 -19 -5 0 -10 -9 -10 -20 0 -11 -4 -20 -10 -20 -5 0 -10 -13 -10 -30 0
-16 -4 -30 -10 -30 -5 0 -10 -13 -10 -30 0 -16 -4 -30 -10 -30 -5 0 -10 -15
-10 -34 0 -19 -3 -36 -7 -38 -10 -4 -58 -147 -73 -218 -7 -30 -16 -63 -21 -72
-5 -10 -9 -33 -9 -51 0 -18 -4 -37 -9 -42 -10 -11 -19 -69 -27 -177 -3 -38
-10 -68 -15 -68 -13 0 -12 -847 1 -855 6 -3 10 -37 10 -76 0 -39 4 -69 10 -69
6 0 10 -24 10 -54 0 -30 5 -58 10 -61 6 -3 10 -22 10 -41 0 -19 4 -42 9 -52 5
-9 14 -42 21 -72 15 -71 63 -214 73 -218 4 -2 7 -19 7 -38 0 -19 5 -34 10 -34
6 0 10 -13 10 -30 0 -16 5 -30 10 -30 6 0 10 -13 10 -30 0 -16 5 -30 10 -30 6
0 10 -9 10 -20 0 -11 5 -20 10 -20 6 0 10 -9 10 -19 0 -11 5 -23 10 -26 6 -3
10 -17 10 -31 0 -13 5 -24 10 -24 6 0 10 -6 10 -14 0 -17 70 -150 82 -154 4
-2 8 -12 8 -23 0 -10 5 -19 10 -19 6 0 10 -9 10 -20 0 -11 5 -20 10 -20 6 0
10 -7 10 -15 0 -8 5 -15 10 -15 6 0 10 -9 10 -20 0 -11 5 -20 10 -20 6 0 10
-9 10 -20 0 -11 4 -20 9 -20 5 0 14 -13 21 -30 7 -16 16 -30 21 -30 5 0 9 -5
9 -10 0 -11 47 -87 67 -108 7 -7 13 -17 13 -22 0 -5 16 -25 35 -44 19 -20 35
-41 35 -48 0 -8 9 -20 20 -28 11 -8 20 -20 20 -27 0 -7 4 -13 8 -13 4 0 16
-13 25 -30 10 -16 39 -52 65 -79 26 -28 65 -71 87 -96 51 -59 111 -119 170
-170 25 -22 68 -61 96 -87 27 -26 63 -55 79 -65 17 -9 30 -21 30 -25 0 -4 6
-8 13 -8 7 0 19 -9 27 -20 8 -11 21 -20 28 -20 8 0 26 -12 40 -28 15 -15 54
-45 87 -67 33 -21 62 -42 63 -47 2 -4 12 -8 23 -8 10 0 19 -4 19 -9 0 -5 13
-14 30 -21 17 -7 30 -16 30 -21 0 -5 9 -9 20 -9 11 0 20 -4 20 -10 0 -5 7 -10
15 -10 8 0 15 -4 15 -10 0 -5 9 -10 20 -10 11 0 20 -4 20 -10 0 -5 9 -10 20
-10 11 0 20 -4 20 -10 0 -5 9 -10 19 -10 11 0 21 -4 23 -9 4 -12 136 -81 154
-81 8 0 14 -4 14 -10 0 -5 9 -10 19 -10 11 0 23 -4 26 -10 3 -5 17 -10 31 -10
13 0 24 -4 24 -10 0 -5 9 -10 20 -10 11 0 20 -4 20 -10 0 -5 14 -10 30 -10 17
0 30 -4 30 -10 0 -5 14 -10 30 -10 17 0 30 -4 30 -10 0 -5 11 -10 25 -10 14 0
25 -4 25 -10 0 -5 9 -10 21 -10 11 0 70 -16 132 -36 164 -52 170 -54 208 -54
19 0 39 -4 44 -9 10 -10 67 -18 175 -27 36 -3 69 -10 75 -15 13 -13 865 -12
865 1 0 6 32 10 75 10 43 0 75 4 75 10 0 6 20 10 44 10 25 0 48 5 51 10 3 6
22 10 41 10 19 0 42 4 52 9 9 5 44 15 77 22 33 7 89 23 125 36 36 13 75 23 87
23 13 0 23 5 23 10 0 6 11 10 25 10 14 0 25 5 25 10 0 6 14 10 30 10 17 0 30
5 30 10 0 6 14 10 30 10 17 0 30 5 30 10 0 6 9 10 20 10 11 0 20 5 20 10 0 6
14 10 30 10 17 0 30 5 30 10 0 6 7 10 15 10 8 0 30 9 50 20 20 11 42 20 50 20
8 0 15 3 15 8 0 4 27 20 60 37 33 16 60 33 60 37 0 4 11 8 25 8 14 0 25 5 25
10 0 6 8 10 18 10 10 0 24 9 32 20 8 11 22 20 32 20 10 0 18 5 18 10 0 6 8 10
18 10 10 0 24 9 32 20 8 11 22 20 31 20 10 0 19 4 21 8 2 5 30 26 63 47 33 22
72 52 87 67 14 16 32 28 40 28 7 0 20 9 28 20 8 11 20 20 27 20 7 0 13 4 13 8
0 4 13 16 30 25 16 10 52 39 79 65 28 26 71 65 96 87 58 50 115 107 180 180
28 31 64 70 80 88 17 18 41 48 55 67 27 38 48 65 68 85 6 8 12 19 12 25 0 7
12 24 28 38 15 15 45 54 67 87 21 33 42 62 47 63 4 2 8 11 8 21 0 9 9 23 20
31 11 8 20 22 20 32 0 10 5 18 10 18 6 0 10 8 10 18 0 10 9 24 20 32 11 8 20
22 20 32 0 10 5 18 10 18 6 0 10 11 10 25 0 14 4 25 8 25 4 0 21 27 37 60 17
33 33 60 38 60 4 0 7 7 7 15 0 8 9 30 20 50 11 20 20 42 20 50 0 8 5 15 10 15
6 0 10 14 10 30 0 17 5 30 10 30 6 0 10 9 10 20 0 11 5 20 10 20 6 0 10 14 10
30 0 17 5 30 10 30 6 0 10 14 10 30 0 17 5 30 10 30 6 0 10 11 10 25 0 14 5
25 10 25 6 0 10 14 10 30 0 17 5 30 10 30 6 0 10 9 10 20 0 11 10 49 21 83 22
64 33 105 50 192 25 128 31 164 36 225 2 36 9 69 14 75 12 12 12 865 0 865 -5
0 -12 30 -15 68 -8 108 -17 166 -27 176 -5 6 -9 27 -9 47 0 21 -4 41 -10 44
-5 3 -10 21 -10 38 0 18 -11 64 -25 102 -13 39 -25 80 -25 93 0 12 -4 22 -10
22 -5 0 -10 14 -10 30 0 17 -4 30 -10 30 -5 0 -10 14 -10 30 0 17 -4 30 -10
30 -5 0 -10 11 -10 25 0 14 -4 25 -10 25 -5 0 -10 14 -10 30 0 17 -4 30 -10
30 -5 0 -10 9 -10 20 0 11 -4 20 -10 20 -5 0 -10 14 -10 30 0 17 -4 30 -10 30
-5 0 -10 7 -10 15 0 8 -9 30 -20 50 -11 20 -20 42 -20 50 0 8 -3 15 -7 15 -5
0 -21 28 -38 63 -16 34 -33 64 -37 65 -5 2 -8 12 -8 23 0 10 -4 19 -10 19 -5
0 -10 8 -10 18 0 10 -9 24 -20 32 -11 8 -20 22 -20 32 0 10 -4 18 -10 18 -5 0
-10 8 -10 18 0 10 -9 24 -20 32 -11 8 -20 22 -20 31 0 10 -4 19 -8 21 -5 2
-26 30 -47 63 -22 33 -52 72 -67 87 -16 14 -28 32 -28 40 0 7 -9 20 -20 28
-11 8 -20 20 -20 27 0 7 -4 13 -8 13 -4 0 -16 13 -25 29 -10 17 -34 48 -55 70
-20 22 -59 66 -87 97 -63 70 -119 126 -189 189 -31 28 -75 67 -97 87 -22 21
-53 45 -70 55 -16 9 -29 21 -29 25 0 4 -6 8 -13 8 -7 0 -19 9 -27 20 -8 11
-21 20 -28 20 -8 0 -26 12 -40 28 -15 15 -54 45 -87 67 -33 21 -61 42 -63 47
-2 4 -11 8 -21 8 -9 0 -23 9 -31 20 -8 11 -22 20 -32 20 -10 0 -18 5 -18 10 0
6 -9 10 -20 10 -11 0 -20 5 -20 10 0 6 -7 10 -15 10 -8 0 -15 5 -15 10 0 6 -9
10 -20 10 -11 0 -20 5 -20 10 0 6 -9 10 -20 10 -11 0 -20 4 -20 8 0 4 -27 21
-60 37 -33 17 -60 33 -60 38 0 4 -6 7 -14 7 -12 0 -44 14 -118 51 -10 5 -27 9
-38 9 -11 0 -20 5 -20 10 0 6 -9 10 -20 10 -11 0 -20 5 -20 10 0 6 -13 10 -30
10 -16 0 -30 5 -30 10 0 6 -13 10 -30 10 -16 0 -30 5 -30 10 0 6 -15 10 -34
10 -19 0 -36 3 -38 8 -1 4 -43 20 -93 36 -49 16 -98 32 -107 37 -10 5 -33 9
-52 9 -19 0 -38 5 -41 10 -3 6 -23 10 -44 10 -20 0 -41 4 -46 9 -11 10 -71 19
-180 27 -38 3 -74 10 -80 15 -12 12 -855 12 -855 0z m520 -421 l0 -260 109 0
109 0 1 -79 1 -78 -111 -7 c-61 -4 -158 -4 -215 0 l-104 7 0 338 0 339 105 0
105 0 0 -260z m-486 224 c3 -9 6 -26 6 -39 0 -13 5 -27 10 -30 6 -3 10 -16 10
-29 0 -20 -9 -25 -69 -39 -38 -10 -76 -17 -85 -17 -9 0 -16 -4 -16 -10 0 -5
-9 -10 -20 -10 -16 0 -20 -7 -20 -30 0 -16 5 -30 10 -30 6 0 10 -7 10 -15 0
-19 27 -19 93 -1 29 8 67 17 85 20 29 5 32 3 32 -19 0 -14 5 -25 10 -25 6 0
10 -24 10 -53 l0 -53 -45 -12 c-25 -7 -64 -12 -88 -12 -23 0 -51 -7 -61 -15
-18 -13 -18 -18 -6 -57 7 -24 14 -48 16 -55 3 -13 87 -9 134 7 14 5 40 11 58
14 27 5 32 3 32 -14 0 -11 5 -20 10 -20 6 0 10 -25 10 -55 0 -54 0 -55 -30
-55 -16 0 -30 -4 -30 -10 0 -5 -18 -10 -40 -10 -22 0 -40 -4 -40 -10 0 -5 -25
-10 -55 -10 -30 0 -55 -4 -55 -10 0 -6 -27 -10 -60 -10 -33 0 -60 -4 -60 -10
0 -5 -13 -10 -30 -10 -28 0 -30 2 -30 40 0 22 -4 40 -9 40 -5 0 -11 21 -14 48
-3 26 -10 70 -16 97 -5 28 -14 73 -20 100 -5 28 -18 82 -27 120 -9 39 -19 94
-21 123 -3 28 -9 52 -14 52 -5 0 -9 13 -9 29 0 27 3 29 63 40 127 24 212 43
227 52 8 4 43 8 76 8 48 1 63 -3 68 -15z m1196 -64 c0 -5 9 -10 20 -10 11 0
20 -4 20 -10 0 -5 7 -10 15 -10 20 0 85 -65 85 -85 0 -8 5 -15 10 -15 6 0 10
-22 10 -50 l0 -50 -54 0 c-70 0 -86 7 -86 36 0 13 -4 24 -10 24 -5 0 -10 9
-10 20 0 17 -7 20 -40 20 -33 0 -41 -4 -45 -23 -3 -12 1 -35 9 -51 16 -32 81
-96 96 -96 17 0 60 -47 60 -65 0 -8 5 -15 10 -15 6 0 10 -35 10 -85 0 -50 -4
-85 -10 -85 -5 0 -10 -7 -10 -15 0 -20 -65 -85 -85 -85 -8 0 -15 -4 -15 -10 0
-6 -42 -10 -105 -10 -63 0 -105 4 -105 10 0 6 -9 10 -20 10 -11 0 -20 5 -20
10 0 6 -7 10 -16 10 -8 0 -22 6 -29 14 -19 18 -75 130 -75 148 0 8 24 21 62
32 l61 18 18 -23 c10 -13 19 -30 19 -36 0 -7 5 -13 10 -13 6 0 10 -9 10 -20 0
-16 7 -20 35 -20 38 0 75 25 75 51 0 19 -52 79 -69 79 -15 0 -81 66 -81 80 0
5 -3 10 -7 10 -5 0 -14 12 -20 27 -15 32 -17 173 -3 173 6 0 10 7 10 15 0 20
65 85 84 85 8 0 18 5 21 10 3 6 42 10 86 10 46 0 79 -4 79 -10z m-1892 -115
c7 -14 12 -32 12 -40 0 -8 5 -15 10 -15 6 0 10 -9 10 -20 0 -11 5 -20 10 -20
6 0 10 -11 10 -25 0 -14 5 -25 10 -25 6 0 10 -9 10 -20 0 -11 5 -20 10 -20 6
0 10 -9 10 -20 0 -11 5 -20 10 -20 6 0 10 -9 10 -20 0 -11 5 -20 10 -20 6 0
10 -6 10 -14 0 -7 20 -53 45 -100 25 -48 45 -94 45 -102 0 -8 5 -14 10 -14 6
0 10 -9 10 -20 0 -11 5 -20 10 -20 6 0 10 -11 10 -24 0 -13 6 -27 13 -29 6 -3
2 -6 -10 -6 -13 -1 -23 -5 -23 -11 0 -5 -9 -10 -20 -10 -11 0 -20 -4 -20 -10
0 -5 -6 -10 -13 -10 -7 0 -33 -10 -57 -21 -49 -24 -73 -18 -78 20 -2 11 -8 21
-13 21 -5 0 -9 9 -9 20 0 11 -4 20 -10 20 -5 0 -10 9 -10 20 0 11 -4 20 -10
20 -5 0 -10 9 -10 20 0 11 -4 20 -10 20 -5 0 -10 8 -10 19 0 32 -22 42 -66 28
-45 -13 -64 -29 -64 -51 0 -15 18 -54 30 -66 12 -12 30 -51 30 -65 0 -8 5 -15
10 -15 6 0 10 -9 10 -19 0 -11 4 -21 8 -23 5 -1 12 -15 16 -30 5 -21 3 -28 -9
-28 -8 0 -15 -3 -15 -7 0 -9 -49 -33 -67 -33 -7 0 -13 -4 -13 -10 0 -5 -9 -10
-20 -10 -11 0 -20 -4 -20 -10 0 -18 -31 -10 -55 15 -14 13 -25 31 -25 40 0 8
-4 15 -10 15 -5 0 -10 9 -10 19 0 11 -4 23 -10 26 -5 3 -10 17 -10 31 0 13 -4
24 -10 24 -5 0 -10 6 -10 13 0 15 -92 201 -102 205 -5 2 -8 12 -8 23 0 10 -4
19 -10 19 -5 0 -10 9 -10 20 0 11 -4 20 -10 20 -5 0 -10 14 -10 30 0 17 -4 30
-10 30 -5 0 -10 9 -10 20 0 11 -4 20 -10 20 -15 0 -12 29 4 46 8 8 22 14 30
14 9 0 16 5 16 10 0 6 9 10 20 10 11 0 20 5 20 10 0 6 9 10 19 10 11 0 23 5
26 10 3 6 16 10 28 10 18 0 31 -20 72 -105 28 -57 56 -105 64 -105 18 0 111
51 111 62 0 4 -4 8 -10 8 -5 0 -10 9 -10 20 0 11 -3 20 -8 20 -4 0 -16 20 -27
45 -11 25 -23 45 -27 45 -5 0 -8 9 -8 20 0 11 -4 20 -10 20 -5 0 -10 7 -10 16
0 18 23 44 39 44 6 0 11 5 11 10 0 6 9 10 20 10 11 0 20 5 20 10 0 6 14 10 30
10 17 0 30 5 30 10 0 6 13 10 28 10 21 0 32 -7 40 -25z m2489 -90 c58 -30 112
-55 119 -55 8 0 14 -4 14 -10 0 -5 9 -10 20 -10 11 0 20 -4 20 -10 0 -5 9 -10
20 -10 11 0 20 -4 20 -10 0 -5 9 -10 20 -10 17 0 20 -7 20 -40 0 -22 -4 -40
-10 -40 -5 0 -10 -7 -10 -15 0 -22 -51 -73 -57 -57 -3 6 -13 12 -24 12 -10 0
-19 5 -19 10 0 6 -9 10 -20 10 -11 0 -20 5 -20 10 0 6 -9 10 -19 10 -11 0 -23
5 -26 10 -3 6 -19 10 -36 10 -22 0 -29 -5 -29 -19 0 -11 -4 -23 -10 -26 -21
-13 -8 -32 43 -58 28 -15 58 -27 65 -27 6 0 12 -4 12 -10 0 -5 9 -10 20 -10
17 0 20 -7 20 -40 0 -22 -4 -40 -8 -40 -5 0 -17 -18 -27 -40 -16 -36 -45 -55
-45 -30 0 6 -7 10 -15 10 -9 0 -25 9 -37 20 -12 11 -30 20 -40 20 -10 0 -18 5
-18 10 0 6 -9 10 -19 10 -11 0 -21 6 -23 12 -4 10 -8 9 -19 -2 -20 -22 -49
-76 -49 -92 0 -21 37 -48 65 -48 14 0 25 -4 25 -10 0 -5 9 -10 20 -10 11 0 20
-4 20 -10 0 -5 7 -10 16 -10 8 0 22 -6 30 -14 16 -17 19 -46 4 -46 -5 0 -10
-9 -10 -20 0 -11 -4 -20 -10 -20 -5 0 -10 -7 -10 -16 0 -22 -32 -53 -38 -36
-2 6 -17 12 -33 12 -16 0 -29 5 -29 10 0 6 -9 10 -20 10 -11 0 -20 5 -20 10 0
6 -9 10 -20 10 -11 0 -20 5 -20 10 0 6 -9 10 -20 10 -11 0 -20 5 -20 10 0 6
-11 10 -25 10 -14 0 -25 4 -25 9 0 5 -13 14 -30 21 -16 7 -30 16 -30 20 0 4
-18 15 -40 25 -39 17 -51 37 -30 50 6 3 10 15 10 26 0 10 5 19 10 19 6 0 10 9
10 20 0 11 5 20 10 20 6 0 10 9 10 20 0 11 5 20 10 20 6 0 10 9 10 20 0 11 5
20 10 20 6 0 10 9 10 20 0 11 5 20 10 20 6 0 10 6 10 14 0 12 64 140 111 224
11 18 19 40 19 48 0 8 5 14 10 14 6 0 10 7 10 15 0 13 37 62 48 64 2 1 51 -24
109 -54z m-3167 -449 l0 -84 -74 5 c-77 6 -136 -9 -136 -34 0 -7 -4 -13 -10
-13 -5 0 -10 -9 -10 -20 0 -11 -4 -20 -10 -20 -6 0 -10 -27 -10 -60 0 -33 4
-60 10 -60 6 0 10 -8 10 -18 0 -24 82 -112 104 -112 9 0 16 -3 16 -7 0 -14 53
-33 92 -33 21 0 38 5 38 10 0 6 5 10 10 10 17 0 60 47 60 65 0 8 5 15 10 15 6
0 10 30 10 71 0 85 11 99 74 99 25 0 46 5 46 10 0 6 5 10 10 10 6 0 10 -55 10
-145 0 -90 -4 -145 -10 -145 -5 0 -10 -9 -10 -20 0 -11 -3 -20 -8 -20 -4 0
-14 -11 -22 -24 -20 -31 -119 -106 -142 -106 -10 0 -18 -4 -18 -10 0 -5 -18
-10 -40 -10 -22 0 -40 -4 -40 -10 0 -5 -22 -10 -50 -10 -27 0 -50 5 -50 10 0
6 -14 10 -30 10 -29 0 -78 20 -104 41 -47 40 -60 49 -65 49 -4 0 -15 13 -24
30 -10 16 -24 35 -31 43 -28 28 -66 117 -66 156 0 22 -5 41 -12 44 -10 4 -10
7 0 18 6 7 12 32 12 54 0 30 10 58 38 103 43 71 97 132 118 132 8 0 14 5 14
10 0 6 9 10 20 10 11 0 20 5 20 10 0 6 14 10 30 10 17 0 30 5 30 10 0 6 38 10
95 10 l95 0 0 -84z m3911 -49 c-6 -6 -11 -24 -11 -39 0 -15 -4 -28 -10 -28 -5
0 -10 -11 -10 -25 0 -24 -3 -33 -28 -82 -7 -13 -12 -36 -12 -53 0 -16 -4 -30
-10 -30 -5 0 -10 -13 -10 -30 0 -16 -4 -30 -10 -30 -5 0 -10 -8 -10 -17 0 -10
-14 -56 -31 -103 -17 -47 -33 -97 -36 -112 -3 -16 -9 -28 -14 -28 -5 0 -9 -13
-9 -30 0 -16 -4 -30 -10 -30 -5 0 -10 -13 -10 -30 0 -20 -5 -30 -15 -30 -8 0
-15 5 -15 10 0 6 -6 10 -13 10 -7 0 -19 9 -27 20 -8 11 -20 20 -28 20 -18 0
-42 25 -42 44 0 9 -4 16 -10 16 -5 0 -10 18 -10 39 0 22 5 43 10 46 6 3 10 19
10 35 0 15 6 30 13 33 7 2 -7 22 -36 49 -45 43 -50 45 -77 35 -17 -6 -30 -15
-30 -19 0 -4 -9 -8 -20 -8 -11 0 -20 -4 -20 -10 0 -5 -16 -10 -35 -10 -27 0
-44 8 -70 35 -19 19 -35 39 -35 44 0 5 -6 12 -12 14 -7 3 -3 6 10 6 12 1 22 6
22 11 0 6 9 10 20 10 11 0 20 5 20 10 0 6 9 10 19 10 11 0 21 4 23 8 4 11 98
62 114 62 8 0 14 5 14 10 0 6 9 10 20 10 11 0 20 5 20 10 0 6 9 10 20 10 11 0
20 5 20 10 0 6 9 10 20 10 11 0 20 5 20 10 0 6 7 10 15 10 8 0 15 5 15 10 0 6
9 10 20 10 11 0 20 5 20 10 0 6 9 10 20 10 11 0 20 5 20 10 0 6 9 10 20 10 11
0 20 5 20 10 0 6 9 10 19 10 11 0 21 4 23 9 2 5 32 23 68 40 l65 31 3 -26 c2
-15 -1 -31 -7 -37z m-1836 -13 c39 -3 74 -10 79 -15 6 -5 34 -9 62 -9 29 0 56
-4 59 -10 3 -5 24 -10 46 -10 21 0 39 -4 39 -10 0 -5 18 -10 40 -10 22 0 40
-4 40 -10 0 -5 16 -10 35 -10 19 0 35 -4 35 -10 0 -5 14 -10 30 -10 17 0 30
-4 30 -10 0 -5 14 -10 30 -10 17 0 30 -4 30 -8 0 -4 21 -14 48 -21 26 -8 49
-17 52 -20 9 -11 120 -61 135 -61 8 0 15 -4 15 -8 0 -5 21 -20 48 -33 26 -13
49 -27 50 -31 2 -5 12 -8 23 -8 10 0 19 -4 19 -10 0 -5 7 -10 15 -10 8 0 15
-4 15 -10 0 -5 8 -10 18 -10 10 0 24 -9 32 -20 8 -11 20 -20 28 -20 7 0 23
-10 36 -22 13 -13 36 -32 51 -43 16 -11 34 -26 41 -32 7 -7 17 -13 22 -13 6 0
33 -22 61 -50 28 -27 52 -50 54 -50 4 0 177 -173 177 -177 0 -2 23 -26 50 -54
28 -28 50 -55 50 -61 0 -5 13 -23 30 -41 16 -18 30 -35 30 -39 0 -4 11 -18 25
-32 14 -14 25 -31 25 -38 0 -8 9 -20 20 -28 11 -8 20 -22 20 -32 0 -10 5 -18
10 -18 6 0 10 -7 10 -15 0 -8 5 -15 10 -15 6 0 10 -9 10 -20 0 -11 3 -20 8
-20 4 0 18 -23 31 -50 14 -28 29 -50 33 -50 4 0 8 -6 8 -13 0 -7 11 -37 25
-65 14 -29 25 -56 25 -62 0 -5 5 -10 10 -10 6 0 10 -9 10 -20 0 -11 5 -20 10
-20 6 0 10 -13 10 -30 0 -16 5 -30 10 -30 6 0 10 -13 10 -30 0 -16 5 -30 10
-30 6 0 10 -13 10 -30 0 -16 5 -30 10 -30 6 0 10 -16 10 -35 0 -19 5 -35 10
-35 6 0 10 -18 10 -40 0 -22 5 -40 10 -40 6 0 10 -18 10 -39 0 -22 5 -43 10
-46 6 -3 10 -30 10 -60 0 -30 4 -56 9 -59 32 -20 32 -742 0 -762 -5 -3 -9 -29
-9 -59 0 -30 -4 -57 -10 -60 -5 -3 -10 -24 -10 -46 0 -21 -4 -39 -10 -39 -5 0
-10 -18 -10 -40 0 -22 -4 -40 -10 -40 -5 0 -10 -16 -10 -35 0 -19 -4 -35 -10
-35 -5 0 -10 -13 -10 -30 0 -16 -4 -30 -10 -30 -5 0 -10 -13 -10 -30 0 -16 -4
-30 -10 -30 -5 0 -10 -13 -10 -30 0 -16 -4 -30 -10 -30 -5 0 -10 -9 -10 -20 0
-11 -4 -20 -10 -20 -5 0 -10 -5 -10 -10 0 -6 -11 -33 -25 -62 -14 -28 -25 -58
-25 -65 0 -7 -4 -13 -8 -13 -4 0 -19 -22 -33 -50 -13 -27 -27 -50 -31 -50 -5
0 -8 -9 -8 -20 0 -11 -4 -20 -10 -20 -5 0 -10 -7 -10 -15 0 -8 -4 -15 -10 -15
-5 0 -10 -8 -10 -18 0 -10 -9 -24 -20 -32 -11 -8 -20 -20 -20 -28 0 -7 -11
-24 -25 -38 -14 -14 -25 -28 -25 -32 0 -4 -14 -21 -30 -39 -17 -18 -30 -36
-30 -41 0 -6 -22 -33 -50 -61 -27 -28 -50 -52 -50 -54 0 -4 -173 -177 -177
-177 -2 0 -26 -22 -54 -50 -28 -27 -55 -50 -61 -50 -5 0 -15 -6 -22 -13 -7 -6
-25 -21 -41 -32 -15 -11 -38 -30 -51 -42 -13 -13 -29 -23 -36 -23 -8 0 -20 -9
-28 -20 -8 -11 -22 -20 -32 -20 -10 0 -18 -4 -18 -10 0 -5 -7 -10 -15 -10 -8
0 -15 -4 -15 -10 0 -5 -9 -10 -19 -10 -11 0 -21 -3 -23 -7 -1 -5 -24 -19 -50
-32 -27 -13 -48 -28 -48 -33 0 -4 -6 -8 -13 -8 -7 0 -37 -11 -65 -25 -29 -14
-56 -25 -62 -25 -5 0 -10 -4 -10 -8 0 -5 -22 -15 -50 -22 -27 -7 -50 -17 -50
-22 0 -4 -13 -8 -30 -8 -16 0 -30 -4 -30 -10 0 -5 -13 -10 -30 -10 -16 0 -30
-4 -30 -10 0 -5 -16 -10 -35 -10 -19 0 -35 -4 -35 -10 0 -5 -18 -10 -40 -10
-22 0 -40 -4 -40 -10 0 -5 -18 -10 -39 -10 -22 0 -43 -5 -46 -10 -3 -5 -30
-10 -60 -10 -30 0 -56 -4 -59 -9 -20 -32 -742 -32 -762 0 -3 5 -29 9 -59 9
-30 0 -57 5 -60 10 -3 6 -24 10 -46 10 -21 0 -39 5 -39 10 0 6 -18 10 -40 10
-22 0 -40 5 -40 10 0 6 -13 10 -29 10 -17 0 -33 4 -36 10 -3 5 -19 10 -36 10
-16 0 -29 5 -29 10 0 6 -13 10 -30 10 -16 0 -30 4 -30 8 0 4 -21 14 -47 21
-27 8 -50 17 -53 20 -3 3 -59 33 -125 66 -66 33 -121 63 -123 67 -2 5 -12 8
-23 8 -10 0 -19 5 -19 10 0 6 -7 10 -15 10 -8 0 -15 5 -15 10 0 6 -8 10 -18
10 -10 0 -24 9 -32 20 -8 11 -20 20 -28 20 -7 0 -24 11 -38 25 -14 14 -28 25
-32 25 -4 0 -21 14 -39 30 -18 17 -36 30 -41 30 -6 0 -33 22 -61 50 -28 28
-52 50 -54 50 -4 0 -177 173 -177 177 0 2 -23 26 -50 54 -28 28 -50 55 -50 61
0 5 -6 15 -12 22 -7 7 -22 25 -33 40 -11 15 -30 40 -42 54 -13 15 -23 32 -23
37 0 6 -9 17 -20 25 -11 8 -20 22 -20 32 0 10 -4 18 -10 18 -5 0 -10 7 -10 15
0 8 -4 15 -10 15 -5 0 -10 9 -10 20 0 11 -4 20 -10 20 -5 0 -10 9 -10 19 0 11
-4 21 -9 23 -12 4 -141 272 -141 292 0 9 -4 16 -10 16 -5 0 -10 14 -10 30 0
17 -4 30 -10 30 -5 0 -10 13 -10 29 0 17 -4 33 -10 36 -5 3 -10 19 -10 36 0
16 -4 29 -10 29 -5 0 -10 18 -10 40 0 22 -4 40 -10 40 -5 0 -10 18 -10 39 0
22 -4 43 -10 46 -5 3 -10 30 -10 60 0 30 -4 56 -8 59 -33 20 -34 741 -1 762 5
3 9 29 9 59 0 30 5 57 10 60 6 3 10 24 10 46 0 21 5 39 10 39 6 0 10 18 10 40
0 22 5 40 10 40 6 0 10 16 10 35 0 19 5 35 10 35 6 0 10 14 10 30 0 17 5 30
10 30 6 0 10 14 10 30 0 17 4 30 8 30 4 0 14 21 21 48 8 26 17 49 20 52 3 3
33 59 66 125 33 66 63 122 67 123 5 2 8 12 8 23 0 10 5 19 10 19 6 0 10 7 10
15 0 8 5 15 10 15 6 0 10 8 10 18 0 10 9 24 20 32 11 8 20 19 20 25 0 5 10 22
23 37 12 14 31 38 41 53 11 14 30 38 43 53 13 15 23 31 23 35 0 5 18 26 40 47
22 21 40 40 40 42 0 5 172 178 177 178 2 0 26 23 54 50 28 28 55 50 61 50 5 0
15 6 22 13 7 6 25 21 40 32 15 11 40 30 54 42 15 13 32 23 37 23 6 0 17 9 25
20 8 11 22 20 32 20 10 0 18 5 18 10 0 6 7 10 15 10 8 0 15 5 15 10 0 6 9 10
20 10 11 0 20 5 20 10 0 6 9 10 20 10 11 0 20 3 20 8 0 4 46 30 103 57 56 28
104 53 107 56 3 3 26 12 53 20 26 7 47 17 47 21 0 4 14 8 30 8 17 0 30 5 30
10 0 6 14 10 30 10 17 0 30 5 30 10 0 6 16 10 35 10 19 0 35 5 35 10 0 6 18
10 40 10 22 0 40 5 40 10 0 6 18 10 39 10 22 0 43 5 46 10 3 6 30 10 60 10 30
0 57 5 60 10 3 6 32 10 63 11 31 0 75 4 97 9 40 9 389 5 520 -6z m-3015 -1324
c0 -5 18 -10 40 -10 22 0 40 -4 40 -10 0 -5 9 -10 20 -10 11 0 20 -4 20 -10 0
-5 5 -10 10 -10 20 0 95 -85 117 -131 34 -72 49 -162 35 -202 -7 -18 -12 -45
-12 -60 0 -15 -4 -27 -10 -27 -5 0 -10 -9 -10 -20 0 -11 -4 -20 -10 -20 -5 0
-10 -7 -10 -15 0 -8 -4 -15 -10 -15 -5 0 -10 -6 -10 -13 0 -7 -9 -19 -21 -27
-11 -8 -30 -23 -42 -33 -12 -10 -37 -25 -57 -33 -19 -9 -43 -20 -52 -25 -24
-12 -188 -12 -188 1 0 6 -9 10 -19 10 -40 0 -103 46 -166 121 -75 91 -85 262
-23 371 32 55 92 118 112 118 9 0 16 5 16 10 0 6 9 10 20 10 11 0 20 5 20 10
0 6 16 10 35 10 19 0 35 5 35 10 0 6 27 10 60 10 33 0 60 -4 60 -10z m5560 0
c0 -5 14 -10 30 -10 17 0 30 -4 30 -10 0 -5 9 -10 20 -10 11 0 20 -4 20 -10 0
-5 7 -10 16 -10 23 0 112 -96 136 -148 29 -62 31 -219 3 -272 -25 -48 -56 -92
-78 -110 -11 -8 -29 -25 -42 -37 -13 -13 -31 -23 -40 -23 -8 0 -15 -4 -15 -10
0 -5 -11 -10 -25 -10 -14 0 -25 -4 -25 -10 0 -6 -36 -10 -89 -10 -50 0 -93 5
-96 10 -3 6 -17 10 -31 10 -13 0 -24 3 -24 8 0 4 -14 14 -32 21 -35 16 -98 74
-98 91 0 5 -4 10 -10 10 -5 0 -10 9 -10 20 0 11 -4 20 -10 20 -5 0 -10 9 -10
19 0 11 -5 21 -11 23 -16 5 -17 220 -1 226 7 2 12 12 12 23 0 10 5 19 10 19 6
0 10 9 10 20 0 11 5 20 10 20 6 0 10 5 10 11 0 15 70 79 87 79 7 0 13 5 13 10
0 6 9 10 20 10 11 0 20 5 20 10 0 6 16 10 35 10 19 0 35 5 35 10 0 6 28 10 65
10 37 0 65 -4 65 -10z m-5480 -1460 c0 -5 5 -10 11 -10 14 0 59 -51 59 -67 0
-6 19 -17 43 -25 26 -8 46 -22 52 -35 5 -13 13 -23 17 -23 5 0 8 -17 8 -38 0
-21 3 -42 7 -46 11 -10 32 -96 33 -129 0 -20 -10 -38 -30 -57 -25 -24 -30 -35
-30 -77 0 -36 -5 -55 -20 -69 -34 -34 -49 -44 -65 -44 -8 0 -15 -4 -15 -10 0
-5 -7 -10 -15 -10 -8 0 -15 -4 -15 -10 0 -5 -7 -10 -15 -10 -8 0 -15 -4 -15
-10 0 -5 -7 -10 -15 -10 -8 0 -15 -4 -15 -10 0 -5 -22 -10 -50 -10 -27 0 -50
5 -50 10 0 6 -20 10 -45 10 -25 0 -45 -4 -45 -10 0 -5 -11 -10 -25 -10 -14 0
-25 5 -25 10 0 6 -7 10 -15 10 -8 0 -15 5 -15 10 0 6 -6 10 -13 10 -12 0 -33
17 -136 111 -20 19 -23 29 -19 71 4 39 1 54 -18 80 -25 33 -34 118 -14 118 6
0 10 6 10 14 0 12 36 102 62 153 11 22 45 40 88 45 13 2 29 12 35 23 26 52 32
54 168 55 78 0 127 -4 127 -10z m5586 -4 c8 -8 14 -20 14 -26 0 -18 27 -40 49
-40 58 0 98 -50 132 -164 7 -25 17 -46 21 -46 4 0 8 -22 8 -48 0 -34 -6 -54
-20 -70 -15 -16 -20 -35 -20 -80 0 -57 -2 -61 -36 -87 -19 -15 -51 -42 -69
-61 -19 -19 -40 -34 -47 -34 -8 0 -20 -9 -28 -20 -15 -21 -70 -28 -70 -10 0 6
-11 10 -25 10 -14 0 -25 6 -26 13 0 10 -2 10 -6 0 -2 -7 -11 -13 -19 -13 -8 0
-14 -4 -14 -10 0 -5 -22 -10 -50 -10 -27 0 -50 5 -50 10 0 6 -7 10 -15 10 -8
0 -15 5 -15 10 0 6 -7 10 -15 10 -8 0 -15 5 -15 10 0 6 -7 10 -15 10 -8 0 -15
5 -15 10 0 6 -9 10 -20 10 -11 0 -20 4 -20 9 0 5 -9 13 -20 16 -11 3 -20 13
-20 21 0 8 -4 14 -10 14 -5 0 -10 23 -10 51 0 44 -4 55 -30 79 -22 21 -30 37
-30 63 0 20 5 39 10 42 6 3 10 21 10 40 0 19 5 37 10 40 6 3 10 24 10 46 0 21
5 39 10 39 6 0 10 5 10 11 0 18 26 37 61 46 22 6 39 19 49 38 34 66 55 74 198
74 94 1 127 -2 138 -13z m-846 -1478 c47 -61 82 -98 91 -98 6 0 21 -11 34 -25
21 -20 25 -34 25 -84 0 -43 -5 -67 -17 -82 -37 -44 -71 -79 -78 -79 -4 0 -20
-13 -35 -30 -15 -16 -33 -30 -40 -30 -7 0 -75 63 -152 139 -139 139 -139 139
-121 162 14 18 94 97 148 149 6 5 35 9 65 9 50 1 57 -2 80 -31z m-4063 -16
c59 -47 123 -119 123 -139 0 -8 -6 -21 -14 -29 -17 -16 -56 -19 -56 -4 0 6 -7
10 -15 10 -8 0 -15 5 -15 10 0 6 -7 10 -15 10 -8 0 -15 5 -15 10 0 15 -29 12
-47 -5 -13 -14 -12 -18 14 -43 15 -15 33 -38 40 -53 9 -21 8 -28 -10 -42 -27
-22 -46 -21 -66 1 -9 11 -27 24 -40 31 -21 12 -27 9 -59 -21 -20 -18 -44 -41
-53 -50 -23 -25 -35 -23 -76 18 -33 34 -35 37 -22 62 13 26 53 72 62 72 3 0
49 45 103 100 55 54 102 99 106 100 3 0 28 -17 55 -38z m3733 -233 c33 -36 50
-57 80 -99 13 -19 33 -43 43 -52 23 -21 39 -96 31 -148 -6 -38 -42 -90 -63
-90 -6 0 -11 -4 -11 -10 0 -6 -32 -10 -75 -10 -43 0 -75 4 -75 10 0 6 -9 10
-19 10 -11 0 -23 9 -26 20 -4 11 -17 32 -31 45 -13 13 -24 28 -24 32 0 5 -9
15 -20 23 -11 8 -20 20 -20 27 0 7 -4 13 -10 13 -5 0 -10 5 -10 11 0 6 -7 17
-15 25 -28 29 -29 61 -1 88 14 15 32 26 40 26 8 0 18 5 21 10 6 10 64 -46 65
-61 0 -3 8 -15 18 -27 9 -11 26 -33 37 -48 35 -49 72 -84 89 -84 25 0 22 81
-4 100 -11 8 -20 21 -20 28 0 8 -13 26 -28 40 -35 33 -72 86 -72 102 0 6 10
24 23 40 24 30 30 29 77 -21z m-3428 -20 c28 -15 68 -55 68 -69 0 -5 5 -10 10
-10 6 0 10 -9 10 -20 0 -11 5 -20 10 -20 6 0 10 -25 10 -55 0 -30 -4 -55 -10
-55 -5 0 -10 -13 -10 -30 0 -16 -4 -30 -10 -30 -5 0 -10 -6 -10 -13 0 -16 -57
-77 -88 -94 -26 -15 -162 -17 -162 -3 0 6 -9 10 -20 10 -11 0 -20 5 -20 10 0
6 -5 10 -11 10 -6 0 -27 17 -45 37 -33 35 -34 40 -34 115 0 43 4 78 9 78 5 0
11 12 14 28 6 31 26 56 77 95 31 24 44 27 113 27 43 0 88 -5 99 -11z m2992
-205 c9 -3 16 -12 16 -20 0 -8 3 -14 8 -14 4 0 13 -15 21 -32 8 -18 17 -35 21
-38 4 -3 20 -30 36 -60 38 -72 59 -91 93 -83 14 3 28 9 31 12 3 3 16 12 28 19
21 12 26 11 38 -5 35 -46 23 -78 -37 -103 -16 -7 -29 -16 -29 -21 0 -5 -9 -9
-20 -9 -11 0 -20 -4 -20 -10 0 -5 -9 -10 -20 -10 -11 0 -20 -4 -20 -10 0 -5
-13 -10 -30 -10 -16 0 -30 4 -30 9 0 5 -6 16 -12 23 -18 19 -48 69 -55 91 -3
9 -9 17 -14 17 -5 0 -9 7 -9 15 0 8 -4 15 -10 15 -5 0 -10 9 -10 20 0 11 -4
20 -10 20 -5 0 -10 9 -10 20 0 11 -3 20 -8 20 -7 0 -42 72 -42 88 0 12 39 42
55 42 8 0 15 5 15 10 0 12 3 12 24 4z m-2630 -28 c36 -12 81 -48 115 -91 10
-12 15 -43 15 -96 0 -74 -11 -114 -39 -145 -5 -6 -17 -21 -25 -33 -8 -11 -22
-21 -32 -21 -10 0 -18 -4 -18 -10 0 -6 -38 -10 -95 -10 -57 0 -95 4 -95 10 0
6 -7 10 -15 10 -25 0 -65 46 -65 75 0 14 -4 25 -10 25 -6 0 -10 32 -10 75 0
43 4 75 10 75 6 0 10 9 10 20 0 11 5 20 10 20 6 0 10 5 10 11 0 6 21 31 47 55
42 40 51 44 97 44 28 0 69 -6 90 -14z m2416 -106 c0 -5 14 -10 30 -10 17 0 30
-4 30 -10 0 -5 7 -10 15 -10 18 0 20 -31 3 -48 -7 -7 -41 -12 -81 -12 -70 0
-97 -12 -97 -44 0 -8 -4 -18 -10 -21 -5 -3 -10 -15 -10 -26 0 -10 5 -19 10
-19 6 0 10 -11 10 -25 0 -16 13 -39 35 -60 57 -58 122 -44 155 34 10 26 18 31
46 31 33 0 34 -1 34 -40 0 -22 -4 -40 -10 -40 -5 0 -10 -9 -10 -20 0 -11 -4
-20 -10 -20 -5 0 -10 -5 -10 -11 0 -27 -97 -79 -148 -79 -78 0 -192 73 -192
122 0 9 -4 20 -10 23 -18 11 -12 152 7 183 27 41 60 72 78 72 8 0 15 5 15 10
0 6 14 10 30 10 17 0 30 5 30 10 0 6 14 10 30 10 17 0 30 -4 30 -10z m-2130
-40 c0 -5 14 -10 30 -10 17 0 30 -4 30 -10 0 -5 11 -10 25 -10 14 0 25 -4 25
-10 0 -5 12 -10 26 -10 34 0 54 -22 54 -59 0 -33 -4 -35 -60 -32 -30 2 -37 -2
-47 -26 -17 -42 -59 -153 -73 -194 -21 -60 -36 -74 -62 -61 -13 6 -33 14 -45
17 -18 5 -23 14 -23 40 0 19 5 37 10 40 6 3 10 19 10 36 0 16 5 29 10 29 6 0
10 9 10 20 0 11 5 20 10 20 6 0 10 9 10 20 0 11 5 20 10 20 6 0 10 11 10 25 0
14 5 25 10 25 6 0 10 5 10 11 0 13 -16 28 -52 52 -49 31 -29 76 35 77 20 0 37
-4 37 -10z m384 -112 c132 -21 164 -46 173 -130 4 -40 2 -58 -9 -69 -8 -8 -18
-39 -22 -69 -8 -66 -26 -120 -45 -140 -11 -11 -37 -14 -114 -13 -55 1 -104 6
-110 12 -6 6 -17 11 -25 11 -26 0 -42 28 -42 74 0 25 5 46 10 46 6 0 10 13 10
29 0 17 5 33 10 36 6 3 10 24 10 46 0 21 4 39 9 39 5 0 11 21 13 48 8 67 25
105 44 98 9 -3 48 -11 88 -18z m1070 -158 c26 -186 30 -200 66 -200 17 0 30 5
30 10 0 6 18 10 40 10 l40 0 0 -48 0 -48 -117 -12 c-169 -18 -153 -24 -153 63
0 41 -4 75 -9 75 -9 0 -14 38 -27 191 l-5 65 53 11 c29 5 55 11 58 11 3 1 13
-57 24 -128z m-651 75 c9 -20 17 -44 17 -55 0 -10 5 -22 10 -25 6 -3 10 -19
10 -36 0 -16 5 -29 10 -29 6 0 10 -16 10 -35 0 -19 5 -35 10 -35 6 0 10 -13
10 -30 0 -16 5 -30 10 -30 6 0 10 -16 10 -35 0 -19 5 -35 10 -35 6 0 10 -13
10 -30 0 -30 -1 -30 -55 -30 l-55 0 -22 44 c-12 24 -31 50 -44 57 -21 11 -27
8 -63 -30 -32 -33 -46 -41 -75 -41 -39 0 -45 13 -24 53 24 47 28 57 28 72 0 8
5 15 10 15 6 0 10 7 10 15 0 8 5 15 10 15 6 0 10 9 10 20 0 11 5 20 10 20 6 0
10 9 10 20 0 11 5 20 10 20 6 0 10 9 10 20 0 11 5 20 10 20 6 0 10 7 10 15 0
17 25 71 44 91 18 22 31 16 49 -21z m327 -100 c0 -70 4 -115 10 -115 6 0 10
-18 10 -40 l0 -39 62 -3 62 -3 8 -39 c5 -25 5 -43 -2 -50 -14 -14 -200 -24
-227 -13 -12 5 -25 17 -28 26 -3 8 -9 100 -12 203 l-6 188 61 0 62 0 0 -115z"/>
<path d="M4466 6144 c-8 -8 -17 -14 -21 -14 -9 0 -72 -65 -84 -88 -6 -11 -11
-36 -11 -55 0 -41 -11 -47 -80 -47 -27 0 -52 -4 -55 -10 -3 -5 -15 -10 -26
-10 -10 0 -19 -4 -19 -10 0 -5 -5 -10 -11 -10 -19 0 -39 -28 -39 -54 0 -19 5
-26 20 -26 11 0 20 -4 20 -10 0 -5 8 -10 18 -10 36 0 52 -32 52 -103 0 -38 -4
-67 -10 -67 -5 0 -10 -7 -10 -16 0 -25 -44 -58 -97 -73 -35 -11 -48 -11 -51
-3 -2 7 -9 12 -16 12 -18 0 -66 24 -66 33 0 4 -6 7 -14 7 -10 0 -17 -16 -22
-45 -8 -55 11 -99 61 -142 19 -17 35 -38 35 -47 0 -15 -18 -54 -30 -66 -3 -3
-11 -17 -19 -32 -8 -16 -18 -28 -23 -28 -4 0 -8 -7 -8 -15 0 -9 -11 -27 -25
-41 -14 -14 -25 -29 -25 -34 0 -6 -22 -10 -50 -10 -27 0 -50 5 -50 10 0 6 -33
10 -80 10 -47 0 -80 4 -80 10 0 6 -7 10 -15 10 -8 0 -15 5 -15 10 0 6 -9 10
-20 10 -11 0 -20 5 -20 10 0 6 -7 10 -15 10 -49 0 -175 82 -175 113 0 14 -28
37 -44 37 -9 0 -16 5 -16 10 0 6 -8 10 -19 10 -45 0 -26 61 28 90 14 7 30 17
35 21 55 44 81 77 111 140 40 85 46 154 19 249 -17 60 -88 150 -118 150 -9 0
-16 3 -16 8 0 11 -51 32 -77 32 -13 0 -23 5 -23 10 0 6 -25 10 -55 10 -30 0
-55 -4 -55 -9 0 -5 -13 -11 -29 -14 -16 -3 -36 -13 -44 -22 -9 -8 -19 -15 -22
-15 -17 0 -83 -62 -100 -94 -11 -20 -23 -36 -27 -36 -5 0 -8 -9 -8 -20 0 -11
-4 -20 -10 -20 -13 0 -13 -144 -1 -168 5 -9 15 -33 22 -52 13 -33 112 -140
131 -140 17 0 7 -32 -12 -37 -24 -6 -26 -28 -4 -37 9 -3 31 -6 50 -6 31 0 34
-3 34 -30 0 -29 -2 -30 -46 -30 -70 0 -88 -25 -80 -113 5 -51 2 -75 -9 -97
-11 -22 -13 -35 -6 -49 6 -10 18 -40 27 -67 25 -75 41 -94 80 -94 l34 0 0 -95
c0 -57 4 -95 10 -95 6 0 10 -68 10 -185 0 -117 -4 -185 -10 -185 -6 0 -10 -27
-10 -61 0 -63 -6 -74 -52 -98 -16 -8 -28 -18 -28 -23 0 -4 -7 -8 -16 -8 -8 0
-21 -6 -29 -13 -20 -21 -53 -89 -56 -121 -4 -28 -2 -29 39 -33 25 -2 42 0 42
6 0 6 8 11 17 11 13 0 14 -3 5 -12 -7 -7 -12 -22 -12 -34 0 -13 -4 -26 -10
-29 -5 -3 -10 -15 -10 -26 0 -13 7 -19 24 -19 13 0 27 6 29 13 3 6 8 -3 12
-20 4 -18 11 -33 16 -33 5 0 9 -11 9 -25 0 -14 5 -25 10 -25 6 0 10 -18 10
-40 0 -22 5 -40 10 -40 6 0 10 -18 10 -40 0 -22 -4 -40 -10 -40 -5 0 -10 -13
-10 -30 0 -16 5 -30 10 -30 6 0 10 -38 10 -94 0 -53 -4 -98 -10 -101 -5 -3
-10 -28 -10 -56 0 -38 -4 -49 -16 -49 -30 0 -44 -27 -44 -84 0 -49 2 -56 20
-56 16 0 20 -7 20 -30 0 -16 -4 -30 -10 -30 -5 0 -10 -23 -10 -50 0 -44 4 -55
35 -85 51 -52 109 -48 172 12 22 21 23 29 23 170 0 137 -2 150 -20 163 -19 14
-20 26 -20 222 0 201 1 208 20 208 17 0 20 7 20 40 0 22 5 40 10 40 6 0 10 5
10 10 0 16 68 80 85 80 8 0 15 5 15 10 0 6 16 10 35 10 19 0 35 4 35 8 0 4 11
9 25 10 14 1 25 -3 25 -8 0 -6 11 -10 25 -10 14 0 25 -4 25 -10 0 -5 8 -10 18
-10 10 0 24 -9 32 -20 15 -21 80 -29 80 -10 0 6 14 10 30 10 17 0 30 5 30 10
0 6 8 10 18 10 10 0 24 9 32 20 8 11 20 20 27 20 7 0 27 12 44 28 64 57 129
121 129 127 0 10 48 55 59 55 5 0 20 -21 33 -47 43 -84 63 -118 71 -121 4 -2
7 -12 7 -23 0 -12 -7 -19 -20 -19 -11 0 -20 -4 -20 -10 0 -5 -9 -10 -20 -10
-11 0 -20 -4 -20 -10 0 -5 -7 -10 -15 -10 -8 0 -15 -4 -15 -9 0 -5 -8 -12 -19
-16 -10 -3 -29 -14 -42 -25 -37 -30 -42 -34 -79 -60 -72 -50 -170 -143 -170
-159 0 -6 -4 -11 -10 -11 -5 0 -10 -7 -10 -15 0 -8 -4 -15 -10 -15 -5 0 -10
-7 -10 -15 0 -8 -4 -15 -10 -15 -5 0 -10 -9 -10 -19 0 -11 -5 -21 -12 -23 -7
-3 -12 -33 -12 -85 l-1 -81 43 -41 c23 -22 42 -45 42 -51 0 -5 5 -10 10 -10 6
0 10 -31 10 -74 0 -41 -4 -78 -10 -81 -5 -3 -10 -22 -10 -41 0 -19 -4 -34 -10
-34 -5 0 -10 -9 -10 -20 0 -11 -4 -20 -10 -20 -5 0 -10 -7 -10 -15 0 -18 -31
-51 -72 -78 -23 -14 -51 -17 -163 -17 -125 0 -140 -2 -185 -25 -70 -35 -80
-60 -80 -195 0 -67 4 -110 10 -110 6 0 10 -7 10 -16 0 -8 6 -22 14 -30 13 -12
15 -11 21 6 3 11 11 20 16 20 5 0 9 9 9 21 0 11 6 27 14 35 52 52 135 22 136
-48 0 -18 5 -28 14 -28 8 0 18 -9 21 -20 8 -26 25 -26 25 0 0 11 5 20 10 20 6
0 10 7 10 15 0 21 65 85 86 85 9 0 42 -27 74 -60 32 -33 60 -60 64 -60 3 0 6
9 6 20 0 11 5 20 10 20 6 0 10 12 10 26 0 37 22 54 88 65 67 12 122 41 122 64
0 8 5 15 10 15 6 0 10 14 10 30 0 17 5 30 10 30 6 0 10 14 10 30 0 17 5 30 10
30 6 0 10 14 10 30 0 17 5 30 10 30 6 0 10 8 10 18 0 20 81 112 99 112 6 0 11
4 11 8 0 4 27 16 60 25 37 11 60 24 60 33 0 8 -6 14 -14 14 -24 0 -105 40
-129 64 -13 13 -29 38 -37 55 -11 27 -10 37 5 70 18 40 80 111 97 111 5 0 16
7 25 15 8 9 28 19 44 22 16 3 29 9 29 14 0 5 20 9 44 9 26 0 46 5 49 13 4 10
6 10 6 0 1 -7 8 -13 16 -13 10 0 15 -10 15 -30 0 -16 5 -30 10 -30 6 0 10 -9
10 -20 0 -11 5 -20 10 -20 6 0 10 -9 10 -20 0 -11 5 -20 10 -20 6 0 10 -5 10
-10 0 -14 86 -100 100 -100 5 0 10 -4 10 -10 0 -5 9 -10 20 -10 11 0 20 -4 20
-10 0 -5 14 -10 30 -10 17 0 30 -4 30 -10 0 -5 14 -10 30 -10 27 0 30 -3 30
-29 0 -17 5 -33 10 -36 6 -3 10 -46 10 -95 0 -49 -4 -92 -10 -95 -5 -3 -10
-13 -10 -21 0 -30 -27 -44 -84 -44 -30 0 -58 -4 -61 -10 -3 -6 -28 -10 -56
-10 -27 0 -49 -4 -49 -10 0 -5 -9 -10 -20 -10 -11 0 -20 -4 -20 -10 0 -5 -7
-10 -16 -10 -23 0 -44 -25 -44 -54 0 -14 -4 -28 -10 -31 -17 -10 -11 -107 10
-164 10 -29 21 -56 24 -58 9 -10 36 26 36 47 0 38 47 70 103 70 33 0 67 -24
67 -48 0 -7 5 -12 10 -12 6 0 10 -7 10 -16 0 -8 7 -22 15 -30 13 -14 17 -14
30 0 8 8 15 22 15 30 0 9 5 16 10 16 6 0 10 8 10 18 0 17 41 42 68 42 7 0 31
-18 52 -40 40 -41 70 -52 70 -24 0 23 25 44 53 44 13 0 39 10 58 23 l34 23 6
199 c6 180 14 248 34 310 12 35 50 110 58 113 4 2 7 10 7 19 0 8 14 28 30 43
17 15 30 33 30 39 0 6 5 11 10 11 6 0 10 6 10 13 0 9 -20 11 -78 9 -82 -4
-179 17 -206 44 -8 8 -20 14 -26 14 -29 0 -87 79 -142 192 -11 24 -10 78 2 78
6 0 10 -3 10 -8 0 -4 15 -14 32 -21 18 -8 43 -25 55 -37 23 -23 115 -54 226
-75 80 -15 161 -3 240 36 65 33 117 90 117 130 0 8 5 15 10 15 16 0 12 169 -6
215 -8 22 -17 48 -21 58 -3 9 -9 17 -14 17 -5 0 -9 9 -9 20 0 11 -4 20 -10 20
-5 0 -10 7 -10 15 0 8 -4 15 -8 15 -5 0 -15 12 -23 27 -8 16 -27 42 -44 60
-68 74 -75 83 -75 101 0 40 45 102 74 102 8 0 18 5 21 10 10 17 46 11 90 -15
60 -35 75 -62 75 -140 0 -51 3 -65 15 -65 8 0 15 5 15 10 0 6 5 10 12 10 18 0
98 88 98 109 0 11 5 21 12 23 9 3 12 32 11 97 -1 80 -3 94 -22 110 -11 10 -21
23 -21 28 0 5 -11 16 -25 23 -14 7 -25 17 -25 22 0 4 -7 8 -15 8 -8 0 -15 5
-15 10 0 6 -13 10 -30 10 -16 0 -30 5 -30 10 0 6 -16 10 -35 10 -19 0 -35 -4
-35 -10 0 -5 -22 -10 -50 -10 -27 0 -50 -4 -50 -10 0 -5 -8 -10 -17 -10 -10 0
-29 -9 -43 -20 -14 -11 -29 -20 -33 -20 -5 0 -15 -7 -23 -15 -9 -8 -20 -15
-25 -15 -5 0 -9 7 -9 15 0 8 5 15 10 15 6 0 10 7 10 15 0 14 102 125 115 125
3 0 15 9 27 20 12 11 40 32 62 47 23 16 53 40 68 55 14 16 29 28 32 28 14 0
114 109 127 138 8 18 17 32 21 32 5 0 8 14 8 30 0 17 5 30 10 30 6 0 10 28 10
65 0 37 -4 65 -10 65 -5 0 -10 16 -10 34 0 27 -9 45 -43 80 -24 26 -48 46 -55
46 -7 0 -12 5 -12 10 0 6 -10 10 -23 10 -13 0 -28 5 -34 11 -15 15 -201 15
-216 0 -6 -6 -19 -11 -29 -11 -22 0 -108 -83 -108 -105 0 -8 -4 -15 -10 -15
-6 0 -10 -28 -10 -65 0 -37 4 -65 10 -65 6 0 10 3 10 8 0 14 46 59 78 76 72
37 152 -15 152 -99 0 -25 -4 -45 -10 -45 -5 0 -10 -7 -10 -15 0 -24 -42 -70
-155 -170 -94 -84 -149 -140 -180 -186 -17 -24 -33 -45 -37 -47 -5 -2 -8 -17
-8 -33 0 -16 -4 -29 -10 -29 -6 0 -10 -32 -10 -75 0 -43 4 -75 10 -75 6 0 10
-11 10 -23 0 -13 8 -39 17 -58 26 -54 114 -182 145 -211 15 -14 28 -30 28 -36
0 -5 14 -23 30 -40 17 -18 30 -39 30 -47 0 -8 3 -15 8 -15 11 0 42 -92 42
-124 0 -42 -50 -136 -72 -136 -10 0 -18 -4 -18 -10 0 -5 -9 -10 -20 -10 -11 0
-20 -4 -20 -10 0 -5 -25 -10 -55 -10 -30 0 -55 5 -55 10 0 6 -18 10 -40 10
-22 0 -40 5 -40 10 0 6 -9 10 -20 10 -11 0 -20 5 -20 10 0 6 -7 10 -16 10 -9
0 -30 15 -46 33 -32 36 -88 138 -88 162 0 8 -4 15 -10 15 -5 0 -10 16 -10 35
0 19 -4 35 -10 35 -5 0 -10 18 -10 40 0 22 -4 40 -10 40 -5 0 -10 25 -10 55 0
30 -4 55 -10 55 -6 0 -10 27 -10 60 0 33 -4 60 -10 60 -5 0 -10 18 -10 40 0
22 -4 40 -10 40 -5 0 -10 8 -10 18 0 10 -4 22 -9 28 -11 10 -41 118 -41 146 0
15 8 18 45 18 25 0 45 5 45 10 0 6 18 10 40 10 22 0 40 5 40 10 0 6 6 10 14
10 8 0 28 16 44 36 39 47 51 139 27 197 -18 43 -23 44 -53 17 -12 -11 -28 -20
-37 -20 -8 0 -15 -4 -15 -10 0 -5 -18 -10 -40 -10 -22 0 -40 3 -40 8 0 4 -10
12 -22 17 -52 23 -89 146 -68 224 25 95 96 124 188 77 29 -15 55 -27 59 -29 9
-2 14 138 6 166 -3 14 -16 17 -64 17 l-59 0 0 35 c0 19 5 35 10 35 6 0 10 8
10 19 0 28 59 81 90 81 14 0 36 -9 48 -20 12 -11 26 -20 32 -20 14 0 40 25 40
39 0 6 5 11 10 11 6 0 10 6 10 13 0 7 9 19 20 27 11 8 20 22 20 32 0 10 4 18
8 18 5 0 18 18 30 41 l22 41 -73 73 c-70 69 -76 73 -128 78 -80 8 -148 22
-203 42 -83 29 -176 97 -176 130 0 8 -4 15 -9 15 -5 0 -14 13 -21 29 -14 34
-44 45 -64 25z m-1236 -274 c0 -5 7 -10 15 -10 29 0 65 -47 65 -85 0 -19 -4
-35 -10 -35 -5 0 -10 -5 -10 -11 0 -21 -34 -38 -77 -39 -54 0 -73 8 -73 31 0
10 -4 19 -10 19 -5 0 -10 17 -10 38 0 26 6 42 20 52 11 8 20 22 20 32 0 14 8
18 35 18 19 0 35 -4 35 -10z m1521 -102 c13 -18 31 -40 41 -49 30 -28 23 -49
-17 -49 -42 0 -67 13 -117 59 -35 33 -37 36 -21 53 10 11 30 18 54 18 31 0 42
-6 60 -32z m114 22 c3 -5 1 -10 -4 -10 -6 0 -11 -8 -11 -19 0 -10 -6 -24 -14
-30 -16 -14 -46 -4 -46 15 0 8 -4 14 -10 14 -5 0 -10 9 -10 20 0 17 7 20 44
20 25 0 48 -4 51 -10z m-1519 -890 c24 0 44 -4 44 -10 0 -5 16 -10 35 -10 19
0 35 -4 35 -10 0 -5 11 -10 25 -10 33 0 75 -42 75 -75 0 -14 5 -25 10 -25 6 0
10 -7 10 -15 0 -8 -4 -15 -10 -15 -5 0 -10 -9 -10 -20 0 -13 -7 -20 -20 -20
-11 0 -20 -4 -20 -10 0 -5 -6 -10 -14 -10 -19 0 -30 -31 -14 -42 73 -48 73
-48 152 -42 42 4 76 10 76 13 0 3 15 13 33 20 17 8 49 32 69 54 34 34 40 37
53 23 8 -8 15 -22 15 -30 0 -9 5 -16 10 -16 6 0 10 -8 10 -18 0 -12 -14 -25
-40 -37 -22 -10 -40 -21 -40 -24 0 -3 -21 -17 -47 -31 -27 -13 -50 -27 -53
-30 -3 -3 -16 -10 -30 -16 -63 -28 -80 -38 -80 -46 0 -4 -7 -8 -16 -8 -9 0
-28 -13 -42 -28 -15 -15 -61 -49 -102 -75 -41 -25 -80 -50 -85 -55 -6 -5 -27
-11 -48 -15 l-37 -6 1 332 c0 183 3 326 6 320 3 -8 23 -13 49 -13z"/>
<path d="M5280 5531 c-19 -23 -73 -51 -98 -51 -11 0 -36 7 -55 15 -46 19 -87
20 -87 1 0 -8 -6 -17 -12 -19 -10 -4 -10 -6 0 -6 6 -1 12 -7 12 -15 0 -7 14
-19 30 -26 17 -7 30 -16 30 -21 0 -5 32 -9 70 -9 62 0 74 3 95 25 14 13 25 29
25 35 0 5 5 10 10 10 6 0 10 9 10 20 0 11 5 20 10 20 6 0 10 9 10 20 0 26 -30
26 -50 1z"/>
<path d="M1323 5302 c-31 -16 -31 -18 -14 -29 12 -7 47 -11 88 -9 37 2 51 2
31 -1 -60 -7 -42 -46 26 -58 20 -4 36 -10 36 -14 0 -3 11 -18 24 -33 22 -26
28 -28 105 -28 68 0 81 3 81 16 0 31 -32 43 -112 44 -45 0 -78 4 -78 10 0 6
26 10 59 10 33 0 66 3 75 6 27 10 -26 43 -81 50 -64 9 -84 19 -53 29 40 13 1
25 -80 24 -51 0 -85 -5 -107 -17z"/>
<path d="M1223 5235 c-13 -13 -23 -27 -23 -30 0 -12 29 -35 44 -35 9 0 16 -4
16 -10 0 -5 9 -10 20 -10 11 0 20 -4 20 -10 0 -5 9 -10 20 -10 11 0 20 -4 20
-10 0 -5 7 -10 15 -10 8 0 15 -4 15 -10 0 -5 -7 -10 -15 -10 -8 0 -15 5 -15
10 0 6 -9 10 -20 10 -11 0 -20 5 -20 10 0 6 -9 10 -20 10 -11 0 -20 5 -20 10
0 6 -9 10 -20 10 -11 0 -20 5 -20 10 0 6 -11 10 -25 10 -18 0 -26 -6 -30 -25
-3 -14 -7 -36 -10 -48 -3 -18 2 -27 20 -37 30 -16 32 -30 5 -30 -11 0 -20 5
-20 10 0 6 -4 10 -10 10 -5 0 -10 -20 -10 -45 0 -25 5 -45 10 -45 6 0 10 -7
10 -16 0 -20 24 -44 44 -44 9 0 16 -4 16 -10 0 -5 9 -10 20 -10 11 0 20 -4 20
-10 0 -5 9 -10 20 -10 11 0 20 -4 20 -10 0 -5 11 -10 24 -10 14 0 28 -4 31
-10 3 -5 26 -10 51 -10 37 0 44 3 44 20 0 11 5 20 10 20 6 0 10 9 10 20 0 13
-7 20 -20 20 -11 0 -20 5 -20 10 0 6 -8 10 -18 10 -11 0 -34 8 -53 17 -28 14
-31 18 -14 21 10 3 21 -1 23 -7 2 -6 17 -11 33 -11 16 0 29 -4 29 -10 0 -5 14
-10 30 -10 17 0 30 5 30 10 0 6 5 10 10 10 6 0 10 -9 10 -20 0 -11 -4 -20 -10
-20 -5 0 -10 -9 -10 -20 0 -11 -4 -20 -10 -20 -5 0 -10 -9 -10 -19 0 -11 -6
-21 -12 -23 -9 -3 -8 -9 4 -21 24 -24 43 -21 71 13 14 17 30 30 36 30 6 0 12
10 12 23 1 15 3 17 6 5 2 -9 -3 -30 -11 -47 -19 -37 -20 -41 -3 -41 20 0 107
85 107 104 0 9 5 16 10 16 6 0 10 9 10 20 0 11 5 20 10 20 16 0 12 139 -4 156
-30 30 -46 17 -46 -36 0 -64 -18 -66 -22 -2 -3 42 -6 47 -29 50 -27 3 -41 -19
-69 -115 -13 -41 -30 -50 -30 -15 0 10 -10 24 -21 32 -12 8 -27 21 -35 28 -7
6 -18 12 -24 12 -17 0 -44 30 -35 38 4 4 10 1 12 -5 3 -7 13 -13 24 -13 10 0
19 -4 19 -8 0 -7 63 -42 75 -42 3 0 5 9 5 21 0 11 5 29 10 40 9 15 6 24 -14
44 -14 14 -31 25 -38 25 -8 0 -20 9 -28 20 -8 11 -22 20 -32 20 -10 0 -18 5
-18 10 0 6 -6 10 -13 10 -7 0 -32 9 -55 20 -67 32 -94 33 -119 5z m10 -222
c-7 -2 -19 -2 -25 0 -7 3 -2 5 12 5 14 0 19 -2 13 -5z m44 -19 c-3 -3 -12 -4
-19 -1 -8 3 -5 6 6 6 11 1 17 -2 13 -5z m363 -30 c0 -13 -4 -24 -10 -24 -5 0
-10 14 -10 31 0 17 4 28 10 24 6 -3 10 -17 10 -31z m-323 10 c-3 -3 -12 -4
-19 -1 -8 3 -5 6 6 6 11 1 17 -2 13 -5z m290 -86 c-3 -7 -5 -2 -5 12 0 14 2
19 5 13 2 -7 2 -19 0 -25z"/>
<path d="M1240 4834 c0 -13 60 -64 75 -64 21 0 19 22 -4 48 -16 20 -71 31 -71
16z"/>
<path d="M1357 4794 c-3 -3 4 -17 16 -30 15 -18 31 -24 59 -24 43 0 48 14 16
41 -20 18 -78 26 -91 13z"/>
<path d="M6871 5304 c-31 -14 -32 -16 -15 -29 13 -10 40 -13 89 -11 39 2 53 2
33 -1 -60 -7 -42 -46 26 -59 26 -4 41 -14 48 -30 6 -13 17 -24 25 -24 7 0 13
-4 13 -10 0 -6 33 -10 80 -10 71 0 80 2 80 18 0 28 -42 42 -120 42 -40 0 -70
4 -70 10 0 6 32 10 75 10 41 0 75 3 75 6 0 17 -47 44 -88 50 -26 4 -56 10 -67
14 -19 7 -19 7 3 14 43 14 10 26 -71 25 -48 0 -96 -7 -116 -15z"/>
<path d="M6778 5237 c-16 -13 -28 -27 -28 -31 0 -13 28 -36 44 -36 9 0 16 -4
16 -10 0 -5 9 -10 20 -10 11 0 20 -4 20 -10 0 -5 -9 -10 -20 -10 -11 0 -20 5
-20 10 0 6 -9 10 -20 10 -11 0 -20 5 -20 10 0 6 -13 10 -30 10 -28 0 -30 -2
-30 -40 0 -22 -4 -40 -10 -40 -5 0 -10 -4 -10 -10 0 -5 8 -10 18 -10 10 0 24
-9 32 -20 8 -11 22 -20 32 -20 10 0 18 -7 18 -15 0 -19 -3 -19 -50 5 -22 11
-42 20 -45 20 -3 0 -5 -18 -5 -40 0 -22 5 -40 10 -40 6 0 10 -7 10 -16 0 -20
24 -44 44 -44 9 0 16 -4 16 -10 0 -5 9 -10 20 -10 11 0 20 -4 20 -10 0 -5 9
-10 20 -10 11 0 20 -4 20 -10 0 -5 9 -10 20 -10 12 0 33 -6 48 -14 36 -19 82
-10 82 15 0 11 5 19 10 19 6 0 10 9 10 20 0 13 -7 20 -20 20 -11 0 -20 5 -20
10 0 6 -8 10 -17 10 -10 1 -34 9 -53 20 -30 16 -32 19 -12 20 12 0 22 -4 22
-10 0 -5 14 -10 30 -10 17 0 30 -4 30 -10 0 -15 58 -12 63 3 2 6 8 9 12 5 10
-10 -2 -53 -20 -72 -8 -8 -15 -21 -15 -30 0 -8 -5 -18 -10 -21 -12 -7 9 -32
31 -37 18 -4 89 65 89 87 0 8 5 15 10 15 6 0 10 9 10 20 0 11 5 20 10 20 15 0
12 -10 -20 -69 -34 -61 -36 -71 -17 -71 20 0 107 85 107 104 0 9 5 16 10 16 6
0 10 9 10 20 0 11 5 20 10 20 16 0 12 139 -4 156 -30 30 -46 17 -46 -36 0 -27
-4 -50 -10 -50 -5 0 -10 23 -10 50 0 41 -3 50 -18 50 -10 0 -24 -9 -32 -20 -8
-11 -20 -20 -28 -20 -9 0 -11 -7 -7 -20 4 -12 2 -26 -3 -33 -5 -7 -13 -25 -17
-42 l-7 -30 -9 25 c-5 14 -23 34 -39 45 -16 11 -30 23 -30 28 0 4 -7 7 -16 7
-20 0 -49 29 -39 38 4 4 10 1 12 -5 3 -7 13 -13 23 -13 10 0 20 -4 22 -8 4
-11 71 -41 79 -36 4 2 10 20 13 39 6 29 3 39 -18 60 -14 14 -30 25 -36 25 -5
0 -10 5 -10 10 0 6 -7 10 -15 10 -8 0 -15 5 -15 10 0 6 -9 10 -20 10 -11 0
-20 5 -20 10 0 6 -9 10 -20 10 -11 0 -20 3 -20 8 0 7 -52 28 -95 38 -12 3 -31
-5 -47 -19z m112 -117 c0 -5 -7 -10 -15 -10 -8 0 -15 5 -15 10 0 6 7 10 15 10
8 0 15 -4 15 -10z m30 -20 c0 -5 -4 -10 -10 -10 -5 0 -10 5 -10 10 0 6 5 10
10 10 6 0 10 -4 10 -10z m-85 -110 c-3 -5 -12 -7 -20 -3 -21 7 -19 13 6 13 11
0 18 -4 14 -10z m355 -20 c0 -16 -4 -30 -10 -30 -5 0 -10 14 -10 30 0 17 5 30
10 30 6 0 10 -13 10 -30z m-318 -2 c-9 -9 -15 -9 -24 0 -9 9 -7 12 12 12 19 0
21 -3 12 -12z"/>
<path d="M6800 4831 c0 -15 34 -47 63 -59 27 -12 28 -11 21 10 -3 13 -15 31
-25 41 -19 18 -59 24 -59 8z"/>
<path d="M6900 4794 c0 -8 5 -14 10 -14 6 0 10 -6 10 -14 0 -15 10 -19 68 -31
28 -6 32 -4 32 14 0 25 -33 47 -82 54 -29 4 -38 2 -38 -9z"/>
<path d="M1333 3869 c-26 -26 -7 -106 33 -147 8 -7 14 -18 14 -23 0 -5 11 -9
25 -9 21 0 25 5 25 30 0 17 3 30 6 30 11 0 34 -29 34 -44 0 -29 19 -26 54 9
45 45 73 102 59 123 -13 21 -43 28 -149 37 -67 5 -92 3 -101 -6z"/>
<path d="M1193 3775 c-7 -8 -13 -21 -13 -30 0 -8 -4 -15 -10 -15 -5 0 -10 -13
-10 -30 0 -16 -3 -30 -8 -30 -9 0 -32 -73 -32 -104 0 -21 6 -26 43 -31 60 -8
131 14 135 43 2 12 -1 22 -7 22 -6 0 -11 6 -11 14 0 8 -6 17 -12 20 -7 3 0 4
16 2 17 -2 36 2 43 10 12 11 10 20 -8 56 -24 47 -35 60 -66 76 -28 15 -45 15
-60 -3z"/>
<path d="M1608 3728 c-57 -54 -76 -87 -57 -99 8 -5 27 -9 43 -9 l29 0 -27 -25
c-29 -27 -31 -53 -6 -65 8 -4 25 -12 37 -18 31 -17 102 -15 119 2 16 17 19 46
4 46 -5 0 -10 18 -10 39 0 22 -4 43 -10 46 -5 3 -10 19 -10 36 0 16 -4 29 -10
29 -5 0 -10 7 -10 16 0 17 -23 44 -38 44 -5 0 -29 -19 -54 -42z"/>
<path d="M1388 3620 c-30 -33 -33 -45 -18 -84 10 -29 72 -66 78 -47 2 6 10 11
19 11 25 0 43 27 43 65 0 38 -10 54 -47 73 -32 18 -45 15 -75 -18z"/>
<path d="M1260 3490 c0 -5 -11 -10 -25 -10 -27 0 -75 -40 -75 -62 0 -7 14 -24
31 -38 17 -14 51 -44 77 -67 26 -23 57 -43 68 -43 34 0 54 41 54 110 0 53 -2
60 -20 60 -11 0 -20 -4 -20 -10 0 -5 -7 -10 -15 -10 -8 0 -15 -4 -15 -10 0 -5
-4 -10 -10 -10 -5 0 -10 14 -10 30 0 17 5 30 10 30 6 0 10 9 10 20 0 16 -7 20
-30 20 -16 0 -30 -4 -30 -10z"/>
<path d="M1535 3463 c3 -10 9 -30 12 -46 5 -24 3 -26 -13 -20 -11 4 -25 13
-32 20 -7 7 -22 13 -33 13 -17 0 -19 -8 -19 -70 0 -40 4 -70 10 -70 6 0 10 -9
10 -20 0 -13 7 -20 20 -20 11 0 20 5 20 10 0 6 9 10 19 10 11 0 21 4 23 8 2 5
28 25 58 45 78 53 96 67 82 67 -7 0 -12 5 -12 10 0 17 -47 60 -65 60 -8 0 -15
5 -15 10 0 6 -16 10 -36 10 -30 0 -35 -3 -29 -17z"/>
<path d="M6955 3869 c-84 -9 -98 -23 -80 -76 12 -35 81 -122 98 -123 4 0 7 12
7 26 0 22 20 54 33 54 2 0 7 -13 11 -30 6 -32 28 -40 50 -17 27 28 56 90 56
121 0 58 -20 63 -175 45z"/>
<path d="M7173 3765 c-13 -13 -23 -31 -23 -40 0 -8 -4 -15 -10 -15 -5 0 -10
-9 -10 -20 0 -11 -4 -20 -10 -20 -5 0 -10 -4 -10 -10 0 -5 18 -10 40 -10 45 0
53 -16 20 -40 -28 -20 -25 -49 7 -61 77 -29 160 -15 157 27 -2 24 -43 136 -55
149 -5 5 -9 15 -9 23 0 43 -62 54 -97 17z"/>
<path d="M6764 3756 c-23 -25 -34 -56 -34 -90 0 -20 -4 -36 -10 -36 -5 0 -10
-18 -10 -40 0 -22 -4 -40 -10 -40 -15 0 -12 -19 4 -36 17 -16 102 -19 111 -4
3 6 15 10 26 10 10 0 19 4 19 9 0 5 10 11 22 15 22 5 22 6 -10 32 -17 15 -32
30 -32 34 0 4 18 10 40 14 22 3 40 11 40 16 0 6 -4 10 -10 10 -5 0 -10 6 -10
13 0 18 -40 61 -80 86 -40 24 -41 24 -56 7z"/>
<path d="M6980 3641 c0 -5 -9 -13 -20 -16 -31 -10 -28 -88 5 -120 24 -25 85
-35 85 -15 0 6 6 10 14 10 19 0 40 54 32 85 -9 37 -45 65 -83 65 -18 0 -33 -4
-33 -9z"/>
<path d="M7130 3480 c0 -11 5 -20 10 -20 6 0 10 -13 10 -30 0 -16 -4 -30 -10
-30 -5 0 -10 5 -10 10 0 6 -7 10 -15 10 -8 0 -15 5 -15 10 0 6 -10 10 -21 10
-21 0 -22 -3 -15 -71 10 -105 47 -128 110 -66 18 17 52 49 76 69 35 31 41 41
36 63 -4 14 -13 25 -21 25 -8 0 -15 5 -15 10 0 6 -13 10 -30 10 -16 0 -30 5
-30 10 0 6 -13 10 -30 10 -23 0 -30 -4 -30 -20z"/>
<path d="M6840 3470 c0 -5 -9 -10 -20 -10 -11 0 -20 -4 -20 -10 0 -5 -6 -10
-13 -10 -8 0 -19 -12 -26 -27 -11 -23 -9 -29 11 -47 29 -26 105 -76 116 -76 4
0 14 -9 22 -20 8 -11 25 -20 38 -20 42 0 52 22 52 109 0 67 -3 81 -16 81 -8 0
-22 -7 -30 -15 -24 -24 -34 -18 -34 20 0 34 -1 35 -40 35 -22 0 -40 -4 -40
-10z"/>
<path d="M6168 2336 c-10 -7 -18 -15 -18 -18 0 -15 40 -48 59 -48 18 0 21 6
21 40 0 35 -3 40 -22 40 -13 0 -31 -7 -40 -14z"/>
<path d="M6260 2213 c-9 -11 -10 -18 -3 -20 6 -2 24 -15 40 -29 l28 -24 14 29
c8 16 11 36 8 45 -8 21 -67 20 -87 -1z"/>
<path d="M2470 2070 c0 -5 -7 -10 -15 -10 -20 0 -85 -65 -85 -84 0 -8 -4 -18
-10 -21 -19 -11 -10 -56 16 -81 31 -32 60 -27 112 20 49 44 68 96 52 137 -8
17 -20 29 -31 29 -11 0 -19 5 -19 10 0 6 -4 10 -10 10 -5 0 -10 -4 -10 -10z"/>
<path d="M2812 1824 c-36 -38 -75 -130 -67 -156 9 -29 44 -68 61 -68 24 0 84
34 84 47 0 7 5 13 10 13 6 0 10 7 10 15 0 8 5 15 10 15 6 0 10 30 10 70 0 63
-2 70 -20 70 -11 0 -20 5 -20 10 0 20 -55 9 -78 -16z"/>
<path d="M3572 1555 c-19 -40 -15 -55 14 -55 26 0 54 20 54 40 0 16 -26 40
-43 40 -7 0 -19 -11 -25 -25z"/>
<path d="M3532 1380 c-11 -43 -8 -50 20 -50 42 0 68 70 32 84 -31 12 -42 5
-52 -34z"/>
</g>
</svg>
