<?xml version="1.0" standalone="no"?>
<!DOCTYPE svg PUBLIC "-//W3C//DTD SVG 20010904//EN"
 "http://www.w3.org/TR/2001/REC-SVG-20010904/DTD/svg10.dtd">
<svg version="1.0" xmlns="http://www.w3.org/2000/svg"
 width="840.000000pt" height="859.000000pt" viewBox="0 0 840.000000 859.000000"
 preserveAspectRatio="xMidYMid meet">

<g transform="translate(0.000000,859.000000) scale(0.100000,-0.100000)"
fill="#000000" stroke="none">
<path d="M2317 8433 c-31 -31 -137 -224 -137 -247 0 -5 -6 -22 -14 -39 -7 -18
-21 -52 -31 -77 -9 -25 -21 -53 -26 -62 -5 -10 -9 -27 -9 -37 0 -11 -4 -22 -9
-25 -5 -4 -12 -25 -16 -49 -4 -23 -11 -46 -15 -52 -4 -5 -10 -26 -13 -45 -4
-19 -13 -69 -22 -110 -36 -164 -52 -456 -32 -574 12 -65 -7 -58 -47 20 -17 32
-34 61 -37 64 -3 3 -25 55 -49 115 -24 61 -46 119 -51 130 -4 11 -10 31 -13
45 -8 44 -27 114 -36 135 -5 11 -11 34 -14 50 -10 61 -27 130 -36 147 -6 10
-10 28 -10 40 0 34 -35 121 -54 133 -19 12 -45 -18 -46 -52 0 -13 -4 -23 -9
-23 -22 0 -30 -432 -11 -580 22 -172 43 -281 60 -312 6 -10 10 -29 10 -42 0
-14 4 -27 9 -30 5 -4 12 -24 16 -46 4 -22 11 -42 16 -46 5 -3 9 -15 9 -28 0
-12 4 -26 8 -32 5 -5 19 -34 32 -64 31 -76 92 -204 99 -210 3 -3 11 -14 17
-25 49 -90 68 -122 80 -136 8 -8 14 -20 14 -26 0 -6 7 -13 15 -17 8 -3 15 -12
15 -19 0 -15 4 -15 -165 18 -238 47 -262 50 -280 35 -23 -19 -18 -57 12 -85
15 -14 31 -25 35 -25 4 0 22 -15 40 -33 18 -18 43 -40 55 -49 27 -18 163 -140
248 -223 34 -33 86 -82 116 -109 65 -59 302 -280 379 -354 l55 -54 -50 7
c-155 19 -152 19 -170 -8 -21 -33 -14 -56 28 -84 18 -13 42 -31 53 -40 10 -10
44 -38 74 -63 30 -25 57 -48 58 -52 2 -5 10 -8 17 -8 7 0 15 -3 17 -7 2 -5 28
-28 58 -53 30 -25 57 -47 60 -50 3 -3 25 -21 50 -40 25 -19 47 -38 48 -42 2
-5 10 -8 17 -8 7 0 15 -3 17 -7 2 -5 28 -28 58 -53 30 -25 57 -47 60 -50 3 -3
25 -21 50 -40 59 -46 75 -58 125 -100 23 -19 57 -47 76 -62 19 -14 51 -40 73
-57 27 -21 50 -31 74 -31 49 0 33 -11 -46 -31 -121 -32 -308 -23 -417 20 -42
17 -91 33 -112 38 -13 3 -23 9 -23 14 0 5 -6 9 -14 9 -15 0 -219 122 -242 145
-27 26 -74 46 -94 40 -21 -7 -27 -39 -10 -50 6 -3 10 -14 10 -23 0 -15 30 -71
73 -136 6 -11 29 -37 50 -58 20 -21 37 -40 37 -43 0 -8 -123 6 -135 15 -5 4
-26 10 -45 13 -52 8 -132 27 -155 37 -11 5 -42 16 -70 25 -54 18 -68 24 -130
50 -22 9 -49 20 -60 25 -11 4 -36 15 -57 24 -54 24 -78 21 -78 -9 0 -28 30
-95 42 -95 4 0 8 -7 8 -15 0 -8 5 -15 10 -15 6 0 10 -5 10 -11 0 -9 97 -147
124 -175 6 -7 27 -31 46 -55 47 -58 121 -131 167 -166 21 -15 48 -38 61 -51
73 -71 165 -98 309 -89 87 5 95 4 72 -8 -23 -12 -65 -20 -220 -42 -20 -3 -53
0 -75 6 -42 12 -104 -3 -104 -24 0 -20 54 -62 95 -75 22 -7 47 -16 55 -20 9
-4 31 -11 50 -15 19 -4 40 -11 45 -15 6 -4 26 -10 45 -13 19 -3 69 -13 110
-22 41 -10 98 -21 125 -26 28 -4 82 -15 120 -24 155 -37 364 -57 533 -53 93 2
122 0 122 -9 0 -7 5 -13 10 -13 6 0 10 -11 10 -25 0 -14 -4 -25 -10 -25 -5 0
-10 -15 -10 -34 0 -19 5 -38 10 -41 6 -3 10 -15 10 -26 0 -10 4 -19 9 -19 5 0
12 -11 15 -25 4 -14 11 -25 17 -25 7 0 4 -11 -6 -26 -20 -31 -14 -68 22 -133
28 -49 49 -72 106 -114 20 -15 37 -35 37 -43 0 -7 5 -14 10 -14 6 0 10 -9 10
-20 0 -17 18 -67 41 -113 20 -38 22 -104 4 -134 -14 -25 -70 -70 -100 -82 -26
-10 -86 -89 -96 -124 -12 -44 -4 -111 17 -144 15 -25 18 -50 6 -55 -12 -5 -86
-129 -106 -178 -10 -25 -22 -53 -27 -62 -5 -10 -9 -28 -9 -41 0 -13 -5 -38
-11 -55 l-11 -32 -251 -2 -252 -3 -3 -102 c-2 -64 -7 -103 -13 -103 -14 0 -73
33 -77 43 -2 4 -8 7 -14 7 -6 0 -39 18 -74 40 -35 22 -68 40 -74 40 -5 0 -10
3 -10 8 0 7 -30 25 -62 38 -10 3 -18 10 -18 15 0 5 -5 9 -10 9 -6 0 -35 18
-65 40 -30 22 -59 40 -65 40 -5 0 -10 4 -10 8 0 4 -14 16 -32 26 -28 17 -56
39 -92 71 -6 6 -24 18 -39 28 -16 10 -38 27 -50 37 -43 37 -66 55 -92 74 -46
34 -231 212 -333 320 -45 47 -65 78 -69 102 -3 19 -11 34 -17 34 -7 0 -21 8
-32 19 -30 27 -20 100 16 118 23 11 25 19 31 95 l5 83 -54 53 c-30 28 -57 52
-59 52 -15 0 -103 107 -103 126 0 38 -26 54 -89 54 -65 0 -91 -18 -91 -63 0
-25 -69 -100 -168 -182 -32 -27 -32 -27 -32 -119 l0 -92 30 -11 c28 -10 30
-15 30 -62 0 -39 -4 -51 -15 -51 -8 0 -15 -4 -15 -10 0 -5 -7 -10 -15 -10 -12
0 -15 -15 -15 -72 0 -71 1 -74 30 -90 l30 -17 0 -508 c0 -570 6 -523 -74 -538
-20 -4 -36 -11 -36 -16 0 -5 -11 -9 -25 -9 -14 0 -25 -4 -25 -10 0 -5 -8 -10
-17 -10 -10 0 -31 -7 -47 -15 -15 -8 -34 -15 -41 -15 -7 0 -15 -4 -17 -8 -2
-4 -25 -17 -51 -28 l-49 -21 61 -61 c34 -34 61 -66 61 -71 0 -5 4 -11 8 -13
13 -5 87 -130 111 -187 48 -113 69 -201 80 -331 8 -96 39 -167 78 -176 13 -4
23 -9 23 -13 0 -4 29 -13 64 -20 47 -9 74 -10 102 -2 49 14 54 6 54 -91 0 -43
3 -78 6 -78 7 0 66 32 74 40 3 3 22 13 43 22 46 22 88 23 164 3 31 -8 83 -15
115 -15 50 0 62 4 93 31 33 29 35 34 35 94 0 68 -21 121 -52 131 -17 5 -78 75
-78 89 0 18 240 -9 355 -41 33 -9 72 -18 88 -21 15 -3 30 -9 33 -14 3 -5 13
-9 22 -9 9 0 28 -6 42 -13 14 -7 51 -21 83 -32 31 -10 57 -23 57 -27 0 -4 7
-8 15 -8 8 0 23 -4 33 -9 9 -5 58 -29 107 -53 50 -23 92 -45 95 -48 3 -3 37
-21 75 -40 39 -19 72 -38 73 -42 2 -5 10 -8 18 -8 8 0 31 -10 52 -23 35 -22
287 -146 342 -169 14 -6 32 -14 40 -18 9 -4 30 -11 48 -14 17 -4 34 -12 37
-17 4 -5 16 -9 29 -9 12 0 26 -3 30 -7 12 -12 126 -40 291 -71 129 -24 488
-24 645 1 215 33 303 51 332 67 10 6 31 10 48 10 16 0 30 3 30 8 0 7 58 25
123 39 15 3 27 9 27 14 0 5 7 9 16 9 9 0 31 7 50 15 19 8 49 22 68 30 19 8 41
15 50 15 9 0 16 5 16 10 0 6 6 10 13 10 7 0 37 11 65 25 29 14 56 25 62 25 5
0 10 5 10 10 0 6 6 10 14 10 7 0 71 29 142 64 171 85 239 116 252 116 7 0 12
5 12 10 0 6 5 10 10 10 6 0 32 11 59 24 27 13 62 26 76 30 15 4 46 15 69 25
22 10 64 26 91 36 28 9 59 20 70 25 35 14 144 40 168 40 13 0 27 4 32 9 14 12
155 22 155 11 0 -5 -12 -22 -27 -38 -98 -102 -123 -143 -123 -204 0 -40 5 -52
39 -88 l39 -42 73 6 c41 3 107 8 147 12 57 4 80 2 105 -11 57 -30 77 -42 96
-59 26 -23 31 -11 38 79 l6 75 92 0 c166 0 217 48 232 218 3 40 10 75 14 78 5
3 9 17 9 32 0 32 25 111 65 207 18 44 69 149 75 155 7 7 29 43 37 60 4 8 9 17
12 20 4 3 18 21 33 42 15 20 35 44 44 53 15 15 15 18 -4 36 -12 10 -23 19 -25
19 -3 0 -35 20 -71 45 -37 25 -78 48 -92 51 -13 3 -24 10 -24 15 0 5 -5 9 -11
9 -12 0 -69 24 -109 45 l-25 14 -3 494 -2 495 35 21 c34 20 35 21 35 87 0 57
-3 67 -20 71 -11 3 -20 9 -20 14 0 5 -7 9 -15 9 -11 0 -15 12 -15 48 0 43 3
50 28 63 39 20 42 26 42 109 -1 65 -4 79 -25 103 -13 15 -26 27 -29 27 -3 0
-39 33 -81 74 -55 54 -75 80 -75 99 0 41 -24 57 -89 57 -66 0 -91 -18 -92 -66
0 -22 -11 -38 -47 -68 -26 -21 -71 -60 -99 -87 l-53 -48 0 -96 c0 -93 1 -95
25 -101 23 -6 25 -11 25 -60 0 -30 -4 -54 -8 -54 -17 0 -51 -41 -46 -54 3 -8
1 -23 -5 -34 -31 -57 -283 -308 -421 -419 -19 -15 -36 -31 -38 -35 -2 -5 -10
-8 -17 -8 -7 0 -15 -4 -17 -8 -1 -5 -30 -28 -63 -52 -33 -24 -62 -47 -65 -50
-3 -4 -20 -15 -37 -25 -18 -11 -33 -23 -33 -27 0 -4 -4 -8 -9 -8 -8 0 -130
-77 -141 -90 -4 -4 -21 -14 -95 -54 -10 -6 -25 -17 -33 -23 -7 -7 -20 -13 -28
-13 -8 0 -14 -3 -14 -7 0 -5 -10 -13 -23 -18 -54 -26 -152 -81 -155 -87 -2 -5
-10 -8 -18 -8 -13 0 -15 18 -13 104 1 57 -2 109 -5 115 -5 8 -85 11 -256 11
l-249 0 -7 50 c-4 28 -11 53 -15 56 -5 3 -9 18 -9 35 0 16 -4 29 -10 29 -5 0
-10 7 -10 15 0 9 -16 44 -35 79 l-34 63 32 36 c61 68 72 88 87 160 18 87 0
155 -54 209 -23 24 -60 57 -81 73 -51 39 -95 86 -95 102 0 7 -4 13 -9 13 -5 0
-11 14 -15 31 -4 23 -2 35 10 44 17 12 16 77 -3 160 -11 47 -7 65 13 65 21 0
28 45 13 95 -7 25 -16 45 -20 45 -4 0 -9 9 -12 20 -5 21 14 42 21 22 2 -7 15
-12 28 -12 20 0 24 5 24 30 0 30 8 53 41 126 17 37 108 144 122 144 3 0 8 -14
12 -31 11 -50 31 -46 96 20 33 33 69 61 79 61 16 0 93 -30 148 -58 7 -4 23
-25 35 -47 23 -42 39 -57 114 -109 57 -39 62 -52 26 -61 -52 -13 -57 -47 -10
-65 17 -6 40 -16 49 -21 26 -13 172 -11 205 3 76 33 133 104 133 165 0 15 -7
74 -17 131 -18 109 -17 117 30 245 7 20 6 35 -2 53 -6 14 -11 36 -11 49 0 55
-110 289 -142 303 -5 2 -8 10 -8 17 0 7 -3 15 -8 17 -4 2 -23 23 -42 48 -58
74 -63 80 -125 147 -79 86 -111 109 -130 93 -7 -6 -15 -21 -17 -33 -3 -21 -4
-20 -31 8 -15 17 -33 42 -40 58 -6 15 -15 27 -18 27 -16 0 -16 46 1 113 25 95
44 154 53 163 4 4 7 15 7 24 0 39 162 385 213 454 40 56 87 129 87 136 0 6 4
10 8 10 4 0 16 15 27 33 10 17 24 37 29 43 10 9 50 56 130 149 19 22 26 41 26
73 0 41 23 154 39 197 5 11 14 38 21 60 7 22 25 68 41 103 16 35 29 68 29 73
0 5 3 9 8 9 4 0 16 18 26 40 11 22 23 40 27 40 4 0 10 11 13 25 4 14 11 25 16
25 6 0 10 5 10 10 0 6 11 23 25 38 14 15 25 30 25 35 0 21 221 240 320 317 25
19 47 38 48 42 2 5 8 8 14 8 5 0 16 6 23 13 33 29 45 37 54 37 5 0 11 4 13 8
4 9 114 78 188 118 30 16 57 32 58 37 2 4 9 7 16 7 7 0 33 11 57 23 24 13 57
27 73 31 76 19 110 78 63 108 -38 26 -94 31 -327 31 -246 1 -393 -15 -495 -53
-62 -23 -127 -42 -130 -38 -7 7 116 128 130 128 4 0 23 16 43 35 20 19 45 38
55 41 9 3 17 10 17 15 0 5 6 9 14 9 8 0 16 3 18 8 2 4 21 16 43 27 22 11 42
22 45 25 11 11 176 90 188 90 6 0 12 5 12 10 0 6 9 10 20 10 21 0 69 26 82 45
13 18 9 55 -6 55 -8 0 -16 5 -18 12 -6 18 -180 23 -279 8 -46 -7 -111 -16
-144 -20 -33 -4 -87 -15 -120 -25 -33 -9 -72 -19 -88 -22 -15 -3 -30 -9 -33
-14 -3 -5 -12 -9 -20 -9 -28 0 -260 -119 -298 -152 -11 -10 -23 -18 -27 -18
-4 0 -25 -16 -46 -36 -36 -35 -61 -31 -29 5 9 10 16 20 16 24 0 9 150 249 166
264 8 8 14 17 14 21 0 4 11 20 25 36 14 16 25 32 25 36 0 4 15 23 33 42 42 46
57 73 57 101 0 30 -44 57 -62 39 -7 -7 -21 -12 -31 -12 -20 0 -227 -125 -264
-160 -12 -11 -27 -20 -33 -20 -5 0 -10 -4 -10 -9 0 -5 -8 -12 -18 -15 -10 -4
-27 -14 -38 -24 -11 -9 -40 -33 -64 -52 -25 -19 -46 -38 -48 -42 -2 -4 -8 -8
-14 -8 -5 0 -15 -6 -22 -12 -7 -7 -43 -40 -81 -73 -83 -73 -77 -67 -150 -150
-33 -37 -70 -80 -83 -94 -13 -14 -42 -51 -65 -81 -23 -30 -45 -56 -49 -58 -5
-2 -8 -7 -8 -11 0 -5 -22 -42 -50 -84 -27 -41 -57 -92 -67 -113 -10 -22 -20
-41 -23 -44 -11 -11 -40 -73 -40 -86 0 -8 -4 -14 -10 -14 -5 0 -10 -4 -10 -10
0 -5 -11 -33 -24 -62 -13 -29 -31 -73 -41 -98 -44 -115 -40 -114 -55 -20 -9
58 -11 135 -7 250 6 174 4 205 -18 214 -25 9 -85 -67 -85 -109 0 -8 -4 -15 -9
-15 -5 0 -11 -12 -14 -27 -2 -16 -14 -53 -26 -83 -29 -74 -59 -185 -82 -305
-11 -55 -24 -119 -29 -143 -6 -23 -10 -73 -10 -110 0 -37 -5 -94 -10 -127 -5
-34 -15 -108 -21 -165 -22 -218 -27 -257 -39 -322 -8 -38 -16 -68 -19 -68 -7
1 -91 176 -91 190 0 5 -4 10 -10 10 -5 0 -10 5 -10 11 0 15 -50 79 -84 108
-15 14 -33 30 -40 36 -6 6 -36 26 -66 45 -30 19 -57 37 -60 40 -3 3 -22 14
-42 24 -21 11 -38 23 -38 28 0 4 -6 8 -13 8 -7 0 -24 11 -39 25 -15 14 -30 25
-33 25 -4 0 -13 6 -20 13 -8 6 -33 28 -56 47 -51 43 -152 145 -199 200 -19 22
-41 47 -47 55 -7 7 -13 18 -13 23 0 6 -3 12 -8 14 -19 8 -142 228 -142 255 0
7 -4 13 -8 13 -4 0 -16 26 -27 58 -10 31 -22 64 -26 72 -18 35 -51 179 -71
305 -20 124 -17 581 5 720 22 141 33 200 46 250 17 65 14 113 -8 125 -34 18
-38 15 -116 -74 -13 -16 -34 -47 -42 -66 -4 -8 -9 -17 -13 -20 -11 -9 -140
-219 -140 -229 0 -5 -3 -11 -8 -13 -7 -3 -61 -111 -95 -188 -42 -97 -97 -274
-97 -313 0 -14 -4 -28 -9 -31 -5 -3 -12 -39 -15 -79 -12 -119 -23 -118 -60 3
-10 30 -21 64 -26 75 -16 42 -40 133 -40 154 0 11 -4 29 -9 39 -10 18 -32 160
-52 327 -11 95 -8 271 6 361 6 36 4 44 -16 58 -33 23 -42 21 -82 -21z m45 -74
c-2 -13 -6 -73 -9 -134 -5 -103 -2 -142 28 -350 7 -44 14 -98 16 -120 3 -22 9
-44 14 -49 5 -6 9 -22 9 -36 0 -15 6 -46 14 -71 7 -24 26 -84 41 -134 16 -49
32 -94 37 -100 4 -5 8 -15 8 -22 0 -7 11 -36 24 -65 13 -29 32 -74 42 -100 11
-27 22 -48 27 -48 4 0 7 33 7 73 1 70 29 270 49 352 6 22 16 64 23 93 6 28 16
52 20 52 4 0 8 8 8 19 0 16 13 55 40 116 20 47 95 200 100 205 3 3 14 22 25
43 11 20 22 37 26 37 4 0 9 8 13 18 7 20 25 49 48 76 10 11 20 28 24 38 3 10
10 18 15 18 5 0 9 5 9 11 0 11 48 79 65 91 17 12 18 0 5 -49 -14 -54 -23 -101
-48 -253 -23 -148 -23 -593 0 -735 34 -201 48 -255 106 -395 38 -95 131 -270
158 -301 8 -8 14 -19 14 -24 0 -4 10 -17 23 -29 12 -12 39 -42 59 -67 50 -62
110 -122 193 -194 39 -33 72 -63 73 -67 2 -5 10 -8 18 -8 8 0 14 -3 14 -8 0
-4 16 -16 35 -26 19 -11 35 -22 35 -26 0 -5 11 -11 25 -14 14 -4 25 -11 25
-16 0 -6 4 -10 10 -10 11 0 105 -59 137 -86 49 -43 59 -52 76 -73 25 -32 77
-129 77 -145 0 -8 3 -16 8 -18 6 -3 56 -92 86 -155 6 -13 14 -23 19 -23 4 0 7
-4 7 -9 0 -10 77 -129 97 -149 7 -7 13 -17 13 -21 0 -4 8 -16 18 -27 10 -11
27 -33 38 -49 19 -30 33 -48 86 -109 15 -17 28 -36 28 -43 0 -6 3 -13 8 -15 4
-1 28 -28 52 -58 56 -67 180 -193 240 -241 25 -20 59 -49 75 -63 17 -14 33
-26 37 -26 4 0 13 -6 20 -13 7 -7 40 -33 73 -57 33 -25 62 -48 65 -51 3 -4 15
-9 28 -13 12 -4 22 -12 22 -17 0 -5 7 -9 15 -9 8 0 15 -3 15 -8 0 -4 16 -16
35 -26 19 -11 35 -23 35 -28 0 -4 6 -8 14 -8 8 0 21 -6 28 -12 16 -15 73 -48
83 -48 3 0 5 21 4 47 -2 26 1 48 6 49 6 1 33 -24 60 -57 28 -32 64 -74 80 -93
17 -18 53 -66 80 -107 28 -41 52 -76 55 -79 10 -10 68 -136 78 -170 35 -116
35 -120 25 -143 -6 -12 -19 -49 -29 -82 -15 -53 -16 -68 -4 -140 20 -126 23
-154 16 -178 -7 -30 -59 -87 -79 -87 -8 0 -17 -5 -19 -12 -5 -13 -123 -17
-152 -5 -17 7 -17 9 8 30 14 12 26 27 26 33 0 12 -54 54 -70 54 -5 0 -10 5
-10 10 0 6 -6 10 -13 10 -8 0 -27 11 -43 25 -16 14 -32 25 -35 25 -4 0 -19 24
-33 53 -26 51 -32 56 -111 86 -11 5 -37 16 -58 25 -21 9 -47 16 -58 16 -27 0
-69 -23 -98 -54 -31 -33 -51 -33 -51 -1 0 14 -5 25 -12 25 -31 0 -157 -118
-179 -169 -8 -17 -17 -31 -21 -31 -5 0 -8 -6 -8 -12 0 -35 -22 -87 -34 -82
-14 6 -46 67 -46 90 0 33 -19 1 -31 -51 -9 -43 -9 -63 1 -99 7 -25 17 -46 21
-46 5 0 9 -10 9 -22 0 -13 4 -30 9 -38 14 -21 3 -31 -19 -18 -11 7 -21 10 -24
8 -6 -7 18 -167 27 -176 4 -4 7 -22 7 -41 0 -29 -3 -33 -25 -33 -35 0 -32 -20
22 -140 19 -41 71 -110 83 -110 5 0 22 -12 38 -28 16 -15 45 -39 65 -54 65
-50 70 -181 11 -268 -41 -61 -53 -62 -43 -3 4 26 5 71 3 98 -6 53 -34 135 -46
135 -5 0 -8 -26 -8 -57 0 -62 -17 -120 -37 -127 -10 -4 -13 10 -13 58 0 61 -2
67 -38 105 -21 23 -41 41 -46 41 -9 0 -31 18 -64 54 -58 63 -73 76 -87 76 -8
0 -15 4 -15 9 0 9 -48 19 -142 30 -63 7 -65 17 -11 45 38 19 92 24 146 13 37
-8 37 -8 37 24 0 43 -33 93 -74 113 -19 9 -39 16 -45 16 -6 0 -11 5 -11 10 0
6 -6 10 -13 10 -24 0 -137 121 -137 147 0 11 58 5 66 -8 5 -9 54 -13 54 -5 0
3 -20 24 -45 48 -24 24 -45 50 -45 59 0 37 -32 103 -62 130 -41 35 -56 36 -64
4 -3 -14 -9 -25 -13 -25 -3 0 -12 -25 -19 -55 -11 -45 -11 -71 -1 -133 7 -42
16 -81 21 -87 4 -5 8 -20 8 -33 0 -22 -3 -24 -35 -18 -30 6 -35 4 -35 -13 0
-11 5 -23 10 -26 6 -3 10 -19 10 -35 0 -16 4 -40 10 -54 12 -33 0 -40 -51 -26
-22 6 -43 9 -46 6 -15 -15 48 -113 75 -117 4 0 48 -5 97 -9 119 -11 232 -27
273 -39 50 -15 122 -101 122 -145 0 -9 5 -16 10 -16 6 0 10 -11 10 -25 0 -14
-2 -25 -5 -25 -2 0 -37 33 -77 73 -59 58 -84 75 -129 90 -31 9 -69 17 -84 17
-28 0 -28 -1 -9 -15 10 -8 26 -15 35 -15 27 0 72 -28 102 -61 33 -39 28 -47
-15 -27 -18 9 -49 21 -69 27 -44 14 -156 14 -164 1 -3 -5 -19 -10 -34 -10 -15
0 -54 -16 -87 -36 -58 -36 -142 -63 -196 -64 -32 0 -85 -49 -118 -108 -18 -32
-26 -39 -37 -31 -7 6 -13 20 -13 30 0 11 -5 28 -12 38 -9 15 -8 26 5 52 20 42
60 89 76 89 6 0 11 4 11 9 0 5 8 12 18 15 22 7 82 62 82 75 0 5 6 11 13 14 16
5 16 126 0 158 -6 13 -24 59 -40 103 -22 62 -36 85 -67 110 -80 64 -99 86
-121 139 -14 34 -14 36 2 30 10 -4 32 -17 49 -30 17 -13 38 -23 47 -23 33 0
16 33 -48 98 -36 36 -65 69 -65 75 0 5 -9 22 -21 39 -25 35 -19 46 16 28 14
-7 28 -10 32 -7 3 4 -10 39 -30 78 l-36 70 61 38 c39 25 56 41 48 46 -7 4 -15
3 -19 -2 -3 -6 -22 -13 -41 -16 -19 -3 -60 -11 -90 -17 -58 -13 -405 -9 -418
5 -4 4 7 18 23 31 17 14 48 40 70 59 22 19 54 44 70 57 17 12 35 27 41 33 6 5
32 27 58 49 25 21 46 42 46 46 0 5 -66 -24 -147 -65 -185 -92 -257 -125 -271
-125 -7 0 -12 -4 -12 -8 0 -27 -206 -28 -310 -2 -19 5 -69 16 -110 26 -41 9
-82 20 -90 24 -9 4 -36 11 -60 15 -25 4 -54 14 -65 21 -18 13 -15 14 30 14
101 1 235 25 287 51 10 5 23 9 29 9 15 0 63 22 184 82 151 75 176 99 75 71
-173 -47 -271 -63 -428 -70 -84 -3 -127 -2 -135 6 -6 6 -19 11 -30 11 -15 0
-76 38 -97 60 -3 3 -24 20 -46 38 -52 40 -136 124 -194 193 -24 30 -48 56 -52
57 -5 2 -8 10 -8 18 0 8 -4 14 -9 14 -5 0 -12 8 -15 18 -4 10 -14 27 -24 38
-24 26 -82 118 -77 122 3 3 84 -30 117 -48 10 -6 27 -10 38 -10 11 0 20 -4 20
-9 0 -5 12 -11 28 -14 24 -4 60 -16 117 -38 11 -4 52 -15 90 -24 39 -9 86 -20
105 -25 19 -5 76 -14 125 -20 50 -6 100 -13 113 -16 37 -8 25 16 -48 93 -93
99 -168 199 -157 209 2 2 29 -14 59 -36 64 -45 225 -130 296 -155 26 -10 56
-21 67 -25 50 -22 173 -40 261 -40 115 0 208 21 296 66 14 8 31 14 37 14 15 0
101 53 101 62 0 5 -55 8 -123 8 -117 0 -123 1 -149 25 -15 14 -31 25 -37 25
-5 0 -11 4 -13 8 -1 4 -23 23 -48 42 -25 19 -52 42 -60 50 -8 9 -35 31 -60 50
-25 19 -46 38 -48 42 -2 5 -11 8 -20 8 -10 0 -12 3 -6 9 15 16 114 33 209 38
78 4 118 0 234 -23 21 -5 22 -3 8 11 -9 8 -25 15 -36 15 -12 0 -21 5 -21 10 0
6 -8 10 -17 10 -10 0 -40 7 -68 16 -27 9 -64 20 -81 25 -17 5 -102 14 -190 19
-204 13 -214 15 -246 45 -15 14 -30 25 -34 25 -4 0 -16 10 -28 23 -11 12 -39
36 -61 52 -22 17 -45 35 -51 40 -6 6 -25 21 -43 35 -42 33 -69 56 -106 89 -16
15 -45 36 -62 46 -58 34 -32 45 64 25 80 -15 203 -17 203 -3 0 7 -3 13 -8 13
-4 0 -27 18 -52 41 -25 23 -80 73 -124 113 -122 111 -236 223 -231 227 10 11
278 -26 307 -42 10 -5 29 -9 42 -9 14 0 35 -4 48 -9 13 -5 50 -17 83 -26 33
-9 67 -20 75 -25 9 -4 31 -11 50 -15 19 -4 41 -11 50 -15 36 -19 89 -40 100
-40 10 0 10 3 0 15 -7 8 -19 15 -26 15 -8 0 -14 3 -14 8 0 4 -9 12 -19 17
-126 64 -156 81 -159 88 -2 4 -11 7 -20 7 -9 0 -26 7 -36 15 -11 8 -30 15 -43
15 -13 0 -23 4 -23 8 0 4 -26 16 -57 26 -32 10 -67 22 -78 27 -54 23 -287 78
-377 89 -75 8 -96 19 -161 82 -47 45 -159 146 -210 188 -17 14 -40 34 -51 45
-12 11 -36 30 -55 41 -18 12 -29 24 -25 27 9 5 84 -6 154 -23 49 -12 157 -31
205 -37 22 -3 45 -9 50 -13 13 -10 133 -23 120 -13 -5 4 -27 29 -48 55 -21 26
-44 53 -51 60 -39 39 -196 316 -196 346 0 6 -4 12 -10 12 -5 0 -10 7 -10 15 0
8 -4 23 -9 33 -21 39 -41 86 -41 97 0 7 -7 26 -15 41 -8 16 -15 37 -15 46 0 9
-4 19 -9 22 -5 3 -11 20 -14 38 -7 41 -32 138 -40 158 -3 8 -8 35 -11 60 -3
25 -10 79 -16 120 -12 85 -15 466 -5 523 9 46 21 48 28 5 3 -18 13 -60 22 -93
9 -33 19 -76 22 -95 3 -19 9 -39 13 -45 4 -5 10 -28 14 -50 4 -22 11 -51 15
-65 5 -14 17 -52 27 -85 10 -33 22 -64 26 -70 4 -5 8 -17 8 -27 0 -10 4 -26 9
-36 6 -9 24 -48 42 -87 18 -38 36 -71 41 -73 4 -2 8 -10 8 -18 0 -8 5 -14 10
-14 6 0 10 -6 10 -13 0 -24 134 -176 145 -165 4 4 2 21 -3 40 -13 39 -32 255
-32 348 0 76 18 270 30 320 4 19 16 71 25 115 10 44 21 89 25 100 21 55 40
122 40 138 0 9 4 17 9 17 5 0 11 13 14 30 4 16 16 49 27 72 11 23 20 46 20 50
0 14 83 183 92 186 4 2 8 8 8 13 0 15 24 39 35 35 6 -2 9 -14 7 -27z m3538
-312 c0 -2 -8 -13 -17 -25 -10 -11 -28 -34 -40 -49 -12 -15 -31 -39 -42 -52
-12 -13 -21 -27 -21 -31 0 -3 -8 -15 -17 -26 -24 -27 -42 -55 -49 -76 -4 -10
-10 -18 -15 -18 -5 0 -9 -6 -9 -12 0 -7 -14 -29 -31 -48 -53 -61 -144 -162
-156 -176 -7 -7 -13 -15 -13 -18 0 -2 -16 -21 -35 -41 -19 -21 -37 -46 -40
-56 -4 -10 -11 -19 -16 -19 -5 0 -9 -5 -9 -10 0 -10 -8 -22 -37 -55 -7 -7 -13
-18 -13 -24 0 -6 -3 -11 -8 -11 -4 0 -16 -17 -27 -37 -11 -21 -26 -44 -32 -51
-7 -7 -13 -19 -13 -27 0 -7 -3 -15 -8 -17 -13 -6 -100 -191 -127 -273 -9 -27
-21 -58 -26 -67 -5 -10 -9 -29 -9 -43 0 -14 -4 -33 -10 -43 -13 -24 -28 -169
-18 -184 5 -9 8 -6 8 9 0 12 5 25 10 28 6 3 10 17 10 31 0 13 5 24 10 24 6 0
10 8 10 17 0 21 103 231 147 300 18 29 33 55 33 58 0 9 54 90 63 93 4 2 7 10
7 18 0 8 4 14 9 14 5 0 13 10 17 23 4 12 10 24 13 27 4 3 22 25 41 50 19 25
42 54 50 64 25 32 163 169 205 203 22 18 46 33 53 33 6 0 12 3 12 8 0 4 17 16
38 27 20 11 39 23 42 26 22 27 309 139 357 139 12 0 25 5 28 10 3 6 23 10 43
10 20 0 78 7 127 15 114 19 265 20 265 2 0 -6 -15 -18 -32 -26 -18 -7 -46 -20
-62 -27 -16 -8 -35 -14 -42 -14 -7 0 -14 -3 -16 -7 -1 -5 -27 -20 -56 -35 -73
-38 -116 -62 -122 -69 -3 -3 -20 -14 -37 -24 -18 -11 -33 -23 -33 -27 0 -4 -6
-8 -13 -8 -7 0 -24 -11 -39 -25 -15 -14 -31 -25 -35 -25 -7 0 -134 -129 -189
-191 -28 -32 -74 -106 -74 -119 0 -9 35 5 50 20 11 11 73 40 86 40 8 0 14 5
14 10 0 6 7 10 16 10 9 0 30 6 47 14 30 12 47 18 152 47 85 23 178 31 390 36
159 3 231 1 258 -8 40 -13 45 -32 9 -37 -12 -2 -22 -8 -22 -13 0 -5 -6 -9 -12
-9 -12 0 -177 -79 -188 -90 -3 -3 -14 -10 -25 -16 -108 -59 -140 -78 -143 -85
-2 -5 -8 -9 -13 -9 -9 0 -21 -8 -54 -37 -7 -7 -16 -13 -20 -13 -3 0 -16 -11
-28 -23 -12 -13 -27 -26 -33 -28 -36 -13 -251 -218 -324 -309 -52 -65 -110
-150 -110 -160 0 -6 -4 -10 -9 -10 -5 0 -17 -20 -28 -45 -10 -25 -21 -45 -25
-45 -5 0 -8 -4 -8 -10 0 -5 -11 -33 -24 -62 -55 -120 -106 -303 -106 -379 0
-19 -16 -45 -52 -86 -29 -32 -56 -59 -60 -61 -5 -2 -8 -8 -8 -13 0 -6 -11 -22
-25 -37 -14 -15 -25 -32 -25 -39 0 -7 -4 -13 -8 -13 -10 0 -72 -87 -72 -100 0
-6 -4 -10 -10 -10 -5 0 -10 -5 -10 -10 0 -6 -22 -45 -48 -88 -42 -67 -118
-218 -142 -277 -4 -11 -12 -31 -18 -45 -53 -125 -62 -152 -102 -309 -19 -74
-19 -76 0 -118 18 -42 12 -56 -14 -30 -7 6 -27 23 -45 37 -73 55 -72 53 -65
170 7 133 25 260 59 425 9 44 20 98 25 120 4 22 16 67 25 100 10 33 19 71 22
85 2 14 8 34 12 45 5 11 16 47 26 80 9 33 21 71 25 85 5 14 15 50 24 80 9 30
21 64 25 75 5 11 16 43 26 70 9 28 20 59 25 70 4 11 15 40 25 65 44 114 84
206 140 323 14 29 25 58 25 65 0 6 4 12 9 12 5 0 12 11 15 25 4 14 11 25 16
25 6 0 10 5 10 10 0 6 11 28 25 50 38 60 30 67 -17 17 -47 -49 -56 -60 -108
-127 -19 -25 -38 -46 -42 -48 -5 -2 -8 -10 -8 -17 0 -7 -4 -15 -8 -17 -4 -1
-32 -43 -62 -93 -29 -49 -63 -106 -75 -125 -20 -32 -126 -248 -145 -295 -26
-66 -42 -102 -50 -117 -6 -10 -10 -25 -10 -33 0 -8 -4 -23 -9 -33 -24 -44 -41
-87 -41 -103 0 -10 -4 -20 -9 -23 -5 -3 -12 -22 -16 -42 -3 -20 -10 -44 -14
-53 -9 -17 -32 -90 -51 -161 -6 -25 -16 -59 -21 -76 -5 -17 -9 -35 -9 -42 0
-6 -4 -22 -10 -37 l-10 -26 -55 58 -54 58 -1 -157 c0 -87 -3 -158 -7 -158 -11
1 -43 26 -43 34 0 5 -14 23 -65 81 -34 39 -51 60 -121 156 -38 52 -72 96 -76
97 -5 2 -8 7 -8 12 0 10 -82 134 -92 138 -4 2 -8 10 -8 17 0 8 -6 20 -12 27
-7 7 -23 31 -34 53 -20 36 -21 47 -12 100 18 107 31 145 45 133 7 -6 13 -15
13 -20 0 -29 201 -268 225 -268 6 0 -7 34 -15 40 -7 5 -35 54 -76 130 -11 19
-21 37 -24 40 -3 3 -22 39 -42 80 -33 70 -50 107 -76 172 -6 15 -9 45 -6 65 3
21 9 106 14 188 12 177 16 219 36 305 31 141 101 362 129 412 7 11 10 -52 11
-188 1 -196 2 -205 22 -223 20 -16 22 -29 22 -107 0 -85 26 -225 43 -232 4 -2
7 -12 7 -22 0 -18 18 -68 64 -173 9 -21 16 -43 16 -50 0 -7 7 -21 16 -32 14
-19 14 -17 8 25 -4 25 -10 50 -14 55 -9 12 -29 98 -41 175 -31 194 -35 348
-10 373 6 6 11 19 11 29 0 10 4 26 10 36 5 9 25 53 45 97 58 128 126 258 138
263 4 2 7 8 7 13 0 14 104 169 145 215 6 7 25 31 44 55 45 57 267 277 317 315
22 16 41 31 44 35 3 3 32 25 65 49 33 24 66 50 73 57 7 7 17 13 21 13 4 0 16
8 27 18 10 10 34 27 52 37 17 11 32 22 32 26 0 4 8 9 18 13 17 5 52 26 62 36
19 19 110 50 110 37z m-4400 -4652 c0 -16 -1 -17 -60 -17 -59 0 -60 1 -54 17
5 11 21 15 60 15 41 0 54 -4 54 -15z m5506 4 c9 -15 -15 -29 -53 -29 -43 0
-63 9 -56 26 6 17 98 20 109 3z m-5491 -73 c41 -29 167 -158 161 -164 -4 -3
-15 -1 -26 6 -36 22 -191 34 -295 22 -53 -5 -105 -15 -115 -20 -53 -28 -35 0
50 80 l95 90 55 0 c32 0 64 -6 75 -14z m5538 -28 c25 -24 66 -63 93 -87 46
-42 49 -65 5 -42 -10 6 -62 15 -114 21 -100 11 -243 1 -292 -22 -49 -22 -35 1
52 86 l88 86 62 0 c60 0 64 -2 106 -42z m-5453 -148 c3 -4 21 -10 40 -14 46
-8 56 -16 64 -48 6 -25 3 -28 -17 -28 -13 0 -27 4 -33 10 -16 16 -203 32 -289
25 -44 -4 -95 -13 -114 -21 -54 -22 -71 -19 -71 16 0 26 5 30 43 41 23 6 51
15 62 20 38 16 303 16 315 -1z m5508 1 c9 -5 36 -14 60 -20 37 -11 42 -15 42
-41 0 -25 -4 -30 -24 -30 -14 0 -27 4 -30 9 -3 5 -45 14 -93 21 -99 14 -231 8
-296 -15 -64 -23 -87 -20 -87 10 0 26 16 36 95 63 38 13 309 15 333 3z m-5688
-164 c0 -78 -9 -97 -47 -97 -22 0 -23 3 -23 85 l0 85 35 0 35 0 0 -73z m110
-13 c0 -85 0 -86 -22 -80 -13 3 -26 6 -30 6 -5 0 -8 36 -8 80 l0 80 30 0 30 0
0 -86z m5400 13 c0 -78 -9 -97 -47 -97 -22 0 -23 3 -23 85 l0 85 35 0 35 0 0
-73z m108 -9 c-3 -79 -4 -83 -27 -86 -33 -5 -41 12 -41 96 l0 72 35 0 36 0 -3
-82z m-5730 -15 c-3 -77 -3 -78 -30 -81 l-28 -3 0 80 0 81 30 0 31 0 -3 -77z
m333 47 c4 -14 7 -49 8 -77 1 -49 -1 -53 -21 -53 -38 0 -45 12 -52 88 l-6 73
32 -3 c25 -2 34 -9 39 -28z m5167 -47 c-3 -77 -3 -78 -30 -81 -28 -3 -28 -3
-28 62 0 80 6 96 36 96 24 0 25 -1 22 -77z m336 61 c3 -9 6 -45 6 -80 0 -56
-2 -64 -19 -64 -46 0 -51 9 -51 86 l0 74 29 0 c17 0 31 -6 35 -16z m-5924 -20
c0 -8 -4 -14 -10 -14 -5 0 -10 9 -10 21 0 11 5 17 10 14 6 -3 10 -13 10 -21z
m462 -6 c-9 -9 -12 -7 -12 12 0 19 3 21 12 12 9 -9 9 -15 0 -24z m5048 6 c0
-16 -16 -19 -25 -4 -8 13 4 32 16 25 5 -4 9 -13 9 -21z m465 -4 c-5 -8 -11 -8
-17 -2 -6 6 -7 16 -3 22 5 8 11 8 17 2 6 -6 7 -16 3 -22z m-5590 -151 c5 -5
18 -9 30 -9 37 0 69 -24 72 -53 1 -22 -2 -27 -22 -27 -13 0 -26 4 -30 9 -3 5
-31 13 -63 16 -31 4 -74 11 -95 16 -38 10 -140 0 -232 -23 -22 -5 -50 -12 -62
-15 -20 -5 -23 -1 -23 25 0 23 6 32 28 40 53 19 108 32 152 35 68 6 234 -4
245 -14z m5503 0 c2 -5 12 -9 21 -9 10 0 32 -5 50 -11 25 -9 31 -16 31 -40 0
-35 -18 -37 -76 -12 -55 24 -309 23 -374 0 -60 -22 -80 -21 -80 2 0 26 25 50
58 57 15 3 34 8 42 12 53 20 320 21 328 1z m-5688 -239 c0 -147 -1 -151 -22
-159 -45 -17 -48 -8 -48 155 l0 154 35 0 35 0 0 -150z m110 -5 l0 -155 -30 0
-30 0 0 155 0 155 30 0 30 0 0 -155z m5278 -161 c-2 -1 -15 -5 -31 -9 l-27 -7
0 150 0 151 28 13 27 13 3 -154 c1 -84 1 -155 0 -157z m122 167 c0 -83 -3
-152 -7 -154 -5 -2 -20 -7 -35 -11 l-28 -6 0 160 0 160 35 0 35 0 0 -149z
m110 -5 c0 -85 -4 -157 -9 -160 -5 -4 -21 -2 -35 4 l-26 10 0 150 0 150 35 0
35 0 0 -154z m-5730 -14 l0 -148 -30 -11 -30 -11 0 158 c0 157 0 159 23 162
12 2 25 2 30 0 4 -2 7 -69 7 -150z m330 141 c3 -3 7 -72 9 -154 l3 -149 -23 0
c-13 0 -29 4 -35 8 -13 8 -30 283 -19 301 6 10 52 5 65 -6z m5484 7 l26 -10 0
-150 c0 -158 1 -157 -47 -144 -23 6 -23 9 -23 160 0 89 4 154 9 154 5 0 21 -4
35 -10z m-5431 -29 c-4 -3 -11 -10 -15 -15 -5 -5 -8 0 -8 12 0 15 4 20 16 15
9 -3 12 -9 7 -12z m5032 -11 c-6 -9 -9 -9 -16 1 -10 17 0 34 13 21 6 -6 7 -16
3 -22z m468 4 c-4 -12 -8 -13 -14 -3 -9 15 -2 32 11 24 5 -3 6 -13 3 -21z
m-5973 7 c0 -6 -4 -13 -10 -16 -5 -3 -10 1 -10 9 0 9 5 16 10 16 6 0 10 -4 10
-9z m3144 -61 c6 -6 18 -10 28 -10 20 0 91 -31 96 -42 2 -5 10 -8 18 -8 27 0
96 -52 180 -135 46 -47 84 -91 84 -99 0 -8 4 -16 8 -18 7 -3 51 -90 73 -143
21 -53 40 -186 37 -265 l-3 -85 -59 0 -58 0 -2 120 c-1 71 -7 136 -15 160 -15
44 -43 107 -51 115 -3 3 -12 18 -20 34 -35 70 -201 216 -245 216 -8 0 -15 3
-15 8 0 4 -28 16 -62 27 -86 27 -266 27 -355 0 -35 -11 -63 -23 -63 -27 0 -4
-6 -8 -14 -8 -18 0 -76 -32 -76 -42 0 -5 -4 -8 -10 -8 -13 0 -109 -96 -141
-140 -13 -19 -33 -53 -43 -75 -11 -22 -23 -48 -27 -57 -5 -10 -9 -26 -9 -36 0
-10 -5 -23 -12 -30 -8 -8 -12 -53 -12 -137 l0 -125 -54 0 -55 0 6 143 c2 78
10 158 17 177 7 19 16 44 20 55 33 94 106 202 146 215 21 7 36 22 47 48 9 21
28 45 42 52 14 7 25 17 25 22 0 4 6 8 13 8 7 0 29 11 49 25 20 14 50 25 67 25
27 0 89 25 101 42 15 19 325 17 344 -2z m2279 -177 c-10 -16 -22 -33 -28 -39
-5 -6 -32 -36 -59 -67 -27 -31 -52 -54 -57 -51 -5 3 -9 47 -9 99 l0 93 83 83
82 84 3 -87 c2 -70 -1 -93 -15 -115z m-4817 110 l74 -78 0 -97 c0 -54 -2 -98
-5 -98 -8 0 -115 112 -115 120 0 4 -11 20 -25 36 -22 26 -25 38 -25 112 0 52
4 82 11 82 6 0 44 -35 85 -77z m2504 -108 c17 -9 30 -19 30 -23 0 -4 -26 -16
-57 -27 -32 -11 -60 -22 -63 -25 -3 -3 -24 -14 -47 -24 -24 -11 -43 -23 -43
-28 0 -4 -6 -8 -12 -8 -7 0 -57 -46 -111 -101 l-98 -101 -39 42 c-22 24 -40
47 -40 51 0 4 -6 14 -13 21 -7 7 -19 28 -25 47 -11 32 -10 35 27 70 40 38 105
74 181 102 63 23 269 25 310 4z m-2262 -112 c19 -18 38 -33 42 -33 3 0 15 -8
26 -18 10 -10 46 -38 79 -62 33 -24 69 -52 79 -62 11 -10 28 -20 38 -24 10 -3
18 -10 18 -15 0 -5 6 -9 14 -9 8 0 16 -3 18 -8 2 -4 28 -23 58 -42 30 -19 57
-37 60 -40 3 -3 14 -10 25 -16 64 -34 91 -50 103 -61 7 -7 20 -13 28 -13 8 0
14 -3 14 -7 0 -5 28 -21 63 -38 34 -16 64 -33 67 -36 3 -3 36 -20 73 -38 l68
-33 -3 -46 -3 -47 -280 -3 c-181 -1 -296 1 -325 9 -114 28 -166 31 -592 39
-10 0 -11 534 -2 543 6 6 99 -55 114 -74 3 -3 15 -11 28 -18 20 -11 22 -19 22
-91 l0 -80 40 0 40 0 0 44 c0 40 13 69 22 49 9 -22 277 -173 306 -173 6 0 12
-4 12 -10 0 -5 7 -10 15 -10 8 0 23 -4 33 -9 46 -25 87 -41 106 -41 29 0 13
11 -84 61 -47 24 -87 46 -90 49 -3 3 -36 26 -75 50 -38 24 -76 49 -83 57 -7 7
-16 13 -20 13 -4 0 -20 11 -35 24 -16 14 -46 39 -68 57 l-39 32 0 92 c0 50 3
94 6 98 6 6 25 -8 82 -60z m4316 -158 c-15 -14 -30 -25 -33 -25 -3 0 -22 -14
-41 -30 -19 -16 -38 -30 -42 -30 -4 0 -13 -6 -20 -13 -7 -8 -45 -33 -83 -57
-39 -24 -72 -47 -75 -50 -3 -3 -14 -10 -25 -16 -116 -63 -141 -78 -149 -85
-21 -19 15 -9 109 30 29 12 187 90 205 101 8 5 52 32 98 60 l82 50 0 -50 0
-50 40 0 40 0 0 73 c0 68 2 76 29 99 15 14 41 34 57 44 16 11 38 27 48 36 11
10 23 18 28 18 4 0 8 -123 8 -274 l0 -274 -142 -6 c-152 -6 -275 -19 -348 -35
-25 -6 -194 -10 -386 -11 l-341 0 -6 36 c-8 45 0 63 29 70 13 3 24 10 24 15 0
5 6 9 14 9 17 0 80 32 84 43 2 4 10 7 17 7 13 0 74 29 85 40 3 3 14 10 25 16
62 33 91 50 95 55 3 4 15 9 28 13 12 4 22 12 22 17 0 5 7 9 15 9 8 0 15 3 15
8 0 4 27 23 60 42 33 19 60 38 60 43 0 4 7 7 15 7 8 0 15 3 15 8 0 4 16 16 35
26 19 11 35 23 35 27 0 4 8 10 18 13 10 4 27 14 38 24 10 10 46 38 79 62 33
25 69 54 80 65 11 11 34 30 50 42 l30 21 3 -99 c3 -97 2 -100 -24 -124z m656
53 l0 -149 -32 3 -33 3 -3 140 c-1 76 -1 144 2 150 2 7 17 10 35 7 l31 -4 0
-150z m-5620 2 l0 -150 -35 0 -35 0 0 150 0 150 35 0 35 0 0 -150z m110 0 l0
-150 -30 0 -30 0 0 150 0 150 30 0 30 0 0 -150z m2972 133 c45 -36 117 -116
132 -147 14 -29 14 -31 -7 -43 -12 -7 -34 -12 -48 -13 -40 0 -197 -68 -227
-97 -7 -7 -17 -13 -22 -13 -4 0 -34 -25 -66 -55 -54 -51 -94 -70 -94 -45 0 6
-7 10 -16 10 -17 0 -184 106 -184 117 0 21 151 183 170 183 6 0 10 4 10 9 0
12 162 91 188 91 11 0 24 5 27 10 11 17 112 12 137 -7z m2428 -133 l0 -150
-35 0 -35 0 0 150 0 150 35 0 35 0 0 -150z m-5620 1 c0 -77 -3 -146 -6 -155
-3 -9 -17 -16 -30 -16 l-24 0 0 149 c0 134 2 150 18 154 42 11 42 12 42 -132z
m333 122 c4 -2 7 -69 7 -149 l0 -144 -35 0 c-19 0 -35 1 -35 3 -5 28 -11 281
-6 292 4 11 13 14 33 9 16 -4 31 -9 36 -11z m5167 -138 l0 -155 -30 0 -30 0 0
149 c0 163 -5 149 53 160 4 0 7 -69 7 -154z m328 145 c9 0 12 -37 12 -150 l0
-150 -29 0 c-17 0 -31 6 -35 16 -3 9 -6 79 -6 156 l0 140 23 -6 c12 -3 28 -6
35 -6z m-3342 -152 c35 -56 169 -188 217 -213 20 -11 37 -22 37 -25 0 -3 20
-14 45 -25 25 -11 45 -23 45 -27 0 -5 6 -8 13 -8 38 0 67 -85 67 -194 0 -36
-4 -67 -9 -70 -4 -3 -21 -1 -37 4 -16 5 -56 17 -89 27 -33 10 -62 20 -65 23
-3 3 -23 13 -45 23 -62 29 -156 100 -195 147 -19 24 -41 49 -47 56 -7 7 -13
17 -13 23 0 6 -4 11 -10 11 -5 0 -12 11 -16 25 -3 14 -10 25 -15 25 -18 0 -8
78 16 128 14 29 25 56 25 62 0 5 5 10 10 10 6 0 10 6 10 14 0 12 7 19 27 25 2
1 15 -18 29 -41z m904 -150 c21 -92 17 -202 -10 -279 -21 -61 -76 -160 -92
-167 -5 -2 -8 -8 -8 -14 0 -12 -50 -58 -62 -58 -16 0 -3 68 26 129 15 33 14
297 -1 336 -6 17 -14 44 -17 62 -5 29 -2 34 27 47 37 17 97 25 112 14 6 -4 17
-35 25 -70z m-195 -30 c8 -28 15 -68 15 -88 0 -21 5 -51 11 -68 14 -42 -14
-209 -48 -278 -46 -94 -93 -147 -148 -166 -66 -22 -145 -24 -145 -3 0 8 4 15
10 15 5 0 13 12 16 28 4 15 10 32 14 37 4 6 12 35 20 66 12 54 10 151 -6 296
-6 51 -5 53 38 92 23 23 51 43 61 47 9 3 17 9 17 13 0 4 18 16 40 27 22 10 40
22 40 27 0 4 11 7 25 7 21 0 26 -8 40 -52z m-3085 -178 l0 -190 -35 0 -35 0 0
190 0 190 35 0 35 0 0 -190z m110 15 c0 -96 -3 -175 -7 -175 -5 0 -18 -3 -30
-6 l-23 -6 0 181 0 181 30 0 30 0 0 -175z m5400 12 c0 -90 -2 -166 -5 -169 -3
-2 -18 -3 -35 0 l-30 4 0 164 0 164 35 0 35 0 0 -163z m108 -19 c3 -191 2
-195 -49 -168 -18 10 -19 23 -19 181 l0 170 33 -3 32 -3 3 -177z m-5730 -25
l-3 -197 -27 -7 -28 -7 0 198 c0 206 0 207 43 209 16 1 17 -13 15 -196z m325
183 c15 -11 17 -32 17 -158 l0 -146 -32 -5 c-18 -2 -36 -3 -40 0 -7 4 -8 301
-1 316 6 11 36 8 56 -7z m5177 -146 c0 -88 -2 -160 -4 -160 -3 0 -16 4 -30 10
l-26 10 0 139 c0 123 2 141 18 150 40 24 42 18 42 -149z m323 146 c15 -12 17
-33 17 -189 0 -106 -4 -178 -10 -182 -5 -3 -10 -1 -10 4 0 6 -11 11 -25 11
l-25 0 0 185 c0 170 1 185 18 185 9 0 25 -7 35 -14z m-3691 -106 c2 -44 2 -85
0 -90 -2 -6 -91 -10 -227 -10 -194 0 -224 2 -229 16 -3 9 -6 49 -6 90 l0 74
229 0 229 0 4 -80z m1948 -10 l0 -90 -227 2 -228 3 -5 78 c-3 42 -3 82 -2 87
2 6 92 10 233 10 l229 0 0 -90z m-1695 10 c3 -11 11 -20 16 -20 5 0 9 -4 9 -9
0 -12 51 -64 116 -116 75 -62 282 -155 344 -155 32 0 37 -19 21 -68 -9 -26
-28 -66 -41 -90 -23 -41 -27 -43 -60 -38 -56 8 -130 30 -130 38 0 5 -6 8 -13
8 -33 0 -207 144 -207 171 0 4 -6 14 -13 21 -34 35 -97 244 -81 269 10 16 33
9 39 -11z m-617 -142 c13 -13 17 -212 6 -242 -8 -20 -90 -23 -96 -3 -8 20 -10
215 -3 237 5 15 15 20 44 20 20 0 42 -5 49 -12z m116 -4 c3 -9 6 -62 6 -119 0
-57 -3 -110 -6 -119 -7 -19 -45 -21 -62 -4 -17 17 -17 244 1 251 25 11 55 6
61 -9z m110 0 c8 -20 8 -168 -1 -217 -5 -34 -9 -38 -32 -35 l-26 3 -3 119 c-1
66 0 126 2 133 7 18 53 16 60 -3z m136 -119 l0 -135 -39 0 c-26 0 -41 5 -45
16 -3 9 -6 67 -6 129 0 122 0 123 58 124 l32 1 0 -135z m164 129 c9 -3 16 -14
16 -24 0 -11 4 -21 9 -25 5 -3 12 -19 16 -35 4 -17 10 -30 13 -30 4 0 14 -15
21 -32 8 -18 49 -67 90 -108 70 -69 129 -108 216 -141 82 -32 229 -47 289 -29
114 32 154 46 181 62 17 10 37 21 45 25 60 29 166 147 207 233 19 41 39 82 43
90 5 10 24 15 61 15 30 1 60 -1 67 -3 9 -3 12 -76 12 -321 l0 -318 -25 -11
c-69 -32 -160 -62 -190 -62 -12 0 -25 -3 -29 -7 -15 -16 -176 -34 -340 -40
-163 -5 -317 9 -406 37 -14 4 -52 16 -85 25 -33 10 -69 21 -80 26 -11 4 -42
15 -70 24 -27 10 -74 28 -103 41 -29 13 -57 24 -62 24 -6 0 -10 111 -10 295
l0 295 49 0 c27 0 56 -3 65 -6z m1424 -109 c4 -150 2 -157 -50 -153 -52 4 -56
14 -57 149 -1 110 5 121 64 117 l40 -3 3 -110z m112 -21 l0 -135 -32 3 -33 3
-3 119 c-1 66 0 126 2 133 3 7 19 13 36 13 l30 0 0 -136z m108 124 c8 -8 12
-50 12 -123 0 -118 -6 -135 -47 -135 -23 0 -23 1 -23 135 0 134 0 135 23 135
13 0 28 -5 35 -12z m137 -123 l0 -130 -33 -3 c-54 -5 -62 12 -62 135 0 123 6
136 60 131 l35 -3 0 -130z m-3305 35 c58 -5 128 -14 155 -19 123 -24 161 -33
169 -42 6 -5 20 -9 32 -9 13 0 25 -4 28 -9 3 -5 22 -12 42 -16 20 -3 44 -10
53 -15 9 -4 48 -20 86 -35 39 -15 93 -37 120 -50 138 -63 165 -75 174 -75 6 0
11 -4 11 -10 0 -5 5 -10 10 -10 6 0 61 -25 124 -55 62 -30 118 -55 124 -55 7
0 12 -4 12 -10 0 -5 7 -10 14 -10 8 0 36 -11 62 -25 26 -14 53 -25 60 -25 8 0
14 -4 14 -10 0 -5 5 -10 10 -10 6 0 33 -11 62 -25 28 -14 55 -25 60 -25 4 0
33 -12 65 -26 106 -48 121 -54 137 -54 9 0 24 -4 34 -9 26 -13 126 -41 148
-41 11 0 24 -4 30 -8 5 -5 62 -17 127 -27 94 -14 148 -17 275 -11 151 6 282
23 298 39 4 4 18 7 32 7 21 0 84 17 147 41 11 4 43 15 70 24 49 17 60 21 160
65 79 35 304 149 315 160 3 3 23 14 45 25 22 11 81 45 130 76 93 57 150 86
239 120 28 11 60 23 71 28 36 16 127 41 146 41 11 0 19 4 19 9 0 5 17 11 38
14 20 3 73 12 117 21 123 26 286 41 445 41 155 0 312 -11 345 -25 20 -8 103
-27 163 -37 18 -3 35 -9 38 -14 3 -5 13 -9 22 -9 9 0 30 -7 46 -15 15 -8 35
-15 42 -15 8 0 14 -4 14 -10 0 -5 5 -10 11 -10 13 0 82 -31 89 -41 3 -3 15 -9
28 -13 12 -4 22 -12 22 -17 0 -5 6 -9 13 -9 6 -1 25 -11 40 -24 26 -21 27 -24
13 -39 -9 -8 -16 -20 -16 -25 0 -6 -4 -12 -8 -14 -25 -10 -172 -287 -172 -323
0 -8 -4 -16 -9 -19 -5 -3 -11 -18 -14 -33 -3 -16 -13 -57 -23 -93 -9 -36 -20
-96 -24 -135 -10 -90 -21 -117 -61 -146 -28 -20 -43 -23 -120 -21 -49 0 -98 6
-110 12 -11 7 -23 9 -26 6 -3 -3 -8 -37 -11 -76 -2 -38 -7 -70 -9 -70 -2 0
-14 5 -26 12 -65 36 -166 50 -207 28 -10 -6 -51 -11 -90 -12 -66 -2 -73 0 -91
22 -11 15 -19 41 -19 66 0 43 10 58 82 120 36 30 118 139 118 156 0 11 -216
10 -254 -1 -17 -5 -65 -17 -106 -26 -41 -9 -84 -20 -95 -25 -11 -4 -42 -16
-70 -25 -27 -9 -63 -23 -80 -29 -16 -7 -46 -19 -65 -26 -55 -20 -136 -55 -277
-121 -46 -22 -87 -39 -93 -39 -5 0 -10 -4 -10 -8 0 -4 -22 -16 -50 -27 -27
-11 -50 -22 -50 -25 0 -3 -22 -14 -50 -25 -27 -11 -50 -23 -50 -27 0 -4 -6 -8
-12 -8 -7 0 -38 -12 -68 -26 -30 -15 -64 -30 -75 -35 -34 -13 -94 -38 -129
-54 -19 -8 -41 -15 -50 -15 -9 0 -16 -4 -16 -9 0 -5 -12 -11 -27 -14 -65 -14
-123 -32 -123 -39 0 -5 -15 -8 -33 -8 -18 0 -37 -4 -43 -9 -14 -14 -101 -33
-304 -67 -118 -20 -532 -30 -605 -15 -45 9 -113 21 -215 38 -19 3 -39 9 -45
13 -5 4 -29 11 -52 15 -24 4 -45 11 -49 16 -3 5 -16 9 -29 9 -13 0 -27 5 -30
10 -3 6 -13 10 -20 10 -14 0 -98 35 -158 66 -16 8 -35 14 -42 14 -7 0 -15 3
-17 8 -4 10 -67 42 -83 42 -7 0 -15 3 -17 8 -1 4 -52 32 -113 63 -227 116
-260 134 -263 142 -2 4 -8 7 -13 7 -5 0 -46 17 -92 39 -139 65 -174 80 -203
87 -16 4 -33 10 -39 14 -5 4 -46 19 -90 33 -151 47 -264 66 -442 74 -104 4
-123 2 -123 -10 0 -8 39 -55 86 -103 47 -49 90 -100 96 -114 12 -31 2 -88 -20
-109 -18 -18 -105 -19 -168 -2 -64 18 -155 14 -199 -9 -22 -11 -40 -20 -41
-20 -1 0 -5 34 -9 75 -4 41 -10 75 -14 75 -4 0 -34 -5 -66 -11 -62 -11 -169 3
-190 25 -34 36 -41 56 -47 130 -11 136 -32 225 -82 339 -9 21 -16 44 -16 52 0
8 -3 15 -7 15 -5 0 -17 20 -28 45 -11 25 -23 45 -27 45 -5 0 -8 7 -8 15 0 8
-4 15 -9 15 -5 0 -12 8 -16 18 -3 9 -23 37 -45 61 -32 34 -38 46 -29 57 6 8
19 14 28 14 9 0 25 7 35 15 11 8 28 15 38 15 10 0 18 5 18 10 0 6 8 10 19 10
10 0 32 7 47 15 16 8 37 15 46 15 9 0 20 5 23 10 3 6 17 10 30 10 13 0 26 4
29 9 3 4 25 11 48 15 23 4 47 11 53 15 5 5 28 11 50 15 22 3 72 13 110 22 99
22 184 34 300 43 142 11 158 11 275 1z m640 -80 c0 -38 -15 -52 -34 -33 -11
11 -99 43 -118 43 -10 0 -18 4 -18 9 0 5 -8 12 -17 14 -10 3 28 5 85 6 l102 1
0 -40z m108 -15 c2 -51 -11 -89 -25 -70 -5 6 -16 15 -27 20 -10 6 -18 14 -17
18 0 4 1 25 1 48 0 39 1 40 33 37 31 -3 32 -5 35 -53z m112 -35 c0 -49 -2 -90
-5 -90 -4 0 -19 7 -35 15 -29 15 -30 18 -30 90 l0 75 35 0 35 0 0 -90z m2568
-7 c-3 -91 -5 -99 -25 -108 -13 -5 -23 -13 -23 -17 0 -5 -7 -8 -15 -8 -12 0
-15 18 -15 99 0 123 3 131 46 131 l35 0 -3 -97z m112 32 c0 -40 -4 -65 -11
-65 -6 0 -17 -7 -26 -15 -23 -24 -33 -8 -33 55 0 77 6 90 41 90 l29 0 0 -65z
m274 50 c-10 -8 -29 -15 -40 -15 -12 0 -35 -7 -50 -15 -16 -8 -37 -15 -46 -15
-10 0 -18 -4 -18 -10 0 -5 -11 -10 -25 -10 -14 0 -25 -4 -25 -10 0 -5 -7 -10
-15 -10 -11 0 -15 12 -15 50 l0 50 127 0 c114 0 125 -2 107 -15z m-2818 -158
c11 -7 12 -62 2 -73 -7 -6 -80 34 -90 50 -16 24 57 43 88 23z m112 0 c14 -9
17 -113 3 -121 -5 -3 -23 1 -40 10 -28 14 -31 20 -31 64 0 48 8 60 40 56 8 -1
21 -5 28 -9z m252 -116 c0 -65 -3 -120 -6 -124 -7 -7 -53 12 -71 30 -9 8 -13
45 -13 112 l0 100 38 3 c20 2 40 2 45 0 4 -2 7 -56 7 -121z m1585 -22 l0 -144
-38 -18 c-68 -34 -71 -27 -64 144 4 83 9 154 11 157 2 4 24 6 48 6 l43 -1 0
-144z m113 31 c3 -109 2 -115 -20 -132 -45 -34 -48 -27 -48 111 0 135 2 142
45 138 19 -2 20 -10 23 -117z m110 108 c13 -13 17 -146 4 -164 -7 -11 -45 -34
-56 -34 -3 0 -6 47 -6 105 0 103 0 105 23 105 13 0 28 -5 35 -12z m140 -46
c-2 -32 -9 -48 -23 -56 -10 -6 -25 -17 -33 -23 -31 -29 -40 -15 -35 50 6 85 5
83 52 79 l42 -4 -3 -46z m-2085 -32 c8 -104 4 -115 -34 -93 -28 17 -29 20 -29
95 l0 78 29 0 c28 0 28 0 34 -80z"/>
<path d="M2270 8011 c0 -17 -4 -32 -9 -35 -4 -3 -11 -34 -15 -68 -3 -35 -10
-88 -15 -118 -12 -71 -12 -437 0 -515 5 -33 12 -84 15 -113 4 -29 10 -55 15
-58 5 -3 9 -17 9 -31 0 -39 55 -217 97 -313 31 -71 87 -185 92 -190 4 -3 15
-24 26 -47 11 -24 23 -43 28 -43 4 0 7 -6 7 -14 0 -8 3 -16 8 -18 4 -1 25 -30
47 -63 22 -32 49 -69 60 -81 11 -12 36 -42 55 -66 44 -56 212 -223 269 -268
24 -19 48 -40 55 -45 6 -6 31 -26 56 -45 25 -19 47 -38 48 -42 2 -5 8 -8 14
-8 5 0 16 -6 23 -12 33 -30 45 -38 54 -38 5 0 11 -4 13 -8 5 -13 209 -136 303
-182 50 -25 92 -47 95 -50 3 -3 21 -14 40 -24 19 -11 65 -41 102 -68 37 -26
71 -48 74 -48 4 0 14 -8 23 -18 9 -10 24 -23 34 -28 62 -35 286 -256 377 -374
19 -25 37 -47 40 -50 16 -15 60 -80 60 -88 0 -6 4 -12 9 -14 9 -3 74 -108 105
-168 10 -19 28 -55 41 -80 13 -24 23 -46 21 -47 -2 -2 -35 27 -73 64 -88 86
-141 133 -148 133 -4 0 -13 6 -20 13 -40 35 -113 87 -123 87 -6 0 -12 4 -14 8
-5 11 -183 122 -197 122 -6 0 -11 5 -11 10 0 6 -9 10 -19 10 -11 0 -21 3 -23
8 -4 10 -67 42 -84 42 -8 0 -14 5 -14 10 0 6 -4 10 -9 10 -5 0 -40 14 -78 31
-37 16 -79 35 -93 41 -14 6 -33 14 -42 19 -10 5 -23 9 -29 9 -10 0 -64 21 -99
40 -9 4 -31 11 -50 15 -19 4 -41 11 -50 15 -8 5 -42 16 -75 25 -33 9 -70 21
-83 26 -13 5 -34 9 -47 9 -13 0 -25 4 -27 9 -1 4 -20 11 -40 15 -32 6 -37 4
-32 -9 3 -8 17 -15 29 -15 13 0 25 -3 27 -7 4 -11 67 -43 83 -43 7 0 15 -3 17
-7 4 -11 67 -43 84 -43 8 0 14 -4 14 -10 0 -5 11 -12 25 -16 14 -3 25 -10 25
-15 0 -5 6 -9 14 -9 13 0 75 -29 86 -40 9 -9 85 -51 103 -57 9 -3 17 -9 17
-14 0 -5 5 -9 11 -9 29 0 368 -226 368 -246 1 -6 -18 -17 -41 -24 -81 -24
-158 -59 -158 -72 0 -4 -5 -8 -11 -8 -6 0 -16 -6 -23 -12 -10 -10 19 -13 144
-13 92 0 167 -5 181 -11 33 -15 124 -44 139 -44 6 0 17 -6 24 -12 10 -10 -8
-13 -88 -14 -96 -1 -190 -15 -228 -35 -10 -5 -23 -9 -29 -9 -6 0 -26 -7 -45
-15 -19 -8 -51 -22 -72 -31 -20 -10 -39 -20 -42 -23 -16 -20 -226 -111 -256
-111 -12 0 -26 -4 -29 -10 -3 -5 -21 -10 -38 -10 -40 0 -77 -10 -77 -20 0 -19
258 -36 309 -22 20 6 70 19 111 29 41 9 77 20 80 23 11 13 158 30 253 29 123
-1 277 -28 277 -49 0 -4 -57 -10 -127 -14 -70 -3 -132 -11 -137 -16 -6 -6 -20
-10 -32 -10 -24 0 -106 -30 -177 -66 -16 -8 -35 -14 -43 -14 -8 0 -14 -3 -14
-8 0 -7 -30 -25 -62 -38 -10 -3 -18 -10 -18 -15 0 -5 -6 -9 -12 -9 -14 -1 -58
-34 -58 -44 0 -3 17 -6 39 -6 21 0 60 -4 88 -9 27 -5 111 -13 186 -17 141 -7
164 -16 112 -44 -14 -7 -25 -17 -25 -22 0 -4 -5 -8 -10 -8 -6 0 -35 -18 -65
-40 -30 -22 -58 -40 -64 -40 -5 0 -11 -3 -13 -7 -1 -5 -29 -27 -61 -51 -55
-41 -57 -44 -57 -89 0 -85 23 -201 58 -290 26 -65 31 -60 52 50 8 37 17 67 22
67 4 0 8 9 8 20 0 16 38 100 58 130 2 2 52 3 112 1 84 -2 119 1 159 16 28 10
51 21 51 25 0 5 5 8 10 8 6 0 10 -38 10 -93 0 -58 6 -112 16 -143 17 -51 63
-155 73 -164 3 -3 11 -14 17 -24 19 -36 29 -27 25 21 -5 64 34 279 60 333 4 8
15 33 25 54 26 55 130 158 186 186 43 21 46 24 30 36 -9 7 -24 14 -32 14 -8 0
-28 7 -44 15 -15 8 -35 15 -42 15 -8 0 -14 5 -14 10 0 6 -5 10 -11 10 -10 0
-70 41 -98 68 -24 23 -4 24 44 3 26 -12 54 -21 61 -21 8 0 22 -4 32 -9 9 -5
60 -14 114 -20 53 -6 103 -14 112 -17 30 -11 6 19 -59 76 -80 70 -87 83 -37
74 20 -4 42 -10 47 -13 6 -4 36 -16 68 -26 31 -11 57 -23 57 -27 0 -4 7 -8 15
-8 9 0 34 -12 56 -26 23 -14 43 -23 46 -20 5 5 -90 122 -112 138 -28 21 21 4
82 -27 69 -36 113 -75 113 -101 0 -8 3 -14 8 -14 4 0 13 -12 19 -27 7 -16 38
-48 68 -73 31 -25 66 -53 77 -62 12 -10 27 -18 35 -18 7 0 13 -4 13 -8 0 -8
14 -16 63 -40 15 -8 6 14 -19 43 -25 29 -17 48 11 25 24 -20 38 0 15 20 -14
12 -24 37 -29 72 -4 29 -14 69 -23 88 -23 51 -30 110 -13 110 7 0 16 -14 20
-30 4 -16 11 -30 16 -30 5 0 9 -6 9 -14 0 -17 32 -80 43 -84 4 -2 7 -12 7 -22
0 -10 4 -20 8 -22 4 -1 17 -28 28 -58 l21 -54 17 27 c10 14 20 44 23 66 8 56
19 43 34 -39 7 -39 16 -70 20 -70 20 0 43 68 43 125 1 50 -5 73 -39 140 -22
44 -42 82 -46 85 -3 3 -9 12 -12 20 -4 8 -15 27 -25 41 -9 15 -26 41 -37 58
-10 17 -23 31 -27 31 -4 0 -8 6 -8 13 0 7 -11 24 -25 39 -14 15 -25 32 -25 38
0 5 -6 10 -14 10 -10 0 -12 -12 -8 -50 3 -29 0 -50 -5 -50 -6 0 -39 28 -74 63
-36 34 -85 79 -109 99 -25 21 -50 42 -57 48 -7 5 -16 10 -22 10 -5 0 -11 3
-13 8 -6 13 -102 71 -110 66 -4 -3 -8 -45 -8 -95 0 -72 -3 -89 -15 -89 -8 0
-15 8 -15 18 0 18 -27 82 -39 92 -3 3 -15 21 -25 40 -11 19 -28 44 -38 54 -10
11 -18 23 -18 28 0 4 -6 8 -14 8 -12 0 -13 -7 -5 -32 12 -43 12 -118 -1 -118
-5 0 -10 7 -10 15 0 17 -79 148 -92 153 -4 2 -8 10 -8 18 0 8 -4 14 -9 14 -5
0 -12 8 -15 18 -3 9 -17 30 -31 46 -14 16 -25 32 -25 36 0 3 -8 15 -18 26 -10
10 -38 46 -62 79 -25 33 -47 62 -50 65 -3 3 -21 25 -40 50 -39 50 -56 72 -84
103 -10 12 -30 38 -45 57 -14 19 -34 44 -43 54 -10 11 -18 23 -18 26 0 4 -9
18 -21 31 -11 13 -30 37 -42 52 -12 16 -28 35 -34 42 -7 8 -13 18 -13 24 0 6
-4 11 -8 11 -4 0 -16 15 -27 33 -10 17 -27 41 -38 52 -30 32 -177 273 -177
290 0 8 -4 15 -9 15 -5 0 -11 10 -13 23 -2 12 -13 26 -25 32 -13 5 -23 13 -23
17 0 5 -5 8 -11 8 -6 0 -27 12 -47 28 -20 15 -41 30 -47 34 -19 15 -93 73
-135 108 -24 19 -54 44 -68 55 -63 50 -228 222 -292 305 -19 25 -43 54 -52 64
-10 11 -20 28 -24 38 -3 10 -10 18 -15 18 -5 0 -9 6 -9 14 0 8 -3 16 -7 18
-10 4 -53 72 -78 123 -11 22 -23 42 -27 43 -5 2 -8 8 -8 13 0 4 -11 32 -24 61
-36 81 -54 128 -71 188 -9 30 -21 65 -26 78 -5 13 -9 35 -9 50 0 16 -4 32 -9
37 -16 17 -30 282 -21 400 5 61 9 121 9 135 0 23 -1 22 -14 -9 -8 -18 -15 -42
-15 -52 0 -11 -4 -27 -9 -37 -9 -17 -30 -102 -50 -202 -47 -237 -24 -610 49
-785 5 -11 16 -44 26 -72 10 -29 22 -53 26 -53 4 0 8 -6 8 -14 0 -13 29 -75
40 -86 3 -3 14 -21 24 -40 55 -100 173 -244 256 -312 21 -17 28 -28 18 -28 -8
0 -28 11 -44 25 -16 14 -37 28 -46 31 -10 3 -18 10 -18 15 0 5 -6 9 -14 9 -8
0 -16 3 -18 8 -1 4 -23 23 -48 42 -62 48 -268 259 -276 282 -3 10 -10 18 -15
18 -5 0 -9 6 -9 14 0 8 -3 16 -8 18 -8 3 -112 165 -112 174 0 2 -12 23 -26 46
-39 61 -104 190 -104 205 0 7 -4 13 -9 13 -5 0 -12 11 -15 25 -4 14 -17 49
-30 78 -34 78 -63 155 -82 222 -9 33 -20 69 -24 80 -9 23 -34 127 -49 205 -19
101 -34 309 -27 385 5 50 3 75 -4 75 -5 0 -10 -13 -10 -29z"/>
<path d="M5340 3855 c0 -8 31 -37 74 -69 81 -61 137 -132 150 -192 5 -23 2
-36 -15 -55 l-21 -24 23 -3 c12 -2 46 8 75 23 64 33 76 58 64 147 -10 80 -28
121 -49 113 -9 -4 -32 -9 -51 -12 -19 -3 -40 -10 -46 -15 -10 -7 -68 15 -84
33 -3 3 -22 13 -42 22 -20 10 -40 22 -43 27 -6 10 -35 14 -35 5z"/>
<path d="M5390 3751 c0 -20 29 -62 66 -95 43 -39 54 -43 54 -21 0 8 -4 15 -10
15 -5 0 -10 5 -10 11 0 19 -70 99 -86 99 -8 0 -14 -4 -14 -9z"/>
<path d="M3913 1310 c-26 -10 -31 -40 -8 -40 12 0 15 -14 15 -64 0 -48 4 -65
15 -70 9 -3 18 0 21 8 9 23 -1 169 -11 172 -5 1 -20 -1 -32 -6z"/>
<path d="M4039 1313 c-16 -4 -39 -43 -39 -67 0 -20 32 -44 65 -48 l30 -3 -38
-26 c-39 -27 -33 -41 13 -29 31 7 70 64 70 100 0 51 -50 87 -101 73z m56 -42
c8 -25 -4 -53 -23 -49 -21 4 -36 32 -29 52 9 22 44 20 52 -3z"/>
<path d="M4196 1287 c-43 -56 -30 -125 30 -155 16 -9 27 -7 52 8 51 31 56 122
10 162 -32 28 -64 23 -92 -15z m77 -30 c5 -15 6 -44 3 -63 -6 -27 -12 -34 -30
-34 -24 0 -36 21 -36 68 0 61 45 81 63 29z"/>
<path d="M4369 1293 c-5 -15 -9 -38 -7 -52 3 -22 8 -26 38 -26 28 0 36 -4 38
-22 4 -24 -25 -38 -57 -28 -12 3 -21 0 -24 -9 -5 -11 3 -17 28 -22 65 -12 100
20 85 76 -5 19 -14 26 -41 30 -31 5 -35 10 -30 40 0 6 17 10 36 10 19 0 35 5
35 10 0 6 -3 10 -7 11 -5 0 -25 2 -46 5 -33 4 -38 2 -48 -23z"/>
<path d="M1895 1655 c-5 -3 -59 -9 -120 -14 -112 -10 -244 -31 -325 -51 -25
-6 -69 -16 -97 -22 -29 -6 -53 -15 -53 -20 0 -4 -13 -8 -29 -8 -17 0 -32 -4
-35 -9 -4 -5 -24 -12 -46 -16 -22 -4 -40 -11 -40 -16 0 -5 -11 -9 -24 -9 -14
0 -27 -4 -31 -9 -3 -5 -19 -12 -35 -16 -21 -5 -30 -13 -30 -26 0 -10 5 -19 10
-19 6 0 10 -6 10 -14 0 -8 4 -16 8 -18 11 -4 62 -91 96 -163 37 -79 41 -90 60
-160 31 -110 35 -130 40 -184 6 -63 8 -66 33 -52 33 18 87 40 143 56 30 9 65
21 78 26 13 5 38 9 57 9 18 0 35 6 37 12 6 17 455 18 513 1 22 -6 74 -19 115
-28 41 -9 84 -20 95 -24 11 -5 45 -16 75 -25 61 -20 78 -26 133 -50 21 -9 44
-16 52 -16 8 0 15 -4 15 -10 0 -5 6 -10 13 -10 15 0 281 -132 285 -142 2 -5
10 -8 17 -8 13 0 74 -29 85 -40 3 -3 30 -18 60 -33 172 -89 209 -107 219 -107
6 0 11 -4 11 -10 0 -5 7 -10 15 -10 8 0 23 -4 33 -10 9 -5 35 -17 57 -26 22
-9 54 -23 72 -30 17 -8 38 -14 46 -14 9 0 19 -4 22 -10 3 -5 16 -10 29 -10 12
0 26 -4 32 -9 13 -13 80 -28 269 -62 86 -15 468 -16 580 0 158 21 307 50 319
62 6 5 25 9 42 9 18 0 35 4 38 9 4 5 24 12 46 16 22 4 42 11 46 16 3 5 16 9
29 9 13 0 27 5 30 10 3 6 13 10 22 10 8 0 29 6 46 14 18 7 50 21 72 30 22 9
48 21 57 26 10 6 25 10 33 10 8 0 15 5 15 10 0 6 4 10 9 10 5 0 39 13 74 30
36 16 70 30 76 30 6 0 11 5 11 10 0 6 6 10 13 10 6 0 57 22 112 50 55 27 105
50 112 50 6 0 13 3 15 8 4 10 67 42 84 42 8 0 14 5 14 10 0 6 5 10 11 10 6 0
26 7 45 15 53 23 96 41 134 55 19 7 49 18 65 25 17 6 46 18 65 25 19 6 44 16
55 20 18 7 88 26 185 50 60 15 188 30 259 30 76 0 226 -17 256 -29 11 -5 45
-16 75 -26 74 -23 170 -67 170 -77 0 -4 6 -8 14 -8 7 0 19 -7 27 -16 12 -14
14 -14 26 2 7 10 13 35 13 56 0 21 4 46 9 56 9 18 30 98 39 145 2 15 8 27 13
27 5 0 9 7 9 16 0 8 25 65 55 127 60 122 71 141 98 171 9 11 17 22 17 25 0 15
-168 101 -245 126 -33 11 -64 23 -70 27 -5 4 -23 8 -40 8 -17 0 -35 4 -40 9
-24 22 -171 34 -425 35 -267 0 -271 0 -490 -43 -59 -12 -130 -31 -155 -41 -11
-4 -48 -16 -82 -27 -35 -10 -63 -21 -63 -25 0 -5 -11 -8 -25 -8 -14 0 -25 -4
-25 -10 0 -5 -4 -10 -10 -10 -17 0 -90 -34 -90 -42 0 -5 -6 -8 -14 -8 -8 0
-21 -6 -28 -13 -7 -7 -29 -21 -48 -30 -19 -10 -42 -22 -50 -27 -72 -46 -186
-110 -196 -110 -7 0 -14 -3 -16 -7 -4 -11 -170 -93 -186 -93 -6 0 -12 -3 -12
-7 0 -5 -21 -16 -48 -26 -26 -11 -56 -23 -67 -27 -61 -27 -100 -40 -116 -40
-11 0 -19 -4 -19 -9 0 -5 -12 -11 -27 -14 -38 -7 -113 -28 -138 -37 -66 -25
-418 -66 -480 -56 -22 3 -76 10 -120 15 -99 11 -194 29 -217 42 -10 5 -25 9
-34 9 -16 0 -104 26 -134 40 -8 3 -43 15 -77 26 -35 10 -63 22 -63 27 0 4 -6
7 -14 7 -8 0 -50 16 -93 36 -43 20 -106 49 -141 65 -35 16 -68 29 -73 29 -5 0
-9 4 -9 8 0 4 -22 16 -50 27 -27 11 -50 23 -50 27 0 4 -6 8 -14 8 -7 0 -34 11
-60 25 -26 14 -54 25 -62 25 -7 0 -14 5 -14 10 0 6 -5 10 -11 10 -5 0 -37 14
-71 30 -33 17 -66 30 -74 30 -8 0 -14 4 -14 8 0 4 -17 14 -37 21 -21 7 -62 24
-90 37 -29 13 -64 26 -78 30 -14 3 -25 10 -25 15 0 5 -10 9 -23 9 -13 0 -27 4
-33 8 -5 4 -36 16 -69 26 -33 10 -71 22 -85 27 -44 16 -123 30 -215 39 -154
15 -240 20 -250 15z m70 -155 c119 -17 160 -52 160 -135 0 -50 -18 -88 -51
-106 -23 -12 -32 -34 -16 -41 9 -4 62 -103 62 -117 0 -7 -23 -11 -59 -11 l-59
0 -26 46 c-14 26 -26 52 -26 60 0 14 -18 29 -26 21 -3 -3 -7 -22 -10 -43 -9
-87 -10 -87 -62 -80 -25 3 -49 10 -53 14 -9 9 5 374 15 390 9 14 57 15 151 2z
m4875 -4 l45 -14 -2 -47 c-1 -26 -6 -52 -12 -58 -7 -7 -11 -8 -11 -1 0 6 -18
17 -39 24 -74 24 -131 -24 -131 -111 0 -81 46 -116 132 -103 l38 7 0 -52 0
-51 -81 0 c-113 0 -161 28 -200 118 -21 48 -24 89 -10 124 5 13 12 34 15 48 7
34 78 110 102 110 10 0 26 5 34 10 21 14 67 12 120 -4z m-464 -43 c12 -40 11
-42 -14 -52 -15 -6 -43 -12 -62 -13 -33 -3 -35 -6 -38 -40 -2 -21 0 -38 5 -38
4 1 28 5 51 9 43 9 44 8 58 -25 8 -18 14 -37 14 -41 0 -12 -50 -33 -77 -33
-20 0 -23 -5 -23 -40 0 -22 5 -40 10 -40 6 0 10 -15 10 -34 0 -33 -2 -35 -52
-45 -28 -7 -55 -8 -58 -4 -8 9 -30 108 -37 166 -3 20 -9 40 -14 43 -5 3 -9 17
-9 32 0 15 -6 52 -14 82 -8 32 -11 59 -6 64 11 11 214 55 235 51 5 -1 15 -20
21 -42z m-4726 -13 l0 -50 -54 0 c-49 0 -57 -3 -75 -29 -37 -51 -23 -137 29
-178 16 -13 100 -18 100 -5 0 4 10 12 23 17 20 9 24 6 40 -29 17 -38 17 -40
-2 -58 -11 -10 -27 -18 -35 -18 -8 0 -18 -4 -21 -10 -3 -5 -40 -10 -81 -10
-43 0 -74 4 -74 10 0 6 -6 10 -12 10 -28 1 -57 36 -99 122 -23 47 -5 161 35
211 29 37 98 65 164 66 l62 1 0 -50z m661 14 c3 -2 12 -37 18 -79 13 -81 25
-98 47 -67 7 11 31 39 53 63 36 40 41 42 65 31 15 -7 38 -12 51 -12 14 0 25
-6 25 -13 0 -7 -45 -60 -100 -117 -55 -56 -100 -111 -100 -121 0 -10 -4 -21
-10 -24 -5 -3 -10 -19 -10 -34 0 -15 -6 -36 -14 -46 -12 -16 -18 -18 -37 -8
-13 6 -36 14 -51 17 -32 7 -34 22 -13 73 8 19 15 50 15 67 0 31 -26 154 -41
191 -4 11 -10 37 -14 59 l-6 38 58 -7 c32 -4 61 -9 64 -11z m3579 -115 c0 -10
5 -19 10 -19 6 0 10 -11 10 -25 0 -17 -5 -25 -18 -25 -10 0 -27 -7 -38 -15
-10 -8 -29 -15 -40 -15 -25 0 -35 -19 -27 -49 5 -19 43 -31 43 -13 0 4 17 12
37 19 34 10 39 9 53 -10 34 -47 32 -55 -17 -77 -25 -11 -49 -20 -54 -20 -14 0
-10 -40 5 -56 16 -15 36 -19 36 -6 0 4 17 13 38 20 76 27 78 26 93 -10 7 -18
14 -36 17 -40 2 -5 -3 -8 -12 -8 -9 0 -16 -3 -16 -8 0 -7 -51 -27 -97 -39 -13
-3 -23 -9 -23 -14 0 -5 -7 -9 -15 -9 -8 0 -30 -8 -50 -17 -41 -19 -50 -13 -62
40 -3 15 -9 27 -14 27 -5 0 -9 9 -9 20 0 11 -11 43 -25 72 -14 28 -25 55 -25
60 0 4 -11 31 -25 60 -14 28 -25 58 -25 66 0 18 25 42 43 42 9 0 28 6 44 14
15 8 42 19 58 26 17 7 41 17 55 24 31 16 50 10 50 -15z m-3133 -36 c21 -10 43
-22 50 -28 7 -5 19 -16 28 -23 21 -18 19 -42 -8 -75 l-22 -29 -33 32 c-35 33
-70 50 -89 43 -23 -8 -14 -30 36 -79 26 -27 54 -65 61 -84 11 -31 10 -41 -6
-74 -38 -79 -113 -100 -205 -58 -45 21 -130 92 -110 92 6 0 11 6 11 13 1 6 9
22 20 35 l19 24 36 -35 c41 -39 87 -62 110 -53 25 9 17 30 -28 77 -23 24 -50
56 -60 71 -18 30 -23 88 -7 88 6 0 10 7 10 15 0 8 12 26 27 40 34 31 103 34
160 8z m198 -92 c3 -5 36 -24 73 -42 37 -18 69 -36 70 -41 2 -4 10 -8 17 -8
16 0 73 -30 94 -49 11 -10 12 -17 3 -32 -7 -10 -12 -25 -12 -33 0 -16 -26 -41
-32 -29 -4 9 -65 43 -78 43 -5 0 -15 -12 -23 -27 -7 -16 -33 -66 -57 -113 -24
-47 -48 -86 -52 -88 -4 -2 -8 -10 -8 -18 0 -8 -5 -14 -11 -14 -16 0 -99 40
-99 47 0 12 65 138 73 141 4 2 7 12 7 22 0 10 3 20 8 22 10 4 42 67 42 83 0 7
-18 22 -40 32 -37 16 -40 21 -35 48 3 17 10 32 15 33 6 2 10 10 10 18 0 16 26
19 35 5z m2619 -34 c21 -55 21 -57 -9 -57 -34 0 -82 -25 -95 -49 -26 -50 0
-135 51 -165 39 -23 87 -15 119 19 31 33 41 31 68 -11 l23 -36 -31 -28 c-48
-43 -92 -60 -155 -60 -86 0 -130 30 -180 123 -32 62 -34 137 -4 187 24 40 54
70 69 70 5 0 10 4 10 9 0 8 82 39 106 40 6 1 19 -18 28 -42z m953 7 c15 -24
15 -29 2 -53 -29 -52 -99 -35 -99 24 0 57 65 77 97 29z m464 -44 c25 -14 26
-68 2 -86 -42 -32 -86 -7 -86 47 0 45 39 63 84 39z m-1789 -172 c27 -29 75
-80 105 -113 31 -33 70 -75 86 -92 30 -32 30 -33 12 -53 -10 -11 -24 -20 -32
-20 -7 0 -13 -4 -13 -9 0 -23 -35 -20 -56 4 -23 27 -35 30 -62 16 -9 -5 -32
-16 -49 -23 -28 -11 -33 -18 -33 -46 0 -38 -10 -50 -61 -73 l-35 -17 -12 72
c-11 72 -24 220 -26 311 -1 49 -1 50 44 72 25 12 54 22 64 22 10 1 41 -23 68
-51z m-1857 32 c3 -5 15 -10 26 -10 10 0 19 -4 19 -10 0 -5 6 -10 13 -10 6 0
19 -6 28 -13 13 -10 14 -22 7 -72 -4 -33 -13 -94 -18 -135 -22 -175 -26 -199
-33 -206 -9 -9 -117 26 -117 37 0 5 5 20 12 34 10 22 9 27 -8 40 -10 8 -27 15
-36 15 -10 0 -18 4 -18 9 0 5 -14 12 -30 16 -24 5 -34 2 -48 -15 -13 -17 -24
-20 -45 -15 -15 4 -27 11 -27 16 0 5 -6 9 -12 9 -7 0 -19 4 -27 9 -11 7 20 44
139 160 84 83 157 151 161 151 4 0 11 -4 14 -10z m275 -130 c55 0 83 -36 61
-78 -5 -9 -17 -44 -27 -77 -10 -33 -22 -64 -26 -70 -4 -5 -8 -21 -8 -35 0 -14
-5 -31 -12 -38 -12 -12 -12 -12 75 -43 27 -10 36 -17 31 -29 -3 -8 -8 -30 -11
-48 -4 -22 -11 -32 -24 -32 -10 0 -20 4 -23 9 -4 5 -24 12 -46 16 -22 4 -42
11 -46 16 -3 5 -13 9 -23 9 -9 0 -29 6 -44 13 -28 13 -36 49 -18 85 5 9 16 44
26 77 9 33 21 69 25 80 22 56 40 112 40 123 0 17 24 43 28 31 2 -5 12 -9 22
-9z m1157 -55 c8 -27 19 -58 24 -67 5 -9 12 -35 15 -58 4 -22 11 -43 15 -46 5
-3 9 -17 9 -31 0 -25 1 -25 48 -18 26 4 49 11 52 15 8 13 23 -1 48 -43 27 -46
27 -47 3 -47 -11 0 -22 -4 -25 -9 -4 -5 -25 -12 -49 -16 -23 -4 -46 -11 -52
-15 -5 -4 -21 -10 -35 -12 -14 -3 -32 -9 -41 -12 -12 -5 -21 1 -33 25 -9 18
-16 40 -16 51 0 10 -4 26 -9 36 -6 9 -17 44 -26 77 -10 33 -21 69 -26 80 -13
29 -29 109 -23 114 10 11 70 29 88 27 13 -1 23 -15 33 -51z m-196 -183 c49
-95 89 -179 89 -187 0 -8 -12 -17 -27 -21 -16 -3 -38 -10 -50 -16 -25 -12 -48
4 -55 38 -4 25 -26 28 -93 14 -50 -10 -55 -14 -55 -39 0 -39 -17 -51 -73 -51
-47 0 -49 1 -42 23 7 23 15 63 35 182 6 39 16 79 20 90 5 11 11 40 13 64 7 54
15 63 69 72 78 13 74 17 169 -169z m-458 143 c91 -21 119 -49 125 -120 8 -92
-41 -145 -148 -163 l-45 -7 -3 -58 -3 -57 -54 0 c-37 0 -55 4 -55 13 -3 79 2
392 6 399 8 13 112 9 177 -7z"/>
<path d="M1931 1407 c-14 -14 -14 -94 0 -102 35 -22 84 28 72 73 -6 25 -56 45
-72 29z"/>
<path d="M5124 867 c-3 -8 -1 -24 5 -36 6 -11 11 -32 11 -46 0 -23 3 -25 23
-19 41 12 47 23 27 47 -10 12 -28 33 -39 46 -17 20 -22 21 -27 8z"/>
<path d="M3271 819 c-33 -38 -33 -40 -15 -54 27 -21 39 -18 52 10 13 29 16 85
5 84 -5 0 -23 -18 -42 -40z"/>
<path d="M4420 626 c0 -24 -3 -51 -6 -60 -5 -12 0 -16 19 -16 42 0 57 10 47
28 -5 10 -17 34 -26 55 -22 49 -34 47 -34 -7z"/>
<path d="M4060 640 c0 -47 1 -50 26 -50 45 0 70 55 40 86 -8 8 -26 14 -40 14
-24 0 -26 -3 -26 -50z"/>
<path d="M6682 831 c-18 -32 -38 -64 -46 -70 -17 -14 -10 -42 8 -35 17 7 187
-13 276 -32 41 -8 88 -18 103 -21 16 -3 47 0 68 7 30 10 39 18 39 35 0 13 -8
25 -17 29 -10 3 -45 21 -78 40 -33 19 -68 35 -77 35 -10 1 -18 4 -18 9 0 4
-30 15 -67 25 -38 10 -82 22 -99 27 -52 17 -60 12 -92 -49z"/>
<path d="M1550 855 c-81 -22 -132 -38 -160 -52 -14 -7 -30 -13 -36 -13 -16 0
-74 -30 -74 -39 0 -4 5 -12 12 -19 15 -15 161 -16 188 -2 10 6 80 13 155 17
75 3 138 9 140 12 2 4 -14 26 -36 51 -21 24 -39 47 -39 52 0 13 -89 8 -150 -7z"/>
<path d="M1582 677 c-6 -7 -9 -23 -6 -34 6 -20 14 -22 108 -26 55 -2 119 -9
141 -15 51 -14 75 -7 75 23 0 17 -11 28 -45 44 -37 17 -64 21 -154 21 -77 0
-112 -4 -119 -13z"/>
<path d="M6543 655 c-33 -14 -48 -41 -37 -69 7 -19 45 -21 62 -4 7 7 55 12
134 13 l123 1 0 25 c0 20 -7 25 -50 35 -70 17 -193 16 -232 -1z"/>
</g>
</svg>
