<?xml version="1.0" standalone="no"?>
<!DOCTYPE svg PUBLIC "-//W3C//DTD SVG 20010904//EN"
 "http://www.w3.org/TR/2001/REC-SVG-20010904/DTD/svg10.dtd">
<svg version="1.0" xmlns="http://www.w3.org/2000/svg"
 width="840.000000pt" height="881.000000pt" viewBox="0 0 840.000000 881.000000"
 preserveAspectRatio="xMidYMid meet">

<g transform="translate(0.000000,881.000000) scale(0.100000,-0.100000)"
fill="#000000" stroke="none">
<path d="M4182 8253 c-12 -29 -22 -60 -22 -70 0 -29 -12 -38 -53 -39 -76 -3
-125 -77 -81 -125 21 -23 76 -25 94 -4 11 13 8 15 -13 15 -32 0 -41 14 -27 40
17 32 66 27 85 -10 23 -44 19 -65 -20 -99 -76 -67 -194 -64 -300 9 -16 11 -33
20 -37 20 -5 0 -8 -57 -8 -127 0 -114 13 -206 35 -265 6 -15 1 -18 -32 -18
-46 0 -73 -23 -73 -62 0 -30 28 -58 58 -58 28 0 29 -33 2 -60 -28 -28 -113
-28 -158 0 -42 26 -42 26 -42 -12 0 -18 9 -41 20 -54 l21 -21 -41 -7 c-46 -7
-93 4 -159 37 -51 25 -68 58 -51 102 l10 27 21 -26 c15 -19 30 -26 54 -26 39
0 58 20 58 61 0 40 -22 60 -75 66 -82 9 -148 -46 -148 -123 l0 -43 -52 4 c-29
3 -85 7 -125 9 -64 4 -98 15 -176 54 -4 2 -5 -18 -2 -45 l7 -48 -44 -18 c-24
-9 -84 -53 -133 -97 -111 -98 -143 -115 -217 -115 -32 1 -58 -2 -58 -5 0 -3 7
-16 16 -28 l15 -22 -94 0 c-75 0 -96 3 -101 15 -3 8 -13 15 -22 15 -14 0 -16
8 -10 54 10 85 21 106 55 106 28 0 61 -22 61 -39 0 -12 -22 -28 -45 -33 -18
-4 -17 -6 8 -18 36 -17 76 -4 96 31 31 55 -29 119 -113 119 -33 0 -36 3 -42
38 -4 20 -16 57 -26 82 -19 43 -20 44 -34 25 -15 -20 -44 -108 -44 -132 0 -8
-13 -13 -35 -13 -87 0 -146 -62 -114 -119 20 -35 60 -48 96 -31 25 12 26 14 8
18 -23 5 -45 21 -45 33 0 17 33 39 61 39 34 0 45 -21 55 -106 6 -46 4 -54 -10
-54 -9 0 -19 -7 -22 -15 -5 -12 -32 -15 -157 -15 -146 0 -150 0 -133 -19 9
-10 26 -42 37 -70 23 -62 26 -204 5 -255 -18 -43 -63 -78 -95 -74 -38 4 -42
58 -7 93 l25 25 -30 0 c-20 0 -40 -10 -60 -29 -39 -40 -39 -82 0 -122 50 -49
151 -38 208 23 63 67 78 213 37 356 l-6 22 323 -2 324 -3 3 -22 c4 -29 9 -29
56 7 l39 29 28 -44 c15 -24 37 -48 48 -54 18 -10 20 -7 26 36 9 60 22 114 34
132 8 12 17 7 49 -25 21 -23 48 -43 59 -46 18 -5 21 0 25 43 10 102 90 169
201 169 66 0 120 -19 159 -57 l28 -26 -30 -19 c-33 -19 -53 -59 -48 -92 3 -18
10 -21 55 -21 64 0 103 -26 121 -81 23 -67 -5 -168 -56 -202 -20 -13 -22 -12
-31 11 -9 22 -38 47 -54 47 -3 0 -8 -15 -11 -33 -16 -83 -143 -128 -198 -69
-37 40 -48 65 -48 116 0 52 37 106 74 106 19 0 21 -4 18 -34 -10 -83 125 -90
143 -6 9 41 -19 95 -58 111 -72 31 -180 0 -227 -63 -35 -48 -40 -144 -11 -194
12 -20 20 -39 17 -41 -3 -3 -36 9 -73 26 -78 37 -139 91 -148 133 -4 15 -11
28 -16 28 -11 0 -45 -33 -51 -50 -2 -8 -30 1 -87 30 -209 105 -443 108 -538 8
-44 -47 -55 -73 -55 -131 1 -81 55 -136 141 -145 72 -7 116 5 156 40 28 24 35
37 35 67 0 71 -71 95 -113 39 -17 -23 -19 -31 -9 -53 15 -32 -1 -40 -56 -32
-43 7 -92 55 -92 91 0 37 41 89 90 114 40 21 54 23 130 18 92 -5 155 -21 268
-68 l74 -31 -40 -23 c-36 -21 -81 -88 -69 -101 3 -2 18 2 34 10 49 25 132 40
185 33 28 -4 94 -25 147 -47 125 -52 222 -67 333 -51 92 13 185 53 241 101
118 104 143 345 51 482 -19 29 -33 53 -32 54 2 1 19 5 38 7 32 5 36 3 50 -26
21 -44 43 -40 51 9 5 31 18 50 57 85 50 46 74 82 86 133 7 28 7 28 52 -32 47
-62 107 -120 182 -174 l42 -30 0 -81 0 -80 -32 54 c-81 134 -221 158 -320 53
-15 -15 -39 -55 -55 -88 -25 -54 -28 -70 -28 -165 1 -112 11 -149 62 -223 28
-40 88 -80 136 -91 67 -16 166 44 208 126 11 21 22 38 24 38 3 0 5 -45 5 -100
l0 -100 -1275 0 -1275 0 0 -275 0 -275 1250 0 c688 0 1250 -3 1250 -8 0 -11
-181 -132 -280 -187 -191 -106 -411 -181 -605 -206 -120 -16 -342 -6 -470 21
-191 40 -383 115 -598 232 -60 33 -111 57 -115 54 -12 -12 -7 -1000 6 -1166
54 -687 169 -1265 357 -1795 56 -156 153 -393 201 -486 l24 -48 -88 -52 c-499
-297 -813 -357 -1115 -214 -26 12 -47 21 -47 20 0 -2 7 -19 15 -38 12 -29 24
-39 72 -57 118 -44 174 -54 308 -54 109 0 147 4 235 27 175 45 356 124 565
247 48 29 88 50 89 48 9 -10 27 -50 24 -53 -2 -2 -52 -33 -113 -69 -244 -147
-432 -229 -615 -266 -87 -18 -126 -21 -230 -17 -69 3 -151 13 -184 22 -32 9
-60 14 -62 12 -10 -10 141 -179 211 -236 44 -36 80 -69 80 -75 0 -15 -148
-140 -232 -198 -40 -27 -73 -50 -73 -52 0 -3 40 -14 90 -25 237 -56 490 -29
774 84 63 25 116 45 118 45 2 0 4 -18 4 -41 1 -39 0 -42 -45 -61 -96 -42 -260
-90 -369 -109 -200 -34 -388 -21 -568 39 -75 25 -84 26 -115 13 l-34 -14 63
-29 c297 -136 621 -129 1005 22 l98 38 52 -52 c70 -70 119 -87 272 -93 116 -4
128 -3 375 50 572 124 656 136 941 144 325 9 486 -10 915 -106 330 -74 447
-94 559 -95 138 -1 202 21 275 92 l55 53 105 -40 c363 -139 664 -146 965 -21
l78 33 -33 17 c-31 16 -35 16 -108 -11 -232 -82 -521 -76 -793 15 -180 60
-179 60 -172 103 3 21 7 39 7 40 1 1 48 -15 104 -37 201 -78 413 -117 580
-106 81 5 272 41 272 52 0 2 -33 25 -72 52 -85 58 -233 183 -233 198 0 6 36
39 80 75 70 57 221 226 211 236 -2 2 -30 -3 -62 -12 -33 -9 -115 -19 -184 -22
-104 -4 -143 -1 -230 17 -196 40 -423 141 -667 297 -49 31 -52 35 -41 58 6 14
15 25 19 25 4 0 42 -20 84 -45 199 -118 401 -206 565 -245 122 -30 322 -33
418 -7 121 32 173 59 188 96 13 31 13 33 -4 26 -9 -4 -62 -24 -117 -44 -96
-34 -106 -35 -235 -35 -109 0 -151 4 -220 23 -168 45 -293 100 -517 228 l-132
76 24 47 c93 183 219 521 300 799 193 672 276 1390 261 2263 -4 208 -9 384
-12 392 -4 11 -24 3 -82 -31 -559 -333 -1096 -365 -1635 -98 -125 62 -347 201
-347 217 0 4 563 8 1250 8 l1250 0 0 275 0 275 -1275 0 -1275 0 0 100 c0 55 2
100 5 100 2 0 13 -17 24 -38 42 -82 141 -142 208 -126 48 11 108 51 136 91 51
74 61 111 62 223 0 95 -3 111 -28 165 -16 33 -40 73 -55 88 -99 105 -239 81
-319 -53 l-33 -54 0 80 0 81 43 30 c74 54 134 112 181 174 45 60 45 60 52 32
12 -51 36 -87 86 -133 39 -35 52 -54 57 -85 8 -49 30 -53 51 -9 14 29 18 31
50 26 19 -2 36 -6 38 -7 1 -1 -13 -25 -32 -54 -68 -101 -76 -266 -17 -384 37
-76 82 -119 166 -159 140 -65 303 -61 476 11 53 22 119 43 147 47 53 7 136 -8
185 -33 16 -8 31 -12 34 -10 12 13 -33 80 -69 101 l-40 23 74 31 c113 47 176
63 268 68 76 5 90 3 130 -18 49 -25 90 -77 90 -114 0 -36 -49 -84 -92 -91 -55
-8 -71 0 -56 32 24 54 -58 110 -103 69 -45 -41 -6 -130 67 -154 51 -17 148 -8
181 16 48 36 65 68 65 121 0 209 -299 270 -593 123 -57 -29 -85 -38 -87 -30
-6 17 -40 50 -51 50 -5 0 -12 -13 -16 -28 -9 -42 -70 -96 -148 -133 -37 -17
-70 -29 -73 -26 -3 2 5 21 17 41 29 50 24 146 -11 194 -68 92 -234 102 -275
16 -40 -84 40 -160 114 -108 18 13 22 24 19 50 -3 30 -1 34 18 34 37 0 74 -54
74 -106 0 -51 -11 -76 -48 -116 -55 -59 -182 -14 -198 69 -3 18 -8 33 -11 33
-16 0 -45 -25 -54 -47 -9 -23 -11 -24 -31 -11 -58 39 -84 172 -44 232 24 38
78 59 127 51 37 -6 39 -5 39 18 0 42 -18 76 -50 95 l-30 19 28 26 c39 38 93
57 159 57 111 0 191 -67 201 -169 4 -43 7 -48 25 -43 11 3 38 23 59 46 32 32
41 37 49 25 12 -18 25 -72 34 -132 6 -43 8 -46 26 -36 11 6 33 30 48 54 l28
44 39 -29 c47 -36 52 -36 56 -7 l3 22 324 3 323 2 -6 -22 c-41 -143 -26 -289
37 -356 34 -37 71 -52 127 -52 44 0 56 5 81 29 20 20 29 39 29 61 0 42 -47 90
-89 90 l-30 0 25 -25 c35 -35 31 -89 -7 -93 -32 -4 -77 31 -95 74 -21 51 -18
193 5 255 11 28 28 60 37 70 17 19 13 19 -133 19 -125 0 -152 3 -157 15 -3 8
-13 15 -22 15 -14 0 -16 8 -10 54 10 85 21 106 55 106 28 0 61 -22 61 -39 0
-12 -22 -28 -45 -33 -18 -4 -17 -6 8 -18 36 -17 76 -4 96 31 32 57 -27 119
-114 119 -22 0 -35 5 -35 13 0 24 -29 112 -44 132 -14 19 -15 18 -34 -25 -10
-25 -22 -62 -26 -82 -6 -35 -9 -38 -42 -38 -84 0 -144 -64 -113 -119 20 -35
60 -48 96 -31 25 12 26 14 8 18 -23 5 -45 21 -45 33 0 17 33 39 61 39 34 0 45
-21 55 -106 6 -46 4 -54 -10 -54 -9 0 -19 -7 -22 -15 -5 -12 -26 -15 -101 -15
l-94 0 15 22 c9 12 16 25 16 28 0 3 -26 6 -57 5 -75 0 -107 17 -218 115 -49
44 -109 88 -133 97 l-43 18 7 49 c3 26 2 47 -2 44 -85 -41 -113 -50 -177 -54
-40 -2 -96 -6 -124 -9 l-53 -4 0 43 c0 77 -66 132 -148 123 -53 -6 -75 -26
-75 -66 0 -41 19 -61 58 -61 24 0 39 7 54 26 l21 26 10 -27 c17 -44 0 -77 -51
-102 -66 -33 -113 -44 -159 -37 l-41 7 21 21 c11 13 20 36 20 54 0 38 0 38
-42 12 -45 -28 -130 -28 -158 0 -28 28 -26 60 3 60 50 0 76 70 39 103 -11 10
-35 17 -56 17 -32 0 -37 3 -31 18 22 59 35 151 35 265 0 70 -3 127 -8 127 -4
0 -23 -11 -42 -24 -42 -28 -120 -56 -158 -56 -48 0 -102 20 -137 52 -39 33
-43 54 -20 98 19 37 68 42 85 10 14 -26 5 -40 -27 -40 -21 0 -24 -2 -13 -15
18 -21 73 -19 94 4 44 48 -5 122 -81 125 -41 1 -53 10 -53 41 0 11 -11 42 -23
69 l-23 50 -22 -51z m125 -411 c58 -17 115 -15 175 8 28 11 54 18 56 16 9 -9
-19 -187 -38 -241 -40 -115 -117 -215 -234 -301 l-58 -44 -30 18 c-51 29 -174
149 -208 203 -47 72 -78 165 -91 270 -6 50 -9 92 -7 95 2 2 28 -5 56 -16 92
-35 191 -21 246 35 l31 31 31 -31 c17 -17 49 -36 71 -43z m-283 -718 c47 -34
44 -51 -20 -115 l-59 -58 -59 65 c-64 71 -64 76 -1 116 37 23 101 19 139 -8z
m496 11 c28 -15 70 -60 70 -76 0 -5 -8 -9 -18 -9 -29 0 -33 -11 -10 -30 65
-52 -89 -111 -179 -68 -33 15 -45 64 -19 74 25 9 19 24 -9 24 -30 0 -31 7 -2
42 45 55 111 72 167 43z m-666 -187 l45 -51 -47 -53 c-26 -29 -50 -50 -55 -45
-21 21 -19 201 3 201 5 0 29 -23 54 -52z m261 -3 c6 -50 3 -87 -12 -138 -5
-18 -5 -18 -25 0 -11 10 -34 35 -51 56 l-30 38 49 50 c26 27 51 49 55 49 4 0
10 -25 14 -55z m206 -18 c9 -7 21 -22 28 -34 11 -22 13 -22 36 -7 40 26 55 12
55 -51 l0 -55 -24 16 c-37 24 -70 15 -77 -21 l-6 -30 -17 38 c-19 42 -33 157
-20 157 5 0 16 -6 25 -13z m294 -125 l-17 -57 -13 33 c-16 36 -47 43 -77 15
-17 -15 -18 -14 -18 45 0 54 2 62 19 62 10 0 24 -7 31 -15 11 -14 18 -11 49
22 l36 38 3 -43 c2 -23 -4 -68 -13 -100z m-605 -25 l53 -58 -25 -25 c-48 -49
-132 -48 -178 1 l-23 25 24 28 c59 67 84 92 90 90 3 -2 30 -29 59 -61z m408
-40 c20 -23 24 -63 9 -76 -26 -21 -74 58 -50 82 10 11 30 8 41 -6z m130 -18
c3 -26 -33 -73 -49 -64 -15 10 -10 62 7 80 21 21 38 14 42 -16z m-2713 -288
c3 -6 -2 -14 -12 -19 -15 -9 -15 -14 8 -66 13 -30 26 -56 30 -56 8 0 49 88 49
105 0 8 -7 15 -16 15 -35 0 -4 25 34 28 33 2 42 0 42 -12 0 -9 -4 -16 -9 -16
-5 0 -27 -36 -50 -79 -48 -93 -57 -169 -21 -194 28 -20 15 -27 -52 -27 -59 0
-73 11 -38 30 33 18 26 84 -20 184 -21 47 -44 86 -50 86 -5 0 -10 7 -10 15 0
11 13 15 54 15 30 0 57 -4 61 -9z m314 -7 c56 -40 78 -161 42 -240 -24 -53
-55 -74 -106 -74 -72 0 -118 65 -118 165 0 67 18 112 59 144 32 25 90 28 123
5z m176 7 c3 -6 -4 -15 -15 -21 -18 -10 -20 -20 -20 -110 0 -54 4 -110 10
-125 19 -50 86 -49 109 2 6 13 11 69 11 123 0 90 -2 100 -20 110 -30 16 -15
30 31 30 40 0 55 -22 24 -34 -12 -4 -15 -26 -15 -111 0 -147 -22 -185 -105
-185 -27 0 -44 8 -66 29 -28 29 -29 32 -29 134 0 114 -4 137 -26 137 -15 0
-19 12 -7 23 10 11 111 8 118 -2z m201 -2 c3 -6 -8 -25 -25 -43 l-32 -31 7 30
c11 48 34 69 50 44z m142 -6 c2 -7 -3 -13 -12 -13 -14 0 -16 -19 -16 -135 l0
-135 34 0 c37 0 51 12 61 53 11 42 25 32 25 -18 0 -35 3 -43 15 -39 12 5 15
30 15 135 0 106 -3 131 -15 135 -8 4 -15 12 -15 20 0 10 15 14 55 14 42 0 55
-3 55 -15 0 -8 -7 -15 -15 -15 -13 0 -15 -19 -13 -132 l3 -133 32 -3 c33 -3
63 25 63 60 0 10 5 18 11 18 6 0 9 -21 7 -52 l-3 -53 -197 -3 c-113 -1 -198 1
-198 7 0 5 7 14 15 21 12 10 15 38 15 137 0 101 -3 125 -15 129 -8 4 -15 13
-15 21 0 18 101 14 108 -4z m417 9 c6 -4 44 -52 85 -107 l75 -100 3 70 c4 82
-3 115 -23 115 -8 0 -15 7 -15 15 0 11 12 15 50 15 36 0 50 -4 50 -14 0 -7 -9
-16 -20 -19 -19 -5 -20 -14 -20 -151 0 -82 -4 -146 -9 -146 -5 0 -46 51 -92
113 -45 61 -86 116 -90 122 -5 5 -9 -38 -9 -97 0 -98 2 -107 20 -113 37 -12
21 -25 -30 -25 -48 0 -67 14 -35 26 12 5 15 30 15 135 0 106 -3 131 -15 135
-8 4 -15 12 -15 20 0 15 57 20 75 6z m545 -8 c0 -7 -7 -14 -15 -14 -8 0 -15
-8 -15 -17 0 -20 49 -163 60 -176 7 -8 70 151 70 177 0 8 -9 16 -21 19 -34 9
-11 27 35 27 54 0 61 -8 33 -34 -13 -12 -42 -78 -71 -158 -27 -76 -54 -138
-60 -138 -7 0 -32 55 -56 123 -24 67 -49 134 -57 150 -18 37 -43 36 -43 -3 0
-16 -4 -30 -10 -30 -5 0 -10 8 -10 18 0 26 -20 42 -52 42 -27 0 -28 -1 -28
-54 0 -64 11 -75 39 -44 l21 22 -1 -55 c0 -46 -2 -51 -11 -31 -6 12 -20 22
-30 22 -17 0 -19 -7 -16 -62 l3 -63 35 0 c31 0 36 4 45 32 17 53 25 50 25 -10
l0 -57 -90 0 c-55 0 -90 4 -90 10 0 6 7 13 15 16 23 9 22 259 -1 272 -41 23 0
31 146 31 124 0 150 -3 150 -15z m360 -31 c0 -48 -5 -50 -24 -11 -9 17 -20 23
-46 23 -35 0 -35 0 -38 -49 -2 -27 1 -53 6 -58 12 -12 42 1 42 18 0 8 5 14 10
14 6 0 10 -24 10 -52 l0 -53 -19 24 c-27 35 -51 22 -51 -26 0 -68 9 -83 45
-83 36 0 47 10 63 55 10 30 10 30 11 -12 1 -31 5 -43 16 -43 13 0 15 22 15
134 0 110 -3 135 -15 140 -8 3 -15 10 -15 16 0 14 122 13 153 -1 47 -21 61
-89 27 -132 l-20 -25 30 -66 c17 -36 35 -66 40 -66 6 0 10 -7 10 -15 0 -10
-10 -15 -30 -15 -26 0 -32 6 -45 38 -30 74 -50 107 -67 110 -15 3 -18 -5 -18
-51 0 -36 5 -59 15 -67 8 -7 15 -16 15 -21 0 -5 -67 -9 -150 -9 -82 0 -150 4
-150 9 0 5 7 14 15 21 12 10 15 38 15 137 0 101 -3 125 -15 129 -8 4 -15 12
-15 20 0 11 20 14 90 14 l90 0 0 -47z m370 33 c0 -8 -6 -16 -12 -18 -10 -4 -8
-23 6 -84 10 -43 22 -85 26 -93 4 -8 18 27 35 87 15 56 31 106 35 113 15 23
30 -4 62 -106 17 -58 33 -103 35 -101 2 2 13 41 24 87 l20 83 -21 16 c-28 21
-16 30 37 30 32 0 43 -4 43 -15 0 -8 -7 -15 -15 -15 -16 0 -21 -17 -61 -186
-34 -149 -46 -149 -93 1 l-34 110 -13 -40 c-7 -22 -23 -73 -35 -113 -32 -108
-45 -97 -89 77 -25 96 -42 146 -54 153 -28 16 -7 28 50 28 40 0 54 -4 54 -14z
m436 -132 c34 -85 66 -150 76 -155 36 -19 17 -29 -57 -29 -77 0 -90 6 -55 28
17 10 18 15 8 37 -11 24 -16 26 -67 23 -51 -3 -56 -5 -59 -27 -2 -15 3 -28 12
-33 31 -17 16 -28 -39 -28 -59 0 -68 9 -32 33 15 10 40 60 77 156 29 77 59
141 66 141 7 0 38 -66 70 -146z m212 129 c2 -7 -3 -13 -12 -13 -14 0 -16 -19
-16 -135 l0 -135 28 0 c36 0 47 9 65 50 l15 35 1 -42 c1 -31 5 -43 16 -43 13
0 15 22 15 135 0 113 -2 135 -15 135 -8 0 -15 7 -15 15 0 13 11 15 57 13 34
-2 58 -8 61 -15 2 -7 -3 -13 -11 -13 -8 0 -18 -7 -21 -16 -9 -23 -7 -104 2
-104 4 0 24 20 45 44 36 43 48 76 27 76 -5 0 -10 7 -10 16 0 12 10 14 52 12
30 -2 53 -8 56 -15 2 -7 -2 -13 -9 -13 -7 0 -32 -19 -55 -41 l-43 -42 45 -88
c24 -49 53 -93 64 -99 36 -20 21 -30 -45 -30 -67 0 -76 5 -49 25 15 10 13 18
-15 73 -17 34 -34 62 -38 62 -15 0 -32 -38 -33 -73 0 -25 6 -43 20 -54 11 -10
20 -21 20 -25 0 -5 -70 -8 -155 -8 -100 0 -155 4 -155 10 0 6 7 13 15 16 12 5
15 30 15 140 0 112 -2 134 -15 134 -16 0 -20 12 -8 24 12 11 96 2 101 -11z
m627 -105 c57 -149 70 -174 90 -181 40 -16 45 -1 45 139 0 112 -2 134 -15 134
-8 0 -15 7 -15 15 0 13 11 15 57 13 34 -2 58 -8 61 -15 2 -7 -3 -13 -11 -13
-21 0 -27 -31 -27 -135 0 -121 5 -135 43 -135 35 0 67 25 67 51 0 10 4 20 8
23 5 3 9 32 9 64 1 66 19 110 59 141 32 25 90 28 123 5 34 -24 61 -91 61 -152
0 -101 -47 -162 -125 -162 -43 0 -60 11 -100 65 -13 19 -14 17 -15 -22 l0 -43
-180 0 c-172 0 -204 6 -164 28 12 7 15 17 10 36 -6 26 -9 27 -64 24 -52 -3
-57 -5 -60 -27 -2 -15 3 -28 12 -33 31 -17 16 -28 -39 -28 -60 0 -68 9 -32 33
17 11 39 56 77 156 29 78 58 141 65 141 7 0 34 -55 60 -122z m703 16 l77 -106
3 83 c3 77 1 85 -20 101 -34 25 -13 29 143 26 l134 -3 3 -42 c4 -50 -9 -56
-25 -12 -11 27 -15 30 -50 27 l-38 -3 0 -54 c0 -61 13 -73 44 -42 l21 21 -1
-52 c0 -46 -2 -50 -11 -30 -8 15 -19 22 -32 20 -24 -3 -32 -39 -21 -95 5 -29
10 -33 37 -33 36 0 68 24 68 51 0 10 5 21 10 24 6 4 10 -15 10 -49 l0 -56
-105 0 c-102 0 -125 8 -87 29 14 8 17 26 19 113 2 139 -2 158 -37 158 -35 0
-40 -22 -40 -181 0 -66 -4 -119 -8 -119 -4 0 -46 54 -92 120 -47 65 -88 119
-92 120 -5 0 -8 -42 -8 -94 0 -73 4 -98 16 -110 8 -9 20 -16 25 -16 6 0 7 -4
4 -10 -8 -13 -105 -13 -105 -1 0 5 9 13 20 16 19 6 20 15 20 135 0 120 -2 130
-20 140 -28 15 -16 30 26 30 32 0 39 -7 112 -106z m-1755 -679 c507 -248 1031
-256 1487 -24 52 27 118 62 146 79 l52 30 7 -216 c19 -548 -36 -1225 -140
-1736 -116 -563 -312 -1103 -561 -1539 -151 -266 -369 -564 -570 -782 -54 -58
-54 -58 -99 -52 l-44 7 99 110 c152 167 260 306 384 493 128 193 176 275 270
462 303 607 485 1306 556 2143 17 205 31 681 24 826 l-6 142 -77 -39 c-278
-143 -611 -203 -929 -168 -123 13 -300 52 -411 90 -124 43 -350 157 -464 233
-55 36 -101 66 -103 66 -2 0 -48 -30 -101 -66 -129 -87 -345 -193 -485 -238
-449 -145 -906 -120 -1298 72 l-98 48 -7 -113 c-11 -181 9 -669 40 -973 117
-1134 472 -2081 1047 -2796 53 -67 131 -158 173 -202 l75 -80 -31 -6 c-60 -12
-67 -7 -165 106 -610 708 -986 1595 -1143 2694 -59 410 -90 950 -76 1317 l7
197 52 -30 c110 -66 254 -134 351 -165 516 -169 1104 -60 1594 295 l64 47 126
-85 c69 -47 183 -113 254 -147z m445 -429 c44 -23 89 -72 120 -130 24 -46 27
-61 27 -156 0 -118 -15 -165 -76 -235 -88 -99 -233 -101 -325 -3 -84 88 -112
251 -65 371 30 78 98 145 169 168 36 11 114 4 150 -15z m506 13 c53 -15 129
-88 157 -152 30 -71 37 -187 15 -259 -23 -70 -62 -125 -114 -162 -57 -40 -149
-48 -208 -18 -55 29 -98 77 -130 147 -62 134 -19 330 89 407 62 44 123 56 191
37z m-3033 -45 c-20 -33 -21 -50 -21 -256 l0 -221 53 7 c28 4 76 18 105 31
l52 24 -6 -25 c-4 -14 -12 -44 -19 -67 l-12 -42 -157 -3 c-86 -1 -156 1 -156
5 0 5 9 22 20 38 18 28 20 47 20 248 0 199 -2 221 -20 257 l-20 40 91 0 91 0
-21 -36z m389 29 c0 -5 -9 -21 -20 -38 -18 -28 -20 -47 -20 -243 0 -193 2
-216 20 -252 11 -22 20 -42 20 -45 0 -3 -41 -5 -91 -5 l-91 0 21 33 c19 31 20
50 21 261 1 211 0 229 -19 262 l-20 34 89 0 c50 0 90 -3 90 -7z m193 -29 l-17
-35 60 -182 61 -182 61 184 62 185 -20 33 -19 33 89 0 c50 0 90 -3 90 -6 0 -3
-11 -20 -24 -37 -13 -18 -63 -148 -111 -289 l-88 -258 -41 0 -41 0 -84 248
c-46 136 -90 257 -97 270 -8 12 -21 33 -30 47 l-16 25 91 0 91 0 -17 -36z
m712 -20 c4 -31 5 -58 2 -60 -2 -3 -24 4 -49 15 -24 10 -63 22 -86 26 l-42 7
0 -86 0 -86 43 0 c23 1 53 7 67 15 14 8 28 14 33 15 4 0 7 -36 7 -80 l0 -80
-40 20 c-21 11 -55 20 -75 20 l-35 0 0 -91 0 -92 53 7 c28 4 76 18 105 31 28
13 52 21 52 17 0 -4 -8 -34 -18 -67 l-18 -60 -157 -3 c-86 -1 -157 1 -157 5 0
5 9 22 20 38 18 28 20 47 20 248 0 199 -2 221 -20 257 l-20 40 154 0 154 0 7
-56z m319 42 c67 -28 106 -113 85 -188 -10 -39 -52 -90 -92 -113 -17 -9 -14
-17 32 -95 28 -47 70 -107 93 -134 l42 -49 -50 8 c-91 13 -142 52 -202 153
l-27 47 -3 -57 c-2 -42 2 -67 18 -97 11 -22 20 -43 20 -46 0 -3 -41 -5 -90 -5
l-91 0 26 43 c25 43 25 47 25 251 0 187 -2 211 -20 246 -11 22 -20 42 -20 45
0 12 222 5 254 -9z m465 -6 c104 -53 118 -198 27 -285 -37 -36 -64 -49 -143
-70 -21 -6 -23 -12 -23 -70 0 -47 5 -74 20 -97 11 -18 20 -36 20 -40 0 -5 -41
-8 -91 -8 l-91 0 21 36 c20 33 21 50 21 262 0 209 -2 230 -20 260 l-20 32 121
0 c99 0 126 -3 158 -20z m1321 15 c0 -2 -9 -19 -20 -37 -18 -30 -20 -51 -20
-250 l0 -218 30 0 c33 0 147 36 168 52 16 13 15 9 -5 -68 l-17 -64 -158 0
-158 0 20 40 c18 36 20 58 20 261 0 207 -1 224 -21 255 l-21 34 91 0 c50 0 91
-2 91 -5z m156 -782 c-78 -773 -320 -1562 -660 -2151 -170 -296 -409 -615
-595 -796 l-50 -50 -130 17 c-310 41 -594 41 -866 2 l-100 -15 -89 92 c-498
514 -895 1308 -1089 2183 -52 234 -127 689 -127 771 0 12 282 14 1856 14
l1856 0 -6 -67z m-3095 -2605 c10 -13 18 -27 19 -33 0 -5 -35 -28 -77 -50
-114 -60 -244 -147 -276 -184 -57 -69 -42 -133 42 -175 77 -39 161 -49 267
-31 77 14 269 56 315 70 9 3 24 -7 37 -24 l21 -29 -189 -47 c-160 -39 -204
-46 -288 -46 -118 0 -187 22 -256 82 -138 121 -58 255 259 433 55 31 101 56
103 56 2 0 12 -10 23 -22z m2618 -24 c229 -124 341 -233 341 -331 -1 -69 -89
-157 -183 -185 -88 -25 -218 -15 -429 32 -109 24 -198 47 -198 50 1 3 10 16
21 29 l20 24 112 -26 c172 -40 234 -49 332 -50 159 -1 235 39 235 124 0 39 -5
47 -73 113 -52 52 -105 90 -194 140 l-123 69 17 28 c10 16 22 29 27 29 5 0 48
-21 95 -46z"/>
<path d="M4267 7768 c-27 -69 -87 -127 -87 -83 0 9 9 29 21 44 12 16 19 37 17
47 -4 25 -56 30 -83 10 l-20 -15 20 -1 c43 -1 47 -15 15 -55 -47 -59 -47 -74
-1 -170 23 -48 41 -91 41 -96 0 -21 -31 -68 -47 -72 -10 -3 0 -5 22 -6 25 0
35 2 27 8 -10 6 -8 18 11 54 25 46 25 46 39 24 18 -27 6 -73 -20 -80 -9 -3 1
-5 23 -5 22 0 32 2 23 5 -21 5 -22 8 -6 36 6 12 11 35 10 52 l-3 29 27 -24 26
-25 -7 35 c-4 19 -15 54 -25 77 -17 38 -17 43 -3 55 26 22 43 74 43 135 0 57
0 57 -17 33 l-18 -25 -5 30 c-5 30 -5 30 -23 -17z"/>
<path d="M4070 7760 c-12 -8 -11 -10 8 -10 12 0 25 -7 28 -15 8 -19 24 -19 24
0 0 8 -9 19 -19 25 -24 12 -22 12 -41 0z"/>
<path d="M4045 7730 c-4 -6 5 -10 19 -10 18 0 26 -5 26 -17 0 -12 3 -14 10 -7
17 17 0 44 -25 44 -13 0 -27 -4 -30 -10z"/>
<path d="M4061 7696 c-8 -9 -11 -19 -7 -23 9 -9 29 13 24 27 -2 8 -8 7 -17 -4z"/>
<path d="M4402 7055 c-3 -71 44 -106 95 -70 16 11 22 28 25 65 l3 50 -60 0
-61 0 -2 -45z"/>
<path d="M2044 6389 c-16 -18 -19 -37 -19 -116 0 -91 1 -96 27 -118 33 -28 62
-23 86 13 24 37 24 177 -1 215 -22 34 -65 36 -93 6z"/>
<path d="M4080 6345 c0 -72 12 -83 50 -45 37 37 20 110 -25 110 -24 0 -25 -3
-25 -65z"/>
<path d="M4695 6315 c-4 -11 -14 -35 -21 -52 l-13 -33 40 0 c45 0 47 7 20 65
-16 35 -20 38 -26 20z"/>
<path d="M6024 6389 c-16 -18 -19 -37 -19 -116 0 -91 1 -96 28 -118 35 -31 65
-22 90 26 23 43 19 164 -7 203 -21 33 -65 35 -92 5z"/>
<path d="M5545 6315 c-5 -11 -14 -35 -21 -52 l-13 -33 40 0 c44 0 46 6 19 65
-16 35 -19 38 -25 20z"/>
<path d="M4893 5157 c-146 -82 -110 -447 44 -447 81 0 141 117 130 256 -6 82
-31 139 -77 178 -34 28 -63 32 -97 13z"/>
<path d="M5424 5151 c-17 -10 -42 -41 -55 -68 -20 -41 -24 -63 -24 -148 0 -84
4 -107 22 -142 60 -113 159 -111 212 3 84 179 -28 435 -155 355z"/>
<path d="M3997 5143 c-4 -3 -7 -48 -7 -100 0 -102 4 -107 60 -78 52 27 74 86
54 140 -12 30 -88 57 -107 38z"/>
<path d="M4457 5143 c-12 -11 -8 -203 4 -203 26 0 76 32 92 59 33 57 17 113
-38 137 -38 16 -49 17 -58 7z"/>
<path d="M2485 4421 c-3 -5 4 -12 15 -16 19 -6 20 -15 20 -127 0 -111 -1 -120
-20 -125 -43 -11 -17 -23 50 -23 67 0 93 12 50 23 -17 4 -20 14 -20 61 0 53 1
56 25 56 16 0 25 -6 25 -15 0 -8 5 -15 10 -15 6 0 10 23 10 51 0 31 -4 48 -10
44 -5 -3 -10 -13 -10 -21 0 -8 -10 -14 -25 -14 -23 0 -25 3 -25 51 l0 50 43
-3 c32 -2 44 -8 52 -25 15 -35 25 -28 25 17 l0 40 -104 0 c-58 0 -107 -4 -111
-9z"/>
<path d="M2814 4420 c-32 -13 -72 -67 -80 -105 -11 -58 4 -105 46 -147 35 -36
41 -38 98 -38 54 0 65 4 97 31 80 71 66 207 -27 255 -30 15 -101 18 -134 4z
m117 -39 c27 -27 29 -35 29 -101 0 -66 -2 -74 -29 -101 -65 -65 -133 -16 -135
96 -1 117 68 172 135 106z"/>
<path d="M3133 4410 c-43 -26 -63 -68 -63 -132 0 -94 53 -148 145 -148 61 0
100 22 125 70 38 75 16 175 -48 213 -41 23 -118 22 -159 -3z m139 -30 c38 -46
34 -165 -8 -207 -30 -30 -66 -29 -101 1 -26 23 -28 29 -28 106 0 78 1 83 29
107 34 29 80 26 108 -7z"/>
<path d="M3390 4385 c0 -52 11 -58 27 -15 9 24 17 30 42 30 l31 0 0 -120 c0
-98 -3 -122 -15 -126 -34 -13 -11 -24 50 -24 63 0 86 12 45 23 -19 5 -20 14
-20 127 l0 121 32 -3 c22 -2 36 -10 44 -26 19 -39 24 -37 24 11 l0 47 -130 0
-130 0 0 -45z"/>
<path d="M3670 4421 c0 -5 9 -11 20 -14 19 -5 20 -14 20 -127 0 -113 -1 -122
-20 -127 -46 -12 -14 -23 68 -23 114 0 152 20 152 80 0 32 -5 43 -29 61 l-30
22 25 19 c33 27 32 70 -2 97 -23 18 -41 21 -115 21 -49 0 -89 -4 -89 -9z m161
-32 c32 -32 4 -89 -43 -89 -15 0 -18 9 -18 55 0 48 2 55 20 55 11 0 29 -9 41
-21z m-3 -125 c15 -10 22 -25 22 -48 0 -39 -15 -56 -52 -56 -28 0 -28 1 -28
60 0 66 13 76 58 44z"/>
<path d="M4011 4303 c-25 -70 -53 -135 -63 -145 -26 -26 -23 -28 27 -28 48 0
55 6 29 25 -11 8 -14 19 -9 34 6 19 13 22 53 19 43 -3 47 -5 50 -30 2 -21 -1
-28 -13 -28 -9 0 -13 -4 -10 -10 6 -10 125 -15 125 -5 0 3 -8 13 -18 23 -10
10 -38 75 -62 145 -24 70 -49 127 -55 127 -5 0 -30 -57 -54 -127z m63 -40 c7
-20 4 -23 -23 -23 -34 0 -37 9 -20 60 l12 33 12 -24 c7 -13 16 -34 19 -46z"/>
<path d="M4210 4421 c0 -5 9 -13 20 -16 19 -6 20 -15 20 -127 0 -111 -1 -120
-20 -125 -51 -13 -9 -23 100 -23 l120 0 0 50 c0 58 -9 63 -30 17 -11 -23 -24
-34 -45 -37 -64 -12 -65 -10 -65 122 0 111 1 120 20 125 11 3 17 9 14 14 -7
12 -134 12 -134 0z"/>
<path d="M4470 4421 c0 -5 9 -13 20 -16 19 -6 20 -15 20 -127 0 -111 -1 -120
-20 -125 -51 -13 -9 -23 100 -23 l120 0 0 50 c0 58 -9 63 -30 17 -11 -23 -24
-34 -45 -37 -64 -12 -65 -10 -65 121 0 97 3 121 15 125 34 13 11 24 -50 24
-36 0 -65 -4 -65 -9z"/>
<path d="M4899 4403 c-37 -31 -59 -78 -59 -125 1 -50 34 -114 69 -132 39 -21
100 -20 129 0 22 15 24 15 37 -2 13 -17 14 -12 15 44 0 34 -2 62 -5 62 -2 0
-13 -17 -24 -39 -22 -42 -66 -67 -100 -56 -48 15 -72 142 -40 210 29 62 99 56
135 -11 10 -19 22 -34 26 -34 5 0 8 23 8 50 0 47 -11 63 -25 40 -4 -7 -14 -5
-28 5 -36 25 -100 19 -138 -12z"/>
<path d="M5130 4425 c0 -3 9 -14 20 -25 17 -17 20 -33 20 -120 0 -87 -3 -103
-20 -120 -11 -11 -20 -22 -20 -25 0 -3 52 -5 115 -5 106 0 115 2 115 19 0 10
3 33 6 50 8 40 -10 41 -26 1 -13 -32 -39 -44 -86 -38 l-29 3 -3 112 c-2 104
-1 113 18 125 34 21 23 28 -45 28 -36 0 -65 -2 -65 -5z"/>
<path d="M5380 4421 c0 -5 9 -12 19 -16 17 -5 20 -18 23 -116 3 -107 4 -112
31 -135 41 -35 119 -34 152 2 23 25 25 35 25 125 0 86 3 102 20 119 11 11 20
22 20 25 0 3 -22 5 -50 5 -50 0 -67 -13 -30 -23 18 -5 20 -14 20 -107 0 -94
-2 -103 -25 -125 -29 -30 -58 -32 -85 -5 -17 17 -20 33 -20 125 0 85 3 107 15
111 34 13 11 24 -50 24 -36 0 -65 -4 -65 -9z"/>
<path d="M5690 4424 c0 -4 8 -13 18 -20 14 -10 17 -29 17 -124 0 -95 -3 -114
-17 -124 -10 -7 -18 -17 -18 -21 0 -4 43 -5 96 -3 91 3 97 4 121 32 30 35 25
70 -14 104 l-26 23 22 15 c15 11 21 26 21 54 0 34 -4 42 -30 55 -29 15 -190
22 -190 9z m148 -30 c40 -28 16 -94 -35 -94 -21 0 -23 4 -23 55 0 61 14 70 58
39z m2 -124 c23 -12 33 -52 20 -85 -8 -22 -15 -26 -42 -23 -33 3 -33 4 -36 61
-3 52 -1 57 18 57 12 0 30 -4 40 -10z"/>
<path d="M5135 4045 c-51 -318 -211 -548 -553 -790 -85 -60 -166 -124 -182
-143 -15 -19 -45 -75 -66 -125 -40 -96 -97 -167 -135 -167 -19 0 -18 4 14 39
23 25 44 66 62 122 60 183 102 237 331 434 198 171 283 290 291 410 5 71 -8
101 -56 129 l-33 19 8 -34 c16 -63 8 -117 -29 -192 -46 -93 -118 -179 -248
-297 -169 -155 -245 -234 -268 -278 -12 -23 -33 -86 -47 -140 -31 -120 -42
-149 -59 -156 -35 -13 -56 80 -36 161 15 60 59 128 142 218 35 39 75 87 88
109 32 52 34 114 3 155 l-23 31 38 0 c59 0 112 19 129 46 20 29 14 40 -14 25
-37 -20 -107 -12 -208 24 -56 19 -119 35 -144 35 -48 0 -90 -21 -90 -46 0 -9
-11 -14 -34 -14 -28 0 -35 4 -40 26 -9 36 -42 29 -38 -8 3 -22 -2 -29 -22 -34
-25 -6 -71 -52 -62 -61 2 -3 23 1 45 8 48 14 56 10 47 -26 -4 -16 -13 -25 -26
-25 -22 0 -27 -16 -8 -22 10 -4 10 -11 0 -33 -10 -21 -16 -25 -24 -17 -7 7
-23 12 -36 12 -35 0 -123 -33 -119 -45 6 -17 46 -17 94 -1 56 19 68 13 22 -11
-50 -27 -81 -61 -77 -85 4 -26 38 -49 45 -30 3 7 16 25 29 39 13 14 24 34 24
43 0 10 6 23 14 29 12 10 17 8 26 -9 16 -29 54 -42 87 -29 44 16 61 54 20 44
-15 -4 -28 -1 -36 9 -8 9 -19 16 -27 16 -24 0 -25 18 -2 45 20 23 33 27 99 32
69 5 78 4 98 -16 27 -27 27 -75 2 -117 -11 -18 -75 -77 -143 -131 -203 -164
-273 -257 -298 -393 -16 -89 -5 -168 37 -251 64 -127 198 -214 417 -269 65
-17 126 -30 137 -30 25 0 42 -67 37 -152 -4 -68 -1 -71 35 -40 9 8 18 13 20
11 2 -2 13 -51 26 -109 12 -58 38 -141 57 -185 19 -45 34 -84 34 -88 0 -10
-36 -9 -103 5 -57 12 -60 11 -77 -10 -10 -12 -27 -22 -38 -22 -25 0 -46 -25
-38 -45 5 -15 9 -14 36 1 33 20 46 15 32 -13 -5 -10 -7 -24 -5 -30 6 -17 32
-16 39 1 12 30 67 41 205 41 122 0 139 -2 159 -20 24 -21 52 -12 58 19 7 32
-17 46 -80 46 -33 0 -68 5 -79 10 -24 13 -55 74 -69 137 -12 51 -39 246 -35
251 1 1 19 -5 40 -13 63 -27 73 -12 27 41 -49 55 -72 118 -72 198 l0 60 -93
90 c-99 97 -157 189 -157 250 1 28 4 24 38 -39 27 -51 70 -105 164 -201 144
-148 178 -204 178 -291 0 -29 4 -53 10 -53 16 0 23 47 18 123 -9 125 -45 179
-241 350 -70 62 -116 121 -104 133 3 3 26 -13 52 -36 69 -59 120 -82 198 -88
77 -5 140 13 177 53 l23 25 -55 0 c-30 0 -89 9 -131 19 -76 20 -151 52 -132
57 6 2 28 8 50 13 40 11 85 43 85 61 0 6 -27 10 -60 10 -69 0 -80 14 -19 24
54 9 95 31 115 62 22 32 15 37 -37 25 -24 -6 -62 -10 -84 -10 -39 0 -38 1 29
25 75 26 116 56 116 86 0 22 5 22 -65 -2 -32 -11 -70 -20 -84 -20 -19 1 -8 9
45 34 71 34 114 74 114 107 0 25 -7 24 -72 -6 -93 -43 -85 -27 22 46 257 174
433 360 537 569 58 116 63 211 14 272 l-19 23 -7 -40z m-965 -445 l25 -7 -27
-7 c-33 -10 -60 -5 -66 12 -4 13 27 15 68 2z m-116 -49 c8 -12 -13 -28 -48
-37 -25 -6 -28 -5 -23 10 4 10 7 22 7 27 0 12 57 12 64 0z m-32 -518 c-35 -74
-37 -83 -37 -178 0 -88 4 -107 28 -159 34 -74 84 -135 143 -178 60 -43 41 -47
-36 -8 -79 40 -139 95 -176 162 -26 48 -29 62 -29 148 0 82 4 103 26 150 26
55 93 140 109 140 5 0 -8 -35 -28 -77z"/>
<path d="M5190 3812 c-45 -101 -113 -202 -200 -301 -39 -44 -66 -81 -59 -81
22 0 265 253 287 301 22 45 31 142 14 153 -4 2 -23 -30 -42 -72z"/>
<path d="M4936 3853 c-3 -3 -6 -22 -6 -42 0 -20 -12 -60 -25 -90 -56 -119
-154 -228 -383 -424 -96 -82 -130 -123 -82 -97 44 24 288 215 348 274 133 128
203 258 182 337 -11 39 -22 53 -34 42z"/>
<path d="M5111 3559 c-106 -112 -218 -206 -338 -282 -81 -52 -82 -52 -83 -94
0 -24 4 -43 9 -43 4 0 64 37 132 82 185 122 332 278 369 391 6 21 10 40 8 41
-1 2 -45 -41 -97 -95z"/>
<path d="M5022 3326 c-89 -79 -155 -128 -246 -180 -75 -42 -80 -48 -91 -90 -7
-26 -8 -46 -3 -46 5 0 28 10 51 21 172 88 365 266 355 329 -3 20 -9 17 -66
-34z"/>
<path d="M4950 3128 c-63 -47 -212 -129 -257 -140 -16 -4 -23 -14 -23 -31 0
-13 -9 -36 -21 -51 l-21 -27 28 7 c56 12 190 83 248 131 50 41 127 146 115
157 -2 2 -33 -19 -69 -46z"/>
<path d="M4885 2955 c-57 -36 -171 -84 -222 -92 -28 -5 -35 -11 -40 -35 -3
-16 -20 -40 -37 -53 -36 -29 -30 -30 47 -10 112 29 245 113 287 180 12 20 21
37 19 39 -2 2 -26 -11 -54 -29z"/>
<path d="M4775 2784 c-28 -13 -75 -29 -104 -37 -65 -17 -48 -27 45 -27 63 0
64 0 90 40 15 22 25 42 23 44 -2 2 -27 -7 -54 -20z"/>
<path d="M4450 2616 c0 -3 38 -34 84 -70 154 -121 236 -226 277 -356 21 -68
28 -180 15 -239 -12 -49 8 -32 43 37 84 169 62 343 -58 455 -53 49 -119 86
-256 141 -87 35 -105 41 -105 32z"/>
<path d="M4041 2256 c-11 -60 -22 -104 -36 -138 -10 -25 19 -23 62 3 l34 21
-25 -66 c-28 -75 -110 -237 -156 -310 l-31 -48 -47 6 c-26 3 -62 9 -81 12 -27
5 -37 3 -47 -11 -8 -10 -25 -20 -40 -21 -30 -3 -54 -21 -54 -40 0 -22 20 -27
39 -10 10 9 25 16 33 16 14 0 15 -4 5 -30 -10 -25 -9 -33 3 -40 11 -7 19 -4
30 10 22 28 107 43 224 38 74 -2 110 -8 128 -20 20 -13 28 -14 36 -5 21 28 22
37 2 57 -16 16 -33 20 -80 20 -45 0 -60 3 -60 14 0 8 33 59 73 113 89 120 111
156 127 208 6 22 13 46 16 53 3 10 12 8 40 -8 19 -12 37 -20 40 -18 2 3 -5 26
-16 51 -12 26 -24 69 -27 97 -5 45 -8 50 -37 56 -17 3 -56 17 -88 29 l-56 23
-11 -62z"/>
<path d="M1834 4410 c5 -14 12 -86 15 -160 6 -100 12 -145 26 -172 10 -21 22
-38 25 -38 16 0 40 108 40 179 -1 89 -25 148 -79 190 l-35 26 8 -25z"/>
<path d="M6544 4405 c-49 -39 -74 -102 -74 -189 0 -68 24 -176 40 -176 3 0 15
17 25 38 14 27 20 72 26 172 3 74 10 145 14 158 9 28 7 27 -31 -3z"/>
<path d="M1557 4228 c3 -36 -2 -79 -16 -135 -35 -135 -25 -230 29 -295 l27
-32 22 48 c49 111 68 270 41 340 -15 41 -46 82 -80 106 l-29 20 6 -52z"/>
<path d="M6819 4250 c-20 -16 -46 -50 -58 -76 -39 -83 -27 -231 30 -360 l22
-48 27 32 c54 65 64 160 29 295 -14 56 -19 99 -16 135 3 28 5 52 4 52 -2 0
-19 -13 -38 -30z"/>
<path d="M1767 4058 c-8 -81 -38 -168 -121 -347 -77 -166 -112 -263 -121 -343
l-7 -56 -29 33 c-29 33 -84 65 -111 65 -13 0 -12 -8 3 -52 14 -41 18 -84 19
-195 0 -78 5 -166 11 -195 36 -168 126 -258 292 -292 l62 -13 -82 -7 c-44 -4
-93 -10 -108 -14 l-27 -8 39 -27 c21 -15 56 -45 78 -67 l39 -40 83 0 83 0 41
45 c23 25 57 55 77 67 l36 22 -30 8 c-16 4 -65 11 -108 14 l-80 7 46 12 c102
26 221 132 257 231 38 100 26 205 -49 424 -56 164 -59 204 -24 319 7 23 5 24
-25 18 -18 -4 -45 -15 -59 -26 l-27 -19 3 77 c6 134 -37 280 -111 378 -18 23
-35 43 -38 43 -3 0 -9 -28 -12 -62z"/>
<path d="M6593 4077 c-74 -98 -117 -244 -111 -378 l3 -77 -27 19 c-29 21 -88
36 -88 23 0 -5 7 -29 16 -54 22 -63 13 -138 -36 -279 -75 -219 -87 -324 -49
-425 36 -99 155 -205 257 -231 l46 -12 -80 -7 c-43 -3 -92 -10 -108 -14 l-30
-8 36 -22 c20 -12 54 -42 77 -67 l41 -45 83 0 83 0 39 40 c22 22 57 52 78 67
l39 27 -27 8 c-15 4 -64 10 -108 14 l-82 7 62 13 c169 34 261 129 292 299 6
32 11 120 11 194 1 105 5 148 19 189 15 44 16 52 3 52 -27 0 -82 -32 -111 -65
l-29 -33 -7 56 c-9 80 -44 177 -121 343 -83 179 -113 266 -121 347 -3 34 -9
62 -12 62 -3 0 -20 -20 -38 -43z"/>
<path d="M1700 2415 l0 -35 -54 0 c-63 0 -81 -15 -81 -70 0 -55 18 -70 81 -70
l54 0 0 -44 c0 -51 4 -53 108 -48 l62 4 0 44 0 44 54 0 c63 0 81 15 81 70 0
55 -18 70 -81 70 l-54 0 0 35 0 35 -85 0 -85 0 0 -35z"/>
<path d="M6540 2415 l0 -35 -54 0 c-63 0 -81 -15 -81 -70 0 -55 18 -70 81 -70
l54 0 0 -44 0 -44 63 -4 c103 -5 107 -3 107 48 l0 44 54 0 c63 0 81 15 81 70
0 55 -18 70 -81 70 l-54 0 0 35 0 35 -85 0 -85 0 0 -35z"/>
<path d="M4031 1349 c-183 -15 -471 -64 -871 -148 -342 -72 -508 -62 -609 39
-17 18 -31 29 -31 25 0 -4 18 -41 40 -83 60 -115 189 -281 335 -429 111 -113
136 -133 170 -139 57 -10 219 10 490 61 343 65 442 77 660 77 219 -1 320 -12
662 -78 270 -51 430 -71 488 -60 34 7 59 27 165 135 69 69 154 164 190 209 71
90 162 233 179 283 l11 31 -43 -39 c-61 -57 -129 -78 -247 -77 -74 1 -179 17
-470 72 -664 125 -836 144 -1119 121z m43 -135 c8 -20 8 -74 0 -74 -3 0 -15
11 -26 25 -15 19 -29 25 -59 25 -24 0 -39 -5 -39 -12 0 -7 8 -66 17 -131 11
-78 21 -120 30 -123 48 -15 49 -15 33 -24 -24 -13 -160 -23 -160 -12 0 5 10
12 21 15 24 6 24 17 -2 193 l-11 74 -34 0 c-37 0 -64 -22 -64 -51 0 -10 -7
-19 -15 -19 -10 0 -15 11 -15 35 0 19 0 38 0 43 -1 5 211 41 306 51 7 0 15 -6
18 -15z m383 -47 c-3 -24 -9 -91 -13 -149 -7 -104 -7 -105 17 -113 20 -7 15
-9 -26 -12 -57 -5 -115 4 -115 17 0 5 10 10 22 12 27 4 35 34 40 157 3 83 2
86 -19 89 -35 5 -27 20 15 27 20 4 42 8 47 10 32 11 38 5 32 -38z m290 -7 c29
-13 44 -27 49 -44 10 -42 -4 -77 -36 -89 l-29 -11 25 -22 c53 -50 7 -144 -71
-144 -46 0 -101 23 -114 48 -28 53 -7 110 47 127 l24 7 -21 19 c-36 34 -25 91
24 117 29 16 54 14 102 -8z m-1076 -41 c11 -49 2 -54 -37 -19 -36 31 -62 37
-95 20 -24 -13 -25 -56 -1 -68 9 -5 47 -17 84 -26 64 -17 104 -45 108 -76 6
-39 -2 -64 -30 -92 -27 -27 -36 -29 -78 -26 -26 3 -55 8 -64 12 -13 6 -18 4
-18 -9 0 -9 -6 -15 -12 -13 -13 5 -35 95 -26 104 3 2 23 -14 45 -36 46 -45 81
-52 113 -20 40 40 18 66 -81 94 -80 22 -109 48 -109 95 0 28 7 45 28 66 25 25
32 27 85 22 34 -3 57 -1 57 5 0 24 25 -2 31 -33z m1346 -22 c73 -73 5 -263
-101 -283 -45 -8 -84 3 -100 28 -8 13 -7 21 2 30 10 10 18 7 38 -15 32 -35 52
-32 81 12 31 45 29 58 -5 53 -20 -3 -38 4 -60 23 -27 23 -32 33 -32 72 0 38 5
50 35 80 32 32 40 35 77 30 25 -3 51 -15 65 -30z m-1622 -23 c8 -47 1 -53 -30
-24 -21 20 -31 22 -71 16 -26 -3 -49 -8 -52 -10 -2 -3 -1 -28 3 -55 6 -48 9
-51 36 -51 22 0 32 7 41 25 16 36 25 31 36 -22 12 -56 5 -74 -17 -44 -13 17
-23 20 -48 15 -34 -7 -35 -11 -13 -94 8 -30 38 -37 90 -21 35 10 60 42 60 76
0 25 19 17 25 -10 3 -14 7 -36 10 -50 6 -28 16 -25 -162 -59 -68 -12 -125 -20
-128 -17 -3 3 4 13 17 22 l23 18 -25 123 c-24 120 -26 123 -52 126 -44 5 -33
20 25 31 236 49 223 49 232 5z m1870 -24 c55 -52 24 -117 -93 -195 l-64 -43
75 -12 75 -12 -10 -29 c-10 -30 -23 -38 -30 -18 -2 6 -39 17 -82 25 -43 7 -82
16 -85 20 -3 3 5 15 19 25 110 86 160 147 160 195 0 23 -29 54 -51 54 -25 0
-51 -30 -46 -51 3 -10 -2 -20 -10 -23 -40 -16 -45 33 -7 71 22 22 32 25 75 21
33 -4 58 -13 74 -28z m-1028 -106 c9 -24 -10 -49 -37 -49 -31 0 -48 28 -31 49
17 21 60 21 68 0z"/>
<path d="M4672 1138 c-6 -6 -12 -31 -12 -54 0 -35 4 -44 22 -50 31 -10 60 28
56 75 -2 30 -7 36 -28 39 -14 2 -31 -3 -38 -10z"/>
<path d="M4641 996 c-22 -26 -25 -90 -6 -110 25 -25 47 -16 69 28 14 29 17 45
10 65 -11 30 -54 40 -73 17z"/>
<path d="M4931 1091 c-36 -36 -41 -125 -9 -145 30 -18 60 22 66 87 4 48 2 56
-17 66 -17 9 -24 8 -40 -8z"/>
<path d="M3935 675 c-60 -8 -227 -37 -370 -65 -143 -28 -299 -54 -347 -57 -98
-7 -103 -18 -22 -49 66 -25 203 -14 504 42 l255 48 260 0 260 0 255 -48 c301
-56 438 -67 504 -42 81 31 76 42 -22 49 -48 3 -191 26 -319 51 -128 25 -276
53 -330 62 -138 22 -487 27 -628 9z"/>
</g>
</svg>
