<?xml version="1.0" standalone="no"?>
<!DOCTYPE svg PUBLIC "-//W3C//DTD SVG 20010904//EN"
 "http://www.w3.org/TR/2001/REC-SVG-20010904/DTD/svg10.dtd">
<svg version="1.0" xmlns="http://www.w3.org/2000/svg"
 width="360.000000pt" height="203.000000pt" viewBox="0 0 360.000000 203.000000"
 preserveAspectRatio="xMidYMid meet">

<g transform="translate(0.000000,203.000000) scale(0.100000,-0.100000)"
fill="#000000" stroke="none">
<path d="M1655 2003 c-135 -21 -317 -92 -421 -164 -78 -54 -198 -174 -255
-256 -217 -314 -231 -730 -35 -1063 144 -245 417 -430 695 -470 114 -17 304
-8 406 20 103 27 262 105 345 168 259 197 404 508 387 835 -22 437 -316 795
-745 908 -76 20 -306 34 -377 22z m322 -48 c365 -77 639 -337 739 -701 22 -81
30 -285 14 -380 -79 -494 -539 -848 -1031 -794 -232 26 -406 108 -570 270
-155 154 -240 317 -275 528 -38 230 22 490 159 691 49 73 175 194 259 249 94
61 204 108 312 132 102 23 297 26 393 5z"/>
<path d="M1611 1925 c-223 -49 -398 -156 -536 -328 -174 -217 -241 -508 -180
-774 79 -339 336 -603 672 -689 109 -28 289 -34 393 -14 198 38 360 128 506
282 125 133 207 300 235 478 16 101 6 285 -20 380 -89 331 -357 587 -689 660
-104 23 -285 25 -381 5z m310 -30 c400 -60 703 -376 749 -780 29 -268 -73
-545 -272 -730 -114 -107 -211 -162 -377 -212 -118 -35 -323 -38 -446 -5 -493
133 -777 643 -623 1122 47 145 123 265 241 377 94 89 200 152 325 193 157 50
250 58 403 35z"/>
<path d="M1807 1833 c-4 -3 -7 -19 -7 -35 0 -24 -4 -28 -30 -28 -27 0 -30 3
-30 30 0 20 -5 30 -15 30 -12 0 -15 -15 -15 -75 0 -60 3 -75 15 -75 11 0 15
11 15 36 0 34 1 35 33 32 28 -3 32 -7 32 -32 1 -30 18 -46 29 -27 8 12 -5 151
-14 151 -4 0 -10 -3 -13 -7z"/>
<path d="M1911 1791 c-18 -66 -23 -109 -14 -114 4 -3 30 -8 57 -12 39 -6 48
-5 44 6 -2 7 -19 16 -37 20 -38 8 -45 14 -36 29 4 7 19 10 35 6 19 -3 30 -1
33 8 4 9 -5 16 -24 20 -17 3 -29 12 -29 21 0 12 9 15 40 13 55 -4 48 15 -11
28 l-49 11 -9 -36z"/>
<path d="M1545 1785 c-30 -30 -32 -64 -4 -99 26 -33 86 -37 113 -7 23 26 4 37
-28 16 -19 -13 -29 -14 -45 -6 -47 25 -33 88 21 93 46 4 49 28 3 28 -25 0 -43
-8 -60 -25z"/>
<path d="M2082 1748 c-19 -19 -14 -42 13 -68 14 -13 25 -27 25 -32 0 -14 -40
-9 -46 7 -8 19 -34 20 -34 1 0 -8 10 -22 22 -30 66 -46 122 21 62 73 -19 16
-23 26 -15 34 7 7 16 6 29 -6 20 -18 42 -23 42 -9 0 32 -73 55 -98 30z"/>
<path d="M1415 1740 c-3 -6 4 -24 15 -41 12 -16 20 -32 18 -35 -3 -2 -26 4
-52 15 -39 17 -76 19 -76 5 0 -3 69 -114 77 -123 2 -3 8 0 14 6 7 7 3 21 -11
47 -12 20 -19 36 -16 36 3 0 29 -9 57 -20 31 -12 56 -17 61 -12 9 9 -58 132
-73 132 -4 0 -11 -5 -14 -10z"/>
<path d="M2227 1693 c-4 -3 0 -14 9 -24 15 -17 14 -21 -16 -59 -21 -27 -30
-46 -25 -58 7 -18 13 -13 64 56 17 23 23 25 39 15 19 -11 32 -8 32 7 0 6 -84
70 -92 70 -3 0 -8 -3 -11 -7z"/>
<path d="M1675 1614 c-81 -21 -156 -53 -212 -90 -39 -26 -77 -44 -94 -44 -25
0 -29 -5 -35 -37 -4 -21 -17 -51 -29 -68 -30 -39 -68 -117 -91 -185 -14 -41
-19 -84 -19 -170 0 -86 5 -129 19 -170 68 -200 199 -336 381 -398 109 -37 204
-55 233 -43 15 5 47 13 72 17 214 32 400 197 476 424 23 69 26 250 5 325 -17
59 -64 158 -96 201 -13 17 -28 46 -32 65 -7 27 -15 35 -39 39 -16 3 -57 24
-92 47 -98 65 -167 85 -307 89 -66 1 -129 1 -140 -2z m258 -39 c32 -8 82 -27
112 -42 l54 -28 -304 0 -304 0 54 28 c31 15 79 34 108 42 69 18 209 19 280 0z
m179 -119 c43 -7 81 -16 85 -19 17 -18 42 -231 42 -367 1 -237 -35 -336 -170
-471 -62 -63 -94 -86 -172 -124 l-97 -47 -47 16 c-130 44 -280 169 -340 282
-57 107 -67 161 -67 344 0 168 24 357 47 372 9 5 129 22 242 32 74 7 399 -5
477 -18z m199 -189 c33 -71 59 -179 59 -247 0 -74 -27 -180 -66 -259 -45 -91
-142 -192 -230 -238 -80 -43 -87 -42 -27 6 112 88 188 208 218 346 13 59 16
114 13 265 -1 104 -2 190 0 190 2 0 16 -29 33 -63z m-1006 -144 c0 -224 7
-266 66 -389 38 -81 102 -158 179 -218 52 -39 5 -20 -72 31 -163 107 -253 275
-252 473 0 52 6 115 13 140 10 36 60 160 65 160 0 0 1 -89 1 -197z"/>
<path d="M1778 900 c-7 -11 -18 -20 -24 -20 -6 0 -19 -10 -30 -21 -10 -12 -28
-25 -39 -30 -11 -5 -29 -15 -40 -21 -11 -7 -22 -14 -23 -15 -5 -2 20 -76 30
-88 4 -5 8 -21 8 -36 0 -15 5 -31 10 -34 6 -3 10 -16 10 -28 0 -22 3 -23 113
-22 l112 0 11 50 c9 47 23 84 45 128 10 19 4 37 -11 37 -14 0 -96 58 -129 91
-30 29 -31 29 -43 9z m32 -171 c0 -5 -7 -9 -15 -9 -15 0 -20 12 -9 23 8 8 24
-1 24 -14z"/>
<path d="M1205 1581 c-6 -11 54 -151 65 -151 14 0 19 13 10 30 -13 24 20 65
52 65 45 0 32 17 -31 41 -69 26 -87 29 -96 15z m75 -51 c0 -9 -19 -24 -24 -19
-2 2 -7 15 -11 27 -6 22 -5 23 14 13 12 -7 21 -16 21 -21z"/>
<path d="M2353 1561 c-12 -10 -36 -31 -54 -45 l-31 -26 32 -40 c17 -22 38 -40
46 -40 21 0 17 10 -13 42 -21 22 -24 31 -15 40 9 9 17 6 36 -11 33 -31 55 -17
25 15 -18 19 -20 27 -11 36 9 9 18 4 40 -22 41 -49 52 -21 12 30 -17 22 -35
40 -38 40 -4 -1 -17 -9 -29 -19z"/>
<path d="M1106 1454 c-3 -8 1 -28 9 -44 20 -39 20 -38 -22 -42 -26 -2 -39 -8
-41 -20 -4 -22 115 -85 131 -69 13 13 13 13 -38 39 -31 16 -35 21 -18 22 12 0
28 3 37 6 14 5 14 9 0 35 -17 34 -11 36 34 9 39 -24 38 -24 46 -5 4 11 -14 25
-63 50 -58 29 -70 32 -75 19z"/>
<path d="M2428 1404 c-48 -24 -66 -38 -62 -49 5 -11 10 -12 26 -4 30 16 43 -2
25 -37 -20 -40 -10 -65 13 -34 12 16 29 24 50 24 21 1 37 8 46 21 11 18 10 27
-9 67 l-22 46 -67 -34z m66 -30 c10 -26 7 -44 -8 -44 -20 0 -39 27 -32 45 7
20 32 19 40 -1z"/>
<path d="M1583 360 c-27 -11 -43 -40 -43 -79 0 -53 69 -88 121 -60 31 16 12
30 -31 23 -36 -6 -40 -4 -52 21 -20 44 23 91 62 68 26 -17 40 5 15 24 -21 15
-40 16 -72 3z"/>
<path d="M1717 364 c-4 -4 -7 -41 -7 -81 0 -66 2 -74 18 -71 14 3 17 15 17 77
0 69 -9 93 -28 75z"/>
<path d="M1780 352 c0 -13 7 -18 23 -18 20 1 22 -4 25 -61 2 -47 7 -63 17 -63
12 0 15 15 15 66 0 62 1 65 23 62 14 -2 22 2 22 12 0 11 -15 16 -62 18 -56 3
-63 1 -63 -16z"/>
<path d="M1930 362 c0 -4 11 -24 25 -44 15 -23 25 -51 25 -73 0 -29 3 -36 18
-33 12 2 16 11 14 28 -2 15 10 45 28 73 34 55 35 57 16 57 -8 0 -23 -13 -33
-30 -9 -16 -21 -30 -25 -30 -4 0 -14 14 -23 30 -14 27 -45 42 -45 22z"/>
</g>
</svg>
