<?xml version="1.0" standalone="no"?>
<!DOCTYPE svg PUBLIC "-//W3C//DTD SVG 20010904//EN"
 "http://www.w3.org/TR/2001/REC-SVG-20010904/DTD/svg10.dtd">
<svg version="1.0" xmlns="http://www.w3.org/2000/svg"
 width="348.000000pt" height="348.000000pt" viewBox="0 0 348.000000 348.000000"
 preserveAspectRatio="xMidYMid meet">

<g transform="translate(0.000000,348.000000) scale(0.100000,-0.100000)"
fill="#000000" stroke="none">
<path d="M1490 3468 c-13 -5 -28 -14 -32 -21 -14 -22 -8 -67 12 -87 19 -19 20
-34 20 -582 0 -502 -2 -564 -16 -579 -39 -43 19 -98 90 -86 34 5 34 5 39 -36
4 -35 1 -46 -19 -64 -31 -28 -125 -48 -178 -36 -40 8 -41 9 -38 45 3 30 -2 43
-23 64 -26 26 -52 29 -99 9 -16 -7 -17 -5 -11 16 4 13 12 27 17 30 16 10 51
-2 78 -26 14 -12 33 -25 43 -28 12 -4 17 -17 17 -40 0 -32 3 -35 38 -40 68
-11 154 15 137 42 -3 6 -27 25 -53 42 -26 18 -60 44 -77 59 -32 30 -166 90
-200 90 -34 0 -52 -21 -85 -94 l-30 -69 -26 51 c-30 60 -101 129 -178 172 -31
18 -56 36 -56 41 0 19 38 8 64 -20 15 -16 42 -32 59 -35 18 -3 47 -8 65 -12
31 -6 33 -5 30 17 -2 16 -9 23 -20 21 -10 -2 -18 2 -18 8 0 5 8 10 19 10 60 0
45 72 -30 145 -77 75 -112 130 -99 154 5 11 10 30 10 42 0 16 -5 20 -20 16
-17 -4 -20 0 -20 23 0 42 -12 43 -40 4 -31 -42 -50 -44 -50 -4 0 34 -14 39
-32 11 -9 -15 -19 -18 -42 -14 -22 5 -27 3 -21 -7 5 -9 2 -10 -14 -5 -17 5
-21 2 -21 -14 0 -12 -7 -21 -15 -21 -8 0 -15 -4 -15 -8 0 -5 -8 -17 -18 -28
-9 -10 -33 -49 -52 -86 -19 -38 -38 -68 -42 -68 -11 0 -5 -43 7 -52 7 -5 6
-14 -2 -28 -17 -26 -16 -30 5 -30 16 -1 16 -1 0 -14 -23 -17 -23 -26 2 -26 25
0 28 -41 4 -61 -15 -12 -15 -14 6 -19 14 -3 27 -18 34 -38 7 -20 30 -47 61
-70 95 -71 120 -166 58 -220 -19 -17 -23 -26 -14 -35 20 -20 13 -67 -16 -93
-20 -19 -24 -27 -15 -36 21 -21 14 -58 -13 -70 -18 -8 -24 -17 -19 -27 26 -64
10 -67 -52 -9 -85 79 -111 165 -92 308 6 48 8 95 4 105 -6 16 -9 13 -24 -16
-9 -19 -24 -34 -32 -34 -8 0 -24 -16 -37 -35 -13 -19 -30 -44 -38 -55 -8 -10
-15 -31 -15 -45 0 -14 -5 -31 -11 -37 -11 -11 -1 -102 16 -145 5 -13 0 -19
-19 -24 -30 -7 -31 -14 -11 -53 13 -25 13 -31 0 -41 -21 -18 -68 -104 -57
-108 10 -3 3 -60 -9 -68 -14 -8 -11 -24 5 -24 15 0 26 -30 26 -72 0 -17 5 -28
14 -28 16 0 96 -84 97 -102 0 -7 5 1 10 17 6 22 3 51 -11 108 -18 69 -19 81
-6 111 20 49 51 66 116 66 30 0 61 -4 69 -9 16 -11 6 -31 -16 -31 -14 0 -14
-2 -1 -17 27 -32 28 -51 3 -81 -24 -28 -24 -29 -4 -45 21 -18 25 -52 8 -62 -7
-5 -6 -12 4 -23 8 -10 18 -35 22 -57 19 -110 95 -206 183 -231 67 -20 143 -14
200 15 56 29 75 55 107 146 5 16 10 8 21 -33 18 -70 28 -87 88 -151 58 -61
147 -123 290 -202 92 -50 246 -176 246 -200 0 -32 -488 36 -700 98 -46 13 -85
25 -87 26 -1 1 3 24 9 50 8 40 7 52 -7 73 -25 39 -88 61 -194 69 -56 4 -111
15 -135 26 -46 21 -97 24 -127 9 -19 -11 -99 3 -99 17 0 3 14 46 31 95 17 49
28 96 25 104 -13 34 -217 103 -266 91 -47 -12 -60 -32 -111 -172 -73 -203 -77
-225 -45 -278 44 -76 135 -144 278 -210 55 -25 58 -27 48 -52 -15 -39 -12 -77
7 -104 22 -32 232 -131 358 -170 237 -72 440 -116 655 -142 120 -14 580 -14
725 0 348 35 769 152 968 269 76 44 86 70 61 154 -4 13 16 27 89 63 171 84
262 175 259 257 -3 57 -96 326 -124 356 -21 22 -28 24 -88 19 -73 -6 -162 -37
-204 -71 -27 -21 -28 -23 -14 -52 30 -60 52 -154 40 -166 -13 -13 -60 -14
-127 -3 -31 5 -50 1 -85 -17 -34 -18 -63 -25 -120 -26 -93 -3 -169 -24 -199
-56 -19 -20 -22 -33 -19 -82 l3 -58 -126 -32 c-198 -52 -639 -111 -639 -86 0
21 141 139 221 186 295 173 385 259 405 386 7 46 16 43 33 -12 27 -84 110
-138 214 -138 123 0 214 77 252 216 9 33 20 67 25 76 5 9 7 31 3 48 -4 25 -1
34 15 46 l21 14 -25 25 c-27 27 -31 57 -9 75 21 17 19 27 -7 34 -38 9 -6 27
60 33 60 6 62 5 97 -30 40 -40 44 -68 19 -154 -10 -35 -13 -68 -9 -91 l7 -37
13 31 c7 17 34 46 59 64 41 30 46 38 46 71 0 23 6 41 15 46 12 7 13 15 3 46
-10 32 -9 40 3 48 10 6 11 11 3 17 -6 4 -18 21 -27 37 -8 17 -24 38 -35 48
-20 19 -20 19 -1 52 l20 33 -31 11 c-26 8 -29 13 -22 28 31 56 20 193 -17 233
-9 9 -24 32 -34 49 -11 22 -22 31 -32 27 -10 -3 -22 7 -35 32 l-21 37 6 -128
c7 -139 1 -171 -45 -244 -26 -43 -102 -108 -113 -97 -3 3 -1 19 5 35 8 25 6
31 -16 51 -25 22 -26 24 -11 52 18 35 18 36 0 36 -8 0 -19 9 -25 19 -12 24
-13 78 -1 85 5 4 -4 20 -21 37 -28 27 -30 35 -26 79 6 61 26 91 88 136 31 22
54 48 62 70 7 21 19 34 30 34 22 0 22 9 3 34 -21 27 -19 46 5 46 22 0 27 15 9
26 -8 5 -6 10 5 16 15 8 15 11 1 24 -17 17 -20 34 -6 34 18 0 5 47 -29 106
-19 32 -33 65 -32 72 2 6 -2 12 -8 12 -6 0 -16 11 -22 25 -6 14 -19 25 -30 25
-12 0 -18 7 -18 21 0 15 -5 19 -15 15 -8 -3 -15 0 -15 5 0 7 -11 9 -26 6 -16
-3 -28 0 -31 10 -3 7 -14 18 -26 24 -18 10 -19 9 -14 -13 3 -13 2 -30 -4 -38
-8 -12 -15 -8 -44 23 l-34 39 -3 -34 c-2 -25 -7 -32 -20 -30 -14 2 -18 -4 -18
-26 0 -15 5 -33 12 -40 13 -13 6 -23 -95 -128 -40 -42 -61 -73 -67 -100 -9
-40 0 -64 26 -64 8 0 14 -4 14 -10 0 -5 -6 -7 -14 -4 -21 8 -30 -16 -13 -34
13 -13 21 -13 42 -4 14 7 36 12 49 12 12 0 35 13 51 30 27 28 65 41 65 21 0
-5 -33 -30 -74 -55 -82 -51 -117 -88 -149 -153 -12 -24 -24 -43 -27 -43 -4 0
-20 28 -36 62 -16 34 -35 67 -42 75 -22 22 -66 15 -155 -26 l-86 -39 -15 23
c-13 20 -25 25 -77 27 l-62 3 -18 55 c-10 30 -19 65 -19 77 0 12 -5 25 -11 28
-7 5 -10 44 -8 107 3 93 5 102 30 129 15 16 32 29 38 29 6 0 11 16 11 35 0 32
-2 35 -30 35 -28 0 -30 3 -30 34 0 58 56 90 80 47 14 -27 -9 -40 -27 -16 -12
18 -13 18 -13 -1 0 -61 75 -73 87 -14 4 23 11 30 29 30 26 0 44 26 44 62 0 13
5 29 12 36 9 9 7 13 -7 18 -12 5 -24 1 -35 -14 -17 -20 -18 -21 -23 -3 -2 11
-15 24 -27 31 -20 11 -22 10 -17 -3 7 -18 -7 -31 -43 -42 -14 -4 -41 -23 -61
-42 -31 -30 -37 -43 -41 -89 -3 -30 -8 -57 -11 -61 -22 -21 -46 70 -33 122 4
14 21 42 39 63 17 20 40 52 50 70 17 30 17 32 1 32 -16 0 -16 1 -2 13 9 6 18
28 21 48 5 31 1 41 -21 62 -43 39 -68 40 -118 4 -28 -20 -47 -43 -50 -60 -4
-15 -15 -32 -25 -38 -11 -5 -19 -15 -19 -22 0 -7 -4 -18 -9 -26 -13 -20 -68
45 -100 116 -29 63 -24 80 30 99 48 17 100 17 204 -3 61 -11 145 -17 260 -17
157 -1 175 1 229 23 58 23 137 85 158 124 9 17 8 19 -8 12 -46 -18 -96 -25
-191 -25 -122 -1 -232 23 -349 74 -106 46 -162 59 -237 54 -61 -4 -63 -3 -77
26 -18 35 -46 47 -80 34z m52 -25 c20 -18 23 -38 8 -48 -6 -3 -7 1 -4 10 7 18
-12 45 -32 45 -22 0 -43 -28 -37 -51 4 -15 3 -20 -5 -15 -19 12 -14 44 10 60
28 20 37 20 60 -1z m-23 -190 l-2 -168 -9 135 c-8 122 -5 200 7 200 3 0 4 -75
4 -167z m108 121 c8 -21 -5 -31 -49 -39 -33 -6 -38 -5 -38 12 0 14 10 23 33
31 45 14 47 14 54 -4z m161 -12 c18 -24 15 -35 -10 -28 -13 3 -30 6 -39 6 -18
0 -33 26 -23 41 7 13 56 0 72 -19z m-158 -131 c0 -34 -2 -36 -52 -45 -37 -7
-38 -6 -38 24 0 32 22 48 68 49 18 1 22 -4 22 -28z m146 21 c6 -4 14 -20 18
-35 7 -28 6 -28 -36 -25 -40 3 -43 5 -46 36 -3 29 -1 32 25 32 15 0 33 -4 39
-8z m59 -155 c7 2 16 -5 20 -16 3 -12 11 -21 18 -21 8 0 8 -3 0 -11 -7 -7 -20
-8 -34 -3 -13 4 -27 7 -31 6 -5 -1 -8 12 -8 30 0 24 3 29 11 21 6 -6 17 -9 24
-6z m-303 -66 c-4 -41 -18 -54 -28 -26 -7 17 15 77 25 71 4 -3 5 -23 3 -45z
m224 12 c-10 -10 -19 5 -10 18 6 11 8 11 12 0 2 -7 1 -15 -2 -18z m-20 -54
c-13 -43 -29 -59 -61 -59 -16 0 -12 5 14 21 37 22 37 38 -1 18 -21 -11 -22
-11 -9 4 7 10 20 17 28 17 8 0 13 8 12 18 -2 27 0 32 15 26 11 -4 11 -12 2
-45z m144 24 c0 -10 -4 -14 -8 -8 -4 6 -11 13 -16 18 -5 4 -2 7 7 7 10 0 17
-8 17 -17z m-250 -123 c0 -34 -2 -37 -24 -33 -24 5 -42 38 -25 48 14 9 -2 35
-22 35 -16 0 -19 7 -17 42 l1 42 44 -48 c35 -39 43 -55 43 -86z m-113 -32 c-2
-24 -4 -7 -4 37 0 44 2 63 4 43 2 -21 2 -57 0 -80z m338 102 c3 -5 1 -10 -4
-10 -6 0 -11 5 -11 10 0 6 2 10 4 10 3 0 8 -4 11 -10z m-19 -34 c2 -12 1 -13
-3 -1 -5 18 -23 20 -23 3 0 -6 -3 -9 -6 -5 -9 9 6 29 19 24 7 -2 13 -11 13
-21z m-87 -17 c-6 -11 -8 -27 -5 -35 3 -9 -6 -20 -26 -30 l-31 -16 22 27 c28
36 18 45 -16 14 l-26 -24 24 35 c28 40 51 60 61 54 5 -3 3 -14 -3 -25z m-59
-2 c0 -2 -9 -14 -20 -27 -19 -22 -20 -22 -20 -3 0 11 3 23 7 26 7 7 33 10 33
4z m310 -22 c0 -9 -11 -21 -25 -27 -35 -16 -31 -29 8 -22 17 4 43 18 56 33 16
18 21 21 17 8 -3 -10 -6 -29 -6 -42 0 -32 -35 -43 -61 -19 -22 19 -26 4 -7
-26 10 -16 10 -23 -3 -35 -14 -15 -15 -13 -11 13 6 41 -28 65 -69 50 -33 -11
-39 -19 -50 -62 l-7 -31 -1 29 c-1 36 62 101 109 111 17 4 34 13 37 21 7 18
13 18 13 -1z m-210 -23 c0 -15 -2 -15 -10 -2 -13 20 -13 33 0 25 6 -3 10 -14
10 -23z m-223 -1 c3 -11 12 -21 22 -23 12 -3 10 -8 -12 -22 -35 -24 -41 -17
-38 42 1 27 21 29 28 3z m96 -51 c-6 -22 7 -26 24 -9 6 6 17 9 25 7 20 -7 -24
-27 -66 -30 -20 -2 -36 -7 -36 -11 0 -12 -70 -1 -83 12 -8 8 -4 11 16 11 14 0
41 9 59 20 43 26 68 26 61 0z m97 -50 l0 -50 -35 0 c-24 0 -35 -5 -35 -15 0
-8 -4 -15 -10 -15 -5 0 -10 7 -10 15 0 8 -7 15 -16 15 -26 0 -12 17 46 60 30
21 56 40 58 40 1 0 2 -22 2 -50z m-243 -403 c-1 -67 -3 -9 -3 128 0 138 2 192
3 122 2 -71 2 -183 0 -250z m66 356 c-31 -4 -33 -7 -33 -44 0 -24 5 -39 13
-39 6 0 26 -12 42 -27 28 -25 30 -31 34 -116 2 -56 -1 -93 -8 -100 -6 -6 -11
-22 -11 -35 0 -13 -5 -33 -12 -45 -6 -12 -13 -33 -14 -46 -3 -29 -12 -38 -39
-43 -19 -3 -20 3 -23 207 -2 116 0 229 3 253 6 41 7 42 43 40 l37 -1 -32 -4z
m1047 -36 c0 -5 -4 -5 -10 -2 -5 3 -10 14 -10 23 0 15 2 15 10 2 5 -8 10 -19
10 -23z m-1826 -2 c16 -24 16 -25 -16 -38 -44 -19 -95 -63 -114 -98 -38 -75
-38 -214 2 -276 22 -35 8 -54 -37 -51 -35 3 -38 5 -32 28 3 14 15 37 25 53 17
23 17 27 4 27 -9 0 -16 -3 -16 -7 0 -5 -10 -19 -21 -33 l-20 -25 7 35 c3 19
15 44 25 56 27 29 24 39 -6 20 -34 -22 -32 -3 3 23 32 24 9 29 -26 5 -30 -21
-28 -3 3 26 29 27 27 37 -4 20 -16 -8 -21 -8 -21 1 0 6 13 16 30 22 36 14 45
33 24 54 -19 20 -11 28 14 14 33 -18 39 -12 12 11 l-25 21 25 -8 c25 -8 25 -8
6 14 -11 11 -14 21 -8 21 6 0 14 -4 17 -10 10 -16 23 -12 30 10 4 12 1 27 -5
35 -8 10 -9 15 -2 15 6 0 14 -4 17 -10 12 -19 26 -11 15 9 -17 33 -11 47 11
22 23 -28 36 -22 19 8 -14 28 5 28 22 1 17 -27 26 -25 20 5 -6 32 1 32 22 0z
m76 10 c0 -8 -4 -15 -10 -15 -5 0 -7 7 -4 15 4 8 8 15 10 15 2 0 4 -7 4 -15z
m1855 -9 c25 29 34 19 15 -17 -7 -12 -7 -19 -1 -19 6 0 15 9 21 20 16 30 31
25 20 -6 -13 -34 -13 -41 2 -26 19 19 30 14 18 -8 -11 -21 -2 -27 18 -10 9 7
9 7 2 -2 -5 -7 -10 -19 -10 -27 0 -11 4 -10 20 4 25 22 26 9 3 -18 -17 -19
-17 -19 7 -13 21 6 22 5 8 -4 -26 -16 -23 -33 3 -20 27 15 35 7 14 -14 -15
-14 -15 -18 -1 -31 8 -8 19 -15 24 -15 5 0 15 -7 22 -15 8 -9 9 -15 2 -15 -6
0 -14 5 -17 10 -3 6 -14 10 -23 10 -12 0 -7 -9 18 -29 36 -31 37 -52 1 -30
-30 19 -38 3 -10 -21 l24 -21 -23 11 c-32 15 -40 5 -14 -17 11 -10 25 -36 31
-58 l11 -40 -35 40 c-40 46 -43 44 -15 -10 23 -45 25 -74 7 -98 -10 -15 -17
-16 -47 -6 -38 13 -63 29 -56 36 2 3 16 -3 30 -12 16 -11 35 -15 51 -11 36 9
31 27 -5 20 -41 -9 -48 14 -21 76 38 88 24 210 -34 285 -13 18 -44 42 -69 54
-51 24 -51 23 -33 52 12 19 12 19 15 -7 l4 -27 23 29z m-1095 0 c0 -8 12 -17
27 -21 21 -5 32 -2 44 14 20 25 47 27 55 6 4 -9 19 -15 35 -15 17 0 32 6 35
15 6 15 55 21 67 9 8 -8 -44 -64 -59 -64 -7 0 -14 -9 -17 -20 -5 -18 -14 -20
-76 -20 -59 0 -74 3 -88 20 -10 11 -22 20 -28 20 -13 0 -55 46 -55 60 0 6 14
10 30 10 19 0 30 -5 30 -14z m-723 -28 c-3 -8 -6 -5 -6 6 -1 11 2 17 5 13 3
-3 4 -12 1 -19z m1668 12 c3 -5 1 -10 -4 -10 -6 0 -11 5 -11 10 0 6 2 10 4 10
3 0 8 -4 11 -10z m-1914 -57 c13 -16 12 -17 -3 -4 -10 7 -18 15 -18 17 0 8 8
3 21 -13z m290 -75 c50 -51 97 -106 105 -121 28 -51 -1 -74 -51 -41 -20 13
-28 14 -40 4 -9 -7 -13 -22 -10 -34 2 -12 -2 -7 -10 10 -8 17 -21 34 -30 37
-8 4 -15 16 -15 27 0 28 -15 25 -29 -6 -11 -24 -16 -26 -52 -21 -42 6 -79 31
-79 54 0 7 -4 13 -9 13 -15 0 7 -55 30 -76 20 -18 27 -40 9 -29 -5 3 -10 1
-10 -4 0 -6 9 -11 21 -11 13 0 18 -4 13 -12 -5 -8 0 -9 14 -6 12 4 22 2 22 -4
0 -6 6 -8 14 -5 20 8 114 -50 165 -102 25 -26 57 -72 70 -102 13 -30 33 -74
44 -98 12 -27 21 -69 22 -110 1 -36 1 -46 -2 -21 -6 71 -17 80 -23 20 -6 -62
-24 -70 -28 -13 -3 52 -11 83 -20 83 -4 0 -5 -31 -2 -69 5 -68 6 -69 60 -122
31 -30 68 -70 83 -90 26 -35 26 -36 21 -160 -3 -68 -6 -154 -7 -191 -1 -42 -7
-72 -16 -80 -12 -11 -13 -10 -7 7 4 10 10 38 13 62 5 39 4 42 -21 49 -16 4
-32 2 -39 -5 -6 -6 -15 -11 -19 -11 -4 0 6 13 23 29 25 24 32 40 36 83 7 81 7
110 -5 153 -13 47 -36 66 -122 101 -45 18 -71 35 -85 57 -11 17 -29 31 -40 32
-11 1 -33 6 -50 10 -27 7 -28 6 -17 -7 7 -9 24 -19 37 -22 14 -4 32 -20 40
-36 16 -30 79 -70 112 -70 17 -1 17 -2 -1 -15 -44 -33 -207 -9 -273 41 -32 24
-39 46 -27 78 5 14 9 14 33 -3 14 -10 44 -24 66 -30 48 -13 55 -14 55 -2 0 5
-18 11 -39 15 -59 9 -101 49 -101 96 0 36 1 38 41 43 53 7 82 35 81 79 -1 23
-9 39 -29 55 -25 21 -26 22 -4 16 12 -3 25 -12 28 -19 3 -8 10 -14 15 -14 15
0 0 91 -18 111 -8 8 -14 20 -14 26 0 18 -84 83 -106 83 -32 0 -81 64 -93 121
-16 73 1 155 40 195 18 18 45 36 60 39 16 4 31 11 34 16 16 25 52 3 136 -83z
m1714 82 c3 -5 15 -10 25 -10 30 0 88 -58 100 -98 13 -47 13 -107 -1 -155 -13
-48 -64 -107 -93 -107 -25 0 -83 -49 -111 -95 -10 -16 -20 -52 -22 -79 l-4
-50 24 22 c13 12 30 22 38 21 8 0 5 -5 -8 -11 -31 -15 -49 -62 -34 -94 12 -27
74 -59 97 -50 17 7 29 -34 20 -69 -8 -31 -55 -61 -108 -70 -21 -4 -36 -11 -33
-15 7 -11 87 12 122 35 21 14 27 15 34 4 13 -21 11 -34 -11 -61 -42 -54 -207
-95 -274 -68 l-30 11 51 24 c28 13 62 37 75 55 12 17 38 38 56 45 17 8 32 19
32 26 0 7 -7 8 -17 4 -10 -5 -33 -10 -52 -13 -25 -3 -38 -13 -53 -38 -11 -19
-34 -40 -51 -48 -18 -7 -51 -21 -75 -31 -53 -23 -59 -30 -77 -98 -13 -48 -13
-62 0 -103 8 -28 11 -54 6 -62 -6 -11 2 -25 33 -50 22 -20 32 -32 21 -27 -11
5 -34 9 -52 9 -30 0 -33 2 -37 40 -10 78 -14 211 -9 239 3 17 38 62 84 112
l79 83 0 63 c0 76 -17 69 -22 -9 -4 -70 -22 -71 -28 -2 -6 61 -17 51 -23 -20
-3 -43 -4 -42 -5 10 -1 30 5 71 12 90 55 143 72 175 117 225 50 54 152 121
169 110 6 -4 10 -1 10 5 0 6 10 8 26 4 19 -5 25 -4 20 5 -4 6 -1 11 8 11 9 0
16 5 16 10 0 6 -5 10 -11 10 -6 0 3 16 20 35 17 20 31 45 31 55 0 28 -9 25
-21 -8 -8 -22 -19 -31 -57 -41 -46 -12 -47 -12 -69 16 -21 26 -23 26 -23 7 0
-12 -10 -25 -25 -32 -15 -7 -26 -21 -26 -34 l-2 -23 -4 23 c-6 31 -26 37 -57
17 -32 -21 -56 -13 -56 17 1 20 2 21 11 6 8 -15 13 -16 32 -5 12 6 25 16 29
22 10 14 -24 25 -40 12 -7 -5 -15 -7 -19 -3 -4 3 21 32 54 64 34 31 66 67 73
80 21 42 99 77 115 52z m-855 -75 c0 -12 -15 -15 -75 -15 -60 0 -75 3 -75 15
0 12 15 15 75 15 60 0 75 -3 75 -15z m0 -62 c0 -16 3 -45 6 -65 l7 -38 -82 0
-81 0 0 65 0 65 75 0 75 0 0 -27z m20 -148 c0 -25 0 -25 -95 -25 -95 0 -95 0
-95 25 0 25 0 25 95 25 95 0 95 0 95 -25z m-810 -15 c0 -6 10 -10 22 -10 17 0
19 -3 10 -12 -10 -10 -19 -5 -45 21 -25 26 -27 31 -9 22 12 -7 22 -16 22 -21z
m1452 -1 c-18 -16 -38 -26 -44 -23 -7 5 -4 10 8 15 11 4 26 14 33 23 7 9 19
16 25 16 6 0 -4 -14 -22 -31z m-614 -55 c-3 -14 -19 -16 -123 -15 -66 1 -121
4 -123 6 -2 2 -1 8 3 14 4 7 52 11 126 11 106 0 120 -2 117 -16z m-533 -61
c33 -15 76 -41 95 -58 19 -17 52 -42 72 -56 21 -13 38 -27 38 -31 0 -15 -17
-8 -40 17 -26 28 -51 35 -28 8 22 -26 30 -43 21 -43 -5 0 -17 15 -27 34 -12
23 -25 34 -38 33 -19 -1 -20 -15 -2 -61 3 -9 1 -16 -5 -16 -6 0 -11 9 -11 20
0 29 -21 70 -37 70 -7 0 -16 7 -20 15 -7 20 -55 45 -85 45 -47 -1 -60 -23 -64
-107 -2 -43 -8 -91 -12 -108 -9 -29 -9 -28 -26 29 -17 57 -17 61 3 134 33 122
45 127 166 75z m957 20 c8 -10 25 -51 37 -91 22 -73 21 -91 -6 -172 -9 -25
-23 38 -27 120 -4 73 -5 76 -36 92 -39 20 -63 13 -121 -35 -28 -23 -41 -42
-45 -69 -4 -21 -11 -38 -16 -38 -5 0 -7 8 -4 18 2 9 7 26 10 37 11 37 -29 28
-50 -11 -10 -19 -23 -34 -27 -34 -5 0 -2 11 7 25 26 39 19 41 -19 5 -19 -19
-35 -29 -35 -22 0 6 16 24 37 39 20 15 48 39 62 52 31 30 169 100 197 101 11
0 28 -8 36 -17z m-1582 -18 c-7 -8 -26 -15 -42 -15 -17 0 -27 -4 -23 -10 12
-19 55 -10 88 20 45 39 50 38 30 -5 -14 -29 -22 -35 -47 -35 l-31 0 25 -23
c14 -12 33 -34 43 -49 11 -17 32 -32 59 -39 54 -16 78 -36 78 -65 0 -35 -17
-38 -23 -4 -5 21 -17 35 -47 50 -22 11 -45 18 -50 15 -5 -3 -18 11 -28 32 -12
22 -41 52 -73 73 -63 42 -71 57 -27 52 19 -2 42 3 53 12 24 17 33 12 15 -9z
m2057 -6 c27 -24 41 -29 61 -24 22 5 24 4 12 -10 -7 -8 -20 -14 -29 -11 -9 2
-28 7 -42 10 -14 3 -31 17 -37 31 -21 46 -13 47 35 4z m-1019 -22 c27 -25 28
-37 3 -37 -21 0 -81 46 -81 61 0 15 53 -2 78 -24z m-933 9 c-16 -8 -36 -23
-43 -35 -7 -11 -19 -21 -28 -21 -10 0 1 14 26 35 23 19 49 35 58 35 10 -1 4
-7 -13 -14z m746 -12 l24 -25 -45 3 c-38 2 -46 7 -48 26 -5 32 37 30 69 -4z
m78 12 c20 -24 -19 -30 -43 -6 l-20 20 26 0 c14 0 31 -6 37 -14z m191 -1 c8
-9 8 -15 2 -15 -6 0 -17 -3 -25 -6 -10 -3 -20 3 -27 15 -9 19 -8 21 13 21 14
0 30 -7 37 -15z m98 -5 c28 -26 28 -40 0 -40 -21 0 -68 35 -68 52 0 16 47 8
68 -12z m86 14 c21 -8 21 -43 -1 -51 -16 -6 -53 28 -53 48 0 10 31 12 54 3z
m711 -24 c16 -16 24 -30 17 -30 -6 0 -19 11 -28 24 -8 14 -28 27 -42 29 l-27
4 26 2 c16 0 35 -9 54 -29z m-468 -40 c14 -29 9 -38 -12 -20 -8 7 -30 10 -51
8 l-37 -4 28 23 c33 29 55 26 72 -7z m440 5 c20 -21 5 -18 -37 6 -34 19 -34
20 -6 14 15 -3 35 -13 43 -20z m-1850 5 c-16 -5 -35 -14 -43 -21 -8 -6 -14 -8
-14 -4 0 15 35 34 60 34 24 -1 24 -1 -3 -9z m1937 -22 c-17 -18 -35 -45 -42
-60 -6 -15 -25 -34 -41 -43 -17 -8 -35 -23 -41 -32 -10 -16 -10 -16 -8 2 2 12
19 27 41 38 20 9 37 22 37 27 0 12 -55 -14 -82 -38 -10 -8 -18 -26 -18 -39 0
-14 -4 -21 -10 -18 -14 9 -12 61 3 72 6 5 33 17 59 27 25 9 53 27 62 40 21 33
46 56 59 56 6 0 -3 -15 -19 -32z m-1071 5 c64 -72 -7 -189 -139 -229 -56 -17
-173 -18 -227 -3 -50 13 -106 65 -112 104 -7 36 26 95 53 95 43 0 57 -26 50
-89 -3 -29 19 -38 98 -40 69 -1 144 23 177 57 25 26 27 32 16 54 -24 54 43 95
84 51z m157 2 c9 -11 9 -22 1 -46 -14 -41 -2 -62 54 -89 56 -27 146 -36 203
-21 l42 12 -6 39 c-7 45 7 70 39 70 36 0 57 -29 57 -78 0 -83 -81 -132 -217
-132 -120 0 -219 44 -264 117 -37 60 -8 143 51 143 15 0 33 -7 40 -15z m120
-12 c0 -3 -15 -19 -32 -33 -27 -23 -31 -30 -20 -43 15 -17 109 -31 151 -22 25
5 28 10 27 43 -1 29 3 37 19 40 17 4 17 2 6 -11 -7 -9 -11 -33 -9 -54 3 -35 1
-38 -32 -45 -68 -14 -208 24 -202 55 1 4 2 20 2 36 0 25 5 30 28 34 47 7 62 7
62 0z m712 -13 c11 0 16 -5 13 -11 -4 -6 -22 -8 -45 -4 -22 4 -47 2 -59 -5
-13 -6 -21 -7 -21 -1 0 17 34 31 64 26 16 -3 37 -5 48 -5z m-1801 -17 c13 -15
12 -16 -6 -8 -11 5 -45 8 -75 8 -39 -2 -49 1 -35 7 35 15 101 11 116 -7z m-54
-109 c3 -16 1 -16 -9 4 -6 12 -14 22 -18 22 -3 0 -15 7 -26 16 -13 11 -8 10
16 -3 19 -11 36 -28 37 -39z m2221 6 c6 0 23 -25 37 -55 38 -79 41 -192 6
-228 l-23 -26 33 -3 c40 -4 47 -20 20 -47 -26 -26 -27 -41 -3 -41 65 0 90
-168 40 -268 -17 -32 -78 -78 -78 -58 0 9 5 15 12 14 17 -4 50 111 43 148 -6
33 -40 84 -55 84 -5 0 2 -16 15 -36 16 -24 25 -49 24 -73 l-2 -36 -6 43 c-5
29 -18 53 -39 75 -31 31 -35 32 -116 32 -83 -1 -84 0 -70 21 13 19 12 22 -11
32 -34 16 -25 28 26 35 64 8 91 -12 54 -43 -8 -7 -15 -17 -15 -23 0 -6 11 0
25 13 48 45 23 86 -45 77 l-41 -5 40 39 c66 67 86 119 85 225 -1 50 -4 104 -8
120 l-8 29 24 -22 c14 -13 29 -23 36 -23z m-2595 -73 c-7 -132 9 -188 73 -251
l44 -45 -47 -3 c-43 -3 -48 -6 -51 -29 -3 -26 19 -59 40 -59 7 0 2 11 -11 23
-31 34 -11 48 57 40 58 -7 64 -14 26 -32 -24 -11 -25 -13 -11 -34 l14 -22 -88
0 c-79 0 -90 -2 -113 -24 -15 -14 -30 -39 -35 -55 -6 -21 -9 -24 -10 -11 -1
11 8 35 20 54 27 44 18 50 -15 11 -31 -37 -35 -94 -10 -166 8 -25 14 -48 11
-50 -2 -2 -16 9 -30 24 -34 35 -60 128 -48 170 5 17 6 33 3 37 -12 12 31 74
59 85 l29 12 -25 30 c-29 35 -25 48 16 48 35 0 35 2 7 41 -33 45 -29 143 9
216 15 29 33 53 39 53 6 0 19 9 29 20 10 11 19 20 20 20 2 0 0 -47 -2 -103z
m347 54 c0 -20 -17 -37 -27 -28 -7 8 7 47 18 47 5 0 9 -9 9 -19z m1880 -8 c0
-25 -1 -26 -16 -11 -9 9 -13 21 -10 27 13 20 26 11 26 -16z m-383 -104 c5 -25
2 -29 -15 -29 -26 0 -43 -29 -40 -68 1 -16 -6 -45 -16 -66 -14 -30 -16 -54
-12 -144 6 -122 -1 -118 -34 18 -46 188 -20 337 65 370 16 6 22 2 33 -22 7
-17 16 -43 19 -59z m-1055 61 c63 -49 77 -185 37 -362 -21 -94 -24 -100 -31
-68 -4 19 -5 62 -2 95 5 44 2 71 -10 99 -9 21 -16 51 -16 67 0 46 -17 79 -41
79 -18 0 -21 4 -16 28 10 49 26 82 40 82 8 0 26 -9 39 -20z m1509 -48 c-1 -26
4 -46 17 -62 15 -18 18 -34 15 -58 -4 -25 -1 -38 15 -55 17 -18 20 -29 14 -52
-8 -28 -10 -24 -39 56 -30 82 -53 179 -53 223 0 19 1 19 17 3 12 -11 16 -30
14 -55z m-2021 0 c-8 -67 -32 -151 -59 -213 -20 -43 -20 -43 -27 -15 -5 21 -1
32 15 47 22 21 26 45 12 68 -7 11 -2 24 16 45 20 24 24 37 19 65 -5 32 6 61
23 61 4 0 4 -26 1 -58z m890 -532 c0 -302 -2 -550 -4 -550 -2 0 -38 21 -80 46
l-76 46 0 489 0 489 23 1 c12 0 42 6 67 13 25 8 51 14 58 15 9 1 12 -115 12
-549z m313 530 c27 -5 53 -12 58 -15 5 -4 9 -205 9 -489 l0 -483 -75 -47 c-42
-25 -78 -46 -80 -46 -3 0 -5 248 -5 551 l0 551 23 -6 c12 -4 44 -11 70 -16z
m-744 -100 c3 -25 3 -25 -18 -6 -26 23 -27 39 -3 34 9 -2 19 -14 21 -28z
m1121 20 c0 -5 -9 -14 -20 -20 -15 -8 -20 -8 -20 3 0 8 3 17 7 20 10 10 33 8
33 -3z m-1432 -130 c20 -5 68 -10 106 -10 l68 0 -14 -22 c-49 -74 -248 -49
-305 39 -12 19 -14 29 -5 48 l11 24 51 -34 c28 -19 68 -39 88 -45z m1850 46
c4 -36 -20 -63 -83 -92 -59 -28 -150 -32 -195 -9 -17 9 -30 17 -30 19 0 3 -2
10 -5 18 -4 10 12 13 72 14 84 1 165 27 199 65 23 25 38 20 42 -15z m-1608
-36 c21 -13 37 -89 27 -130 -28 -115 -37 -137 -63 -149 -25 -11 -26 -13 -10
-30 16 -18 16 -20 -1 -29 -14 -9 -16 -13 -5 -23 6 -7 12 -29 11 -49 0 -34 -1
-34 -11 -10 -35 80 -57 117 -91 156 l-38 43 78 115 c43 63 80 115 83 115 3 1
12 -3 20 -9z m1265 -19 c8 -16 42 -65 75 -109 33 -44 60 -82 60 -85 0 -3 -16
-23 -35 -44 -38 -41 -85 -126 -85 -154 0 -10 -4 -21 -10 -24 -6 -4 -10 10 -10
34 0 22 5 43 10 46 8 5 7 11 -1 21 -9 11 -9 18 -1 26 9 9 6 17 -15 34 -19 15
-32 42 -48 101 -14 49 -19 86 -14 94 5 8 9 25 9 40 0 52 41 65 65 20z m-1575
-64 c31 -15 67 -21 117 -21 l73 -1 -25 -25 c-23 -22 -33 -25 -103 -25 -121 1
-203 57 -174 120 l11 25 28 -27 c15 -14 48 -35 73 -46z m1960 28 c0 -23 -34
-58 -74 -76 -60 -27 -174 -26 -210 2 -14 11 -26 23 -26 27 0 4 25 5 56 4 72
-5 128 11 184 53 40 29 46 31 58 17 6 -9 12 -21 12 -27z m-1987 -110 c29 -11
65 -16 101 -13 31 1 56 0 56 -4 0 -4 -12 -16 -26 -27 -38 -30 -115 -28 -180 4
-57 28 -77 55 -68 90 l6 25 33 -29 c18 -16 53 -36 78 -46z m2012 55 c21 -65
-129 -140 -219 -110 -20 6 -41 20 -46 30 -9 17 -5 18 58 17 72 -1 129 21 166
62 24 26 33 26 41 1z m58 -34 c-8 -14 -11 -10 -21 20 l-11 38 20 -21 c16 -15
19 -25 12 -37z m-2229 10 c-7 -30 -24 -35 -24 -8 0 18 20 45 27 38 2 -2 1 -15
-3 -30z m116 -95 c26 -12 67 -21 95 -21 l49 0 -22 -22 c-63 -63 -247 11 -226
90 l7 23 26 -25 c14 -14 46 -34 71 -45z m2080 41 c0 -74 -155 -132 -219 -83
l-24 18 54 7 c64 9 127 35 153 65 26 28 36 27 36 -7z m63 -57 c-9 -15 -12 -13
-22 15 -15 45 -14 48 10 23 16 -16 19 -25 12 -38z m-2291 0 c-7 -25 -9 -26
-15 -11 -4 10 -2 25 4 33 16 19 20 12 11 -22z m2248 -40 c-21 -54 -136 -86
-182 -51 -27 20 -22 26 20 26 49 1 116 32 138 65 17 27 18 27 26 6 4 -12 3
-32 -2 -46z m-2107 -24 c25 -6 56 -11 69 -11 20 0 21 -1 7 -16 -9 -8 -34 -18
-56 -21 -75 -10 -153 47 -139 102 l6 25 34 -33 c21 -21 51 -39 79 -46z m213
-5 c5 -37 9 -45 16 -31 6 9 7 28 3 43 -5 20 -3 24 5 16 6 -6 16 -38 22 -72 6
-34 15 -59 20 -56 5 3 6 20 3 37 -6 25 -4 29 5 21 6 -7 12 -37 13 -68 2 -40 6
-55 15 -51 14 5 14 -11 3 -70 l-7 -40 -7 43 c-11 65 -43 121 -107 182 -50 50
-65 80 -39 80 4 0 6 -7 3 -15 -4 -8 -1 -15 5 -15 6 0 11 13 11 28 0 67 26 44
36 -32z m1604 39 c0 -19 5 -35 11 -35 6 0 9 7 5 15 -6 16 9 21 19 6 3 -6 -18
-31 -46 -58 -58 -55 -96 -113 -114 -181 l-13 -47 -1 53 c-1 28 3 52 7 52 4 0
9 23 10 51 3 64 21 103 22 47 0 -51 15 -49 17 2 1 21 9 52 17 67 l15 28 1 -37
c0 -21 4 -38 8 -38 5 0 9 12 9 28 0 40 12 82 23 82 6 0 10 -16 10 -35z m-286
-100 c5 -28 4 -37 -3 -30 -6 6 -13 33 -16 60 -6 57 8 35 19 -30z m596 45 c0
-23 -7 -35 -32 -50 -39 -24 -110 -27 -128 -5 -11 13 -7 15 24 15 42 0 82 18
110 49 25 27 26 27 26 -9z m-2143 -46 c57 -11 57 -12 30 -23 -38 -15 -72 -14
-107 4 -35 18 -49 41 -42 67 4 18 7 17 33 -8 19 -18 49 -32 86 -40z m2008 -81
c21 -43 12 -67 -29 -87 -43 -20 -51 -20 -104 4 -31 14 -47 29 -57 54 -24 58
-19 84 25 129 l41 40 54 -53 c30 -30 62 -69 70 -87z m175 122 c0 -8 -2 -15 -4
-15 -2 0 -6 7 -10 15 -3 8 -1 15 4 15 6 0 10 -7 10 -15z m-2330 -11 c0 -8 -5
-12 -10 -9 -6 4 -8 11 -5 16 9 14 15 11 15 -7z m334 -18 c30 -27 36 -40 36
-73 0 -88 -101 -149 -185 -111 -54 24 -39 82 42 170 25 26 52 48 59 48 7 0 29
-15 48 -34z m1456 8 c0 -2 -9 0 -20 6 -11 6 -20 13 -20 16 0 2 9 0 20 -6 11
-6 20 -13 20 -16z m737 -16 c-3 -8 -6 -5 -6 6 -1 11 2 17 5 13 3 -3 4 -12 1
-19z m-227 -26 c0 -21 -7 -32 -25 -40 -42 -19 -115 -13 -115 9 0 5 14 9 31 9
34 0 99 27 99 41 0 5 2 9 5 9 3 0 5 -13 5 -28z m-2491 -25 c1 -5 -3 -5 -9 -2
-5 3 -10 16 -9 28 0 21 1 21 9 2 5 -11 9 -24 9 -28z m304 -3 c45 -6 48 -8 32
-20 -37 -27 -119 -10 -130 27 -10 31 4 40 27 19 12 -11 43 -23 71 -26z m1671
-85 c0 -62 -6 -96 -22 -131 -43 -99 -66 -117 -397 -328 -48 -30 -113 -79 -146
-110 l-59 -56 -43 44 c-42 44 -165 128 -338 232 -178 106 -239 193 -242 343
-2 78 -1 82 21 85 12 2 22 -2 22 -8 0 -7 8 -10 19 -7 16 4 19 -3 25 -57 8 -78
55 -175 106 -218 21 -19 83 -58 137 -88 119 -65 229 -138 262 -174 27 -29 46
-33 55 -11 9 23 119 100 249 173 187 105 251 181 264 318 5 54 9 64 24 64 11
0 19 4 19 8 0 5 10 8 23 7 21 -2 22 -6 21 -86z m516 42 c0 -10 -7 -22 -16 -25
-29 -11 -81 -6 -94 9 -11 13 -7 15 26 15 22 0 46 5 54 10 22 14 30 12 30 -9z
m-2201 -9 c40 -4 42 -6 26 -18 -37 -27 -105 -15 -105 18 0 15 4 18 18 13 9 -4
37 -10 61 -13z m2188 -57 c-8 -19 -70 -20 -87 -1 -10 13 -4 15 37 18 57 4 57
3 50 -17z m-2572 -12 c72 -23 127 -52 122 -66 -2 -7 -14 -43 -27 -82 -25 -79
-35 -94 -51 -78 -7 7 -4 28 10 71 12 34 21 68 21 75 0 18 -85 55 -143 63 -54
8 -72 -10 -64 -63 11 -63 105 -143 230 -193 31 -13 57 -28 57 -33 0 -27 -180
47 -250 103 -45 36 -80 102 -80 152 0 28 7 42 27 57 29 23 57 22 148 -6z m400
1 c-29 -22 -85 -15 -85 10 0 7 18 10 52 7 47 -3 50 -4 33 -17z m2623 0 c17
-12 22 -25 22 -63 0 -54 -33 -109 -92 -154 -70 -54 -238 -117 -238 -90 0 5 26
18 57 28 143 49 263 168 234 232 -13 28 -64 31 -132 8 -79 -28 -81 -32 -59
-104 24 -74 25 -91 6 -91 -13 0 -66 131 -66 164 0 18 43 42 120 67 69 22 119
24 148 3z m-470 -29 c1 -1 0 -10 -4 -19 -12 -32 -74 -9 -74 28 0 4 71 -4 78
-9z m-2138 -7 c0 -13 -32 -38 -49 -38 -10 0 -22 10 -28 23 -10 21 -8 22 33 22
24 0 44 -3 44 -7z m-403 -28 l42 -19 -20 -60 c-12 -34 -25 -61 -30 -61 -15 0
-90 72 -105 103 -9 16 -13 35 -10 43 8 20 73 17 123 -6z m2969 5 c4 -9 1 -29
-6 -46 -15 -34 -100 -113 -110 -102 -4 5 -15 32 -25 61 -19 61 -17 67 41 87
52 19 93 19 100 0z m-466 -20 c21 13 9 -12 -17 -37 -59 -54 -160 -81 -201 -52
-40 28 -8 57 92 83 51 13 57 6 21 -24 -22 -18 -26 -24 -13 -25 9 0 20 5 23 10
3 6 18 7 33 3 23 -5 25 -4 14 9 -19 23 -5 50 19 37 11 -5 24 -7 29 -4z m-2084
-10 c4 -8 0 -23 -7 -32 -12 -14 -11 -15 8 -9 12 4 32 2 43 -4 34 -18 35 -4 4
25 l-29 26 30 -6 c74 -15 103 -26 120 -45 38 -42 -35 -65 -125 -40 -35 10
-110 64 -110 80 0 7 12 11 53 19 4 0 10 -6 13 -14z m-547 -128 c48 -40 107
-72 181 -98 36 -12 68 -25 72 -28 6 -5 -10 -65 -69 -254 -7 -22 -22 -18 -128
34 -87 42 -177 114 -201 161 -24 46 -20 78 21 193 l37 105 27 -43 c15 -23 42
-55 60 -70z m3226 9 c54 -148 47 -186 -46 -270 -48 -43 -215 -136 -245 -136
-12 0 -27 41 -78 217 l-14 51 26 7 c112 28 274 138 302 206 7 16 14 28 16 26
2 -2 19 -47 39 -101z m-2822 -77 c12 -7 51 -35 86 -62 67 -53 136 -79 180 -67
68 18 12 59 -93 69 -109 10 -108 25 2 18 109 -7 155 -27 160 -70 4 -36 -33
-51 -110 -43 -79 8 -116 25 -182 85 -63 57 -110 70 -104 29 7 -54 162 -121
474 -207 518 -142 919 -144 1441 -10 338 87 540 178 508 229 -13 21 -46 8
-107 -43 -83 -71 -94 -76 -180 -83 -64 -6 -76 -4 -98 14 -20 17 -23 24 -14 39
19 33 81 55 171 61 106 6 107 -12 2 -22 -109 -10 -160 -43 -105 -67 35 -17
118 12 177 61 90 76 135 93 180 70 29 -16 23 -54 -13 -91 -112 -111 -628 -253
-1060 -290 -245 -21 -520 7 -843 85 -369 90 -555 171 -579 252 -13 44 54 71
107 43z m11 -78 c-2 -3 -12 3 -22 13 -16 17 -16 18 5 5 12 -7 20 -15 17 -18z
m2306 14 c-7 -8 -18 -15 -24 -15 -6 0 -2 7 8 15 25 19 32 19 16 0z m-2323
-103 c141 -72 603 -196 823 -221 213 -25 315 -29 443 -20 283 19 446 49 742
134 228 65 325 106 387 163 15 14 29 24 31 21 3 -4 27 -83 90 -291 20 -64 20
-67 3 -93 -36 -54 -306 -161 -576 -228 -208 -52 -374 -76 -627 -89 -415 -22
-795 28 -1198 159 -210 68 -345 143 -345 191 0 8 25 92 56 188 l57 174 38 -35
c21 -19 55 -43 76 -53z m253 68 c12 -8 10 -10 -10 -9 -14 0 -34 4 -45 9 -17 7
-16 9 10 9 17 0 37 -4 45 -9z m1865 0 c-11 -5 -31 -9 -45 -9 -23 0 -23 1 -5 9
11 5 31 9 45 9 23 0 23 -1 5 -9z m-1785 -90 c0 -13 -11 -13 -30 0 -12 8 -11
10 8 10 12 0 22 -4 22 -10z m1680 0 c0 -5 -6 -10 -14 -10 -8 0 -18 5 -21 10
-3 6 3 10 14 10 12 0 21 -4 21 -10z"/>
<path d="M826 2552 c-3 -3 13 -16 35 -29 56 -31 105 -17 63 18 -16 13 -88 22
-98 11z"/>
<path d="M1012 2422 c-13 -9 -6 -42 8 -42 5 0 15 -3 24 -6 20 -8 22 22 2 42
-17 16 -17 16 -34 6z"/>
<path d="M2565 2536 c-12 -16 -12 -22 -2 -28 18 -11 29 -10 21 4 -4 6 -3 8 4
4 11 -7 82 23 82 34 0 4 -21 7 -46 7 -34 0 -49 -5 -59 -21z"/>
<path d="M3041 1928 c15 -53 10 -124 -11 -189 -24 -69 -22 -100 3 -53 21 40
39 152 31 195 -11 67 -15 79 -23 79 -6 0 -6 -13 0 -32z"/>
<path d="M3097 1800 c-2 -8 -10 -34 -16 -56 -6 -23 -18 -47 -26 -54 -8 -7 -15
-19 -15 -28 0 -13 3 -12 20 3 22 20 55 117 47 138 -3 8 -6 8 -10 -3z"/>
<path d="M3110 1546 c0 -4 11 -22 25 -41 14 -18 29 -49 32 -69 3 -20 10 -36
14 -36 25 0 -5 90 -41 125 -16 16 -30 25 -30 21z"/>
<path d="M444 1949 c-4 -7 -10 -47 -12 -89 -5 -83 15 -177 43 -200 20 -16 20
1 1 38 -26 50 -37 133 -26 196 10 61 8 77 -6 55z"/>
<path d="M391 1771 c-1 -41 35 -121 55 -121 10 0 8 9 -7 35 -12 20 -27 54 -34
78 l-14 42 0 -34z"/>
<path d="M352 1518 c-26 -28 -42 -71 -41 -106 1 -22 4 -19 15 17 8 25 25 56
39 71 14 14 25 29 25 33 0 14 -17 7 -38 -15z"/>
<path d="M536 525 c10 -24 -36 -135 -55 -135 -13 -1 -13 -3 3 -15 24 -18 56
-21 39 -4 -9 9 -8 22 4 53 9 22 19 44 22 48 3 4 17 -29 30 -73 13 -43 27 -79
31 -79 4 0 20 32 35 71 31 75 41 87 58 70 14 -14 -20 -128 -42 -141 -21 -11
-18 -13 59 -39 l65 -21 17 22 c20 27 17 33 -10 19 -26 -14 -59 -14 -67 0 -9
14 3 59 16 59 5 0 13 -10 18 -22 9 -25 16 -17 26 32 6 29 5 33 -6 23 -22 -22
-41 -16 -34 10 4 12 11 26 16 31 11 13 59 -20 60 -42 0 -12 3 -11 10 6 5 13 7
27 4 32 -2 4 -33 15 -67 25 -35 9 -76 24 -92 32 -26 14 -28 14 -23 -2 4 -9 0
-33 -9 -53 l-16 -37 -18 60 c-19 58 -40 85 -67 85 -7 0 -10 -6 -7 -15z"/>
<path d="M2840 505 c-25 -13 -39 -24 -32 -25 16 0 75 -128 66 -142 -4 -6 2 -7
17 -3 103 32 137 100 83 164 -32 38 -70 40 -134 6z m98 -35 c27 -40 27 -93 0
-98 -13 -3 -24 12 -43 54 -14 31 -25 63 -25 71 0 26 43 9 68 -27z"/>
<path d="M2715 458 c-72 -25 -72 -25 -53 -41 24 -20 59 -122 45 -136 -8 -8 -7
-11 3 -10 26 1 135 44 132 52 -1 4 -2 17 -2 30 -1 21 -2 21 -16 -5 -12 -24
-42 -48 -57 -48 -4 0 -27 56 -27 66 0 12 31 1 39 -13 10 -17 10 -16 10 2 0 11
-6 34 -14 50 -12 26 -13 27 -14 8 -1 -21 -17 -40 -27 -31 -2 3 -7 19 -10 36
-6 30 -5 32 23 32 16 0 34 -5 41 -12 13 -13 16 -1 6 26 -7 19 -4 19 -79 -6z"/>
<path d="M2560 410 c-36 -10 -100 -25 -143 -35 -63 -13 -76 -19 -64 -28 8 -7
17 -29 20 -50 l6 -38 -50 45 c-49 44 -51 45 -102 39 -59 -7 -67 -11 -48 -23
10 -6 15 -30 15 -77 1 -67 1 -68 -26 -71 -22 -3 -30 2 -38 23 -14 38 -13 122
3 128 6 3 -1 5 -18 6 -29 0 -83 -17 -58 -18 7 -1 14 -26 18 -58 9 -77 26 -103
68 -103 59 0 72 19 72 102 0 58 3 73 15 73 19 0 42 -129 26 -145 -7 -7 0 -10
22 -10 18 0 32 5 32 10 0 6 -6 10 -14 10 -8 0 -16 17 -20 47 -3 25 -4 48 -2
50 2 2 28 -19 59 -47 30 -27 59 -50 64 -50 6 0 4 32 -3 78 -13 81 -11 92 11
92 20 0 48 -129 32 -149 -10 -12 -7 -13 22 -8 18 4 40 7 47 7 8 0 14 5 14 10
0 6 -6 10 -13 10 -19 0 -44 127 -28 143 8 8 11 5 11 -11 0 -28 13 -28 25 1 16
36 27 26 46 -42 14 -50 16 -68 7 -79 -10 -11 -6 -12 28 -7 41 8 71 25 42 25
-11 0 -20 19 -32 65 -9 35 -16 67 -16 70 0 13 39 3 44 -11 4 -9 9 -14 12 -12
7 7 -6 58 -15 57 -3 0 -35 -9 -71 -19z"/>
<path d="M854 403 c2 -10 8 -53 12 -95 3 -43 9 -78 13 -78 3 0 22 24 41 53
l34 52 8 -59 c4 -32 9 -61 12 -63 2 -2 25 30 51 71 26 42 52 76 59 76 15 0
-15 20 -31 20 -7 0 -10 -6 -8 -12 3 -7 -6 -31 -19 -52 l-24 -40 -3 48 c-3 26
0 50 5 54 11 6 -19 20 -46 21 -11 1 -15 -5 -11 -19 3 -11 -4 -34 -15 -51 l-19
-31 -8 47 c-4 33 -3 50 5 55 7 5 3 9 -12 13 -39 11 -50 8 -44 -10z"/>
<path d="M1087 330 c-55 -65 -21 -150 61 -150 21 0 47 7 58 15 23 17 3 20 -28
4 -15 -8 -27 -8 -45 0 -24 11 -25 16 -21 67 6 69 26 93 64 76 14 -7 28 -21 31
-32 8 -29 20 -24 25 9 3 22 0 30 -11 30 -9 1 -37 4 -62 7 -42 5 -48 3 -72 -26z"/>
<path d="M1274 273 c-21 -38 -43 -75 -51 -84 -12 -14 -11 -17 9 -22 23 -6 42
3 21 10 -22 8 -1 33 28 33 32 0 51 -26 28 -40 -16 -10 7 -16 100 -25 51 -5 67
-3 82 11 33 29 24 68 -21 98 -46 30 -53 56 -15 56 16 0 29 -9 38 -27 l14 -26
5 30 c4 29 2 31 -35 37 -46 8 -77 -13 -77 -51 0 -22 5 -29 59 -71 28 -22 21
-42 -15 -42 -17 0 -28 8 -36 28 l-12 27 -4 -27 c-4 -31 -18 -37 -26 -10 -35
121 -48 162 -51 162 -2 0 -21 -30 -41 -67z m31 -51 c-1 -1 -9 0 -18 4 -14 5
-15 10 -5 27 12 22 12 22 18 -3 4 -14 6 -26 5 -28z"/>
<path d="M1527 314 c-4 -4 -7 -19 -6 -33 l0 -26 16 23 c8 12 22 22 29 22 20 0
19 -123 -1 -143 -13 -13 -9 -15 28 -19 42 -5 64 1 40 9 -19 7 -18 153 1 153 7
0 21 -10 29 -22 l16 -23 0 28 c1 25 -2 27 -43 27 -24 0 -56 3 -72 6 -16 3 -32
2 -37 -2z"/>
<path d="M1875 310 c-22 -4 -35 -8 -29 -9 16 -2 30 -144 15 -149 -6 -2 -11 -8
-11 -12 0 -7 137 -3 147 4 1 1 5 15 9 31 l7 30 -27 -28 c-36 -39 -70 -34 -74
11 -4 38 19 45 36 10 9 -20 11 -17 11 25 1 26 -3 47 -9 47 -5 0 -10 -6 -10
-14 0 -8 -7 -16 -15 -20 -12 -4 -15 3 -15 29 0 30 3 35 24 35 14 0 32 -10 40
-22 16 -22 16 -22 16 10 0 31 -2 32 -37 31 -21 -1 -56 -5 -78 -9z"/>
<path d="M1698 298 c15 -15 16 -148 2 -148 -5 0 -10 -4 -10 -10 0 -6 31 -10
74 -10 72 0 74 0 79 28 7 36 0 41 -19 14 -10 -14 -26 -22 -45 -22 l-29 0 0 70
c0 55 3 71 18 79 13 8 6 10 -32 11 -39 0 -47 -3 -38 -12z"/>
</g>
</svg>
