<?xml version="1.0" standalone="no"?>
<!DOCTYPE svg PUBLIC "-//W3C//DTD SVG 20010904//EN"
 "http://www.w3.org/TR/2001/REC-SVG-20010904/DTD/svg10.dtd">
<svg version="1.0" xmlns="http://www.w3.org/2000/svg"
 width="840.000000pt" height="859.000000pt" viewBox="0 0 840.000000 859.000000"
 preserveAspectRatio="xMidYMid meet">

<g transform="translate(0.000000,859.000000) scale(0.100000,-0.100000)"
fill="#000000" stroke="none">
<path d="M3525 8504 c-78 -17 -160 -51 -219 -92 l-39 -27 64 -12 c35 -7 96
-28 134 -47 163 -80 245 -221 245 -421 0 -200 -37 -275 -315 -635 -112 -146
-176 -271 -211 -416 -21 -83 -23 -297 -5 -394 31 -169 105 -323 220 -461 97
-117 171 -181 436 -379 314 -235 419 -341 492 -498 52 -112 66 -193 60 -352
-9 -199 -46 -349 -134 -530 -88 -180 -227 -286 -433 -331 -134 -29 -162 -51
-179 -143 -6 -35 -19 -59 -48 -89 -80 -84 -145 -201 -188 -340 -15 -48 -26
-89 -24 -90 2 -1 18 -12 36 -24 l32 -23 96 65 c490 332 1159 400 1509 152 l30
-21 -33 48 c-111 162 -313 316 -506 387 -83 30 -114 55 -138 108 -28 62 -28
175 -1 222 27 46 74 76 142 89 212 44 283 73 362 150 86 83 106 137 33 87 -93
-63 -227 -101 -346 -96 -47 2 -89 8 -94 12 -10 10 37 97 123 230 l64 97 -21
40 c-92 176 -7 545 196 855 173 264 415 445 691 515 43 11 113 23 154 26 129
9 120 2 120 97 0 117 -17 302 -41 447 -12 69 -22 126 -23 127 -1 1 -39 -4 -85
-12 -87 -16 -131 -12 -131 10 0 18 51 59 121 98 56 30 59 34 53 62 -11 52 -76
206 -89 212 -7 2 -57 -14 -110 -35 -329 -136 -509 -340 -630 -712 -45 -140
-77 -197 -111 -206 -46 -12 -124 4 -182 37 -116 66 -292 272 -367 431 -85 179
-97 346 -56 738 30 272 33 568 8 680 -35 157 -112 272 -218 325 -105 54 -295
70 -444 39z m368 -104 c105 -39 170 -130 204 -282 23 -103 20 -372 -6 -623
-11 -110 -23 -253 -27 -317 l-7 -118 -26 6 c-115 25 -211 74 -266 135 -53 59
-69 102 -69 189 0 64 7 91 42 184 54 141 65 204 60 359 l-3 127 32 20 c42 25
53 48 53 107 0 53 -26 118 -58 146 -16 15 -24 16 -41 8 -43 -23 -101 17 -101
70 0 21 3 22 78 16 44 -3 104 -16 135 -27z"/>
<path d="M3439 3603 c-113 -106 -217 -259 -265 -387 l-18 -49 30 -23 c36 -29
41 -30 49 -4 4 12 21 36 39 53 20 21 37 51 45 82 25 98 73 205 135 299 35 53
62 96 60 96 -2 0 -36 -30 -75 -67z"/>
<path d="M4307 3489 c-95 -12 -286 -60 -376 -95 -159 -63 -435 -223 -446 -258
-2 -6 -5 -48 -7 -93 l-3 -82 102 -51 c122 -60 223 -104 398 -172 128 -50 417
-150 420 -145 75 134 154 190 270 189 94 -2 322 -57 370 -90 55 -38 86 -99 93
-178 4 -51 8 -64 19 -60 8 4 21 6 29 6 27 0 74 227 74 359 0 137 -37 317 -86
412 -49 97 -194 187 -380 235 -79 21 -129 26 -249 29 -82 2 -185 -1 -228 -6z"/>
<path d="M3330 3177 c-106 -53 -124 -317 -22 -317 96 0 164 230 91 308 -23 25
-34 27 -69 9z"/>
<path d="M3121 3038 c-14 -70 -27 -307 -17 -297 4 3 25 44 47 90 35 72 41 94
43 154 1 63 -1 72 -24 92 -14 12 -28 23 -31 23 -3 0 -11 -28 -18 -62z"/>
<path d="M3403 2852 c-50 -53 -52 -69 -24 -187 90 -374 328 -692 616 -824 82
-38 232 -72 320 -73 131 -2 303 60 467 169 125 82 275 251 344 385 29 57 30
68 5 68 -14 0 -27 -16 -44 -53 -33 -73 -79 -121 -143 -153 -51 -25 -61 -26
-147 -21 -94 6 -188 24 -268 52 -95 34 -159 132 -159 246 l0 66 -167 58 c-238
81 -424 156 -602 241 -85 41 -154 74 -155 73 -1 0 -20 -21 -43 -47z"/>
<path d="M3185 2770 c-51 -107 -61 -168 -41 -248 33 -134 124 -295 241 -429
138 -156 403 -301 600 -328 l50 -7 -83 41 c-120 59 -196 114 -292 211 -184
184 -321 459 -362 722 -12 79 -10 77 -70 106 -5 2 -24 -29 -43 -68z"/>
<path d="M4595 2705 c-41 -14 -125 -95 -125 -121 0 -15 134 -59 150 -49 6 3
10 19 10 34 0 15 6 36 14 47 12 15 18 17 33 8 14 -9 18 -23 17 -62 -2 -46 1
-51 23 -57 32 -8 31 -8 46 51 10 42 15 49 37 49 24 0 25 -2 23 -62 -3 -57 -1
-63 17 -63 11 0 23 -1 27 -2 4 -2 11 16 16 39 16 85 71 80 65 -6 l-2 -46 49
-6 c28 -3 53 -4 58 -2 16 9 7 96 -14 133 -29 51 -60 65 -218 100 -150 34 -169
35 -226 15z"/>
<path d="M4437 2481 c-13 -62 25 -149 81 -185 45 -30 211 -67 302 -69 76 -1
111 14 162 71 32 36 55 79 46 86 -1 2 -25 6 -51 8 -46 5 -48 4 -61 -26 -7 -17
-21 -37 -30 -45 -15 -12 -19 -12 -34 2 -14 15 -15 22 -4 49 6 17 11 32 9 33
-1 1 -13 5 -27 8 -23 6 -27 2 -40 -36 -12 -34 -20 -42 -40 -42 -24 0 -25 2
-22 53 3 51 2 52 -26 52 -23 0 -32 -7 -45 -36 -13 -27 -22 -35 -40 -32 -17 2
-22 9 -21 33 0 17 2 36 5 44 3 9 -20 20 -78 36 l-81 22 -5 -26z"/>
<path d="M2335 1967 l-28 -24 31 -6 c31 -6 112 -54 112 -66 -1 -12 -233 -337
-266 -372 l-35 -36 59 -41 59 -41 17 36 c10 20 70 113 134 207 64 93 120 174
123 179 8 11 92 -44 113 -74 15 -21 19 -18 35 24 9 24 6 27 -67 70 -42 24
-113 70 -157 102 -44 32 -85 59 -91 62 -6 2 -24 -7 -39 -20z"/>
<path d="M5870 1915 c-25 -19 -44 -40 -43 -47 2 -7 27 -87 57 -178 31 -90 53
-166 51 -168 -3 -4 -96 72 -286 235 -14 12 -24 10 -72 -13 l-55 -27 28 -36
c30 -39 139 -235 201 -364 21 -44 40 -82 43 -84 2 -3 18 3 35 12 l31 16 -23
32 c-13 18 -55 91 -92 162 l-69 130 50 -41 c27 -22 91 -75 142 -117 94 -78
127 -92 152 -62 11 13 8 31 -14 103 -69 218 -84 275 -72 261 28 -29 182 -239
196 -266 8 -15 16 -30 17 -32 4 -6 113 70 113 79 0 4 -6 10 -14 13 -19 8 -261
319 -295 379 -14 26 -28 47 -31 47 -3 0 -25 -16 -50 -34z"/>
<path d="M2760 1701 c-81 -25 -145 -88 -194 -190 -26 -56 -31 -77 -31 -141 0
-82 13 -115 62 -164 64 -65 176 -85 254 -46 119 61 206 237 180 362 -21 95
-80 156 -171 177 -52 12 -65 12 -100 2z m150 -78 c31 -26 32 -29 28 -92 -4
-71 -47 -177 -107 -265 -30 -43 -81 -76 -119 -76 -32 0 -79 46 -86 83 -9 46
17 136 65 228 73 140 148 182 219 122z"/>
<path d="M5287 1619 c-32 -17 -36 -23 -26 -35 13 -16 35 -459 25 -522 -4 -28
-2 -33 10 -28 9 3 26 9 39 12 21 5 23 10 17 37 -4 18 -7 61 -7 96 l0 64 69 29
c38 15 75 28 82 28 18 0 104 -110 104 -132 0 -24 12 -23 81 8 60 27 70 38 45
47 -7 3 -89 98 -181 211 -184 227 -182 225 -258 185z m180 -275 c-10 -11 -126
-51 -131 -46 -3 3 -6 59 -6 125 l0 119 71 -97 c38 -54 68 -99 66 -101z"/>
<path d="M3106 1559 c-22 -32 -20 -40 7 -34 12 3 40 -1 62 -8 30 -11 39 -19
37 -33 -9 -49 -115 -391 -132 -425 -11 -21 -17 -40 -12 -42 4 -3 31 -12 61
-21 57 -17 71 -12 71 24 0 19 121 433 129 442 11 12 72 -9 98 -34 l24 -23 -3
45 -3 44 -85 22 c-47 12 -110 30 -140 39 -95 29 -96 29 -114 4z"/>
<path d="M5037 1532 c-45 -13 -56 -19 -51 -32 14 -31 54 -173 54 -190 0 -14
-18 -22 -81 -38 -57 -14 -81 -17 -84 -9 -8 28 -25 147 -25 180 0 41 -1 42 -68
26 -76 -18 -73 -14 -58 -51 18 -43 76 -343 83 -430 7 -76 6 -76 91 -57 l50 12
-13 31 c-15 38 -49 225 -42 232 5 5 144 43 158 44 8 0 45 -149 54 -218 6 -44
10 -52 25 -47 9 3 37 11 61 19 30 9 43 17 40 27 -18 55 -120 478 -121 497 0
25 3 25 -73 4z"/>
<path d="M3496 1451 c-9 -16 -16 -32 -16 -34 0 -2 22 -2 49 1 84 8 82 14 45
-218 -18 -113 -39 -224 -47 -248 -17 -48 -21 -45 74 -57 l46 -6 7 71 c6 66 50
358 61 408 7 29 46 29 100 2 22 -11 41 -20 42 -20 6 0 2 56 -5 66 -4 6 -36 14
-72 18 -76 8 -234 34 -254 42 -9 4 -20 -6 -30 -25z"/>
<path d="M4575 1430 c-3 -5 -3 -14 0 -20 9 -14 32 -155 39 -240 l7 -75 -40 45
c-22 25 -82 95 -133 157 -92 111 -93 112 -137 112 -36 1 -42 -2 -37 -16 13
-32 27 -220 29 -375 l2 -158 38 0 39 0 -6 38 c-10 56 -25 306 -19 312 3 3 12
-4 21 -16 84 -102 267 -303 280 -306 10 -3 27 -2 39 3 20 7 20 10 7 51 -15 48
-54 373 -54 449 l0 49 -34 0 c-19 0 -38 -4 -41 -10z"/>
<path d="M3903 1181 c-1 -130 -6 -254 -11 -277 l-9 -41 120 -7 c66 -3 144 -6
173 -6 51 0 53 1 59 33 4 17 9 40 11 50 5 15 1 15 -32 -5 -28 -16 -58 -23
-122 -26 l-85 -5 6 69 c4 38 7 90 7 117 l0 47 85 0 c78 0 85 2 85 20 0 18 -7
20 -85 20 l-85 0 0 79 c0 44 3 86 6 95 8 21 111 22 159 2 l35 -15 0 35 c0 19
-6 36 -12 39 -7 2 -78 5 -158 8 l-145 4 -2 -236z"/>
<path d="M2701 882 c-15 -59 -168 -395 -193 -428 -11 -14 -19 -27 -17 -28 9
-8 109 -56 117 -56 4 0 13 20 19 43 18 64 80 197 93 197 24 0 160 -62 160 -73
0 -18 -69 -199 -85 -223 -13 -21 -12 -23 41 -43 31 -11 60 -21 65 -21 4 0 13
19 20 43 19 73 140 401 160 435 10 18 19 35 19 37 0 2 -24 11 -52 21 -29 9
-58 19 -64 21 -7 2 -15 -12 -19 -33 -3 -20 -19 -69 -35 -108 -33 -82 -33 -82
-133 -37 l-66 30 40 88 c23 48 47 95 56 105 16 18 17 18 -58 51 l-56 24 -12
-45z"/>
<path d="M5770 912 c0 -16 -5 -19 -22 -15 -23 4 -23 4 2 -17 22 -20 25 -20 28
-6 3 14 7 15 18 5 20 -17 17 -1 -6 28 -18 24 -20 24 -20 5z"/>
<path d="M5693 883 c-6 -2 -2 -13 11 -28 25 -29 31 -26 14 7 -8 13 -18 23 -25
21z"/>
<path d="M5415 804 c-49 -19 -100 -39 -112 -44 l-22 -9 28 -63 c36 -80 141
-399 141 -428 0 -13 5 -20 13 -18 6 3 36 13 65 23 56 21 59 25 38 58 -8 12
-46 114 -86 227 -66 190 -70 205 -54 217 10 7 35 13 57 13 103 0 150 -157 66
-223 l-31 -24 44 -37 c72 -63 188 -136 214 -136 31 0 80 25 92 47 8 14 0 21
-50 45 -64 30 -178 106 -178 118 0 4 7 13 16 21 46 38 58 129 24 184 -45 73
-129 82 -265 29z"/>
<path d="M5143 713 c-52 -15 -52 -15 -39 -42 17 -33 98 -332 104 -385 6 -49
-13 -83 -53 -96 -43 -14 -80 1 -100 40 -18 35 -80 298 -90 381 l-7 56 -64 -12
c-35 -6 -66 -14 -69 -17 -3 -3 1 -18 9 -34 8 -16 31 -99 51 -184 39 -165 50
-193 87 -227 95 -89 265 -57 319 61 27 59 24 92 -21 261 -22 83 -40 165 -40
183 0 37 -8 38 -87 15z"/>
<path d="M3235 682 c-50 -24 -111 -90 -138 -151 -29 -65 -35 -196 -13 -256 23
-59 82 -110 150 -130 139 -40 258 42 302 210 28 103 15 195 -37 258 -62 75
-183 107 -264 69z m170 -54 c38 -34 47 -86 29 -188 -18 -107 -72 -223 -114
-245 -68 -35 -134 2 -146 82 -14 95 49 299 108 348 38 32 88 33 123 3z"/>
<path d="M3596 611 c-22 -42 -21 -54 3 -41 29 15 111 13 117 -4 6 -15 -41
-379 -56 -436 -5 -19 -6 -37 -2 -41 4 -4 33 -10 65 -14 l57 -6 0 33 c0 56 52
442 61 452 8 9 50 2 115 -19 18 -6 20 -3 16 27 l-4 34 -164 17 c-91 10 -171
20 -179 23 -8 4 -20 -6 -29 -25z"/>
<path d="M4490 603 c-94 -9 -100 -12 -90 -39 13 -33 53 -440 47 -477 l-4 -29
63 4 c35 2 65 6 68 9 2 2 0 24 -5 49 -12 62 -48 433 -42 443 2 4 22 7 43 7 80
0 134 -90 110 -180 -11 -42 -51 -80 -82 -80 -13 0 -18 -6 -16 -18 8 -40 111
-19 170 36 45 42 62 96 49 155 -13 55 -34 82 -84 106 -42 21 -117 25 -227 14z"/>
<path d="M4111 586 c-83 -28 -123 -95 -101 -175 12 -44 50 -81 150 -145 80
-51 99 -80 80 -125 -33 -81 -152 -78 -206 4 -20 31 -31 23 -36 -25 -3 -33 0
-37 42 -57 33 -18 61 -23 116 -23 124 0 194 58 194 160 0 73 -46 127 -155 183
-55 28 -85 63 -85 100 0 44 26 67 74 67 43 0 70 -12 108 -47 29 -28 24 -31 43
36 12 40 -143 73 -224 47z"/>
</g>
</svg>
