<?xml version="1.0" standalone="no"?>
<!DOCTYPE svg PUBLIC "-//W3C//DTD SVG 20010904//EN"
 "http://www.w3.org/TR/2001/REC-SVG-20010904/DTD/svg10.dtd">
<svg version="1.0" xmlns="http://www.w3.org/2000/svg"
 width="840.000000pt" height="859.000000pt" viewBox="0 0 840.000000 859.000000"
 preserveAspectRatio="xMidYMid meet">

<g transform="translate(0.000000,859.000000) scale(0.100000,-0.100000)"
fill="#000000" stroke="none">
<path d="M3380 8459 c-69 -5 -253 -13 -410 -19 -389 -16 -632 -30 -925 -55
-211 -17 -307 -26 -440 -40 -82 -9 -190 -20 -240 -25 -49 -4 -146 -15 -215
-24 -69 -10 -159 -21 -200 -25 -41 -5 -129 -17 -195 -26 -66 -9 -147 -21 -180
-25 -33 -5 -75 -12 -92 -16 l-33 -6 0 -1712 c1 -1096 4 -1758 11 -1841 27
-336 49 -506 95 -730 8 -44 18 -93 21 -110 2 -16 7 -37 11 -45 7 -17 30 -120
39 -168 3 -18 9 -35 14 -38 5 -3 9 -13 9 -23 0 -18 24 -107 40 -146 5 -11 16
-45 26 -75 18 -58 21 -69 49 -140 10 -25 21 -54 25 -65 4 -11 15 -37 24 -58 9
-21 16 -44 16 -52 0 -8 5 -15 10 -15 6 0 10 -7 10 -16 0 -9 6 -28 14 -42 24
-46 66 -142 66 -152 0 -6 5 -10 10 -10 6 0 10 -6 10 -14 0 -13 29 -75 40 -86
3 -3 15 -25 27 -50 24 -50 65 -122 73 -130 3 -3 14 -23 25 -45 11 -22 23 -42
26 -45 3 -3 26 -36 50 -75 24 -38 47 -71 51 -73 4 -2 8 -8 8 -14 0 -8 45 -74
60 -88 4 -3 16 -21 28 -40 12 -19 32 -47 44 -62 13 -14 32 -39 43 -54 11 -15
25 -32 30 -38 6 -6 26 -31 45 -56 19 -25 49 -60 67 -77 18 -18 33 -35 33 -37
0 -14 266 -285 364 -371 38 -33 85 -76 105 -95 20 -19 53 -47 73 -62 20 -15
42 -33 50 -40 7 -7 38 -32 68 -54 30 -23 65 -51 77 -63 12 -12 26 -21 30 -21
5 0 20 -11 35 -25 15 -14 31 -25 37 -25 5 0 11 -3 13 -7 5 -11 97 -73 108 -73
6 0 10 -4 10 -8 0 -5 16 -17 35 -28 19 -10 35 -22 35 -26 0 -5 7 -8 15 -8 8 0
15 -4 15 -10 0 -5 11 -12 25 -16 14 -3 25 -10 25 -15 0 -5 7 -9 15 -9 8 0 15
-4 15 -10 0 -5 11 -12 25 -16 14 -3 25 -9 25 -13 0 -4 18 -16 40 -27 22 -10
40 -21 40 -24 0 -3 20 -14 45 -25 25 -11 45 -23 45 -27 0 -5 6 -8 14 -8 8 0
16 -4 18 -8 2 -4 35 -24 73 -42 39 -19 72 -37 75 -40 10 -11 316 -160 328
-160 7 0 12 -4 12 -10 0 -5 5 -10 11 -10 6 0 41 -14 78 -31 36 -17 75 -34 86
-39 11 -4 46 -20 78 -34 32 -14 62 -26 67 -26 6 0 18 -4 28 -10 17 -9 50 -23
132 -55 76 -30 94 -37 111 -45 9 -5 33 -12 53 -15 20 -4 39 -11 42 -16 7 -12
61 -11 69 1 3 6 13 10 22 10 8 0 29 6 46 14 18 7 48 19 67 26 38 14 81 32 134
55 19 8 37 15 40 15 6 0 114 47 138 60 10 6 25 10 33 10 8 0 15 5 15 10 0 6 8
10 18 10 9 0 44 14 77 30 33 16 66 30 73 30 6 0 12 5 12 10 0 6 5 10 12 10 12
0 318 149 328 160 3 3 37 21 75 40 39 18 72 38 73 42 2 4 10 8 17 8 7 0 15 3
17 8 2 4 19 15 38 26 71 38 125 69 130 75 8 10 44 31 63 37 9 4 17 10 17 14 0
4 8 10 18 14 18 6 53 27 62 37 3 3 20 14 38 24 17 11 32 23 32 27 0 4 5 8 10
8 6 0 35 18 65 40 30 22 57 40 60 40 3 0 18 11 33 25 15 14 30 25 34 25 4 0
18 9 30 19 44 38 67 56 93 75 14 11 36 28 48 39 12 11 38 31 57 46 19 14 52
42 72 61 20 19 65 60 99 90 111 98 369 360 369 375 0 3 15 20 33 38 18 17 48
52 67 77 19 25 39 50 45 56 5 6 19 23 30 38 11 15 30 40 43 54 12 15 43 59 70
97 26 39 50 72 55 73 4 2 7 10 7 17 0 7 4 15 8 17 4 2 27 35 51 73 24 39 47
72 50 75 3 3 15 23 26 45 11 21 41 75 68 119 26 43 47 85 47 93 0 7 4 13 8 13
4 0 16 23 27 50 11 28 23 50 27 50 4 0 8 4 8 9 0 5 16 45 36 88 48 105 52 114
104 248 4 11 15 36 24 57 9 20 16 41 16 47 0 6 4 19 9 29 5 9 16 42 26 72 9
30 20 64 25 75 7 18 23 71 51 173 5 17 13 47 19 65 5 17 12 52 16 77 4 25 10
50 14 55 4 6 10 26 13 45 13 90 30 177 37 195 5 11 11 43 15 70 3 28 13 97 21
155 17 123 30 245 43 425 6 78 10 819 11 1841 l0 1712 -32 6 c-18 4 -60 11
-93 16 -193 27 -308 42 -370 50 -174 22 -347 42 -425 51 -252 26 -406 41 -505
49 -510 42 -571 46 -1060 69 -132 6 -334 15 -450 21 -244 12 -1461 11 -1645
-1z m1520 -209 c250 -6 502 -15 560 -20 58 -5 148 -9 200 -10 52 0 140 -4 195
-10 55 -5 172 -15 260 -21 383 -27 592 -46 664 -59 30 -6 82 -10 115 -10 33 0
73 -4 90 -9 29 -9 137 -23 326 -41 41 -4 125 -15 185 -25 61 -9 142 -20 180
-25 39 -4 78 -11 88 -15 16 -7 17 -86 14 -1604 -3 -1497 -10 -1878 -33 -1986
-4 -16 -10 -66 -15 -110 -4 -44 -10 -96 -14 -115 -3 -19 -12 -80 -21 -135 -16
-100 -19 -117 -48 -232 -9 -35 -16 -74 -16 -87 0 -14 -4 -27 -9 -30 -4 -3 -11
-22 -14 -43 -6 -34 -16 -71 -48 -178 -5 -16 -14 -51 -21 -77 -7 -27 -16 -48
-20 -48 -5 0 -8 -8 -8 -17 0 -22 -28 -102 -64 -185 -9 -20 -16 -43 -16 -52 0
-9 -4 -16 -10 -16 -5 0 -10 -7 -10 -15 0 -8 -4 -23 -10 -33 -5 -9 -19 -39 -30
-67 -38 -89 -143 -298 -177 -352 -18 -29 -33 -55 -33 -58 0 -9 -134 -220 -142
-223 -4 -2 -8 -10 -8 -18 0 -8 -3 -14 -8 -14 -4 0 -16 -16 -26 -35 -11 -19
-23 -35 -27 -35 -4 0 -10 -8 -13 -18 -4 -10 -14 -27 -24 -38 -10 -10 -38 -46
-62 -79 -25 -33 -54 -69 -65 -80 -11 -11 -28 -31 -38 -44 -66 -96 -434 -464
-552 -553 -16 -12 -37 -29 -45 -38 -8 -9 -35 -31 -60 -50 -25 -19 -46 -38 -48
-42 -2 -5 -10 -8 -18 -8 -8 0 -14 -3 -14 -7 0 -5 -23 -23 -50 -42 -28 -19 -50
-38 -50 -43 0 -4 -5 -8 -11 -8 -9 0 -74 -44 -89 -60 -3 -3 -30 -21 -60 -40
-30 -19 -56 -38 -58 -42 -2 -5 -10 -8 -18 -8 -8 0 -14 -4 -14 -9 0 -5 -8 -12
-17 -15 -10 -3 -27 -12 -38 -19 -131 -80 -177 -107 -185 -107 -6 0 -10 -4 -10
-8 0 -4 -26 -21 -57 -37 -32 -17 -60 -32 -63 -35 -3 -3 -36 -21 -75 -40 -38
-19 -72 -37 -75 -40 -3 -3 -25 -14 -50 -25 -25 -11 -47 -22 -50 -25 -3 -4 -26
-15 -52 -26 -27 -10 -48 -22 -48 -26 0 -5 -6 -8 -12 -8 -11 0 -73 -27 -151
-66 -16 -8 -35 -14 -43 -14 -8 0 -14 -4 -14 -10 0 -5 -7 -10 -15 -10 -8 0 -40
-12 -72 -26 -32 -15 -74 -33 -93 -41 -19 -8 -44 -18 -55 -23 -11 -5 -42 -16
-70 -26 -27 -9 -54 -21 -60 -26 -5 -4 -16 -8 -25 -8 -10 0 -32 -8 -50 -17 -44
-21 -105 -21 -155 1 -22 10 -49 21 -60 26 -146 55 -322 126 -330 132 -5 4 -17
8 -27 8 -10 0 -18 5 -18 10 0 6 -7 10 -16 10 -9 0 -28 6 -42 14 -65 34 -138
66 -150 66 -6 0 -12 3 -12 8 0 4 -21 16 -48 26 -26 11 -49 22 -52 26 -3 3 -25
14 -50 25 -25 11 -47 22 -50 25 -3 3 -30 18 -60 34 -143 74 -205 109 -208 117
-2 5 -8 9 -13 9 -9 0 -127 67 -155 87 -26 20 -50 34 -66 39 -10 4 -18 10 -18
15 0 5 -6 9 -14 9 -8 0 -16 3 -18 8 -1 4 -28 23 -58 42 -30 19 -57 37 -60 40
-3 3 -48 37 -100 75 -52 38 -96 72 -98 77 -2 4 -10 8 -17 8 -7 0 -15 3 -17 8
-1 4 -23 23 -48 42 -25 19 -47 37 -50 40 -3 3 -23 20 -45 38 -178 150 -495
466 -562 563 -10 13 -27 33 -38 44 -11 11 -40 47 -65 80 -24 33 -52 69 -62 79
-10 11 -20 28 -24 38 -3 10 -9 18 -13 18 -4 0 -16 16 -27 35 -10 19 -22 35
-26 35 -5 0 -8 6 -8 14 0 8 -4 16 -8 18 -8 3 -142 214 -142 223 0 3 -15 29
-33 58 -18 29 -41 71 -52 94 -11 24 -23 43 -27 43 -5 0 -8 4 -8 9 0 5 -13 38
-29 73 -16 35 -45 98 -65 141 -20 43 -36 85 -36 93 0 8 -4 14 -9 14 -5 0 -11
13 -14 29 -4 16 -15 49 -25 73 -29 65 -52 132 -52 151 0 9 -3 17 -8 17 -4 0
-13 21 -20 48 -7 26 -16 61 -21 77 -32 107 -42 144 -48 178 -3 21 -10 40 -14
43 -5 3 -9 17 -9 31 0 14 -6 48 -14 76 -20 75 -33 139 -51 252 -9 55 -20 123
-25 150 -10 58 -35 332 -50 550 -6 92 -10 744 -10 1691 l0 1542 23 7 c12 4 49
11 82 15 33 4 114 16 180 25 66 9 152 21 190 25 39 5 131 16 205 25 74 9 171
20 215 25 44 4 134 13 200 19 66 6 150 16 188 21 37 6 92 10 121 10 30 0 88 4
128 10 252 34 1734 93 2108 84 96 -3 380 -9 630 -14z"/>
<path d="M3490 7989 c-467 -16 -988 -44 -1098 -59 -40 -5 -106 -10 -147 -10
-41 0 -94 -4 -117 -10 -24 -5 -104 -14 -178 -21 -224 -19 -306 -27 -520 -54
-63 -8 -133 -17 -155 -19 -22 -3 -92 -12 -155 -21 -63 -9 -133 -18 -155 -21
-22 -3 -50 -7 -63 -10 l-22 -4 3 -1578 c3 -947 8 -1625 14 -1697 12 -137 30
-287 43 -360 5 -27 16 -93 25 -145 9 -52 20 -111 25 -130 5 -19 16 -66 25
-105 18 -79 34 -138 45 -175 5 -14 16 -52 25 -85 17 -60 53 -165 82 -240 8
-22 19 -49 23 -60 4 -11 15 -37 24 -58 9 -21 16 -44 16 -52 0 -8 5 -15 10 -15
6 0 10 -6 10 -14 0 -7 11 -34 25 -60 14 -26 25 -51 25 -57 0 -5 11 -27 25 -49
14 -22 25 -46 25 -54 0 -8 3 -16 8 -18 4 -1 16 -21 27 -43 11 -22 41 -75 67
-117 27 -43 48 -80 48 -83 0 -11 241 -359 260 -375 3 -3 21 -25 40 -50 19 -25
49 -60 67 -77 18 -18 33 -35 33 -38 0 -10 237 -250 319 -323 35 -31 76 -69 91
-83 16 -15 46 -40 67 -55 21 -16 47 -38 58 -49 11 -11 63 -51 115 -89 52 -38
97 -73 98 -77 2 -5 10 -9 18 -9 8 0 14 -3 14 -8 0 -4 16 -16 35 -26 19 -11 35
-22 35 -25 0 -4 17 -15 38 -26 20 -11 39 -22 42 -26 8 -8 191 -122 220 -135 8
-4 17 -10 20 -13 5 -6 40 -26 125 -70 28 -14 52 -28 55 -31 6 -7 334 -169 423
-209 38 -17 75 -31 83 -31 8 0 14 -4 14 -10 0 -5 6 -10 14 -10 7 0 27 -7 42
-15 16 -8 37 -15 47 -15 9 0 17 -4 17 -10 0 -5 9 -10 19 -10 11 0 22 -4 26 -9
3 -5 20 -13 37 -17 18 -3 39 -10 48 -14 40 -21 90 -40 103 -40 9 0 19 -5 22
-10 3 -6 30 -10 60 -10 30 0 57 4 60 10 3 5 14 10 23 10 9 0 30 7 46 15 15 8
35 15 42 15 8 0 14 5 14 10 0 6 10 10 23 10 12 0 35 7 51 15 15 8 35 15 42 15
8 0 14 5 14 10 0 6 8 10 18 10 9 0 30 7 46 15 15 8 35 15 42 15 8 0 14 5 14
10 0 6 7 10 15 10 21 0 489 222 505 240 3 3 28 17 55 31 88 46 120 64 125 70
3 4 15 9 28 13 12 4 22 12 22 17 0 5 4 9 9 9 12 0 249 148 275 172 11 10 28
20 38 24 10 3 18 10 18 15 0 5 6 9 14 9 8 0 16 4 18 8 2 5 30 28 63 53 58 42
67 49 99 77 8 6 18 12 21 12 3 0 16 10 28 23 12 12 39 35 60 51 21 15 51 40
66 55 15 14 56 51 92 82 35 31 105 98 154 149 50 51 107 110 128 132 20 21 37
41 37 44 0 3 17 23 38 44 20 21 48 53 62 71 14 18 30 37 35 43 6 6 41 54 79
106 38 52 73 97 77 98 5 2 9 8 9 14 0 5 11 24 25 42 14 18 25 36 25 40 0 4 11
22 25 40 14 18 25 35 25 39 0 3 22 41 48 84 26 43 56 96 67 118 11 22 22 42
25 45 9 9 87 175 122 260 5 14 16 39 23 55 84 202 140 372 189 580 15 61 31
126 36 145 5 19 16 78 25 130 9 52 21 118 25 145 12 69 38 299 47 420 4 55 8
802 8 1660 l0 1560 -40 2 c-22 2 -67 8 -100 14 -33 6 -94 15 -135 20 -88 10
-132 16 -220 29 -36 6 -114 15 -175 21 -60 6 -141 15 -180 19 -38 4 -135 13
-215 19 -80 7 -164 16 -188 21 -23 6 -73 10 -110 10 -37 0 -105 5 -152 10
-147 17 -577 40 -1125 59 -336 12 -1037 11 -1395 0z m715 -278 l0 -74 -107 2
-108 2 0 -285 0 -286 -90 0 -90 0 0 280 0 280 -110 0 -110 0 0 75 0 75 213 3
c116 1 255 3 307 2 l95 0 0 -74z m478 -75 c4 -77 8 -141 10 -142 1 -1 67 -3
147 -5 l145 -4 3 143 3 142 84 0 85 0 0 -360 0 -360 -85 0 -85 0 0 140 c0 164
20 146 -172 154 -152 7 -143 17 -133 -155 l7 -119 -91 0 -91 0 0 354 c0 224 4
356 10 358 5 2 42 1 82 -2 l73 -5 8 -139z m-1211 122 c27 -12 28 -16 28 -85 0
-71 -1 -73 -24 -73 -14 0 -28 5 -31 10 -3 6 -42 10 -87 10 -65 0 -85 -4 -109
-21 -16 -11 -29 -26 -29 -33 0 -27 63 -67 152 -97 143 -47 177 -72 206 -149
28 -77 -27 -191 -114 -235 -22 -11 -42 -24 -46 -30 -13 -18 -218 -10 -273 10
-74 27 -75 29 -75 111 0 73 9 89 35 65 42 -37 221 -54 263 -25 27 19 29 55 3
78 -26 24 -92 56 -113 56 -10 0 -26 4 -36 9 -9 5 -37 17 -62 27 -98 38 -139
112 -118 210 16 75 115 160 208 178 44 8 194 -2 222 -16z m-496 -45 c-3 -21
-6 -54 -6 -74 l0 -36 -135 -7 c-74 -3 -141 -9 -150 -12 -11 -5 -15 -22 -15
-71 l0 -66 48 7 c26 4 82 9 125 13 l77 6 0 -77 0 -76 -61 0 c-34 0 -90 -5
-125 -12 l-64 -11 0 -64 0 -64 160 7 160 7 0 -65 c0 -41 -5 -69 -12 -75 -7 -6
-103 -15 -213 -22 -110 -6 -215 -14 -232 -17 l-33 -6 0 360 0 360 73 7 c39 3
108 10 152 14 44 5 120 9 169 10 l89 1 -7 -37z m2697 21 c9 -3 17 -15 17 -25
0 -11 4 -27 9 -37 6 -9 17 -42 26 -72 9 -30 20 -64 24 -75 5 -11 16 -47 26
-80 9 -33 21 -69 25 -80 5 -11 20 -60 35 -110 15 -49 33 -107 41 -128 8 -20
14 -46 14 -57 0 -11 5 -20 10 -20 6 0 10 -11 10 -25 0 -29 -20 -31 -115 -12
l-59 13 -14 49 c-26 90 -28 92 -94 99 -34 3 -90 6 -124 6 -53 0 -64 -3 -64
-17 0 -9 -8 -40 -17 -70 -19 -59 -16 -59 -131 -47 -60 7 -62 7 -56 33 3 14 9
35 14 46 5 11 16 47 25 80 9 33 21 69 25 80 5 11 16 47 25 80 9 33 20 69 25
80 4 11 14 43 23 70 8 28 28 92 43 144 l29 93 106 -5 c58 -4 113 -9 122 -13z
m-3253 -31 c0 -9 -4 -30 -10 -47 -8 -27 -33 -124 -60 -236 -5 -19 -16 -64 -25
-100 -9 -36 -20 -81 -24 -100 -5 -19 -16 -64 -26 -100 -9 -36 -19 -79 -22 -97
-3 -17 -11 -34 -18 -37 -7 -2 -56 -8 -109 -12 l-95 -7 -6 29 c-3 16 -10 45
-15 64 -5 19 -11 49 -14 65 -7 41 -33 162 -44 205 -6 23 -11 30 -15 20 -10
-28 -34 -142 -57 -280 -19 -113 -21 -115 -103 -129 -147 -25 -139 -28 -156 49
-6 30 -16 71 -21 90 -26 101 -42 168 -46 195 -3 17 -9 39 -14 50 -5 11 -14 43
-20 70 -12 52 -21 92 -39 160 -16 60 -15 62 42 69 28 3 68 9 88 12 34 6 36 5
44 -27 11 -53 35 -170 44 -219 5 -25 13 -67 19 -95 6 -27 14 -67 17 -89 4 -27
10 -35 17 -28 9 9 31 104 44 192 3 19 9 44 14 55 5 11 14 47 20 80 32 171 25
162 119 166 l75 4 9 -35 c4 -19 12 -55 17 -80 5 -25 16 -76 25 -115 25 -109
36 -157 42 -192 8 -48 30 -41 36 10 2 23 12 74 22 112 9 39 21 90 26 115 4 25
12 65 18 90 5 25 12 62 16 83 7 34 10 37 44 38 20 0 45 4 56 9 36 16 85 12 85
-7z m3873 -25 c9 -9 17 -23 17 -30 1 -17 35 -116 44 -125 3 -3 6 -17 6 -29 0
-13 4 -25 9 -28 5 -3 12 -22 16 -42 3 -20 10 -44 14 -53 11 -22 32 -81 38
-108 8 -35 20 -28 38 25 10 26 21 56 25 67 5 11 20 54 35 95 14 41 30 83 36
92 5 10 9 23 9 29 0 6 8 27 17 46 l17 36 82 -7 c45 -3 89 -9 97 -12 8 -3 17
-22 20 -42 3 -20 13 -77 22 -127 9 -49 21 -115 25 -145 5 -30 16 -95 25 -145
21 -112 34 -189 42 -239 l5 -39 -33 7 c-19 4 -57 9 -86 12 -34 4 -54 12 -58
23 -7 17 -31 190 -45 321 -5 47 -12 96 -16 109 l-7 23 -13 -23 c-7 -13 -13
-34 -14 -46 0 -12 -4 -24 -9 -27 -5 -4 -12 -24 -16 -46 -4 -22 -11 -42 -16
-46 -5 -3 -9 -15 -9 -28 0 -12 -3 -26 -6 -29 -10 -10 -43 -109 -44 -129 0 -10
-4 -18 -10 -18 -5 0 -10 -11 -10 -25 0 -22 -4 -25 -34 -25 -19 0 -57 5 -85 12
-43 10 -52 16 -57 37 -3 14 -9 35 -14 46 -22 55 -40 113 -40 131 0 11 -4 24
-8 30 -4 5 -16 36 -26 69 -10 33 -22 68 -27 77 -5 10 -9 26 -9 36 0 10 -7 27
-15 38 -13 18 -14 16 -15 -20 0 -22 -5 -65 -10 -95 -6 -31 -18 -117 -28 -191
-16 -124 -19 -135 -37 -132 -11 1 -50 5 -87 9 -76 7 -73 2 -57 93 6 30 14 80
19 110 4 30 16 98 25 150 9 52 21 115 25 140 4 25 14 83 21 128 l13 84 91 -4
c69 -2 96 -7 108 -20z m-2255 -997 l-3 -276 -67 -3 -66 -3 -4 58 c-2 32 -5
160 -7 285 l-2 227 63 3 c35 2 69 -1 76 -6 9 -7 12 -71 10 -285z m373 289
l229 0 0 -60 0 -60 -90 0 -90 0 -2 -222 -3 -223 -67 -3 -68 -3 0 226 0 225
-90 0 -90 0 0 58 c0 62 6 76 28 67 7 -3 117 -5 243 -5z m-621 -285 l0 -285
-83 0 c-87 0 -90 1 -113 63 -3 9 -10 17 -15 17 -5 0 -9 6 -10 13 -1 20 -144
240 -154 237 -6 -1 -9 -5 -9 -8 1 -4 5 -77 9 -162 8 -183 9 -183 -82 -178
l-58 3 -3 281 -2 281 72 5 c40 3 77 4 83 1 5 -2 35 -45 65 -95 30 -50 60 -96
65 -102 14 -16 55 -88 62 -108 3 -9 11 -19 19 -22 12 -4 14 24 14 169 l0 175
70 0 70 0 0 -285z m1268 269 l72 -7 0 -46 c0 -25 -4 -51 -8 -57 -5 -7 -31 -8
-82 -3 -41 4 -92 8 -112 8 l-38 1 0 -54 0 -53 38 -7 c20 -3 66 -6 101 -6 l64
0 -7 -37 c-3 -21 -6 -46 -6 -55 0 -16 -11 -18 -95 -18 l-95 0 0 -54 0 -54 125
-7 125 -7 0 -48 c0 -72 -7 -75 -158 -61 -70 6 -153 11 -184 11 l-58 0 0 259
c0 154 4 271 10 287 l11 27 112 -6 c62 -4 145 -10 185 -13z m-1899 -201 c8
-138 9 -199 2 -201 -6 -2 -11 -13 -11 -24 0 -28 -32 -77 -73 -115 -37 -34
-123 -63 -184 -63 -78 0 -174 54 -206 116 -17 33 -41 296 -35 389 l3 60 63 5
c38 3 66 1 70 -5 4 -5 8 -94 10 -197 3 -104 8 -188 13 -188 5 0 9 -7 9 -15 0
-8 7 -15 15 -15 8 0 15 -4 15 -10 0 -14 96 -12 122 3 46 25 47 32 48 250 l0
207 63 0 63 0 13 -197z m2333 178 c107 -14 197 -78 231 -161 48 -117 47 -155
-2 -259 -20 -43 -89 -111 -112 -111 -9 0 -19 -6 -22 -12 -3 -10 -46 -13 -175
-12 -95 0 -174 3 -177 5 -3 3 -2 133 2 288 l6 284 91 -6 c50 -3 121 -10 158
-16z m-2550 -828 c208 -195 298 -295 298 -330 0 -18 -22 -51 -65 -99 -40 -45
-74 -83 -93 -108 -29 -38 -120 -142 -154 -178 -16 -16 -28 -33 -28 -39 0 -11
175 -186 421 -421 90 -86 259 -250 376 -365 322 -317 505 -493 513 -493 3 0
112 104 241 231 129 126 293 286 365 355 72 68 235 226 362 352 127 125 258
253 292 285 l61 58 -44 42 c-24 24 -50 52 -58 63 -15 22 -95 115 -143 168 -16
17 -41 47 -55 66 -14 19 -32 41 -40 49 -8 9 -11 27 -8 48 5 27 35 62 150 176
201 199 209 205 242 175 7 -7 70 -67 140 -133 70 -66 215 -207 323 -313 l197
-193 0 -155 c0 -101 4 -157 11 -162 6 -4 31 -38 55 -77 23 -38 46 -72 50 -75
3 -3 9 -15 13 -27 4 -13 12 -23 17 -23 5 0 9 -5 9 -10 0 -12 52 -94 63 -98 4
-2 7 -8 7 -14 0 -6 10 -25 23 -42 12 -17 31 -48 42 -68 11 -21 22 -38 26 -38
9 0 18 -65 12 -88 -3 -11 -15 -23 -26 -26 -25 -6 -97 13 -97 26 0 4 -5 8 -10
8 -6 0 -16 5 -23 10 -23 19 -198 140 -203 140 -3 0 -10 5 -17 10 -7 6 -30 24
-52 40 -22 16 -44 33 -50 37 -5 5 -23 17 -40 27 -16 11 -38 28 -49 38 -11 10
-23 18 -26 18 -4 0 -16 8 -28 18 -11 9 -40 33 -63 52 -45 38 -51 43 -91 79
l-27 23 -135 -136 c-75 -75 -136 -138 -136 -140 0 -1 -96 -100 -212 -218 -117
-119 -273 -278 -347 -354 -73 -77 -205 -212 -293 -301 -107 -109 -157 -167
-152 -175 5 -7 48 -51 97 -98 49 -47 187 -182 307 -300 119 -118 266 -262 326
-319 167 -160 638 -618 810 -788 96 -95 154 -160 154 -172 0 -44 -28 -88 -110
-172 -107 -109 -178 -135 -230 -85 -14 13 -153 155 -310 315 -157 161 -359
368 -450 460 -91 93 -259 266 -375 385 -115 120 -275 283 -354 363 l-143 146
-132 -136 c-152 -157 -554 -570 -869 -890 -120 -122 -289 -296 -375 -386 -283
-294 -268 -281 -318 -281 -24 0 -44 5 -44 10 0 6 -7 10 -15 10 -19 0 -127 101
-171 161 -19 27 -38 65 -41 84 -6 37 -6 37 238 276 134 132 317 310 406 395
90 86 272 263 405 395 133 131 243 239 245 239 1 0 54 51 116 113 63 61 154
149 202 195 l87 84 -24 26 c-28 32 -259 269 -510 525 -104 104 -188 191 -188
193 0 10 -557 564 -566 564 -7 0 -30 -17 -52 -37 -21 -21 -56 -51 -78 -68 -43
-33 -48 -37 -83 -65 -13 -11 -27 -20 -30 -20 -3 0 -22 -14 -41 -30 -19 -17
-43 -33 -52 -36 -10 -3 -18 -10 -18 -15 0 -5 -7 -9 -15 -9 -8 0 -15 -3 -15 -8
0 -4 -16 -16 -35 -26 -19 -11 -35 -23 -35 -28 0 -4 -5 -8 -10 -8 -6 0 -35 -18
-65 -40 -30 -22 -59 -40 -65 -40 -5 0 -10 -4 -10 -8 0 -5 -16 -17 -35 -28 -19
-10 -35 -21 -35 -25 0 -3 -19 -11 -42 -18 -58 -18 -88 -1 -87 48 0 20 9 50 20
66 10 17 22 37 26 45 3 8 10 17 13 20 4 3 27 37 50 75 23 39 46 72 50 75 4 3
10 15 14 28 4 12 12 22 17 22 5 0 9 6 9 14 0 8 3 16 8 18 17 7 112 170 128
221 16 51 16 59 0 140 -21 105 -16 118 80 209 37 35 104 99 149 143 45 44 158
152 250 240 92 88 172 165 178 172 22 22 48 13 99 -34z m258 -4272 c0 -5 9
-11 20 -14 21 -5 28 -41 10 -52 -5 -3 -10 -15 -10 -26 0 -10 -4 -19 -9 -19 -5
0 -12 -11 -15 -25 -4 -14 -20 -55 -36 -91 -29 -63 -31 -84 -8 -84 24 0 118
-53 113 -64 -3 -6 -8 -19 -11 -28 -9 -26 -26 -27 -69 -7 -21 10 -45 19 -52 19
-7 0 -13 4 -13 10 0 5 -16 12 -35 16 -19 3 -35 10 -35 15 0 5 -7 9 -15 9 -22
0 -19 27 10 87 25 53 58 125 89 195 9 20 16 43 16 52 0 10 9 16 25 16 14 0 25
-4 25 -9z m2095 -39 c9 -20 22 -50 30 -67 7 -16 19 -46 25 -65 13 -36 33 -83
55 -134 18 -41 10 -54 -41 -62 -46 -7 -47 -6 -217 132 -11 9 -22 12 -25 8 -4
-4 -1 -9 6 -11 6 -3 12 -16 12 -29 0 -13 4 -24 10 -24 5 0 12 -16 16 -35 3
-19 10 -38 15 -41 5 -3 9 -14 9 -25 0 -10 4 -19 10 -19 5 0 7 -7 4 -15 -4 -8
-15 -15 -25 -15 -10 0 -19 -4 -19 -10 0 -5 -8 -10 -17 -10 -18 0 -53 50 -53
76 0 8 -4 22 -10 32 -5 9 -16 34 -25 55 -8 20 -22 54 -30 75 -9 20 -20 45 -25
54 -16 29 -11 54 13 65 42 21 56 22 71 8 8 -8 18 -15 23 -15 4 0 19 -10 33
-23 14 -12 45 -38 70 -57 25 -19 47 -38 48 -42 2 -5 7 -8 12 -8 4 0 3 16 -3
35 -6 19 -14 35 -19 35 -4 0 -8 9 -8 19 0 11 -8 34 -17 53 -34 68 -34 67 -14
78 11 5 27 10 35 10 9 0 16 5 16 11 0 19 19 -2 35 -39z m-1657 -119 c43 -28
70 -63 87 -115 13 -41 14 -56 3 -91 -21 -74 -46 -106 -107 -138 -88 -45 -214
-4 -262 85 -40 76 -15 203 49 243 15 10 29 21 32 24 17 24 157 18 198 -8z
m1231 -19 c96 -38 148 -165 105 -255 -29 -59 -85 -104 -147 -118 -40 -9 -62
-9 -76 -2 -11 6 -27 11 -36 11 -24 0 -84 60 -106 104 -20 42 -27 146 -9 146 6
0 10 6 10 14 0 22 63 84 101 100 45 20 109 20 158 0z m-979 -34 c19 0 28 -8
38 -32 8 -18 26 -60 42 -93 15 -33 31 -70 35 -83 13 -43 21 -14 33 118 l7 75
36 3 c51 4 65 -15 50 -72 -6 -25 -11 -69 -11 -98 0 -29 -5 -90 -12 -135 l-11
-83 -35 0 c-39 0 -72 23 -72 52 0 10 -4 18 -8 18 -4 0 -16 23 -27 50 -11 28
-23 50 -27 50 -4 0 -8 10 -8 23 0 12 -7 30 -14 40 -12 15 -14 10 -19 -45 -3
-35 -9 -87 -13 -116 l-7 -52 -36 6 c-20 4 -39 8 -43 11 -7 4 -6 19 12 203 17
165 19 173 44 166 11 -3 32 -6 46 -6z m529 -23 c85 -26 121 -84 121 -194 0
-73 0 -74 -42 -116 -49 -48 -110 -67 -216 -67 l-62 0 0 68 c0 38 -3 123 -7
190 l-6 121 54 4 c30 2 68 4 84 5 17 1 50 -4 74 -11z"/>
<path d="M5560 7545 c0 -14 -4 -25 -10 -25 -5 0 -10 -10 -10 -22 0 -12 -12
-55 -26 -96 -14 -41 -23 -76 -21 -78 3 -3 38 -4 79 -2 l75 3 -19 70 c-11 39
-24 78 -29 87 -5 10 -9 26 -9 37 0 26 -10 51 -21 51 -5 0 -9 -11 -9 -25z"/>
<path d="M5376 6798 c-10 -40 -7 -296 4 -303 21 -13 117 -18 124 -6 4 6 15 11
25 11 18 0 46 28 69 67 6 13 12 48 12 78 0 107 -68 175 -175 175 -46 0 -53 -3
-59 -22z"/>
<path d="M2518 5503 c-91 -93 -102 -113 -87 -146 18 -39 53 -54 86 -36 36 19
166 156 174 182 3 12 -1 34 -10 50 -12 21 -23 27 -51 27 -31 0 -45 -10 -112
-77z m102 33 c0 -7 7 -19 15 -26 8 -7 15 -19 15 -26 0 -8 -6 -11 -15 -8 -10 4
-15 0 -15 -11 0 -9 -3 -15 -7 -13 -49 23 -63 32 -63 39 0 4 12 7 28 6 24 -2
27 1 25 26 -1 15 2 27 8 27 5 0 9 -6 9 -14z m-40 -132 c0 -10 -11 -2 -35 23
-14 15 -25 32 -25 38 0 5 14 -5 30 -24 17 -18 30 -35 30 -37z m-51 -38 c-8 -8
-59 40 -59 55 0 8 14 0 32 -18 18 -18 30 -35 27 -37z"/>
<path d="M5735 5550 c-9 -17 -13 -39 -10 -49 7 -23 145 -162 177 -180 21 -10
30 -11 49 -1 31 17 39 29 39 62 0 21 -20 48 -84 113 -74 75 -88 85 -120 85
-29 0 -38 -5 -51 -30z m105 -13 c0 -8 -11 -20 -25 -27 -14 -7 -25 -17 -25 -22
0 -4 -5 -8 -10 -8 -6 0 2 16 17 35 30 37 43 44 43 22z m28 -65 c-25 -33 -38
-44 -48 -40 -5 2 3 17 18 35 27 31 54 36 30 5z m42 -27 c0 -8 -4 -15 -10 -15
-5 0 -10 7 -10 15 0 8 5 15 10 15 6 0 10 -7 10 -15z m0 -37 c0 -6 11 -7 26 -4
24 6 25 5 11 -9 -9 -8 -20 -15 -26 -15 -6 0 -11 -4 -11 -10 0 -5 -4 -10 -10
-10 -5 0 -10 7 -10 15 0 9 -6 12 -15 9 -18 -7 -20 17 -4 33 13 13 39 6 39 -9z"/>
<path d="M3490 1602 c-41 -20 -65 -77 -55 -129 7 -39 60 -83 98 -83 41 0 107
70 107 113 0 48 -20 85 -57 102 -40 19 -50 19 -93 -3z"/>
<path d="M4744 1576 c-44 -24 -54 -43 -54 -99 0 -47 4 -57 30 -81 41 -36 82
-43 117 -20 43 27 52 45 53 95 0 46 -11 64 -64 107 -18 15 -54 14 -82 -2z"/>
<path d="M4307 1418 c3 -57 9 -107 14 -112 11 -12 87 10 108 32 11 11 16 34
16 78 0 79 -23 104 -96 104 l-48 0 6 -102z"/>
</g>
</svg>
